<svg width="32" height="33" viewBox="0 0 32 33" fill="none" xmlns="http://www.w3.org/2000/svg">
<path fill-rule="evenodd" clip-rule="evenodd" d="M15.9067 32.1199C24.6549 32.1199 31.7467 25.0282 31.7467 16.2799C31.7467 7.53173 24.6549 0.439941 15.9067 0.439941C7.15849 0.439941 0.0666962 7.53173 0.0666962 16.2799C0.0666962 25.0282 7.15849 32.1199 15.9067 32.1199ZM20.8482 7.81886C21.0888 6.96451 20.2596 6.45921 19.5024 6.99871L8.93162 14.5293C8.11039 15.1143 8.23956 16.2799 9.12566 16.2799H11.9093V16.2584H17.3343L12.9139 17.8181L10.9652 24.741C10.7246 25.5954 11.5537 26.1007 12.311 25.5612L22.8818 18.0306C23.703 17.4456 23.5738 16.2799 22.6877 16.2799H18.4665L20.8482 7.81886Z" fill="#223043"/>
</svg>
