<svg width="318" height="318" viewBox="0 0 318 318" fill="none" xmlns="http://www.w3.org/2000/svg">
<path d="M84.4655 196.643C85.7839 197.366 86.9057 198.54 87.8307 200.165C89.3535 202.839 89.6745 205.556 88.7938 208.318C87.9455 211.157 85.9061 213.497 82.6756 215.337C79.4086 217.197 76.2776 217.79 73.2826 217.115C70.2876 216.44 67.9482 214.624 66.2644 211.667C64.8041 209.102 64.2846 206.673 64.7061 204.378C65.1133 202.08 66.2238 200.263 68.0377 198.928L70.3997 203.076C69.2036 204.18 68.6852 205.508 68.8444 207.061C68.9383 207.926 69.2268 208.783 69.7101 209.632C70.6352 211.256 72.0126 212.243 73.8422 212.59C75.6575 212.934 77.7971 212.405 80.2611 211.002C82.7433 209.588 84.1778 208.022 84.5646 206.303C84.9514 204.584 84.7342 203.004 83.9131 201.562C83.1076 200.147 82.0415 199.22 80.7148 198.779C79.3789 198.343 77.9896 198.397 76.5469 198.941L79.2051 203.608L75.8377 205.526L71.0513 197.121L81.879 190.955L83.4693 193.748L81.1923 195.606C82.613 195.873 83.7041 196.218 84.4655 196.643Z" fill="#2D2F82"/>
<path d="M72.2977 175.758C73.3089 175.589 74.4492 175.814 75.7188 176.434C77.7285 177.388 79.0972 179.138 79.8249 181.682C80.4255 183.783 80.2789 185.829 79.3851 187.821C78.4912 189.814 76.5196 191.246 73.4703 192.118C70.6128 192.935 68.2153 192.84 66.2777 191.832C64.3373 190.814 63.0364 189.149 62.3751 186.837C61.9824 185.463 61.8861 184.153 62.0863 182.905C62.2865 181.657 62.8394 180.516 63.7451 179.481C64.5397 178.555 65.5558 177.811 66.7933 177.25C67.5188 176.922 68.5963 176.565 70.0258 176.178L73.2571 187.477C74.8956 186.942 75.9081 186.09 76.2944 184.92C76.538 184.206 76.54 183.43 76.3003 182.592C76.0462 181.703 75.5873 181.054 74.9236 180.643C74.5644 180.418 74.1092 180.259 73.5581 180.165L72.2977 175.758ZM68.4605 181.475C67.3398 181.872 66.5761 182.468 66.1695 183.261C65.7499 184.047 65.6715 184.9 65.9343 185.819C66.2202 186.818 66.7555 187.506 67.5404 187.883C68.3223 188.249 69.2687 188.35 70.3794 188.185L68.4605 181.475Z" fill="#2D2F82"/>
<path d="M72.8755 164.657L76.2056 164.246L76.5439 166.347C76.8763 168.444 76.6888 169.927 75.9813 170.797C75.5322 171.36 74.7761 171.708 73.7129 171.839L63.2222 173.131L63.5151 175.508L60.3412 175.899L60.0484 173.522L55.2955 174.108L54.7522 169.699L59.5051 169.114L59.164 166.346L62.3378 165.955L62.6789 168.722L71.6843 167.613C72.3827 167.527 72.8095 167.384 72.9649 167.185C73.1098 166.987 73.1264 166.435 73.0147 165.528C72.998 165.393 72.9806 165.252 72.9626 165.106C72.9329 164.951 72.9039 164.801 72.8755 164.657Z" fill="#2D2F82"/>
<path d="M59.4002 147.834L76.5023 149.365L76.0964 153.899L58.9943 152.368L59.4002 147.834ZM53.234 147.282L57.3604 147.651L56.9546 152.186L52.8281 151.816L53.234 147.282Z" fill="#2D2F82"/>
<path d="M65.1762 134.664C64.8005 136.14 65.1687 137.312 66.2806 138.18C66.8696 138.634 67.678 138.991 68.7059 139.253L77.7128 141.545L76.6092 145.881L59.9999 141.653L61.0685 137.455L63.4958 138.073C62.7834 137.295 62.3024 136.609 62.0528 136.015C61.609 134.948 61.562 133.728 61.9118 132.354C62.3496 130.634 63.16 129.345 64.343 128.487C65.5184 127.615 67.1492 127.445 69.2356 127.976L80.4408 130.829L79.3061 135.286L69.1848 132.71C68.3095 132.487 67.608 132.433 67.0803 132.548C66.1166 132.758 65.4819 133.463 65.1762 134.664Z" fill="#2D2F82"/>
<path d="M86.5647 111.687L89.4734 113.36L88.4815 115.243C87.4877 117.119 86.4466 118.192 85.3582 118.462C84.6609 118.643 83.8479 118.466 82.9193 117.932L73.7562 112.663L72.5625 114.738L69.7904 113.144L70.984 111.069L66.8326 108.681L69.0471 104.83L73.1985 107.218L74.5884 104.801L77.3606 106.395L75.9707 108.812L83.8364 113.335C84.4464 113.686 84.8733 113.828 85.117 113.762C85.3517 113.691 85.6968 113.26 86.1522 112.468C86.2203 112.35 86.2909 112.227 86.3642 112.099C86.4337 111.957 86.5005 111.82 86.5647 111.687Z" fill="#2D2F82"/>
<path d="M87.1691 91.7206C89.4929 91.7544 91.6123 92.558 93.5272 94.1315C95.4745 95.7316 96.6819 97.6616 97.1492 99.9215C97.6085 102.175 96.9014 104.441 95.0279 106.721C93.1544 109.001 91.0679 110.134 88.7684 110.121C86.4608 110.1 84.3334 109.29 82.3861 107.69C80.4712 106.116 79.2719 104.193 78.7883 101.92C78.3047 99.6467 78.9997 97.3701 80.8732 95.0901C82.7467 92.8101 84.8454 91.6869 87.1691 91.7206ZM83.7963 97.5125C82.9629 98.5267 82.6806 99.6064 82.9494 100.752C83.2167 101.882 84.0157 102.994 85.3464 104.087C86.677 105.181 87.9268 105.752 89.0956 105.802C90.2712 105.844 91.2756 105.357 92.109 104.343C92.9425 103.329 93.2215 102.253 92.946 101.116C92.6706 99.9792 91.8675 98.864 90.5369 97.7706C89.2062 96.6771 87.9605 96.1088 86.7997 96.0658C85.6309 96.016 84.6298 96.4982 83.7963 97.5125Z" fill="#2D2F82"/>
<path d="M108.508 89.7425C108.507 89.8097 108.521 89.9985 108.551 90.3088C108.58 90.6191 108.565 90.9241 108.507 91.2236C108.341 92.1535 108.069 92.9133 107.69 93.503C107.32 94.0862 106.787 94.6497 106.093 95.1934C104.091 96.7598 102.18 97.0954 100.359 96.2002C99.3491 95.7105 98.2388 94.6924 97.0284 93.1459L90.6495 84.9959L94.2717 82.1608L100.651 90.3108C101.253 91.0799 101.797 91.5876 102.283 91.8339C103.143 92.2679 104.044 92.1159 104.987 91.378C106.194 90.433 106.639 89.2978 106.322 87.9724C106.139 87.2619 105.708 86.4725 105.028 85.6041L99.2708 78.248L102.856 75.4421L113.439 88.9634L110.003 91.6528L108.508 89.7425Z" fill="#2D2F82"/>
<path d="M124.666 70.8221L120.537 72.8493C120.179 72.3113 119.731 71.8877 119.193 71.5785C118.435 71.1785 117.58 71.2122 116.628 71.6797C115.271 72.3462 114.673 73.4761 114.835 75.0694C114.923 75.9155 115.259 76.9324 115.842 78.1202C116.397 79.2514 116.976 80.0963 117.578 80.6549C118.688 81.7009 119.908 81.8976 121.237 81.245C122.18 80.7822 122.724 80.199 122.87 79.4956C123.016 78.7921 122.932 78.0142 122.619 77.1619L126.734 75.1416C127.241 76.4133 127.368 77.7904 127.113 79.2727C126.715 81.6557 125.276 83.4559 122.797 84.6731C120.318 85.8904 118.133 86.0507 116.242 85.154C114.351 84.2573 112.829 82.6354 111.677 80.2881C110.376 77.6391 110.011 75.2623 110.58 73.1576C111.149 71.0529 112.57 69.4428 114.842 68.3274C116.775 67.3786 118.566 67.037 120.218 67.3025C121.878 67.5635 123.361 68.7367 124.666 70.8221Z" fill="#2D2F82"/>
<path d="M143.576 66.613L146.02 76.3939L141.573 77.5054L139.041 67.373C138.817 66.4764 138.483 65.7912 138.04 65.3174C137.449 64.6424 136.598 64.4437 135.488 64.7212C134.336 65.009 133.557 65.6151 133.149 66.5397C132.749 67.4515 132.728 68.6206 133.084 70.047L135.338 79.0638L130.997 80.1485L125.386 57.6982L129.727 56.6135L131.717 64.5758C132.106 63.45 132.667 62.5955 133.398 62.0123C134.137 61.4163 134.964 61.0037 135.881 60.7746C136.91 60.5174 137.887 60.4627 138.812 60.6105C139.747 60.7557 140.576 61.1277 141.299 61.7263C141.913 62.2332 142.353 62.805 142.621 63.4418C142.886 64.0684 143.204 65.1255 143.576 66.613Z" fill="#2D2F82"/>
<path d="M164.101 76.4296C161.76 76.2029 159.997 75.3358 158.814 73.8285C157.63 72.3211 157.12 70.726 157.283 69.0431C157.418 67.6528 157.878 66.4946 158.664 65.5684C159.45 64.6422 160.674 63.7689 162.336 62.9487L162.851 62.6978C162.255 61.8804 161.812 61.062 161.522 60.2426C161.232 59.4232 161.128 58.5902 161.21 57.7435C161.373 56.0606 162.065 54.8034 163.285 53.972C164.506 53.1301 166.015 52.7962 167.813 52.9703C169.454 53.1293 170.761 53.7464 171.733 54.8218C172.716 55.8877 173.135 57.1733 172.99 58.6785C172.858 60.0374 172.427 61.1088 171.697 61.8927C170.977 62.6777 169.961 63.3705 168.647 63.9713L171.532 68.334C171.961 67.8269 172.306 67.2641 172.566 66.6457C172.837 66.0283 173.012 65.3648 173.091 64.655L177.058 65.0391C176.86 66.4338 176.388 67.8177 175.643 69.1911C175.231 69.9636 174.601 70.7994 173.754 71.6987L177.468 77.1544L172.042 76.629L170.633 74.5142C169.79 75.1605 169.017 75.6238 168.314 75.9039C167.063 76.4052 165.659 76.5805 164.101 76.4296ZM164.88 65.7747C163.689 66.4085 162.884 66.99 162.463 67.519C162.053 68.049 161.815 68.6538 161.75 69.3332C161.676 70.0963 161.916 70.8265 162.471 71.5239C163.037 72.2222 163.805 72.6185 164.778 72.7126C165.509 72.7835 166.215 72.6831 166.896 72.4113C167.588 72.1302 168.158 71.8003 168.606 71.4216L164.88 65.7747ZM165.333 57.9846C165.293 58.4027 165.397 58.8559 165.645 59.3441C165.804 59.6655 166.159 60.2433 166.711 61.0776C167.381 60.6993 167.867 60.3717 168.168 60.0949C168.745 59.5811 169.066 58.9949 169.129 58.3363C169.176 57.8555 169.061 57.4118 168.784 57.0051C168.506 56.5984 168.049 56.3642 167.411 56.3024C167.014 56.264 166.632 56.3378 166.266 56.5239C165.712 56.7973 165.401 57.2842 165.333 57.9846Z" fill="#2D2F82"/>
<path d="M195.941 59.1426L200.108 60.8121L191.474 82.3665L187.306 80.6971L195.941 59.1426Z" fill="#2D2F82"/>
<path d="M210.028 86.663C209.411 87.4816 208.429 88.103 207.081 88.5271C204.966 89.218 202.769 88.891 200.49 87.5461C198.609 86.436 197.306 84.8507 196.584 82.7902C195.861 80.7296 196.305 78.3336 197.917 75.6021C199.427 73.0425 201.232 71.4614 203.331 70.8588C205.44 70.2616 207.529 70.5741 209.6 71.7962C210.831 72.5221 211.802 73.4065 212.516 74.4495C213.23 75.4925 213.614 76.7009 213.669 78.0747C213.73 79.2936 213.505 80.5326 212.994 81.7918C212.693 82.5288 212.158 83.5297 211.387 84.7943L201.266 78.8222C200.445 80.3376 200.297 81.6525 200.822 82.7672C201.137 83.4529 201.67 84.0172 202.421 84.4602C203.216 84.9298 203.997 85.0853 204.761 84.9266C205.176 84.8425 205.616 84.6448 206.08 84.3334L210.028 86.663ZM208.876 79.8741C209.416 78.8147 209.56 77.8572 209.309 77.0018C209.072 76.1426 208.542 75.4701 207.719 74.9845C206.824 74.4561 205.962 74.3256 205.134 74.5928C204.314 74.8654 203.558 75.4437 202.866 76.3277L208.876 79.8741Z" fill="#2D2F82"/>
<path d="M217.129 95.0111L214.999 97.6035L213.306 96.3142C211.62 95.0242 210.734 93.8202 210.647 92.702C210.584 91.9844 210.893 91.2118 211.573 90.3842L218.283 82.2175L216.433 80.6974L218.464 78.2267L220.314 79.7468L223.354 76.0469L226.786 78.8672L223.746 82.5671L225.9 84.3373L223.87 86.808L221.716 85.0378L215.955 92.0482C215.508 92.5918 215.297 92.9893 215.322 93.2406C215.353 93.4837 215.722 93.8954 216.428 94.4754C216.533 94.5621 216.643 94.6521 216.756 94.7454C216.885 94.8373 217.009 94.9259 217.129 95.0111Z" fill="#2D2F82"/>
<path d="M233.644 88.1219C232.512 89.2325 231.348 89.8303 230.151 89.9154C228.962 90.008 227.781 89.6514 226.608 88.8455L227.789 87.6872C228.742 88.1939 229.632 88.3138 230.459 88.0469C230.936 87.8732 231.332 87.6097 231.647 87.2562L229.915 85.4908L232.872 82.5894L236.016 85.7942L233.644 88.1219Z" fill="#2D2F82"/>
<path d="M241.872 103.891C241.967 105.484 241.225 106.98 239.644 108.378L237.002 104.748C237.431 104.357 237.705 103.957 237.822 103.547C238.024 102.789 237.776 101.931 237.077 100.971C236.502 100.182 235.968 99.7069 235.474 99.5466C234.987 99.3947 234.578 99.4394 234.247 99.6804C233.831 99.9833 233.659 100.381 233.732 100.874C233.797 101.372 234.379 102.877 235.48 105.388C236.191 107.079 236.466 108.535 236.304 109.758C236.127 110.978 235.516 111.968 234.472 112.728C233.097 113.73 231.598 114.035 229.975 113.645C228.368 113.256 226.785 111.992 225.227 109.853C223.638 107.671 222.922 105.724 223.079 104.012C223.25 102.303 224.049 100.929 225.475 99.8904L228.155 103.571C227.565 104.117 227.227 104.616 227.141 105.069C226.985 105.871 227.349 106.879 228.233 108.093C228.752 108.806 229.269 109.294 229.784 109.555C230.306 109.825 230.778 109.806 231.203 109.496C231.61 109.2 231.797 108.804 231.762 108.31C231.727 107.816 231.174 106.29 230.103 103.731C229.35 101.876 229.031 100.412 229.147 99.3405C229.255 98.2749 229.852 97.3465 230.939 96.5552C232.221 95.6218 233.685 95.3222 235.331 95.6564C236.992 95.9928 238.487 97.0737 239.816 98.899C241.077 100.631 241.763 102.295 241.872 103.891Z" fill="#2D2F82"/>
<path d="M250.082 130.414C250.783 129.83 250.987 129.006 250.696 127.943C250.357 126.707 249.73 125.986 248.813 125.78C248.294 125.672 247.583 125.741 246.682 125.988L236.715 128.718L235.512 124.327L252.042 119.799L253.195 124.008L250.779 124.67C251.787 124.971 252.539 125.309 253.034 125.685C253.912 126.349 254.535 127.349 254.901 128.686C255.248 129.952 255.249 131.051 254.906 131.984C254.561 132.753 254.028 133.411 253.307 133.957C254.434 134.258 255.341 134.766 256.027 135.482C256.727 136.249 257.227 137.179 257.527 138.273C257.726 139.002 257.781 139.76 257.692 140.547C257.603 141.333 257.282 142.112 256.732 142.884C256.282 143.508 255.659 144.016 254.862 144.408C254.333 144.662 253.532 144.936 252.458 145.23L242.012 148.059L240.797 143.622L251.341 140.734C251.969 140.562 252.458 140.32 252.807 140.006C253.472 139.41 253.663 138.596 253.38 137.563C253.052 136.368 252.33 135.678 251.212 135.494C250.622 135.405 249.957 135.462 249.218 135.665L239.357 138.365L238.163 134.005L248.023 131.304C249.006 131.035 249.692 130.738 250.082 130.414Z" fill="#2D2F82"/>
<path d="M257.087 151.019C258.61 152.192 259.384 154.222 259.41 157.11C259.427 158.99 259.07 160.663 258.337 162.129C257.605 163.596 256.204 164.338 254.135 164.357L246.259 164.428C245.713 164.433 245.052 164.449 244.275 164.477C243.687 164.514 243.289 164.607 243.08 164.756C242.871 164.905 242.7 165.127 242.566 165.422L241.905 165.428L241.861 160.545C242.206 160.405 242.531 160.308 242.835 160.253C243.139 160.197 243.485 160.152 243.873 160.117C243.196 159.504 242.617 158.795 242.137 157.991C241.572 157.029 241.283 155.94 241.272 154.722C241.258 153.167 241.688 151.877 242.561 150.85C243.444 149.834 244.7 149.319 246.328 149.304C248.439 149.285 249.974 150.085 250.934 151.704C251.456 152.592 251.836 153.902 252.072 155.632L252.275 157.159C252.387 157.987 252.524 158.579 252.684 158.935C252.963 159.573 253.391 159.89 253.969 159.884C254.673 159.878 255.153 159.627 255.412 159.131C255.68 158.645 255.81 157.93 255.802 156.985C255.792 155.924 255.523 155.176 254.994 154.74C254.602 154.428 254.076 154.223 253.413 154.124L253.374 149.792C254.876 149.873 256.114 150.282 257.087 151.019ZM245.051 154.467C244.708 154.89 244.54 155.406 244.545 156.015C244.554 156.981 244.845 157.866 245.42 158.67C245.994 159.484 247.032 159.9 248.534 159.918L250.204 159.903C250.023 159.621 249.873 159.333 249.755 159.04C249.648 158.758 249.544 158.365 249.445 157.862L249.247 156.855C249.071 155.912 248.86 155.236 248.615 154.829C248.199 154.139 247.56 153.798 246.699 153.806C245.933 153.813 245.383 154.033 245.051 154.467Z" fill="#2D2F82"/>
<path d="M238.829 182.306L239.839 176.982L247.817 174.31L246.259 172.122L240.951 171.116L241.773 166.782L264.508 171.093L263.687 175.427L251.398 173.097L256.702 179.794L255.666 185.258L250.33 178.137L238.829 182.306Z" fill="#2D2F82"/>
<path d="M237.747 198.38C236.846 197.891 236.086 197.011 235.467 195.741C234.471 193.752 234.47 191.53 235.463 189.077C236.283 187.053 237.658 185.53 239.589 184.511C241.52 183.491 243.956 183.576 246.896 184.767C249.65 185.882 251.481 187.433 252.387 189.42C253.29 191.417 253.289 193.53 252.387 195.759C251.851 197.083 251.12 198.175 250.194 199.035C249.268 199.895 248.13 200.454 246.779 200.712C245.583 200.952 244.324 200.913 243.003 200.593C242.23 200.405 241.161 200.023 239.796 199.448L244.206 188.555C242.586 187.967 241.264 188.015 240.239 188.7C239.607 189.112 239.128 189.723 238.801 190.531C238.454 191.387 238.415 192.182 238.685 192.914C238.83 193.313 239.091 193.718 239.467 194.131L237.747 198.38ZM244.291 196.237C245.418 196.615 246.387 196.616 247.196 196.241C248.01 195.879 248.597 195.256 248.956 194.37C249.346 193.406 249.347 192.535 248.961 191.755C248.57 190.985 247.886 190.323 246.91 189.769L244.291 196.237Z" fill="#2D2F82"/>
<path d="M232.65 225.348C231.129 225.834 229.497 225.484 227.752 224.298L230.615 220.841C231.1 221.16 231.556 221.326 231.982 221.339C232.766 221.347 233.536 220.894 234.293 219.98C234.916 219.228 235.244 218.593 235.278 218.075C235.304 217.565 235.16 217.18 234.845 216.919C234.448 216.591 234.02 216.523 233.561 216.715C233.094 216.901 231.78 217.837 229.619 219.525C228.156 220.632 226.813 221.258 225.589 221.403C224.363 221.533 223.252 221.186 222.257 220.362C220.947 219.277 220.281 217.9 220.258 216.232C220.237 214.578 221.07 212.732 222.758 210.693C224.479 208.615 226.189 207.44 227.886 207.168C229.585 206.911 231.114 207.346 232.473 208.471L229.569 211.977C228.894 211.541 228.327 211.337 227.867 211.365C227.051 211.412 226.164 212.014 225.206 213.171C224.643 213.85 224.299 214.472 224.173 215.036C224.04 215.607 224.176 216.061 224.581 216.396C224.969 216.717 225.398 216.8 225.868 216.644C226.338 216.488 227.681 215.575 229.896 213.905C231.507 212.716 232.846 212.046 233.913 211.893C234.972 211.734 236.02 212.083 237.055 212.941C238.276 213.952 238.929 215.297 239.012 216.974C239.096 218.667 238.419 220.383 236.978 222.122C235.612 223.772 234.169 224.847 232.65 225.348Z" fill="#2D2F82"/>
<path d="M215.232 238.975C212.967 238.455 211.063 237.225 209.521 235.285C207.952 233.313 207.176 231.172 207.193 228.865C207.216 226.566 208.382 224.497 210.692 222.661C213.002 220.824 215.279 220.153 217.525 220.649C219.777 221.152 221.687 222.39 223.256 224.363C224.798 226.303 225.568 228.435 225.565 230.759C225.561 233.083 224.404 235.163 222.095 237C219.785 238.837 217.497 239.495 215.232 238.975ZM219.744 234.019C220.771 233.202 221.274 232.205 221.251 231.029C221.227 229.868 220.678 228.613 219.606 227.265C218.534 225.917 217.432 225.096 216.3 224.803C215.159 224.516 214.075 224.781 213.047 225.598C212.02 226.415 211.522 227.408 211.553 228.578C211.584 229.747 212.135 231.006 213.207 232.354C214.279 233.702 215.378 234.519 216.504 234.804C217.637 235.098 218.717 234.836 219.744 234.019Z" fill="#2D2F82"/>
<path d="M199.174 245.189C199.847 245.804 200.691 245.895 201.706 245.462C202.884 244.96 203.514 244.24 203.594 243.304C203.631 242.775 203.466 242.08 203.099 241.221L199.046 231.715L203.234 229.929L209.956 245.695L205.942 247.406L204.96 245.102C204.798 246.142 204.564 246.932 204.258 247.473C203.72 248.434 202.814 249.186 201.538 249.729C200.331 250.244 199.242 250.395 198.272 250.18C197.463 249.943 196.739 249.504 196.1 248.863C195.955 250.021 195.574 250.988 194.957 251.765C194.292 252.562 193.438 253.183 192.395 253.628C191.699 253.925 190.956 254.082 190.164 254.1C189.373 254.118 188.558 253.906 187.719 253.464C187.039 253.103 186.452 252.555 185.955 251.819C185.632 251.329 185.252 250.572 184.815 249.548L180.6 239.58L184.831 237.776L189.119 247.833C189.374 248.432 189.681 248.883 190.039 249.187C190.719 249.765 191.552 249.843 192.537 249.423C193.677 248.937 194.263 248.128 194.294 246.996C194.302 246.399 194.155 245.748 193.854 245.043L189.844 235.638L194.003 233.865L198.013 243.269C198.413 244.206 198.8 244.846 199.174 245.189Z" fill="#2D2F82"/>
<path d="M164.416 246.764C164.384 245.739 164.759 244.639 165.543 243.464C166.757 241.599 168.673 240.476 171.292 240.095C173.454 239.78 175.462 240.198 177.318 241.35C179.173 242.501 180.329 244.646 180.787 247.785C181.215 250.726 180.801 253.089 179.544 254.875C178.276 256.662 176.452 257.729 174.072 258.076C172.659 258.282 171.347 258.203 170.137 257.838C168.927 257.473 167.87 256.773 166.966 255.737C166.154 254.826 165.552 253.72 165.161 252.418C164.933 251.656 164.722 250.54 164.53 249.072L176.158 247.377C175.848 245.682 175.138 244.565 174.03 244.026C173.355 243.689 172.586 243.583 171.724 243.709C170.809 243.842 170.104 244.21 169.608 244.813C169.337 245.139 169.119 245.569 168.952 246.103L164.416 246.764ZM169.571 251.33C169.815 252.493 170.303 253.33 171.035 253.839C171.758 254.359 172.593 254.551 173.538 254.413C174.567 254.263 175.32 253.824 175.798 253.097C176.265 252.37 176.491 251.446 176.476 250.323L169.571 251.33Z" fill="#2D2F82"/>
<path d="M153.803 244.737L153.834 241.381L155.962 241.322C158.083 241.268 159.529 241.649 160.299 242.465C160.798 242.984 161.043 243.779 161.033 244.85L160.936 255.42L163.33 255.442L163.301 258.64L160.906 258.618L160.862 263.406L156.42 263.366L156.464 258.577L153.676 258.551L153.706 255.354L156.494 255.379L156.577 246.306C156.584 245.602 156.499 245.161 156.322 244.98C156.145 244.811 155.599 244.722 154.686 244.713C154.549 244.712 154.407 244.711 154.26 244.709C154.103 244.718 153.95 244.727 153.803 244.737Z" fill="#2D2F82"/>
<path d="M135.386 248.93L137.156 239.005L141.669 239.81L139.835 250.092C139.673 251.001 139.697 251.763 139.907 252.377C140.17 253.234 140.865 253.764 141.992 253.965C143.161 254.173 144.12 253.939 144.87 253.262C145.608 252.593 146.106 251.535 146.364 250.088L147.996 240.938L152.4 241.724L148.337 264.505L143.933 263.72L145.374 255.64C144.558 256.508 143.697 257.058 142.791 257.291C141.873 257.533 140.949 257.571 140.019 257.405C138.974 257.219 138.061 256.869 137.278 256.356C136.484 255.841 135.88 255.163 135.464 254.321C135.112 253.607 134.943 252.905 134.96 252.215C134.975 251.534 135.116 250.44 135.386 248.93Z" fill="#2D2F82"/>
<path d="M124.072 252.515L129.749 236.31L134.046 237.815L128.369 254.02L124.072 252.515ZM122.026 258.358L123.395 254.448L127.692 255.953L126.322 259.863L122.026 258.358Z" fill="#2D2F82"/>
<path d="M113.038 243.884C114.377 244.609 115.603 244.537 116.717 243.671C117.3 243.21 117.844 242.514 118.349 241.581L122.77 233.406L126.705 235.534L118.552 250.609L114.742 248.549L115.933 246.345C115.005 246.847 114.223 247.146 113.585 247.243C112.443 247.413 111.248 247.161 110.001 246.486C108.44 245.642 107.387 244.541 106.843 243.185C106.285 241.832 106.518 240.209 107.542 238.316L113.043 228.145L117.089 230.333L112.121 239.52C111.691 240.314 111.467 240.981 111.45 241.521C111.418 242.507 111.948 243.295 113.038 243.884Z" fill="#2D2F82"/>
<path d="M109.21 221.348C109.113 220.722 108.633 220.034 107.768 219.284C106.546 218.224 105.375 217.924 104.253 218.383C103.529 218.673 102.631 219.437 101.557 220.674L100.835 221.507C101.642 221.234 102.352 221.12 102.966 221.166C104.087 221.235 105.188 221.738 106.266 222.674C107.932 224.119 108.759 225.858 108.747 227.891C108.721 229.926 107.84 231.942 106.106 233.941C104.434 235.869 102.55 237.071 100.455 237.548C98.3524 238.032 96.4207 237.51 94.6596 235.982C94.0091 235.418 93.5279 234.827 93.216 234.209C92.6868 233.152 92.5641 231.947 92.8477 230.595L91.2272 232.463L87.9309 229.604L98.6041 217.299C100.056 215.625 101.432 214.608 102.731 214.248C104.965 213.628 107.455 214.508 110.2 216.889C111.858 218.328 112.928 219.826 113.411 221.385C113.894 222.944 113.63 224.418 112.62 225.807L108.931 222.608C109.179 222.128 109.273 221.709 109.21 221.348ZM103.97 228.543C104.459 227.049 104.109 225.786 102.919 224.754C102.126 224.066 101.197 223.782 100.134 223.902C99.0633 224.03 97.9604 224.749 96.8249 226.058C95.7583 227.287 95.2081 228.45 95.1743 229.547C95.1325 230.637 95.548 231.561 96.4206 232.317C97.6106 233.35 98.9168 233.503 100.339 232.776C101.093 232.388 101.849 231.757 102.606 230.885C103.26 230.131 103.714 229.35 103.97 228.543Z" fill="#2D2F82"/>
</svg>
