<svg width="40" height="40" viewBox="0 0 40 40" fill="none" xmlns="http://www.w3.org/2000/svg">
<g clip-path="url(#clip0_335_1298)">
<path d="M16.4341 35.4599L16.3166 36.0339L16.4298 35.4593C16.1124 35.3967 15.8042 35.6033 15.7416 35.9207C15.6791 36.2384 15.8857 36.5463 16.2034 36.6089C16.2043 36.6092 16.2131 36.6107 16.214 36.611C16.2513 36.618 16.2882 36.6217 16.3248 36.6217C16.6004 36.6217 16.8461 36.4264 16.8995 36.1456C16.9605 35.8276 16.7521 35.5206 16.4341 35.4599Z" fill="black"/>
<path d="M20.9145 35.6481L20.9728 36.231L20.9126 35.6484C20.5907 35.6814 20.3566 35.9692 20.3899 36.2911C20.4207 36.5927 20.6752 36.8173 20.9718 36.8173C20.992 36.8173 21.0124 36.816 21.0326 36.8142L21.0487 36.8124C21.3692 36.7748 21.5965 36.4858 21.5608 36.1654C21.5248 35.8453 21.2349 35.6146 20.9145 35.6481Z" fill="black"/>
<path d="M18.6711 35.722C18.6711 35.722 18.6629 35.7217 18.6626 35.7217C18.3397 35.707 18.0699 35.9579 18.0553 36.2811C18.0409 36.6042 18.2948 36.878 18.618 36.8926C18.6272 36.8932 18.636 36.8932 18.6452 36.8932C18.9564 36.8932 19.2158 36.6482 19.2299 36.3339C19.2445 36.0107 18.9946 35.7366 18.6711 35.722Z" fill="black"/>
<path d="M14.2699 34.8645L14.2626 34.8617C13.958 34.7525 13.626 34.9118 13.5167 35.2163C13.4072 35.5209 13.5689 35.8578 13.8735 35.9674C13.9391 35.9909 14.0059 36.0019 14.0716 36.0019C14.3117 36.0019 14.5373 35.8532 14.623 35.614C14.7326 35.3094 14.5745 34.9737 14.2699 34.8645Z" fill="black"/>
<path d="M23.1255 35.2381L23.2698 35.806L23.1236 35.2387C22.8102 35.3193 22.6216 35.6388 22.7022 35.9522C22.7702 36.2165 23.0083 36.3922 23.2692 36.3922C23.3177 36.3922 23.3669 36.3861 23.416 36.3733C23.4184 36.3727 23.4288 36.37 23.4316 36.3694C23.7425 36.2845 23.9244 35.965 23.8414 35.6534C23.7584 35.3421 23.4377 35.1569 23.1255 35.2381Z" fill="black"/>
<path d="M25.2446 34.4991L25.4768 35.0369L25.2428 34.4998C24.9461 34.6292 24.8103 34.9743 24.9394 35.2709C25.0356 35.4916 25.251 35.6231 25.4772 35.6231C25.555 35.6231 25.6346 35.6072 25.7106 35.5743C25.7131 35.5731 25.7225 35.5691 25.725 35.5679C26.0188 35.4351 26.1485 35.0909 26.0173 34.7964C25.8861 34.5016 25.54 34.3694 25.2446 34.4991Z" fill="black"/>
<path d="M12.0317 7.78903C12.1257 7.78903 12.2212 7.76645 12.3094 7.71945C12.595 7.56717 12.7027 7.21225 12.5505 6.92661C12.3982 6.64127 12.0436 6.53293 11.7579 6.68552L11.7509 6.68918C11.4656 6.84146 11.3609 7.19455 11.5132 7.4802C11.6182 7.67734 11.822 7.78903 12.0317 7.78903Z" fill="black"/>
<path d="M5.2533 14.3335C5.34028 14.379 5.43336 14.4007 5.52521 14.4007C5.73609 14.4007 5.93995 14.2865 6.04462 14.0867L6.055 14.0662C6.19782 13.7757 6.07819 13.4244 5.78766 13.2819C5.49927 13.1397 5.15076 13.2569 5.00611 13.5434C4.85658 13.8297 4.96705 14.1834 5.2533 14.3335Z" fill="black"/>
<path d="M4.42962 16.5377C4.49188 16.5588 4.55505 16.5689 4.61761 16.5689C4.86175 16.5689 5.08972 16.4147 5.17242 16.1706L5.18005 16.1474C5.27526 15.8383 5.10162 15.5102 4.79217 15.4153C4.48547 15.3207 4.15985 15.491 4.06188 15.7962C3.95904 16.1022 4.12353 16.4343 4.42962 16.5377Z" fill="black"/>
<path d="M6.41116 12.2836C6.51523 12.3593 6.63577 12.3959 6.7554 12.3959C6.93637 12.3959 7.1152 12.312 7.22964 12.1545L7.23727 12.1441C7.42526 11.8811 7.36392 11.5161 7.10147 11.3281C6.83871 11.1398 6.4725 11.2002 6.28391 11.4627L6.75601 11.81L6.28207 11.4651C6.09164 11.727 6.14963 12.0935 6.41116 12.2836Z" fill="black"/>
<path d="M10.0432 9.05453C10.1661 9.05453 10.29 9.01577 10.3959 8.9352C10.6572 8.74416 10.7136 8.37765 10.5226 8.11642C10.3312 7.85519 9.96473 7.79873 9.7038 7.98977L9.68915 8.00045C9.43159 8.19607 9.38032 8.56442 9.57593 8.82229C9.69129 8.97427 9.86615 9.05453 10.0432 9.05453Z" fill="black"/>
<path d="M3.90538 25.4239C3.98289 25.6757 4.21422 25.8371 4.46446 25.8371C4.52153 25.8371 4.57982 25.8285 4.63719 25.8108C4.94481 25.7165 5.11845 25.3906 5.02629 25.0824C4.93809 24.7748 4.61918 24.5941 4.30882 24.6786C3.99663 24.7638 3.8126 25.0861 3.89775 25.3982C3.89958 25.4044 3.90355 25.4178 3.90538 25.4239Z" fill="black"/>
<path d="M8.27351 10.5988C8.4258 10.5988 8.57808 10.5399 8.69313 10.4227C8.92171 10.1938 8.92171 9.82272 8.69313 9.59415C8.46425 9.36526 8.09315 9.36526 7.86427 9.59415L7.85451 9.60391C7.62807 9.83493 7.63265 10.2054 7.86366 10.4319C7.97749 10.5435 8.1255 10.5988 8.27351 10.5988Z" fill="black"/>
<path d="M4.55389 22.8693C4.51269 22.551 4.22185 22.3252 3.90325 22.363C3.58221 22.4015 3.35272 22.6929 3.39086 23.0143L3.39422 23.0378C3.43694 23.3289 3.68688 23.5376 3.97283 23.5376C4.00091 23.5376 4.02959 23.5355 4.05859 23.5312C4.37749 23.4848 4.59875 23.1882 4.55389 22.8693Z" fill="black"/>
<path d="M3.81845 21.1911C3.82455 21.1911 3.83035 21.1914 3.83615 21.1914C4.1517 21.1914 4.41232 20.9402 4.42147 20.6226L4.42208 20.5975C4.42208 20.2737 4.15963 20.0116 3.83615 20.0116C3.5148 20.0116 3.25418 20.2698 3.25021 20.5899C3.24166 20.9128 3.49588 21.1816 3.81845 21.1911Z" fill="black"/>
<path d="M3.94763 18.8413C3.98272 18.8474 4.01721 18.8504 4.05169 18.8504C4.33001 18.8504 4.5769 18.6512 4.62786 18.3676C4.62939 18.3591 4.63061 18.3506 4.63183 18.342C4.67913 18.0219 4.45788 17.724 4.13744 17.677C3.82098 17.63 3.52465 17.8476 3.47369 18.1632C3.41815 18.4812 3.62994 18.7842 3.94763 18.8413Z" fill="black"/>
<path d="M31.5868 12.4686C31.7004 12.6334 31.8829 12.7216 32.069 12.7216C32.1835 12.7216 32.2994 12.688 32.4007 12.6182C32.6672 12.4351 32.7346 12.0701 32.5515 11.8033L32.0644 12.1293L32.5497 11.8006C32.3678 11.5326 32.0034 11.4628 31.7358 11.6443C31.4678 11.8259 31.3979 12.1903 31.5795 12.4582L31.5868 12.4686Z" fill="black"/>
<path d="M34.579 18.3649C34.2574 18.4009 34.026 18.6911 34.0623 19.0128L34.0654 19.0381C34.1072 19.3302 34.3581 19.5411 34.6449 19.5411C34.6724 19.5411 34.7005 19.5392 34.7285 19.5353C35.0462 19.4898 35.2678 19.1971 35.2266 18.8797C35.1897 18.559 34.8985 18.3289 34.579 18.3649Z" fill="black"/>
<path d="M33.5903 16.7114L33.5928 16.7191C33.6679 16.9745 33.9013 17.1399 34.1546 17.1399C34.2092 17.1399 34.2648 17.1323 34.32 17.1158C34.6307 17.0246 34.8083 16.6989 34.7171 16.3883L34.7146 16.3806C34.6234 16.07 34.2977 15.8924 33.9871 15.9839C33.6767 16.0752 33.4991 16.4008 33.5903 16.7114Z" fill="black"/>
<path d="M32.7613 14.5206C32.8635 14.7285 33.0726 14.8496 33.2899 14.8496C33.3762 14.8496 33.4641 14.8304 33.5468 14.7895C33.837 14.6467 33.9576 14.2976 33.8145 14.007L33.2835 14.2545L33.8139 14.0058C33.6765 13.7128 33.3277 13.5868 33.0347 13.7241C32.7418 13.8615 32.6154 14.2103 32.7528 14.5032L32.7613 14.5206Z" fill="black"/>
<path d="M30.1106 10.6387C30.2254 10.7559 30.377 10.8145 30.529 10.8145C30.677 10.8145 30.825 10.7589 30.9392 10.6469C31.1687 10.4223 31.1738 10.0552 30.9526 9.82388C30.7332 9.58737 30.3633 9.57303 30.1259 9.79215C29.8881 10.0116 29.8735 10.3824 30.0929 10.6201L30.1106 10.6387Z" fill="black"/>
<path d="M34.7694 20.8115C34.4474 20.8032 34.1779 21.0556 34.1666 21.3776C34.152 21.6983 34.3983 21.9714 34.7193 21.9895C34.7306 21.9901 34.7413 21.9904 34.7526 21.9904C35.0611 21.9904 35.3196 21.749 35.337 21.4368L35.3379 21.4127C35.3471 21.0895 35.0925 20.8209 34.7694 20.8115Z" fill="black"/>
<path d="M26.363 7.76154L26.377 7.76917C26.4643 7.81556 26.558 7.83753 26.6501 7.83753C26.8586 7.83753 27.0603 7.72522 27.1662 7.52839C27.3188 7.24427 27.2114 6.88904 26.9282 6.73523L26.6446 7.24793L26.9263 6.73401C26.6425 6.57837 26.2864 6.68244 26.1307 6.96625C25.9754 7.24976 26.0792 7.6062 26.363 7.76154Z" fill="black"/>
<path d="M28.3464 9.0466L28.3556 9.05362C28.4615 9.13388 28.5857 9.17264 28.7093 9.17264C28.8863 9.17264 29.0611 9.09268 29.1765 8.94071C29.3721 8.68283 29.3215 8.3154 29.0639 8.11978L29.0599 8.11704C28.8033 7.9199 28.4355 7.96811 28.2384 8.22477C28.0412 8.48142 28.0898 8.84946 28.3464 9.0466Z" fill="black"/>
<path d="M39.6383 29.682L36.8878 26.9265C36.6537 26.6922 36.3427 26.5631 36.0116 26.5631C35.6808 26.5631 35.3695 26.6922 35.1357 26.9265L35.072 26.9903L34.8913 26.8096C34.6682 26.586 34.4955 26.3256 34.3783 26.0421C34.3679 26.0046 34.3542 25.968 34.3365 25.9335C34.2468 25.6814 34.2001 25.4132 34.2001 25.1376V24.3582C34.2535 24.3862 34.3118 24.4067 34.3743 24.4174C34.4079 24.4232 34.4412 24.4259 34.4741 24.4259C34.7521 24.4259 34.9981 24.2276 35.0497 23.9456C35.1122 23.6288 34.9069 23.3209 34.5898 23.2574C34.4503 23.2296 34.3124 23.2537 34.1964 23.3166C34.1604 22.4841 33.8201 21.7065 33.2281 21.1132L30.5596 18.4402C29.9609 17.8405 29.1647 17.5103 28.3178 17.5103C27.6623 17.5103 27.0379 17.709 26.5112 18.0768L26.228 17.792V11.0904C26.228 10.2826 25.9347 9.50316 25.4025 8.89616C25.0238 8.46465 24.8153 7.91045 24.8153 7.3355V6.84447H24.8556C25.5386 6.84447 26.0943 6.28875 26.0943 5.60546V1.70776C26.0943 1.02447 25.5386 0.46875 24.8556 0.46875H13.9105C13.2275 0.46875 12.6718 1.02447 12.6718 1.70776V5.60546C12.6718 6.28875 13.2275 6.84447 13.9105 6.84447H14.0008V7.10143C14.0008 7.73314 13.7552 8.32701 13.3093 8.77348L12.128 9.95695C11.5011 10.585 11.156 11.4197 11.156 12.3077V16.0879C11.156 16.6015 11.2793 17.0865 11.4963 17.5161C10.7193 17.561 9.9951 17.8848 9.44029 18.4402L6.77184 21.1132C6.14501 21.7413 5.79986 22.5763 5.79986 23.464V25.1376C5.79986 25.7693 5.55449 26.3632 5.10863 26.8096L4.93011 26.9885C4.92919 26.9891 4.92858 26.9897 4.92797 26.9903L4.86449 26.9265C4.63042 26.6922 4.31945 26.5631 3.98834 26.5631C3.65753 26.5631 3.34625 26.6922 3.11248 26.9265L0.361633 29.682C-0.120544 30.165 -0.120544 30.9512 0.361633 31.4343L1.30371 32.3776C1.53228 32.6068 1.90338 32.6071 2.13226 32.3785C2.36114 32.1496 2.36175 31.7788 2.13287 31.5496L1.1911 30.606C1.16455 30.5795 1.16455 30.5364 1.1911 30.5099L3.94195 27.7545C3.96758 27.7288 4.00939 27.7285 4.03503 27.7545L4.51324 28.2336H4.51354L11.0434 34.7747L11.7749 35.5078C11.8014 35.5343 11.8014 35.5773 11.7749 35.6039L9.02434 38.3593C8.9984 38.3853 8.95659 38.3853 8.93095 38.3593L3.7918 33.2113C3.56323 32.9821 3.19213 32.9818 2.96325 33.2104C2.73407 33.4393 2.73376 33.8101 2.96234 34.0392L8.10179 39.1873C8.33556 39.4216 8.64684 39.5507 8.97795 39.5507C9.30876 39.5507 9.61973 39.4216 9.8538 39.1873L12.6043 36.4318C13.0865 35.949 13.0865 35.1629 12.6043 34.6798L12.5744 34.6499L12.9214 34.3023C13.3267 33.8961 13.865 33.652 14.4372 33.6151C15.2426 33.5629 16.0003 33.2192 16.5707 32.6477L19.0976 30.1153C19.8263 29.924 20.3936 29.3304 20.5478 28.587C20.8075 28.7106 21.0977 28.7802 21.4041 28.7802C22.5061 28.7802 23.4027 27.8826 23.4027 26.7791V25.3878C23.6547 25.5029 23.9346 25.5676 24.2294 25.5676C25.3314 25.5676 26.2277 24.6701 26.2277 23.5665V19.4534L28.03 21.2646C28.1445 21.3797 28.2949 21.437 28.4454 21.437C28.5949 21.437 28.7445 21.3803 28.8589 21.2664C29.0881 21.0382 29.089 20.6674 28.8607 20.4379L27.358 18.9279C27.6489 18.7677 27.9766 18.6822 28.3178 18.6822C28.8513 18.6822 29.353 18.8903 29.7302 19.2685L32.3986 21.9412C32.8045 22.348 33.0282 22.8888 33.0282 23.464V25.1376C33.0282 26.0821 33.3953 26.9699 34.0618 27.6376L34.2437 27.8198L33.3938 28.6712L28.2534 33.8204L27.9669 33.5333C27.9638 33.5305 27.9611 33.5275 27.958 33.5247L27.9077 33.4741C27.301 32.8665 26.495 32.5012 25.6387 32.4456C25.1178 32.4117 24.6276 32.1896 24.2569 31.8185L22.3315 29.9035C22.102 29.6752 21.7309 29.6762 21.5026 29.9057C21.2747 30.1351 21.2756 30.5062 21.5051 30.7342L23.4292 32.6477C23.9996 33.2192 24.7573 33.5629 25.563 33.6151C26.1349 33.652 26.6732 33.8961 27.0785 34.302L27.1069 34.3304C27.1221 34.3478 27.1383 34.364 27.1554 34.3792L27.4255 34.6496L27.3956 34.6798C26.9134 35.1629 26.9134 35.9487 27.3956 36.4318L30.1461 39.1873C30.3802 39.4216 30.6912 39.5507 31.0223 39.5507C31.3531 39.5507 31.6644 39.4216 31.8984 39.1873L39.6383 31.434C40.1205 30.9509 40.1205 30.165 39.6383 29.682ZM34.5928 23.8556L34.5818 23.8537L34.475 23.8321L34.5928 23.8556ZM15.7412 31.8197C15.3723 32.1896 14.8822 32.4117 14.3615 32.4456C13.5049 32.5012 12.699 32.8665 12.0923 33.4741L11.7465 33.8204L11.4352 33.5085C11.4313 33.5046 11.4273 33.5003 11.4233 33.4966L5.75622 27.8198L5.9381 27.6376C6.6046 26.9699 6.97173 26.0821 6.97173 25.1376V23.464C6.97173 22.8888 7.19512 22.348 7.60131 21.9412L10.2698 19.2685C10.647 18.8903 11.1487 18.6822 11.6821 18.6822C12.0242 18.6822 12.3532 18.7683 12.6449 18.9297L11.1398 20.4373C10.9112 20.6662 10.9115 21.0373 11.1404 21.2658C11.2549 21.38 11.4047 21.437 11.5545 21.437C11.7047 21.437 11.8548 21.3797 11.9693 21.2652L13.7671 19.4641V26.7791C13.7671 27.8826 14.6637 28.7802 15.7657 28.7802C16.0763 28.7802 16.3705 28.7088 16.633 28.5818C16.752 29.1625 17.1231 29.6521 17.626 29.931L15.7412 31.8197ZM25.0561 23.5669C25.0561 24.024 24.685 24.396 24.2294 24.396C23.7735 24.396 23.4027 24.024 23.4027 23.5669V17.0309C23.4027 16.7074 23.1405 16.445 22.8167 16.445C22.4929 16.445 22.2308 16.7074 22.2308 17.0309V26.7794C22.2308 27.2366 21.86 27.6083 21.4041 27.6083C20.9948 27.6083 20.6552 27.3086 20.5896 26.9165V17.0242C20.5896 16.7004 20.3274 16.4383 20.0036 16.4383C19.8996 16.4383 19.8016 16.4657 19.7168 16.5133C19.5315 16.6119 19.4055 16.8066 19.4055 17.0309V26.7791C19.4055 26.8536 19.4098 26.9265 19.4177 26.9989V28.1796C19.4177 28.6367 19.0469 29.0087 18.591 29.0087C18.1353 29.0087 17.7646 28.6367 17.7646 28.1796V17.0172C17.7646 16.6937 17.5021 16.4312 17.1786 16.4312C16.8548 16.4312 16.5924 16.6937 16.5924 17.0172V26.7791C16.5924 27.2363 16.2216 27.6083 15.766 27.6083C15.31 27.6083 14.9392 27.2363 14.9392 26.7791V15.8798C14.9392 15.556 14.6768 15.2936 14.3533 15.2936C14.0295 15.2936 13.7674 15.556 13.7674 15.8798V17.8958C13.7182 17.9117 13.6706 17.9339 13.6264 17.9632C12.8686 17.6785 12.3279 16.9455 12.3279 16.0879V12.3077C12.3279 11.7325 12.5516 11.1917 12.9574 10.7849L14.1388 9.60143C14.8056 8.9337 15.1727 8.04595 15.1727 7.10143V6.84447H16.3507C16.6745 6.84447 16.9366 6.58202 16.9366 6.25853C16.9366 5.93474 16.6745 5.6726 16.3507 5.6726H13.9105C13.8736 5.6726 13.8437 5.64239 13.8437 5.60546V1.70776C13.8437 1.67084 13.8736 1.64062 13.9105 1.64062H24.8553C24.8925 1.64062 24.9224 1.67084 24.9224 1.70776V5.60546C24.9224 5.64269 24.8925 5.6726 24.8553 5.6726H19.1015C18.778 5.6726 18.5156 5.93474 18.5156 6.25853C18.5156 6.58202 18.778 6.84447 19.1015 6.84447H23.6435V7.3355C23.6435 8.19487 23.955 9.02342 24.5211 9.66917C24.866 10.0622 25.0561 10.567 25.0561 11.0904V23.5669ZM38.8088 30.606L31.069 38.3593C31.0562 38.3724 31.0406 38.3788 31.0223 38.3788C31.0043 38.3788 30.9887 38.3724 30.9756 38.3593L28.225 35.6039C28.1985 35.5773 28.1985 35.5343 28.225 35.5078L28.6679 35.064L28.6682 35.0637L33.1613 30.563L35.9649 27.7545C35.9905 27.7285 36.0323 27.7285 36.058 27.7545L38.8088 30.5099C38.8354 30.5364 38.8354 30.5795 38.8088 30.606Z" fill="black"/>
<path d="M15.7644 3.03162C15.4205 3.03162 15.1406 3.31207 15.1406 3.65662C15.1406 4.00146 15.4205 4.28161 15.7644 4.28161C16.1086 4.28161 16.3885 4.00146 16.3885 3.65662C16.3885 3.31207 16.1086 3.03162 15.7644 3.03162Z" fill="black"/>
<path d="M36.2042 29.7412C35.8599 29.7412 35.5801 30.0217 35.5801 30.3662C35.5801 30.7108 35.8599 30.9912 36.2042 30.9912C36.5481 30.9912 36.8279 30.7108 36.8279 30.3662C36.8279 30.0217 36.5481 29.7412 36.2042 29.7412Z" fill="black"/>
<path d="M9.76349 35.719C9.76349 35.3745 9.48364 35.094 9.13971 35.094C8.79547 35.094 8.51562 35.3745 8.51562 35.719C8.51562 36.0635 8.79547 36.344 9.13971 36.344C9.48364 36.344 9.76349 36.0635 9.76349 35.719Z" fill="black"/>
</g>
<defs>
<clipPath id="clip0_335_1298">
<rect width="40" height="40" fill="white"/>
</clipPath>
</defs>
</svg>
