<svg width="61" height="60" viewBox="0 0 61 60" fill="none" xmlns="http://www.w3.org/2000/svg">
<g clip-path="url(#clip0_365_4771)">
<path d="M39.2617 13.2656C39.8192 14.1132 39.5836 15.2521 38.7357 15.8094C38.3144 16.0862 37.9181 16.4128 37.5576 16.7803C37.1978 17.147 36.7219 17.3309 36.2456 17.3309C35.7813 17.3309 35.3168 17.1562 34.9591 16.8055C34.2346 16.0952 34.2233 14.9323 34.9338 14.2081C35.4773 13.6542 36.0772 13.1601 36.7169 12.7397C37.5651 12.1826 38.7043 12.418 39.2617 13.2656ZM55.2374 35.0044C55.053 35.1924 37.0122 53.5804 37.0122 53.5804C35.2748 55.3512 32.962 56.3265 30.5 56.3265C28.038 56.3265 25.7252 55.3512 23.9878 53.5804L5.76261 35.0044C-1.2542 27.8526 -1.2542 16.2157 5.76261 9.06391C9.17306 5.58783 13.71 3.67346 18.538 3.67346C22.9913 3.67346 27.1976 5.30252 30.5 8.28342C33.8026 5.30252 38.0086 3.67346 42.4619 3.67346C47.2898 3.67346 51.8269 5.58783 55.2373 9.06379C62.2542 16.2157 62.2542 27.8526 55.2374 35.0044ZM52.6138 11.6361C49.9001 8.8702 46.2948 7.34693 42.462 7.34693C38.6293 7.34693 35.0239 8.87007 32.3103 11.636C32.1729 11.776 32.0496 11.9461 31.8771 12.0984C30.9543 12.9132 29.8723 12.8723 29.1231 12.0984C28.9629 11.9329 28.8272 11.776 28.6898 11.636C25.9761 8.8702 22.3709 7.34693 18.538 7.34693C14.7052 7.34693 11.0999 8.87007 8.3862 11.636C2.7609 17.3695 2.7609 26.6986 8.3862 32.4322C8.55359 32.6028 26.6114 51.0082 26.6114 51.0082C27.6521 52.0688 29.0331 52.6531 30.5 52.6531C31.9669 52.6531 33.3479 52.0688 34.3886 51.0082L52.6138 32.4323C58.239 26.6988 58.239 17.3696 52.6138 11.6361ZM49.9901 14.2082C48.8911 13.0881 47.6054 12.2435 46.1687 11.6982C45.2202 11.3383 44.1589 11.8148 43.7987 12.7632C43.4384 13.7115 43.9154 14.7722 44.8641 15.1324C45.8002 15.4877 46.6422 16.0423 47.3665 16.7804C50.2087 19.6773 50.2087 24.391 47.3665 27.2879L40.9198 33.8586C40.2092 34.5829 40.2205 35.7458 40.945 36.456C41.3027 36.8066 41.7671 36.9814 42.2315 36.9814C42.7077 36.9814 43.1836 36.7975 43.5434 36.4308L49.9901 29.86C54.2238 25.5448 54.2238 18.5235 49.9901 14.2082Z" fill="#D24347"/>
</g>
<defs>
<clipPath id="clip0_365_4771">
<rect width="60" height="60" fill="white" transform="translate(0.5)"/>
</clipPath>
</defs>
</svg>
