<svg width="20" height="20" viewBox="0 0 20 20" fill="none" xmlns="http://www.w3.org/2000/svg">
<path d="M17.856 2.1486C17.4394 1.72277 16.8227 1.56527 16.2477 1.73194L2.83935 5.6061C2.23269 5.77444 1.80269 6.25527 1.68685 6.86527C1.56852 7.48694 1.98185 8.27694 2.52185 8.60694L6.71435 11.1669C7.14435 11.4303 7.69935 11.3644 8.05519 11.0078L12.856 6.20694C13.0977 5.9561 13.4977 5.9561 13.7394 6.20694C13.981 6.44777 13.981 6.84027 13.7394 7.09027L8.93019 11.8911C8.57352 12.2478 8.50685 12.8011 8.76935 13.2319L11.331 17.4403C11.631 17.9394 12.1477 18.2236 12.7144 18.2236C12.781 18.2236 12.856 18.2236 12.9227 18.2144C13.5727 18.1319 14.0894 17.6894 14.281 17.0644L18.256 3.75694C18.431 3.19027 18.2727 2.5736 17.856 2.1486Z" fill="#D24347"/>
<path opacity="0.4" d="M7.876 15.9519C8.11933 16.196 8.11933 16.5919 7.876 16.836L6.73766 17.9735C6.616 18.096 6.456 18.1569 6.296 18.1569C6.136 18.1569 5.976 18.096 5.85433 17.9735C5.61016 17.7294 5.61016 17.3344 5.85433 17.0902L6.99183 15.9519C7.236 15.7085 7.63183 15.7085 7.876 15.9519ZM7.22291 12.7952C7.46625 13.0394 7.46625 13.4352 7.22291 13.6794L6.08458 14.8169C5.96291 14.9394 5.80291 15.0002 5.64291 15.0002C5.48291 15.0002 5.32291 14.9394 5.20125 14.8169C4.95708 14.5727 4.95708 14.1777 5.20125 13.9335L6.33875 12.7952C6.58291 12.5519 6.97875 12.5519 7.22291 12.7952ZM4.08858 11.8015C4.33191 12.0457 4.33191 12.4415 4.08858 12.6857L2.95025 13.8232C2.82858 13.9457 2.66858 14.0065 2.50858 14.0065C2.34858 14.0065 2.18858 13.9457 2.06691 13.8232C1.82275 13.579 1.82275 13.184 2.06691 12.9399L3.20441 11.8015C3.44858 11.5582 3.84441 11.5582 4.08858 11.8015Z" fill="#D24347"/>
</svg>
