<svg width="61" height="48" viewBox="0 0 61 48" fill="none" xmlns="http://www.w3.org/2000/svg">
<path d="M59.4795 5.79316L48.9091 2.37199C48.3603 2.17887 47.7373 2.6318 47.752 3.21363V16.5953H42.9491C41.8108 16.5953 40.8848 17.5213 40.8848 18.6595V22.1954C40.8848 22.6339 41.0233 23.0402 41.2575 23.3749C41.0233 23.7096 40.8848 24.1159 40.8848 24.5544V28.0903C40.8848 28.5288 41.0233 28.9351 41.2575 29.2698C41.0233 29.6045 40.8848 30.0108 40.8848 30.4493V33.9851C40.8848 34.4236 41.0233 34.8299 41.2575 35.1646C41.0233 35.4993 40.8848 35.9055 40.8848 36.3441V39.8798C40.8848 40.3184 41.0233 40.7246 41.2575 41.0593C41.0233 41.394 40.8848 41.8003 40.8848 42.2388V45.7747C40.8848 45.8752 40.8944 45.973 40.9084 46.0696H23.7481C23.5856 46.0696 23.4533 45.9374 23.4533 45.7747V42.2388C23.4533 42.0762 23.5856 41.944 23.7481 41.944H35.1234C35.2861 41.944 35.4182 42.0762 35.4182 42.2388V42.5973C35.4182 43.086 35.8142 43.482 36.3029 43.482C36.7916 43.482 37.1875 43.086 37.1875 42.5973V42.2388C37.1875 41.8003 37.049 41.394 36.8149 41.0593C37.049 40.7246 37.1875 40.3184 37.1875 39.8798V36.3441C37.1875 35.9055 37.049 35.4993 36.8149 35.1646C37.049 34.8299 37.1875 34.4236 37.1875 33.9851V30.4493C37.1875 29.3111 36.2615 28.385 35.1233 28.385H33.0755C32.9032 27.8246 32.5498 27.325 32.0653 26.974L33.3014 22.1169C33.6569 20.7191 33.0655 19.2806 31.8296 18.5377C31.8247 18.5346 31.8196 18.5318 31.8147 18.5289L28.5719 16.6643C28.6341 16.5166 28.6917 16.367 28.7389 16.2132L29.4057 14.0422L30.8401 14.8276C32.1615 15.5508 33.7905 15.2759 34.8022 14.1589L39.5793 8.88234C40.0443 8.37914 40.1811 7.60898 39.9219 6.97816C39.8161 6.7118 39.6488 6.47191 39.4263 6.27762C39.4263 6.27762 39.4263 6.2775 39.4262 6.2775L38.1816 5.19164C37.5181 4.6125 36.5373 4.60371 35.8609 5.12566C35.7096 4.80293 35.3715 4.59035 34.994 4.61871C34.5069 4.65539 34.1416 5.08008 34.1784 5.56734L34.2738 6.8339L31.96 9.38953L29.0123 7.77551C28.9844 7.76027 28.9557 7.74668 28.9277 7.73203C29.9108 7.24043 30.4749 6.12258 30.222 5.00707L29.8728 3.46676C29.7584 2.46867 29.2392 1.54863 28.4418 0.934921C27.6173 0.30035 26.5955 0.0433578 25.565 0.210467C23.7386 0.507069 22.3952 2.12519 22.44 3.97418C22.4653 5.02043 22.9216 5.98969 23.6867 6.6709C23.2052 6.61523 22.7185 6.62473 22.2373 6.70125L16.6496 7.5941C15.165 7.83152 14.0471 9.04195 13.928 10.5397L13.1921 18.042C13.1436 18.5364 13.2931 19.018 13.613 19.3979C13.933 19.7778 14.382 20.0074 14.8773 20.0437L16.6652 20.1704C17.5624 20.1704 18.3187 19.5262 18.4627 18.639C18.5502 18.6669 18.641 18.6816 18.7319 18.6816C18.9289 18.6816 19.1259 18.6159 19.2875 18.4852L16.6796 23.3736L10.3191 23.7198C9.14094 23.7839 8.1623 24.5974 7.8841 25.7441L7.4177 27.6666C7.0727 29.0887 7.94902 30.5264 9.37133 30.8715C9.58074 30.9221 9.79016 30.9465 9.99664 30.9465C11.1928 30.9464 12.2818 30.1307 12.5761 28.918L12.5773 28.9127L18.3416 28.599C19.4375 28.4937 20.2099 28.1452 21.3129 26.5417C22.0481 25.4692 24.2289 21.9939 24.4265 21.6786C24.6099 21.4138 24.9754 21.3063 25.2736 21.4289L27.7489 22.4116L26.4369 27.5669C26.3686 27.8357 26.3441 28.1121 26.3612 28.3853H23.7475C22.6093 28.3853 21.6833 29.3113 21.6833 30.4495V33.9853C21.6833 34.4238 21.8218 34.8301 22.0559 35.1648C21.8218 35.4995 21.6833 35.9058 21.6833 36.3443V39.8801C21.6833 40.3186 21.8218 40.7249 22.0559 41.0596C21.8218 41.3943 21.6833 41.8005 21.6833 42.2391V45.775C21.6833 45.8754 21.6929 45.9732 21.7068 46.0698H17.8446C17.8585 45.9732 17.8681 45.8753 17.8681 45.775V42.2391C17.8681 41.8005 17.7296 41.3943 17.4955 41.0596C17.7296 40.7249 17.8681 40.3186 17.8681 39.8801V36.3443C17.8681 35.2061 16.9421 34.28 15.8039 34.28H4.42941C3.29117 34.28 2.36516 35.2061 2.36516 36.3443V39.8801C2.36516 40.3186 2.50367 40.7249 2.73781 41.0596C2.50367 41.3943 2.36516 41.8005 2.36516 42.2391V45.775C2.36516 45.8754 2.37477 45.9732 2.38871 46.0698H1.38465C0.896094 46.07 0.5 46.4661 0.5 46.9547C0.5 47.4432 0.896094 47.8393 1.38465 47.8393H57.369C57.8577 47.8393 58.2536 47.4434 58.2536 46.9547C58.2536 46.466 57.8577 46.07 57.369 46.07H56.3649C56.3789 45.9735 56.3885 45.8755 56.3885 45.7752V42.2393C56.3885 41.8008 56.25 41.3945 56.0158 41.0598C56.25 40.7251 56.3885 40.3188 56.3885 39.8803V36.3445C56.3885 35.906 56.25 35.4997 56.0158 35.165C56.25 34.8303 56.3885 34.4241 56.3885 33.9855V30.4498C56.3885 30.0112 56.25 29.605 56.0158 29.2703C56.25 28.9356 56.3885 28.5293 56.3885 28.0908V24.5549C56.3885 24.1164 56.25 23.7101 56.0158 23.3754C56.25 23.0407 56.3885 22.6344 56.3885 22.1959V18.66C56.3885 17.5218 55.4625 16.5957 54.3242 16.5957H49.5213V11.8221L59.4795 8.5991C60.0898 8.40152 60.5 7.83785 60.5 7.19637C60.5 6.55488 60.0898 5.99074 59.4795 5.79316ZM23.7481 40.175C23.5856 40.175 23.4533 40.0428 23.4533 39.8802V36.3444C23.4533 36.1818 23.5856 36.0496 23.7481 36.0496H35.1234C35.2861 36.0496 35.4182 36.1818 35.4182 36.3444V39.8802C35.4182 40.0428 35.2861 40.175 35.1234 40.175H23.7481ZM36.9764 6.51059C36.9916 6.50976 37.0068 6.51469 37.0186 6.525L38.2632 7.61098C38.2887 7.62457 38.2859 7.68562 38.268 7.695L37.0313 9.06094L35.6979 7.8975L36.9361 6.5298C36.9468 6.51785 36.9614 6.51141 36.9764 6.51059ZM25.8488 1.95691C26.3922 1.86867 26.9299 2.00367 27.363 2.33707C27.7967 2.67082 28.0017 3.1643 28.1185 3.69879C28.2337 4.22578 28.4968 5.39836 28.4968 5.39836C28.6162 5.90742 28.1408 6.29297 27.6569 6.22558C27.2232 6.21387 26.8364 6.51621 26.7556 6.9464L26.5128 8.2391L25.254 8.00262L25.5417 6.47016C25.6092 6.11109 25.4489 5.74758 25.1384 5.55504C24.5727 5.20418 24.2252 4.59726 24.209 3.93141C24.1855 2.96133 24.8905 2.11254 25.8488 1.95691ZM15.6916 10.6847C15.7439 10.0018 16.2527 9.4493 16.9291 9.34125L22.516 8.44851C22.8477 8.39578 23.1832 8.39191 23.5146 8.43328C23.5613 8.63965 23.6461 8.83781 23.7691 9.01769C24.0253 9.39234 24.4119 9.64453 24.8577 9.72832C25.095 9.76359 26.3543 10.0353 26.5698 10.0202C27.1514 10.0202 27.6866 9.71848 27.9951 9.24152L31.7227 11.2766C32.0814 11.4732 32.5285 11.398 32.8033 11.0944L34.51 9.2093L35.8435 10.3728L33.4909 12.9715C33.0308 13.4793 32.2904 13.6044 31.6897 13.2758L29.43 12.0384C29.1642 11.8932 28.8512 11.8753 28.571 11.9896C28.2907 12.1036 28.0791 12.335 27.9905 12.6238L27.0477 15.6939C26.9973 15.858 26.9314 16.0161 26.8543 16.1684L21.508 16.7059L21.4491 16.164C21.2891 14.6909 21.4003 13.2173 21.78 11.7847C21.8673 11.4553 21.783 11.1076 21.5546 10.8551C21.3264 10.6027 20.9895 10.4841 20.6534 10.5379L18.2175 10.9271C17.7685 10.9985 17.4232 11.3644 17.3776 11.8166L17.0827 14.7422L15.3048 14.6298L15.6898 10.7037C15.6907 10.6975 15.6911 10.6911 15.6916 10.6847ZM16.6565 18.4009L15.0076 18.2794C14.9721 18.2845 14.9411 18.222 14.9554 18.1932L15.1359 16.3923L16.9053 16.504L16.7195 18.3479C16.7163 18.3799 16.6877 18.4024 16.6565 18.4009ZM19.3578 17.1714L18.6863 16.5L19.0788 12.5812L19.8196 12.463C19.5921 13.7461 19.5484 15.0509 19.6902 16.3554L19.8144 17.4983L19.6132 17.8754C19.6355 17.6236 19.5506 17.364 19.3578 17.1714ZM28.1521 28.0034L29.6047 22.2955C29.7433 21.7514 29.4543 21.1847 28.9323 20.9775L25.9271 19.7845C25.5433 19.6322 25.1236 19.5776 24.7135 19.6268C24.0023 19.7122 23.3626 20.1005 22.9584 20.6917C22.9517 20.7014 20.5877 24.4711 19.8541 25.5412C19.0368 26.7335 18.7077 26.7832 18.2244 26.8334L12.0003 27.172C11.5029 27.1991 11.0896 27.5426 10.9721 28.0268L10.8571 28.5007C10.7422 28.9747 10.2628 29.2669 9.78887 29.1519C9.31484 29.037 9.0227 28.5578 9.13766 28.0837L9.60394 26.1613C9.69664 25.779 10.0229 25.5078 10.4156 25.4865L17.1412 25.1204C17.5302 25.0992 17.8857 24.8726 18.0689 24.529L21.2814 18.5068L27.1929 17.9125L30.9245 20.0583C31.4816 20.397 31.7476 21.0482 31.5866 21.681L30.2342 26.9951C30.1111 27.4781 30.3154 27.9752 30.7427 28.2321L30.96 28.3628C30.9714 28.3697 30.9816 28.3781 30.9928 28.3855H28.1411C28.1177 28.2595 28.1202 28.1291 28.1521 28.0034ZM23.4533 30.4495C23.4533 30.2869 23.5856 30.1547 23.7481 30.1547H35.1234C35.2861 30.1547 35.4182 30.2869 35.4182 30.4495V33.9853C35.4182 34.148 35.2861 34.2802 35.1234 34.2802H23.7481C23.5856 34.2802 23.4533 34.148 23.4533 33.9853V30.4495ZM54.6192 30.4495V33.9853C54.6192 34.148 54.487 34.2802 54.3243 34.2802H42.9491C42.7864 34.2802 42.6542 34.148 42.6542 33.9853V30.4495C42.6542 30.2869 42.7864 30.1547 42.9491 30.1547H54.3243C54.487 30.1547 54.6192 30.2869 54.6192 30.4495ZM54.6192 36.3444V39.8802C54.6192 40.0428 54.487 40.175 54.3243 40.175H42.9491C42.7864 40.175 42.6542 40.0428 42.6542 39.8802V36.3444C42.6542 36.1818 42.7864 36.0496 42.9491 36.0496H54.3243C54.487 36.0496 54.6192 36.1818 54.6192 36.3444ZM4.42941 46.07C4.26687 46.07 4.13457 45.9379 4.13457 45.7752V42.2393C4.13457 42.0766 4.26687 41.9445 4.42941 41.9445H8.81586C9.30441 41.9445 9.70051 41.5485 9.70051 41.0598C9.70051 40.5711 9.30441 40.1752 8.81586 40.1752H4.42941C4.26687 40.1752 4.13457 40.043 4.13457 39.8803V36.3445C4.13457 36.1819 4.26687 36.0497 4.42941 36.0497H15.8047C15.9672 36.0497 16.0995 36.1819 16.0995 36.3445V39.8803C16.0995 40.043 15.9672 40.1752 15.8047 40.1752H13.0843C12.5957 40.1752 12.1996 40.5711 12.1996 41.0598C12.1996 41.5485 12.5957 41.9445 13.0843 41.9445H15.8047C15.9672 41.9445 16.0995 42.0766 16.0995 42.2393V45.7752C16.0995 45.9379 15.9672 46.07 15.8047 46.07H4.42941ZM42.9491 46.07C42.7864 46.07 42.6542 45.9379 42.6542 45.7752V42.2393C42.6542 42.0766 42.7864 41.9445 42.9491 41.9445H54.3243C54.487 41.9445 54.6192 42.0766 54.6192 42.2393V45.7752C54.6192 45.9379 54.487 46.07 54.3243 46.07H42.9491ZM54.6192 18.6596V22.1955C54.6192 22.3582 54.487 22.4904 54.3243 22.4904H48.9943C48.5056 22.4904 48.1096 22.8864 48.1096 23.375C48.1096 23.8637 48.5056 24.2597 48.9943 24.2597H54.3243C54.487 24.2597 54.6192 24.3919 54.6192 24.5545V28.0904C54.6192 28.2531 54.487 28.3853 54.3243 28.3853H42.9491C42.7864 28.3853 42.6542 28.2531 42.6542 28.0904V24.5545C42.6542 24.3919 42.7864 24.2597 42.9491 24.2597H44.7627C45.2513 24.2597 45.6473 23.8637 45.6473 23.375C45.6473 22.8864 45.2513 22.4904 44.7627 22.4904H42.9491C42.7864 22.4904 42.6542 22.3582 42.6542 22.1955V18.6596C42.6542 18.497 42.7864 18.3648 42.9491 18.3648H54.3243C54.487 18.3647 54.6192 18.497 54.6192 18.6596ZM49.5213 9.96199V4.42992L58.0678 7.19601L49.5213 9.96199Z" fill="#D24347"/>
</svg>
