<svg width="636" height="190" viewBox="0 0 636 190" fill="none" xmlns="http://www.w3.org/2000/svg">
<path d="M54.7632 122.559L80.1793 115.21L84.5096 130.187L39.6911 143.146L16.6618 63.4936L36.0642 57.8839L54.7632 122.559Z" fill="#D24347"/>
<path d="M175.305 82.7133C175.511 84.5919 175.607 86.5617 175.594 88.6225L130.156 93.5863C130.913 97.6225 132.547 100.612 135.056 102.556C137.635 104.413 140.608 105.158 143.974 104.79C148.983 104.243 152.236 101.749 153.731 97.3081L175.1 94.9736C174.475 99.3985 172.902 103.491 170.382 107.252C167.94 111.004 164.674 114.093 160.582 116.52C156.491 118.948 151.784 120.452 146.461 121.033C140.043 121.735 134.179 120.989 128.87 118.797C123.561 116.604 119.22 113.118 115.846 108.338C112.472 103.558 110.413 97.7629 109.669 90.9529C108.926 84.143 109.645 78.0444 111.829 72.6572C114.091 67.2615 117.578 62.9201 122.288 59.6332C126.998 56.3463 132.602 54.348 139.099 53.6383C145.439 52.9456 151.22 53.6606 156.442 55.7833C161.664 57.9059 165.915 61.2833 169.193 65.9154C172.55 70.5389 174.587 76.1382 175.305 82.7133ZM154.181 79.6744C153.805 76.2303 152.331 73.6189 149.761 71.8403C147.19 70.0616 144.144 69.3647 140.621 69.7495C137.255 70.1172 134.505 71.4078 132.371 73.6212C130.314 75.8261 129.209 78.7587 129.054 82.4193L154.181 79.6744Z" fill="#D24347"/>
<path d="M219.624 99.6833L219.826 116.808L209.551 116.929C202.228 117.016 196.499 115.311 192.363 111.817C188.226 108.243 186.11 102.401 186.014 94.2915L185.705 68.0725L177.674 68.1671L177.477 51.3965L185.508 51.3018L185.318 35.2398L205.514 35.0018L205.703 51.0638L218.931 50.908L219.129 67.6786L205.901 67.8345L206.213 94.2897C206.236 96.2581 206.725 97.6698 207.68 98.5247C208.635 99.3797 210.215 99.7942 212.42 99.7682L219.624 99.6833Z" fill="#D24347"/>
<path d="M242.414 34.7423L263.062 35.6764L248.417 66.7002L234.848 66.0863L242.414 34.7423Z" fill="#D24347"/>
<path d="M294.102 122.411C288.38 121.866 283.378 120.401 279.097 118.016C274.815 115.631 271.542 112.63 269.276 109.013C267.018 105.317 265.933 101.338 266.023 97.0757L285.894 98.9678C285.912 101.263 286.795 103.206 288.542 104.796C290.289 106.386 292.534 107.312 295.278 107.573C297.786 107.812 299.751 107.525 301.174 106.711C302.682 105.826 303.51 104.6 303.659 103.032C303.839 101.151 302.989 99.686 301.112 98.6372C299.242 97.5099 296.164 96.1886 291.879 94.6732C287.28 93.128 283.469 91.6182 280.446 90.1438C277.43 88.5911 274.908 86.4131 272.881 83.6099C270.862 80.7283 270.065 77.0535 270.49 72.5855C270.849 68.8229 272.192 65.5101 274.521 62.6471C276.936 59.7132 280.229 57.5351 284.398 56.1129C288.646 54.6981 293.552 54.2557 299.118 54.7856C307.348 55.5693 313.621 58.2232 317.936 62.7471C322.33 67.2785 324.558 72.9484 324.622 79.7568L306.044 77.9879C305.947 75.6848 305.1 73.7849 303.502 72.2881C301.983 70.7988 299.851 69.9235 297.108 69.6623C294.756 69.4384 292.909 69.737 291.565 70.5582C290.229 71.3011 289.486 72.4563 289.337 74.0241C289.157 75.9053 290.003 77.4096 291.873 78.5368C293.822 79.6715 296.867 80.9107 301.011 82.2544C305.751 83.9714 309.59 85.6025 312.528 87.1478C315.473 88.6147 317.952 90.8281 319.964 93.7881C322.061 96.6771 322.933 100.399 322.579 104.952C322.213 108.793 320.787 112.138 318.301 114.986C315.901 117.763 312.581 119.82 308.341 121.156C304.179 122.5 299.433 122.918 294.102 122.411Z" fill="#D24347"/>
<path d="M398.601 118.137L396.012 135.066L385.854 133.513C378.616 132.406 373.24 129.791 369.729 125.67C366.229 121.47 365.092 115.362 366.318 107.345L370.282 81.4255L362.343 80.2112L364.879 63.6322L372.818 64.8464L375.246 48.9679L395.211 52.0213L392.783 67.8999L405.859 69.8998L403.324 86.4788L390.247 84.4789L386.247 110.632C385.95 112.578 386.202 114.05 387.006 115.049C387.809 116.048 389.3 116.714 391.479 117.048L398.601 118.137Z" fill="#D24347"/>
<path d="M410.24 103.945C411.303 97.2573 413.48 91.5838 416.772 86.9247C420.142 82.2779 424.22 78.9397 429.008 76.9102C433.795 74.8807 438.872 74.2924 444.238 75.1453C448.826 75.8746 452.682 77.4444 455.807 79.8547C459.01 82.2773 461.304 85.1533 462.688 88.4828L464.153 79.2677L484.099 82.4384L473.753 147.527L453.806 144.357L455.271 135.142C452.845 137.865 449.734 139.882 445.938 141.193C442.219 142.515 438.066 142.812 433.478 142.082C428.19 141.242 423.585 139.114 419.663 135.7C415.753 132.209 412.917 127.731 411.154 122.269C409.481 116.741 409.176 110.633 410.24 103.945ZM458.979 111.812C459.771 106.835 458.995 102.686 456.653 99.3634C454.389 96.0534 451.273 94.0833 447.307 93.4528C443.341 92.8224 439.73 93.7233 436.473 96.1556C433.306 98.5225 431.327 102.194 430.536 107.171C429.745 112.148 430.475 116.331 432.728 119.718C435.07 123.041 438.224 125.017 442.19 125.647C446.156 126.278 449.728 125.371 452.907 122.926C456.164 120.494 458.188 116.789 458.979 111.812Z" fill="#D24347"/>
<path d="M510.169 63.9466L499.216 150.66L479.178 148.129L490.131 61.4156L510.169 63.9466Z" fill="#D24347"/>
<path d="M559.893 154.938L540.523 126.798L539.821 154.428L519.63 153.914L521.852 66.5399L542.042 67.0532L540.814 115.345L561.45 89.05L586.364 89.6834L558.13 122.047L584.925 155.574L559.893 154.938Z" fill="#D24347"/>
<path d="M612.826 64.5653L618.007 120.953L601.033 123.23L591.17 67.4705L612.826 64.5653ZM613.833 152.02C610.321 152.491 607.297 151.864 604.762 150.138C602.294 148.324 600.856 145.896 600.448 142.852C600.029 139.73 600.771 136.969 602.673 134.569C604.654 132.158 607.4 130.717 610.912 130.246C614.346 129.786 617.297 130.462 619.765 132.276C622.31 134.08 623.793 136.542 624.212 139.664C624.62 142.708 623.834 145.435 621.853 147.846C619.94 150.168 617.267 151.559 613.833 152.02Z" fill="#D24347"/>
</svg>
