<svg width="504" height="210" viewBox="0 0 504 210" fill="none" xmlns="http://www.w3.org/2000/svg">
<path d="M211.496 65.4197L211.787 67.0905L208.67 67.5942L208.203 71.112H212.028L217.065 70.7393L219.67 68.3109L216.885 67.455L215.354 66.0954L213.064 63.2369L212.028 59.1172L207.724 59.8011L206.533 61.2508V62.8602L208.584 64.0068L211.496 65.4197Z" fill="#2D2F82"/>
<path d="M207.889 66.7824L208.086 64.5669L205.621 63.7314L202.091 64.3539L199.486 67.6219V69.7596H202.537L207.889 66.7824Z" fill="#2D2F82"/>
<path d="M134.591 79.8181L135.959 79.1424L136.384 77.7214L138.211 77.6149L138.948 76.415L137.236 76.1243L135.787 76.1529L134.988 77.7214H131.27V79.2489H132.166C132.166 79.2489 132.232 79.5601 132.281 79.986L134.591 79.8181Z" fill="#2D2F82"/>
<path d="M127.315 77.7166L126.144 78.9246L125.98 80.3907L128.732 80.2105L128.949 78.7322L127.315 77.7166Z" fill="#2D2F82"/>
<path d="M411.934 151.415L403.965 151.599L403.641 148.192L404.935 148.635L408.064 148.352L407.74 145.223L399.063 145.297L396.712 142.844L396.835 141.538L385.676 133.658L382.899 135.362L398.879 150.666L401.139 151.255V152.087H398.121L398.879 153.991L418.449 154.663L411.934 151.415Z" fill="#2D2F82"/>
<path d="M425.883 134.344L424.523 133.906L423.888 131.272H421.918L420.665 133.918L419.171 134.97L407.843 139.815V144.582L411.611 148.509H421.144L422.369 146.064L424.523 144.529V143.406L425.883 142.735V134.344Z" fill="#2D2F82"/>
<path d="M432.923 142.738L427.194 144.474L427.309 145.473H425.88V151.694H428.767L428.369 147.73L430.618 148.385V151.162L433.001 151.039L432.923 142.738Z" fill="#2D2F82"/>
<path d="M481.175 180.399L479.598 175.378L473.767 171.455L473.312 163.961L470.765 160.525V174.666H458.705V167.708L458.017 167.667L456.104 166.778L455.928 163.068L458.705 163.523V159.645L456.047 158.387H448.68L443.364 164.321H441.231V162.45L434.813 162.806L424.76 171.799L419.407 171.889L413.457 175.079L413.084 189.052L409.456 191.771V194.228L426.811 189.552L440.833 189.118L446.026 198.103L461.977 198.533L477.346 187.181L481.175 180.399Z" fill="#2D2F82"/>
<path d="M448.13 205.027L453.773 205.481L458.31 203.536L458.433 200.817L453.429 200.395L448.13 205.027Z" fill="#2D2F82"/>
<path d="M502.385 192.761L500.038 193.121L499.977 188.96L495.66 189.177L495.087 195.685L491.299 197.712L484.267 198.465L473.006 204.764L471.118 205.996V208.101L476.958 207.413L491.283 200.525L495.3 198.433L499.616 196.934L504.002 195.001L502.385 192.761Z" fill="#2D2F82"/>
<path d="M479.463 157.538V155.589H476.482L475.995 149.692L474.168 149.036L470.765 150.781V152.902L473.62 152.693V157.538H479.463Z" fill="#2D2F82"/>
<path d="M458.089 146.321L454.448 146.411L454.751 143.426L451.266 141.816L446.368 145.69L449.665 148.881L456.815 149.696L458.703 150.474V146.063L458.089 146.321Z" fill="#2D2F82"/>
<path d="M458.43 156.029L458.7 156.013V152.868H458.295L458.43 156.029Z" fill="#2D2F82"/>
<path d="M354.13 132.205L355.506 135.101L360.42 133.659L360.916 129.658L356.996 129.06L354.13 132.205Z" fill="#2D2F82"/>
<path d="M296.279 165.883L289.575 165.195V169.295L291.975 171.486L290.14 173.701L287.413 176.162V180.675L291.144 183.497L294.498 179.25L301.079 171.674L304.228 159.765H300.219L296.279 165.883Z" fill="#2D2F82"/>
<path d="M434.359 153.318H432.127V154.244L433.843 154.662L434.359 153.318Z" fill="#2D2F82"/>
<path d="M424.553 154.66H421.916V155.782H424.553V154.66Z" fill="#2D2F82"/>
<path d="M428.271 155.781H429.881V154.802L431.08 154.659V153.697H428.484L427.415 154.659L425.88 155.781V156.776L428.271 156.6V155.781Z" fill="#2D2F82"/>
<path d="M434.941 156.7H437.541V155.631L439.339 155.782L439.102 153.989L436.149 154.349L435.879 155.508L432.566 155.782H432.414V157.572H434.941V156.7Z" fill="#2D2F82"/>
<path d="M461.382 55.2667L466.206 54.4886L462.512 52.4697L462.647 50.9217L472.93 52.2199L474.875 50.9217L461.042 46.3433L458.797 46.2532V57.6828L461.382 57.5518V55.2667Z" fill="#2D2F82"/>
<path d="M350.053 131.231L353.177 131.808L356.081 128.528H347.944L350.053 131.231Z" fill="#2D2F82"/>
<path d="M387.677 131.404L403.115 143.031L403.922 140.975L391.379 126.965L392.693 122.87L399.307 128.759L402.984 129.054L407.841 126.519L407.055 122.706L399.008 117.649L398.693 113.054L400.982 110.642L404.999 111.649L404.708 113.807L407.01 116.617L409.066 115.458L407.935 112.141L419.295 108.938L424.283 105.674L423.497 99.7733L413.628 91.6116L413.443 84.9692H417.825L431.483 93.135L435.34 92.3323L432.748 89.7073L425.451 86.2141L425.901 81.0132L434.562 81.0296L435.258 74.5961L431.954 71.2012L433.919 69.5344L438.117 72.8597L439.489 71.451L434.018 66.6105L420.63 65.3451L418.841 62.5317L422.715 58.1867L425.786 59.9968L435.058 60.6233L446.729 54.5051V45.7701L431.565 45.1558L415.696 53.2643V77.1474H403.648V42.1459L398.516 41.5316L392.927 41.3924L387.816 45.4425L385.682 45.3114L378.901 41.3596H358.916L349.661 37.0105L331.102 37.9278L317.043 42.9035L317.129 48.6285L312.767 49.6564L311.801 43.9109L310.171 41.9247L305.331 40.9746L304.192 44.4146L305.613 47.2362L288.295 46.3352L280.051 49.3288L278.794 46.4909L276.701 46.9168L275.19 50.066L270.87 52.7237L260.316 52.5026L259.817 50.6639L270.886 50.2953L273.134 48.7678L259.817 43.9109L247.838 44.1975V50.2625L250.836 48.6122H252.908V50.6639L247.838 53.1169V55.1767H246.503V55.8033L250.123 57.1342L250.406 59.8903L245.226 65.9102L236.265 65.8447L235.696 64.4032L241.294 62.1549L241.347 55.1808H235.778V47.4287L234.504 47.9446L231.085 52.7278L225.028 54.5707L222.497 56.7493L223.083 59.2596L226.208 59.5954L228.095 63.2811L233.395 61.5816L234.328 66.4876H232.662L228.3 65.9839L223.447 66.6269L218.746 71.8359L211.977 72.6877L211.023 77.2088L213.889 77.733L213.074 80.6529L206.346 79.6127L200.215 80.6529L198.938 83.3393L199.97 88.9743L203.614 90.3011L209.63 90.2847L213.734 89.9776L214.987 87.4181L221.355 80.9395L225.561 81.6071L229.676 78.6749L230.45 80.9682L240.606 86.3657L239.349 87.672L234.775 87.4591L236.503 89.4289L239.349 89.9203L242.654 88.8391L242.588 85.6981L244.083 85.1248L242.867 84.1256L236.081 81.1648L234.328 77.2006H239.947L241.741 78.5889L246.614 81.8937L246.79 85.8783L251.852 90.0841L253.723 84.3181L257.208 82.8069L257.855 87.5328L261.262 90.4772L271.533 90.3544L274.58 92.1276V96.3579L270.845 99.028H260.423L254.104 95.3177L247.453 95.8378V99.028H245.316L243.051 97.7503L231.523 95.4406V89.5804L216.875 90.4731L212.337 92.3815H206.563L203.696 92.1562L196.649 95.2399V101.01L182.234 109.196L183.45 112.665H186.353L185.616 115.978L183.569 116.592L183.45 125.27L195.87 136.396H201.284L201.669 135.709H211.375L214.209 133.677H219.717L222.764 136.069L230.991 136.732L229.91 145.34L239.046 158.023L234.226 165.243L234.566 168.642L238.391 171.611V179.801L243.346 185.055V191.87H258.08L269.15 182.959L272.614 178.098L274.031 177.852H262.733V125.54H274.785V128.108L296.026 138.96L307.657 125.892L305.105 124.942L291.198 127.244L287.59 125.843L272.983 104.208L273.998 103.271L288.508 117.084L288.872 121.355L292.177 124L299.069 123.656L313.271 115.552L317.759 113.271L317.686 110.454L312.911 109.991C312.911 109.991 296.211 103.803 296.211 103.533C296.211 103.246 296.309 98.2335 296.309 98.2335H300.007L300.552 101.89L308.275 105.388L317.133 105.719L336.266 108.185L340.774 110.421V113.861L340.193 118.554L344.739 124.41V76.2014H356.791V78.7691L382.091 91.7017L356.791 104.638V125.577L358.077 117.931L361.373 112.403L366.64 110.847L375.94 111.555L387.664 119.721V131.404H387.677ZM272.79 86.1404V86.124L264.346 85.8374L261.844 86.124V81.6111L263.736 79.9362L265.763 79.4325L270.268 79.0353L271.226 77.8354L273.065 78.5479L273.31 82.6677L278.229 84.2566L278.651 86.1404H272.79ZM305.163 89.3592L303.668 90.4567L300.261 90.2561L299.61 89.4534L294.253 89.1258L294.63 87.7908L297.492 85.8783V84.2566L292.046 81.1648L291.8 77.2006L292.91 75.2636L297.304 74.9442L301.027 76.1686L301.203 78.2162L295.867 77.9828L295.613 79.8707L302.259 83.3434V85.9029L305.167 87.5451L305.163 89.3592Z" fill="#2D2F82"/>
<path d="M446.092 62.7834L456.817 69.6674L460.224 68.2832L458.951 63.6803L458.258 63.1725L446.739 58.8152L446.092 59.6137V62.7834Z" fill="#2D2F82"/>
<path d="M277.049 173.264L279.977 170.545L286.132 163.882L284.85 153.787L282.233 150.159L274.78 153.971V177.719L277.049 177.326V173.264Z" fill="#2D2F82"/>
<path d="M149.56 66.2209L148.081 65.5083V70.1195L149.355 69.7796L149.56 66.2209Z" fill="#2D2F82"/>
<path d="M148.081 46.8884V51.5937H151.308L153.241 48.7148L149.355 47.949V46.2332L148.081 46.8884Z" fill="#2D2F82"/>
<path d="M148.876 76.803C148.876 76.803 148.9 76.8357 148.9 76.8644L150.551 76.7579L150.673 74.309L148.077 73.3794V73.9445H141.435L141.627 75.0584L148.876 76.803Z" fill="#2D2F82"/>
<path d="M128.693 40.8049L123.893 42.7624L124.254 47.525L119.278 46.9271L118.52 44.3021L123.234 40.8909L114.614 40.555L112.111 41.1284L111.01 43.434L114.278 43.8639L113.623 46.4234L108.102 46.6773L107.246 48.3605L99.1912 48.5366C99.1912 48.5366 99.0069 44.9656 98.6916 44.9656C98.3517 44.9656 104.961 44.8837 104.961 44.8837L109.736 41.2185L107.128 40.1906L103.663 42.8484L97.9094 42.5945L94.4653 38.8433H87.0981L79.391 43.3603H86.4429L87.0981 44.9819L85.2471 46.3374L93.0525 46.5176L94.2442 48.7249L85.46 48.4465L85.03 46.7552L79.5138 45.8092L76.5817 44.5478L63.5836 44.6461L59.5785 47.7011L56.8511 47.5169L53.8288 46.145L52.7354 45.8911V55.1789H40.155V44.0359H28.4019L18.8806 49.1304L12.4921 49.9003L9.56402 51.6899L14.1015 52.2181V53.6473H4.3918L0.587379 55.7727L5.44427 59.012L18.7659 59.1021L20.6169 57.5501H31.7476L35.765 60.3593L35.5193 64.7125L38.906 67.1696L36.0803 68.7586L36.7151 74.4918L26.6655 84.0909V93.1044L32.0589 95.1561V103.236L37.2925 110.194L41.4737 110.693L42.0101 108.314L37.0714 102.294L36.1008 96.4338H39.0289L40.2779 102.462L47.4895 110.706L45.5566 113.363L50.1759 118.867L61.5606 121.083V119.637L66.098 120.129L65.6803 122.696L69.239 123.184L74.7716 124.396L82.5852 131.366L92.5365 131.951L93.5112 138.348L86.6804 142.079L86.3405 147.759L85.3945 151.256L95.2393 160.949L96.001 164.246C96.001 164.246 99.5884 165.016 99.9856 165.016C100.424 165.016 108.029 169.537 108.029 169.537V187.027L110.731 187.65L108.844 195.717L113.401 200.472L112.591 208.478L118.578 216.787L126.305 222.074L134.033 222.176L134.807 220.239L129.131 216.48L129.467 214.6L130.507 212.287L130.728 209.973L126.842 209.879L124.852 207.974L128.095 205.534L128.537 203.724L124.95 202.937L125.155 201.225L130.245 200.636L137.993 197.724L140.602 193.973L148.722 185.778L146.871 179.41L149.357 176.011L156.823 176.188L161.839 173.083L163.473 160.745L164.407 159.811H159.206V145.973L150.111 145.908L141.011 143.197L140.577 138.094L137.534 133.913L129.352 133.835L124.573 127.959L120.683 126.492V143.729H108.102V125.174L101.579 124.134L94.9691 130.117L84.6 128.741L83.8383 119.543L76.2336 118.519L79.2845 114.027L78.4081 111.426L68.4691 116.664L62.1994 116.07L59.9348 112.208L61.323 108.22L64.7876 103.228L72.7322 100.058H88.126L88.0769 103.744L93.6217 105.742L93.1631 99.4479L97.1436 96.311L105.182 92.1625L105.703 89.2591L108.106 87.3016V85.1352H110.764L113.75 82.7068L122.288 79.0129L121.53 78.5379L127.284 74.2625L129.418 74.6884L130.388 75.6508L132.579 73.726L133.079 73.5336L130.712 73.2797L128.279 72.6408V70.7734L129.549 69.9503H132.42L133.73 70.3966L134.844 72.1699L135.499 72.092V60.4412H134.926L135.499 56.428V55.8383L126.342 54.1183L122.485 56.3911V63.3693L115.58 65.0688L112.783 69.6145L109.798 69.983V64.1802L103.307 63.4635L100.063 61.8131L98.7489 58.0701L110.375 52.7218L116.055 51.3622L116.608 54.3517L119.798 54.2248L120.056 52.7177L123.361 52.3492L123.398 51.8414L122.01 51.3581L121.67 49.7733L125.728 49.4948L128.181 47.4841L128.361 47.3449V47.3612L129.098 46.7511L135.503 46.1204V40.1783L128.693 40.8049ZM77.6382 56.6123L71.2211 56.9358L70.013 55.7973L74.5505 54.7735C74.5505 54.7735 77.4171 54.3722 77.6382 54.3722C77.8512 54.3681 77.6382 56.6123 77.6382 56.6123ZM77.7939 50.4285L76.4179 51.8168H70.0294V49.7897V49.6013H72.8714L73.1294 48.8232H77.7939V50.4285ZM87.4667 69.0452L84.1373 69.8888L82.0528 66.4817L85.4518 65.2203L88.5232 65.7814L87.4667 69.0452ZM91.1892 83.1327L88.8959 82.1703L89.4324 79.6313L92.4014 77.0841H96.7013L91.1892 83.1327ZM100.846 84.5864H96.7013L97.3606 82.3792L99.314 82.2153L99.7481 81.4618L102.721 81.1424V83.1286H102.738L100.846 84.5864ZM103.708 79.1153L101.759 80.1063L99.3099 80.4421C99.3099 80.4421 99.3099 77.3994 99.3099 77.0841H103.704L103.708 79.1153ZM107.406 76.7606L109.425 77.7188L107.807 78.7549L106.272 77.7188L107.406 76.7606ZM104.781 79.3119H105.105L110.08 80.4421V82.4447H105.899L104.785 81.1629L104.781 79.3119ZM101.542 73.8079L104.232 75.7327L101.542 76.2446V73.8079ZM99.0274 72.9275V74.1274H100.141V76.2446H92.3236L89.4324 75.6221L90.149 74.1274L93.892 72.9275H99.0274Z" fill="#2D2F82"/>
<path d="M135.497 53.3315V50.9236L131.5 52.5985L135.497 53.3315Z" fill="#2D2F82"/>
<path d="M144.604 71.0642L144.94 72.2641L148.085 73.3862V70.1223L144.604 71.0642Z" fill="#2D2F82"/>
<path d="M141.442 73.95L141.315 73.2334L143.403 72.0663V70.42L141.18 69.9736L140.614 71.5011L136.642 72.0007L136.224 71.9107V72.0171L135.5 72.099V73.95H141.442Z" fill="#2D2F82"/>
<path d="M246.493 53.7697L247.828 53.1226V50.2683L241.354 53.8311L241.345 55.1825H246.493V53.7697Z" fill="#2D2F82"/>
<path d="M448.694 56.4084L446.737 54.5042V54.5082V58.8164L448.694 56.4084Z" fill="#2D2F82"/>
<path d="M458.797 57.6819L454.882 57.8948V36.776L475.166 26.407L454.882 16.0298V15.0879H451.192V59.0333H452.614L458.257 63.1735H458.797V57.6819Z" fill="#2D2F82"/>
<path d="M460.912 152.866L460.801 151.339L458.705 150.47V152.866H460.912Z" fill="#2D2F82"/>
<path d="M356.075 128.531H356.8V125.578L356.358 128.203L356.075 128.531Z" fill="#2D2F82"/>
<path d="M274.779 177.719L274.022 177.854H274.779V177.719Z" fill="#2D2F82"/>
<path d="M44.6176 51.0444H48.8275V0.825195H44.6176V1.89404L21.4348 13.7496L44.6176 25.601V51.0444Z" fill="#D24347"/>
<path d="M144.165 19.5886H139.951V47.4318L137.695 45.9166L135.5 46.1336V50.9209L139.951 49.0657V69.8078H144.165V44.3686L167.344 32.513L144.165 20.6657V19.5886Z" fill="#D24347"/>
<path d="M112.552 89.3774V139.597H116.762V114.157L139.945 102.302L116.762 90.4504V89.3774H112.552Z" fill="#D24347"/>
<path d="M163.658 112.673L143.37 123.042L163.658 133.415V155.676H167.343V111.731H163.658V112.673Z" fill="#2D2F82"/>
<path d="M240.227 51.0445H243.908V7.09912H240.227V8.04101L219.939 18.41L240.227 28.7831V51.0445Z" fill="#2D2F82"/>
<path d="M466.845 127.532V126.586H463.155V170.531H466.845V148.274L487.132 137.897L466.845 127.532Z" fill="#2D2F82"/>
<path d="M349.203 80.4412V124.387H352.885V102.129L373.177 91.7602L352.885 81.3831V80.4412H349.203Z" fill="#D24347"/>
<path d="M411.787 50.7516L432.078 40.3826L411.787 30.0095V29.0676H408.109V73.013H411.787V50.7516Z" fill="#D24347"/>
<path d="M267.18 129.772V173.717H270.862V151.456L291.145 141.087L270.862 130.71V129.772H267.18Z" fill="#2D2F82"/>
</svg>
