<svg width="34" height="34" viewBox="0 0 34 34" fill="none" xmlns="http://www.w3.org/2000/svg">
<path d="M17 10.1819C23.025 10.1819 27.9091 15.066 27.9091 21.0909C27.9091 27.1159 23.025 32 17 32C10.9751 32 6.09091 27.1159 6.09091 21.0909C6.09091 15.066 10.9751 10.1819 17 10.1819ZM17 14.9546L15.1966 18.6087L11.164 19.1946L14.082 22.0391L13.3931 26.0554L17 24.1591L20.6068 26.0554L19.918 22.0391L22.8361 19.1946L18.8034 18.6087L17 14.9546ZM18.3636 3.3623L25.1818 3.36367V7.45458L23.3226 9.0058C21.8143 8.21509 20.1398 7.69846 18.3651 7.52206L18.3636 3.3623ZM15.6364 3.3623L15.636 7.52195C13.8615 7.69818 12.187 8.21461 10.6787 9.00509L8.81818 7.45458V3.36367L15.6364 3.3623Z" fill="#D24347"/>
</svg>
