<svg width="61" height="60" viewBox="0 0 61 60" fill="none" xmlns="http://www.w3.org/2000/svg">
<path d="M52.8949 35.2611H46.9039C47.0512 34.7031 47.1111 34.1209 47.0771 33.536C46.9175 30.7937 44.7314 28.5833 41.992 28.3948C38.8675 28.1801 36.1264 30.7224 36.1264 33.8615C36.1264 34.34 36.1872 34.8092 36.3058 35.261L8.10502 35.2611C7.45789 35.2611 6.93311 35.7859 6.93311 36.433V55.6449C6.93311 58.0462 8.88669 59.9999 11.2879 59.9999L36.3346 59.9997C36.9817 59.9997 37.5065 59.4749 37.5065 58.8277C37.5065 58.1806 36.9817 57.6558 36.3346 57.6558H31.672V50.4958C31.672 49.4982 30.4503 48.9592 29.713 49.6269C29.1396 50.1464 28.3828 50.4384 27.6088 50.4384C25.881 50.4384 24.4326 48.9491 24.474 47.2243C24.515 45.5287 25.9899 44.1272 27.6843 44.1677C28.4885 44.1863 29.1547 44.5282 29.7684 45.02C30.5209 45.6239 31.6721 45.0725 31.6721 44.1085V37.6048H38.1498C39.0936 37.6048 39.6549 36.4916 39.0896 35.7327C38.6845 35.1888 38.4704 34.5418 38.4704 33.8614C38.4704 32.0624 40.039 30.6083 41.8312 30.733C43.3966 30.8408 44.6461 32.1042 44.7373 33.672C44.781 34.4224 44.5688 35.135 44.1234 35.7327C43.5586 36.4913 44.119 37.6048 45.0633 37.6048H51.7232V55.6448C51.7232 56.7537 50.821 57.6558 49.7122 57.6558H46.6899C46.0428 57.6558 45.518 58.1806 45.518 58.8277C45.518 59.4749 46.0428 59.9997 46.6899 59.9997H49.7122C52.1134 59.9997 54.067 58.0461 54.067 55.6448V36.433C54.0668 35.7859 53.5421 35.2611 52.8949 35.2611ZM29.3279 57.6562H11.2881C10.1792 57.6562 9.27705 56.754 9.27705 55.6451V37.6051H29.3279V42.0966C28.6955 41.888 28.0205 41.798 27.3557 41.8281C24.4111 41.9592 22.055 44.5021 22.1311 47.4414C22.202 50.4584 24.8058 52.8901 27.8177 52.7782C28.3299 52.7584 28.841 52.6687 29.3279 52.5081V57.6562Z" fill="#D24347"/>
<path d="M18.063 20.7426C17.5466 21.0027 17.0705 21.3454 16.6535 21.7622C14.5162 23.8997 14.5201 27.3814 16.6622 29.5237C18.8043 31.6658 22.2862 31.6697 24.4238 29.5324C24.8406 29.1154 25.1833 28.6394 25.4434 28.123L29.6712 32.3508C30.1225 32.8019 30.8772 32.8019 31.3286 32.3508L36.7377 26.9417C37.4064 26.2728 37.0126 25.0899 36.0782 24.9533C35.4072 24.8555 34.7982 24.5494 34.3169 24.0679C33.0435 22.7947 33.1272 20.6571 34.4828 19.4781C35.6664 18.4483 37.4433 18.4596 38.6153 19.5042C39.1762 20.0041 39.53 20.6578 39.6383 21.3947C39.7753 22.3279 40.9575 22.722 41.6264 22.0531L47.1642 16.5154C47.615 16.0646 47.6149 15.3091 47.1642 14.858L33.5795 1.27352H33.5794C31.8815 -0.424351 29.1186 -0.424468 27.4206 1.27352L13.8359 14.8582C13.3783 15.3159 13.3783 16.0579 13.8359 16.5157L18.063 20.7426ZM29.078 2.93084C29.8619 2.14671 31.1382 2.14671 31.9222 2.93084L44.6782 15.6869L41.2702 19.0948C40.9801 18.597 40.6114 18.1435 40.1749 17.7544C38.1245 15.9272 35.0163 15.908 32.9447 17.7098C30.5815 19.7657 30.4385 23.5041 32.6598 25.7254C32.9982 26.0638 33.373 26.3528 33.7765 26.5883L30.5 29.8648L25.6791 25.0439C24.9737 24.3388 23.729 24.8229 23.6799 25.815C23.6417 26.5927 23.3172 27.3242 22.7665 27.8749C21.5429 29.0984 19.5478 29.0946 18.3196 27.8662C17.0912 26.638 17.0873 24.643 18.311 23.4195C18.8618 22.8687 19.5933 22.5446 20.371 22.5068C21.3644 22.4587 21.8482 21.2129 21.1429 20.5076L16.322 15.6867L29.078 2.93084Z" fill="#D24347"/>
<path d="M42.6468 58.3792C42.2436 57.4106 40.8142 57.4456 40.4617 58.4332C40.1036 59.4363 41.218 60.3684 42.1423 59.8465C42.6523 59.5585 42.8684 58.9196 42.6468 58.3792Z" fill="#D24347"/>
</svg>
