<svg width="361" height="269" viewBox="0 0 361 269" fill="none" xmlns="http://www.w3.org/2000/svg">
<path d="M360.888 236.018H0.445465V236.198H360.888V236.018Z" fill="#EBEBEB"/>
<path d="M324.772 247.617H300.896V247.797H324.772V247.617Z" fill="#EBEBEB"/>
<path d="M239.217 249.578H232.952V249.758H239.217V249.578Z" fill="#EBEBEB"/>
<path d="M300.175 240.927H286.341V241.107H300.175V240.927Z" fill="#EBEBEB"/>
<path d="M69.3981 242.138H38.2631V242.318H69.3981V242.138Z" fill="#EBEBEB"/>
<path d="M80.3844 242.138H75.8212V242.318H80.3844V242.138Z" fill="#EBEBEB"/>
<path d="M162.753 245.18H95.2202V245.36H162.753V245.18Z" fill="#EBEBEB"/>
<path d="M171.295 203.866H32.0995C31.0091 203.864 29.964 203.43 29.1936 202.658C28.4232 201.886 27.9905 200.84 27.9905 199.75V4.08021C28 2.99601 28.4369 1.95935 29.2062 1.19538C29.9756 0.431419 31.0153 0.00185728 32.0995 0H171.295C172.387 0 173.434 0.433675 174.206 1.20562C174.978 1.97757 175.411 3.02455 175.411 4.11625V199.75C175.411 200.842 174.978 201.889 174.206 202.661C173.434 203.433 172.387 203.866 171.295 203.866ZM32.0995 0.144177C31.0569 0.146087 30.0576 0.561616 29.321 1.29956C28.5844 2.0375 28.1707 3.03755 28.1707 4.08021V199.75C28.1707 200.793 28.5844 201.793 29.321 202.531C30.0576 203.269 31.0569 203.684 32.0995 203.686H171.295C172.338 203.684 173.339 203.269 174.076 202.531C174.814 201.793 175.229 200.793 175.231 199.75V4.08021C175.229 3.03689 174.814 2.03685 174.076 1.29912C173.339 0.561382 172.338 0.146083 171.295 0.144177H32.0995Z" fill="#EBEBEB"/>
<path d="M327.23 203.866H188.027C186.936 203.864 185.89 203.43 185.118 202.658C184.347 201.887 183.913 200.841 183.911 199.75V4.08021C183.922 2.99536 184.36 1.9587 185.131 1.19493C185.901 0.431167 186.942 0.00183702 188.027 0H327.23C328.313 0.00375184 329.351 0.434152 330.118 1.19791C330.886 1.96168 331.322 2.99726 331.332 4.08021V199.75C331.332 200.839 330.9 201.884 330.131 202.655C329.362 203.427 328.319 203.862 327.23 203.866ZM188.027 0.144177C186.984 0.146083 185.984 0.561382 185.246 1.29912C184.508 2.03685 184.093 3.03689 184.091 4.08021V199.75C184.093 200.793 184.508 201.793 185.246 202.531C185.984 203.269 186.984 203.684 188.027 203.686H327.23C328.273 203.684 329.273 203.269 330.011 202.531C330.749 201.793 331.164 200.793 331.166 199.75V4.08021C331.164 3.03689 330.749 2.03685 330.011 1.29912C329.273 0.561382 328.273 0.146083 327.23 0.144177H188.027Z" fill="#EBEBEB"/>
<path d="M171.295 90.911V103.57L177.783 104.183C178.654 108.354 180.305 112.324 182.649 115.882L178.461 120.929L187.414 129.882L192.46 125.694C196.017 128.036 199.984 129.685 204.153 130.552L204.766 137.04H217.504L218.117 130.552C222.288 129.685 226.258 128.036 229.817 125.694L234.863 129.882L243.816 120.929L239.628 115.882C241.97 112.323 243.619 108.354 244.487 104.183L251.011 103.57V90.911L244.487 90.291C243.624 86.1159 241.981 82.1414 239.642 78.5767L243.831 73.5305L234.877 64.5843L229.831 68.7726C226.277 66.4335 222.316 64.7828 218.153 63.9067L217.54 57.4187H204.838L204.225 63.9067C200.057 64.7803 196.09 66.4311 192.532 68.7726L187.486 64.5843L178.504 73.5305L182.692 78.5767C180.35 82.1338 178.699 86.1006 177.826 90.2694L171.295 90.911ZM211.146 80.0977C214.536 80.0977 217.85 81.1031 220.67 82.9868C223.489 84.8704 225.686 87.5478 226.983 90.6802C228.281 93.8126 228.62 97.2594 227.959 100.585C227.297 103.91 225.665 106.965 223.267 109.362C220.87 111.759 217.815 113.392 214.49 114.054C211.165 114.715 207.718 114.376 204.585 113.078C201.453 111.781 198.776 109.583 196.892 106.764C195.008 103.945 194.003 100.631 194.003 97.2404C194.003 94.9867 194.447 92.7552 195.311 90.6735C196.174 88.5918 197.439 86.7007 199.034 85.1085C200.629 83.5163 202.522 82.2542 204.605 81.3944C206.689 80.5346 208.921 80.0939 211.174 80.0977H211.146Z" fill="#F0F0F0"/>
<path d="M149.928 147.572L153.533 150.586L159.97 144.148L156.957 140.544C158.656 137.981 159.852 135.119 160.482 132.109L165.168 131.669V122.55L160.482 122.111C159.858 119.113 158.672 116.261 156.986 113.705L159.999 110.101L153.561 103.663L149.957 106.676C147.4 104.993 144.548 103.807 141.551 103.18L141.112 98.4944H131.985L131.546 103.18C128.548 103.812 125.696 105.003 123.14 106.691L119.536 103.678L113.098 110.115L116.111 113.719C114.426 116.275 113.239 119.127 112.615 122.125L107.929 122.565V131.662L112.615 132.102C113.239 135.1 114.426 137.952 116.111 140.508L113.098 144.112L119.536 150.549L123.14 147.536C125.697 149.219 128.549 150.405 131.546 151.032L131.985 155.718H141.083L141.523 151.032C144.517 150.416 147.368 149.243 149.928 147.572ZM124.221 127.121C124.221 124.684 124.944 122.302 126.298 120.275C127.652 118.249 129.577 116.67 131.828 115.738C134.08 114.806 136.557 114.562 138.947 115.038C141.337 115.514 143.533 116.688 145.255 118.412C146.978 120.135 148.151 122.331 148.625 124.722C149.1 127.112 148.855 129.589 147.921 131.84C146.988 134.091 145.408 136.015 143.381 137.368C141.354 138.721 138.971 139.442 136.534 139.441C134.917 139.441 133.315 139.122 131.821 138.503C130.326 137.883 128.969 136.976 127.825 135.832C126.682 134.688 125.775 133.329 125.157 131.835C124.538 130.34 124.22 128.738 124.221 127.121Z" fill="#F5F5F5"/>
<path d="M190.363 209.2C193.931 208.459 197.326 207.047 200.368 205.041L204.694 208.645L212.386 200.968L208.781 196.643C210.787 193.6 212.199 190.205 212.941 186.637L218.52 186.118V175.304L212.941 174.778C212.202 171.2 210.791 167.795 208.781 164.744L212.386 160.418L204.701 152.755L200.376 156.36C197.331 154.357 193.937 152.946 190.37 152.2L189.843 146.628H179.03L178.504 152.179C174.937 152.924 171.542 154.335 168.498 156.338L164.173 152.734L156.51 160.397L160.114 164.722C158.111 167.766 156.7 171.161 155.955 174.728L150.375 175.254V186.067L155.955 186.586C156.699 190.154 158.11 193.549 160.114 196.592L156.51 200.918L164.173 208.573L168.498 204.969C171.535 207.001 174.931 208.437 178.504 209.2L179.03 214.78H189.843L190.363 209.2ZM169.76 180.689C169.761 177.79 170.622 174.956 172.234 172.545C173.846 170.135 176.137 168.257 178.816 167.148C181.496 166.039 184.444 165.75 187.287 166.317C190.131 166.883 192.743 168.28 194.793 170.331C196.843 172.382 198.239 174.995 198.804 177.839C199.369 180.683 199.078 183.631 197.968 186.31C196.858 188.988 194.979 191.278 192.568 192.889C190.157 194.5 187.322 195.359 184.422 195.359C182.496 195.359 180.589 194.98 178.81 194.243C177.03 193.505 175.413 192.425 174.052 191.062C172.69 189.7 171.61 188.083 170.874 186.303C170.137 184.523 169.759 182.616 169.76 180.689Z" fill="#FAFAFA"/>
<path d="M102.424 78.1212L69.2615 73.5903L64.7306 106.753L97.8932 111.284L102.424 78.1212Z" fill="#F5F5F5"/>
<path d="M74.1395 82.6834L73.8467 84.8262L95.4384 87.7762L95.7312 85.6334L74.1395 82.6834Z" fill="#E0E0E0"/>
<path d="M73.2173 89.41L72.9246 91.5527L94.5163 94.5028L94.8091 92.36L73.2173 89.41Z" fill="#E0E0E0"/>
<path d="M72.2733 96.3624L71.9806 98.5051L84.6942 100.242L84.987 98.0994L72.2733 96.3624Z" fill="#E0E0E0"/>
<path d="M288.093 41.2823L254.622 41.3992L254.739 74.8696L288.209 74.7528L288.093 41.2823Z" fill="#F0F0F0"/>
<path d="M282.529 49.6005L260.737 49.6804L260.744 51.8431L282.537 51.7632L282.529 49.6005Z" fill="#E0E0E0"/>
<path d="M282.561 56.3913L260.769 56.4712L260.777 58.6338L282.569 58.554L282.561 56.3913Z" fill="#E0E0E0"/>
<path d="M273.619 63.4454L260.787 63.4924L260.795 65.6551L273.627 65.608L273.619 63.4454Z" fill="#E0E0E0"/>
<path d="M308.179 122.911L274.974 127.117L279.18 160.323L312.386 156.116L308.179 122.911Z" fill="#F5F5F5"/>
<path d="M303.683 131.882L282.064 134.62L282.335 136.766L303.955 134.027L303.683 131.882Z" fill="#E0E0E0"/>
<path d="M304.537 138.612L282.917 141.351L283.189 143.497L304.809 140.758L304.537 138.612Z" fill="#E0E0E0"/>
<path d="M296.528 146.701L283.798 148.313L284.07 150.459L296.8 148.846L296.528 146.701Z" fill="#E0E0E0"/>
<path d="M130.138 176.804L96.6674 176.921L96.7842 210.392L130.255 210.275L130.138 176.804Z" fill="#F0F0F0"/>
<path d="M124.612 185.149L102.82 185.229L102.828 187.392L124.62 187.312L124.612 185.149Z" fill="#E0E0E0"/>
<path d="M124.637 191.94L102.845 192.02L102.853 194.183L124.645 194.103L124.637 191.94Z" fill="#E0E0E0"/>
<path d="M115.702 198.994L102.871 199.041L102.879 201.204L115.71 201.157L115.702 198.994Z" fill="#E0E0E0"/>
<path d="M277.968 193.192L244.498 193.309L244.615 226.78L278.085 226.663L277.968 193.192Z" fill="#F0F0F0"/>
<path d="M272.438 201.513L250.646 201.593L250.654 203.755L272.446 203.675L272.438 201.513Z" fill="#E0E0E0"/>
<path d="M272.47 208.303L250.678 208.383L250.686 210.545L272.478 210.466L272.47 208.303Z" fill="#E0E0E0"/>
<path d="M263.528 215.357L250.697 215.404L250.704 217.567L263.536 217.52L263.528 215.357Z" fill="#E0E0E0"/>
<path d="M136.927 39.0958L104.252 46.3516L111.508 79.0263L144.183 71.7705L136.927 39.0958Z" fill="#F0F0F0"/>
<path d="M133.268 48.4614L111.994 53.1855L112.463 55.2968L133.737 50.5726L133.268 48.4614Z" fill="#E0E0E0"/>
<path d="M134.743 55.093L113.469 59.8171L113.938 61.9284L135.212 57.2042L134.743 55.093Z" fill="#E0E0E0"/>
<path d="M127.515 63.8858L114.989 66.6675L115.457 68.7787L127.984 65.997L127.515 63.8858Z" fill="#E0E0E0"/>
<path d="M71.9861 77.2069H71.3878L70.5587 73.3862H72.8079L71.9861 77.2069Z" fill="#E0E0E0"/>
<path d="M71.6833 76.2625C73.3635 76.2625 74.7255 75.1878 74.7255 73.862C74.7255 72.5362 73.3635 71.4614 71.6833 71.4614C70.0032 71.4614 68.6412 72.5362 68.6412 73.862C68.6412 75.1878 70.0032 76.2625 71.6833 76.2625Z" fill="#E6E6E6"/>
<path d="M133.139 43.8513H132.54L131.719 40.0378H133.968L133.139 43.8513Z" fill="#E0E0E0"/>
<path d="M132.843 42.9144C134.527 42.9144 135.893 41.8396 135.893 40.5138C135.893 39.188 134.527 38.1133 132.843 38.1133C131.159 38.1133 129.794 39.188 129.794 40.5138C129.794 41.8396 131.159 42.9144 132.843 42.9144Z" fill="#E6E6E6"/>
<path d="M270.878 44.8103H270.28L269.451 40.9968H271.7L270.878 44.8103Z" fill="#E0E0E0"/>
<path d="M270.575 43.8734C272.256 43.8734 273.618 42.7986 273.618 41.4728C273.618 40.147 272.256 39.0723 270.575 39.0723C268.895 39.0723 267.533 40.147 267.533 41.4728C267.533 42.7986 268.895 43.8734 270.575 43.8734Z" fill="#E6E6E6"/>
<path d="M305.091 127.705H304.493L303.671 123.891H305.92L305.091 127.705Z" fill="#E0E0E0"/>
<path d="M304.796 126.767C306.476 126.767 307.838 125.693 307.838 124.367C307.838 123.041 306.476 121.966 304.796 121.966C303.116 121.966 301.754 123.041 301.754 124.367C301.754 125.693 303.116 126.767 304.796 126.767Z" fill="#E6E6E6"/>
<path d="M261.831 196.996H261.226L260.404 193.176H262.653L261.831 196.996Z" fill="#E0E0E0"/>
<path d="M261.528 196.052C263.208 196.052 264.57 194.977 264.57 193.651C264.57 192.326 263.208 191.251 261.528 191.251C259.848 191.251 258.486 192.326 258.486 193.651C258.486 194.977 259.848 196.052 261.528 196.052Z" fill="#E6E6E6"/>
<path d="M112.529 179.839H111.93L111.109 176.019H113.358L112.529 179.839Z" fill="#E0E0E0"/>
<path d="M112.233 178.895C113.913 178.895 115.275 177.82 115.275 176.494C115.275 175.169 113.913 174.094 112.233 174.094C110.553 174.094 109.191 175.169 109.191 176.494C109.191 177.82 110.553 178.895 112.233 178.895Z" fill="#E6E6E6"/>
<path d="M180.667 268.573C257.861 268.573 320.439 264.919 320.439 260.413C320.439 255.906 257.861 252.252 180.667 252.252C103.473 252.252 40.8943 255.906 40.8943 260.413C40.8943 264.919 103.473 268.573 180.667 268.573Z" fill="#F5F5F5"/>
<path d="M104.015 139.737C104.015 134.986 107.136 131.086 110.979 131.086C114.821 131.086 117.942 134.95 117.942 139.737C117.942 144.523 114.821 148.344 110.979 148.344C107.136 148.344 104.015 144.487 104.015 139.737ZM105.457 139.737C105.457 143.687 107.937 146.902 110.979 146.902C114.021 146.902 116.501 143.687 116.501 139.737C116.501 135.786 114.028 132.528 110.979 132.528C107.929 132.528 105.457 135.786 105.457 139.737Z" fill="#263238"/>
<path d="M90.3109 139.737C90.3109 134.986 93.4324 131.086 97.2747 131.086C101.117 131.086 104.238 134.95 104.238 139.737C104.238 144.523 101.117 148.344 97.2747 148.344C93.4324 148.344 90.3109 144.487 90.3109 139.737ZM91.7527 139.737C91.7527 143.687 94.2254 146.902 97.2747 146.902C100.324 146.902 102.797 143.687 102.797 139.737C102.797 135.786 100.317 132.528 97.2747 132.528C94.2326 132.528 91.7527 135.786 91.7527 139.737Z" fill="#263238"/>
<path d="M76.5997 139.737C76.5997 134.986 79.7284 131.086 83.5707 131.086C87.413 131.086 90.5344 134.95 90.5344 139.737C90.5344 144.523 87.4058 148.344 83.5707 148.344C79.7356 148.344 76.5997 144.487 76.5997 139.737ZM78.0415 139.737C78.0415 143.687 80.5213 146.902 83.5707 146.902C86.62 146.902 89.0927 143.687 89.0927 139.737C89.0927 135.786 86.6128 132.528 83.5707 132.528C80.5286 132.528 78.0415 135.786 78.0415 139.737Z" fill="#263238"/>
<path d="M62.8957 139.737C62.8957 134.986 66.0243 131.086 69.8667 131.086C73.709 131.086 76.8304 134.95 76.8304 139.737C76.8304 144.523 73.7018 148.344 69.8667 148.344C66.0316 148.344 62.8957 144.487 62.8957 139.737ZM64.3375 139.737C64.3375 143.687 66.8173 146.902 69.8667 146.902C72.916 146.902 75.3886 143.687 75.3886 139.737C75.3886 135.786 72.9088 132.528 69.8667 132.528C66.8245 132.528 64.3375 135.786 64.3375 139.737Z" fill="#263238"/>
<path d="M117.719 139.737C117.719 134.986 120.84 131.086 124.683 131.086C128.525 131.086 131.654 134.95 131.654 139.737C131.654 144.523 128.525 148.344 124.683 148.344C120.84 148.344 117.719 144.487 117.719 139.737ZM119.161 139.737C119.161 143.687 121.641 146.902 124.683 146.902C127.725 146.902 130.212 143.687 130.212 139.737C130.212 135.786 127.732 132.528 124.683 132.528C121.633 132.528 119.161 135.786 119.161 139.737Z" fill="#263238"/>
<path d="M53.8342 258.646H139.677L139.677 139.902H53.8342L53.8342 258.646Z" fill="#263238"/>
<path opacity="0.7" d="M53.8342 258.646H139.677L139.677 139.902H53.8342L53.8342 258.646Z" fill="white"/>
<path opacity="0.6" d="M61.5693 258.646H139.677L139.677 139.902H61.5693L61.5693 258.646Z" fill="white"/>
<path opacity="0.2" d="M56.4077 258.646L56.0473 147.673L55.6868 258.646H56.4077Z" fill="black"/>
<path opacity="0.2" d="M59.9977 258.646L59.6373 154.587L59.2768 258.646H59.9977Z" fill="black"/>
<path opacity="0.2" d="M57.4818 139.989L57.8423 223.417L58.2027 139.989H57.4818Z" fill="black"/>
<path d="M126.759 145.546C126.833 145.931 127.014 146.286 127.283 146.571C127.551 146.856 127.895 147.058 128.274 147.155C128.654 147.252 129.053 147.238 129.425 147.117C129.797 146.995 130.126 146.77 130.375 146.468C130.624 146.166 130.781 145.799 130.83 145.411C130.878 145.022 130.814 144.628 130.647 144.274C130.479 143.921 130.214 143.622 129.883 143.413C129.552 143.205 129.169 143.094 128.777 143.095C128.187 143.157 127.644 143.449 127.266 143.908C126.889 144.366 126.706 144.955 126.759 145.546Z" fill="#263238"/>
<path d="M128.907 146.275C129.01 146.274 129.112 146.251 129.205 146.207C129.298 146.164 129.381 146.101 129.448 146.023C130.9 144.252 131.681 142.026 131.654 139.737C131.654 134.986 128.525 131.086 124.683 131.086C121.857 131.086 119.327 133.177 118.245 136.399C118.215 136.489 118.203 136.584 118.209 136.678C118.216 136.773 118.241 136.866 118.283 136.951C118.325 137.036 118.383 137.112 118.455 137.174C118.526 137.236 118.609 137.284 118.699 137.314C118.789 137.345 118.884 137.357 118.979 137.351C119.074 137.344 119.166 137.319 119.251 137.277C119.336 137.235 119.412 137.176 119.474 137.105C119.537 137.033 119.585 136.95 119.615 136.86C120.494 134.229 122.498 132.535 124.661 132.535C127.71 132.535 130.19 135.757 130.19 139.744C130.221 141.687 129.565 143.579 128.338 145.086C128.246 145.19 128.186 145.319 128.166 145.457C128.146 145.594 128.166 145.735 128.224 145.861C128.282 145.988 128.375 146.095 128.492 146.17C128.61 146.244 128.746 146.283 128.885 146.282L128.907 146.275Z" fill="#263238"/>
<g opacity="0.4">
<path d="M128.907 146.275C129.01 146.274 129.112 146.251 129.205 146.207C129.298 146.164 129.381 146.101 129.448 146.023C130.9 144.252 131.681 142.026 131.654 139.737C131.654 134.986 128.525 131.086 124.683 131.086C121.857 131.086 119.327 133.177 118.245 136.399C118.215 136.489 118.203 136.584 118.209 136.678C118.216 136.773 118.241 136.866 118.283 136.951C118.325 137.036 118.383 137.112 118.455 137.174C118.526 137.236 118.609 137.284 118.699 137.314C118.789 137.345 118.884 137.357 118.979 137.351C119.074 137.344 119.166 137.319 119.251 137.277C119.336 137.235 119.412 137.176 119.474 137.105C119.537 137.033 119.585 136.95 119.615 136.86C120.494 134.229 122.498 132.535 124.661 132.535C127.71 132.535 130.19 135.757 130.19 139.744C130.221 141.687 129.565 143.579 128.338 145.086C128.246 145.19 128.186 145.319 128.166 145.457C128.146 145.594 128.166 145.735 128.224 145.861C128.282 145.988 128.375 146.095 128.492 146.17C128.61 146.244 128.746 146.283 128.885 146.282L128.907 146.275Z" fill="white"/>
</g>
<path d="M113.055 145.546C113.13 145.928 113.312 146.281 113.58 146.564C113.848 146.846 114.19 147.047 114.568 147.142C114.945 147.237 115.342 147.223 115.712 147.102C116.082 146.981 116.409 146.757 116.657 146.456C116.904 146.156 117.061 145.791 117.109 145.405C117.158 145.018 117.095 144.626 116.929 144.274C116.763 143.922 116.501 143.624 116.172 143.416C115.844 143.207 115.463 143.096 115.073 143.095C114.483 143.157 113.94 143.449 113.562 143.908C113.185 144.366 113.002 144.955 113.055 145.546Z" fill="#263238"/>
<path d="M115.196 146.275C115.3 146.275 115.403 146.252 115.497 146.209C115.592 146.165 115.676 146.102 115.744 146.023C117.194 144.252 117.973 142.025 117.942 139.737C117.942 134.986 114.821 131.086 110.979 131.086C108.146 131.086 105.623 133.177 104.541 136.399C104.48 136.58 104.493 136.779 104.579 136.951C104.664 137.122 104.814 137.253 104.995 137.314C105.177 137.376 105.375 137.362 105.547 137.277C105.719 137.192 105.85 137.042 105.911 136.86C106.79 134.229 108.794 132.535 110.957 132.535C114.006 132.535 116.479 135.757 116.479 139.744C116.512 141.686 115.859 143.578 114.634 145.086C114.542 145.19 114.483 145.318 114.462 145.455C114.442 145.592 114.461 145.732 114.518 145.858C114.575 145.984 114.667 146.092 114.784 146.167C114.9 146.242 115.036 146.282 115.174 146.282L115.196 146.275Z" fill="#263238"/>
<g opacity="0.4">
<path d="M115.196 146.275C115.3 146.275 115.403 146.252 115.497 146.209C115.592 146.165 115.676 146.102 115.744 146.023C117.194 144.252 117.973 142.025 117.942 139.737C117.942 134.986 114.821 131.086 110.979 131.086C108.146 131.086 105.623 133.177 104.541 136.399C104.48 136.58 104.493 136.779 104.579 136.951C104.664 137.122 104.814 137.253 104.995 137.314C105.177 137.376 105.375 137.362 105.547 137.277C105.719 137.192 105.85 137.042 105.911 136.86C106.79 134.229 108.794 132.535 110.957 132.535C114.006 132.535 116.479 135.757 116.479 139.744C116.512 141.686 115.859 143.578 114.634 145.086C114.542 145.19 114.483 145.318 114.462 145.455C114.442 145.592 114.461 145.732 114.518 145.858C114.575 145.984 114.667 146.092 114.784 146.167C114.9 146.242 115.036 146.282 115.174 146.282L115.196 146.275Z" fill="white"/>
</g>
<path d="M99.3436 145.546C99.4175 145.93 99.599 146.286 99.867 146.57C100.135 146.855 100.479 147.058 100.857 147.155C101.236 147.252 101.635 147.239 102.007 147.118C102.379 146.996 102.708 146.772 102.957 146.471C103.207 146.169 103.365 145.803 103.414 145.415C103.463 145.027 103.4 144.633 103.234 144.279C103.067 143.926 102.804 143.626 102.473 143.417C102.143 143.207 101.76 143.096 101.369 143.095C100.778 143.157 100.235 143.449 99.8559 143.907C99.4771 144.366 99.2932 144.954 99.3436 145.546Z" fill="#263238"/>
<path d="M101.492 146.275C101.596 146.275 101.699 146.252 101.793 146.209C101.888 146.165 101.972 146.102 102.04 146.023C103.477 144.247 104.243 142.021 104.202 139.737C104.202 134.986 101.081 131.086 97.2387 131.086C94.4056 131.086 91.8825 133.177 90.8012 136.399C90.7706 136.489 90.7582 136.584 90.7645 136.679C90.7708 136.773 90.7958 136.866 90.838 136.951C90.8802 137.036 90.9388 137.112 91.0104 137.174C91.082 137.237 91.1652 137.284 91.2553 137.314C91.3452 137.345 91.4403 137.357 91.5351 137.351C91.6298 137.345 91.7224 137.32 91.8075 137.278C91.8925 137.235 91.9684 137.177 92.0308 137.105C92.0932 137.034 92.1407 136.95 92.1708 136.86C93.0503 134.229 95.0544 132.535 97.217 132.535C100.259 132.535 102.739 135.757 102.739 139.744C102.773 141.688 102.117 143.58 100.886 145.086C100.794 145.19 100.735 145.319 100.715 145.457C100.694 145.594 100.715 145.735 100.772 145.861C100.83 145.988 100.924 146.095 101.041 146.17C101.159 146.244 101.295 146.283 101.434 146.282L101.492 146.275Z" fill="#263238"/>
<g opacity="0.4">
<path d="M101.492 146.275C101.596 146.275 101.699 146.252 101.793 146.209C101.888 146.165 101.972 146.102 102.04 146.023C103.477 144.247 104.243 142.021 104.202 139.737C104.202 134.986 101.081 131.086 97.2387 131.086C94.4056 131.086 91.8825 133.177 90.8012 136.399C90.7706 136.489 90.7582 136.584 90.7645 136.679C90.7708 136.773 90.7958 136.866 90.838 136.951C90.8802 137.036 90.9388 137.112 91.0104 137.174C91.082 137.237 91.1652 137.284 91.2553 137.314C91.3452 137.345 91.4403 137.357 91.5351 137.351C91.6298 137.345 91.7224 137.32 91.8075 137.278C91.8925 137.235 91.9684 137.177 92.0308 137.105C92.0932 137.034 92.1407 136.95 92.1708 136.86C93.0503 134.229 95.0544 132.535 97.217 132.535C100.259 132.535 102.739 135.757 102.739 139.744C102.773 141.688 102.117 143.58 100.886 145.086C100.794 145.19 100.735 145.319 100.715 145.457C100.694 145.594 100.715 145.735 100.772 145.861C100.83 145.988 100.924 146.095 101.041 146.17C101.159 146.244 101.295 146.283 101.434 146.282L101.492 146.275Z" fill="white"/>
</g>
<path d="M85.6396 145.546C85.7134 145.93 85.895 146.286 86.163 146.57C86.4311 146.855 86.7746 147.058 87.1534 147.155C87.5323 147.252 87.9309 147.239 88.3028 147.118C88.6746 146.996 89.0043 146.772 89.2535 146.471C89.5026 146.169 89.6609 145.803 89.7098 145.415C89.7587 145.027 89.6963 144.633 89.5298 144.279C89.3633 143.926 89.0996 143.626 88.7694 143.417C88.4393 143.207 88.0563 143.096 87.6653 143.095C87.074 143.157 86.5306 143.449 86.1518 143.907C85.7731 144.366 85.5892 144.954 85.6396 145.546Z" fill="#263238"/>
<path d="M87.7879 146.275C87.892 146.275 87.9949 146.252 88.0894 146.209C88.184 146.165 88.268 146.102 88.3357 146.023C89.7732 144.247 90.5389 142.021 90.4984 139.737C90.4984 134.986 87.3697 131.086 83.5346 131.086C80.7016 131.086 78.1785 133.177 77.0971 136.399C77.0592 136.49 77.0404 136.588 77.0419 136.687C77.0435 136.786 77.0653 136.883 77.106 136.973C77.1467 137.063 77.2055 137.144 77.2787 137.21C77.3519 137.276 77.438 137.327 77.5315 137.359C77.6251 137.39 77.7241 137.402 77.8226 137.394C77.921 137.386 78.0167 137.358 78.1037 137.311C78.1908 137.264 78.2673 137.2 78.3285 137.122C78.3897 137.045 78.4343 136.956 78.4596 136.86C79.3391 134.229 81.3431 132.535 83.5058 132.535C86.5479 132.535 89.0278 135.757 89.0278 139.744C89.0583 141.687 88.4023 143.579 87.1751 145.086C87.0833 145.19 87.0236 145.319 87.0034 145.457C86.9832 145.594 87.0033 145.735 87.0612 145.861C87.1191 145.988 87.2124 146.095 87.3299 146.17C87.4473 146.244 87.5838 146.283 87.723 146.282L87.7879 146.275Z" fill="#263238"/>
<g opacity="0.4">
<path d="M87.7879 146.275C87.892 146.275 87.9949 146.252 88.0894 146.209C88.184 146.165 88.268 146.102 88.3357 146.023C89.7732 144.247 90.5389 142.021 90.4984 139.737C90.4984 134.986 87.3697 131.086 83.5346 131.086C80.7016 131.086 78.1785 133.177 77.0971 136.399C77.0592 136.49 77.0404 136.588 77.0419 136.687C77.0435 136.786 77.0653 136.883 77.106 136.973C77.1467 137.063 77.2055 137.144 77.2787 137.21C77.3519 137.276 77.438 137.327 77.5315 137.359C77.6251 137.39 77.7241 137.402 77.8226 137.394C77.921 137.386 78.0167 137.358 78.1037 137.311C78.1908 137.264 78.2673 137.2 78.3285 137.122C78.3897 137.045 78.4343 136.956 78.4596 136.86C79.3391 134.229 81.3431 132.535 83.5058 132.535C86.5479 132.535 89.0278 135.757 89.0278 139.744C89.0583 141.687 88.4023 143.579 87.1751 145.086C87.0833 145.19 87.0236 145.319 87.0034 145.457C86.9832 145.594 87.0033 145.735 87.0612 145.861C87.1191 145.988 87.2124 146.095 87.3299 146.17C87.4473 146.244 87.5838 146.283 87.723 146.282L87.7879 146.275Z" fill="white"/>
</g>
<path d="M71.9356 145.546C71.9356 146.902 72.8439 147.997 73.9541 147.997C74.5253 147.89 75.0409 147.586 75.4118 147.138C75.7828 146.691 75.9858 146.128 75.9858 145.546C75.9858 144.965 75.7828 144.402 75.4118 143.955C75.0409 143.507 74.5253 143.203 73.9541 143.095C72.8439 143.095 71.9356 144.177 71.9356 145.546Z" fill="#263238"/>
<path d="M74.0838 146.275C74.1879 146.275 74.2908 146.252 74.3854 146.209C74.48 146.165 74.564 146.102 74.6317 146.023C76.0664 144.245 76.8318 142.021 76.7944 139.737C76.7944 134.986 73.6657 131.086 69.8306 131.086C66.9975 131.086 64.4672 133.177 63.3931 136.399C63.3552 136.49 63.3364 136.588 63.3379 136.687C63.3394 136.786 63.3612 136.883 63.402 136.973C63.4427 137.063 63.5015 137.144 63.5747 137.21C63.6479 137.276 63.7339 137.327 63.8275 137.359C63.921 137.39 64.0201 137.402 64.1185 137.394C64.217 137.386 64.3127 137.358 64.3997 137.311C64.4867 137.264 64.5632 137.2 64.6244 137.123C64.6857 137.045 64.7303 136.956 64.7556 136.86C65.6351 134.229 67.6391 132.535 69.8018 132.535C72.8439 132.535 75.3237 135.757 75.3237 139.744C75.3543 141.687 74.6982 143.579 73.4711 145.086C73.408 145.157 73.3598 145.241 73.3292 145.331C73.2987 145.422 73.2864 145.517 73.2931 145.612C73.2998 145.708 73.3254 145.801 73.3683 145.886C73.4112 145.971 73.4707 146.047 73.5432 146.109C73.6174 146.172 73.7036 146.219 73.7966 146.247C73.8895 146.276 73.9872 146.285 74.0838 146.275Z" fill="#263238"/>
<g opacity="0.4">
<path d="M74.0838 146.275C74.1879 146.275 74.2908 146.252 74.3854 146.209C74.48 146.165 74.564 146.102 74.6317 146.023C76.0664 144.245 76.8318 142.021 76.7944 139.737C76.7944 134.986 73.6657 131.086 69.8306 131.086C66.9975 131.086 64.4672 133.177 63.3931 136.399C63.3552 136.49 63.3364 136.588 63.3379 136.687C63.3394 136.786 63.3612 136.883 63.402 136.973C63.4427 137.063 63.5015 137.144 63.5747 137.21C63.6479 137.276 63.7339 137.327 63.8275 137.359C63.921 137.39 64.0201 137.402 64.1185 137.394C64.217 137.386 64.3127 137.358 64.3997 137.311C64.4867 137.264 64.5632 137.2 64.6244 137.123C64.6857 137.045 64.7303 136.956 64.7556 136.86C65.6351 134.229 67.6391 132.535 69.8018 132.535C72.8439 132.535 75.3237 135.757 75.3237 139.744C75.3543 141.687 74.6982 143.579 73.4711 145.086C73.408 145.157 73.3598 145.241 73.3292 145.331C73.2987 145.422 73.2864 145.517 73.2931 145.612C73.2998 145.708 73.3254 145.801 73.3683 145.886C73.4112 145.971 73.4707 146.047 73.5432 146.109C73.6174 146.172 73.7036 146.219 73.7966 146.247C73.8895 146.276 73.9872 146.285 74.0838 146.275Z" fill="white"/>
</g>
<path d="M84.1257 194.531H78.0847V204.832H84.1257V194.531Z" fill="#D24347"/>
<path d="M93.9081 187.033H87.8671V204.832H93.9081V187.033Z" fill="#D24347"/>
<path d="M103.698 189.845H97.6567V204.832H103.698V189.845Z" fill="#D24347"/>
<path d="M113.487 182.348H107.446V204.832H113.487V182.348Z" fill="#D24347"/>
<path d="M123.27 174.851H117.229V204.832H123.27V174.851Z" fill="#D24347"/>
<path opacity="0.5" d="M84.1257 194.531H78.0847V204.832H84.1257V194.531Z" fill="white"/>
<path opacity="0.5" d="M93.9081 187.033H87.8671V204.832H93.9081V187.033Z" fill="white"/>
<path opacity="0.5" d="M103.698 189.845H97.6567V204.832H103.698V189.845Z" fill="white"/>
<path opacity="0.5" d="M113.487 182.348H107.446V204.832H113.487V182.348Z" fill="white"/>
<path opacity="0.5" d="M123.27 174.851H117.229V204.832H123.27V174.851Z" fill="white"/>
<path d="M131.329 203.405H69.7873V206.259H131.329V203.405Z" fill="#263238"/>
<path d="M72.3825 196.65L71.0561 194.978L90.7939 179.27L100.562 184.936L126.932 162.458L128.316 164.08L100.8 187.545L90.9885 181.85L72.3825 196.65Z" fill="#2D2F82"/>
<path d="M129.195 161.947L125.187 162.567L128.013 165.58L129.195 161.947Z" fill="#2D2F82"/>
<g opacity="0.3">
<path d="M104.685 215.545H69.8594C69.6682 215.545 69.4849 215.469 69.3497 215.333C69.2145 215.198 69.1385 215.015 69.1385 214.824C69.1385 214.632 69.2145 214.449 69.3497 214.314C69.4849 214.179 69.6682 214.103 69.8594 214.103H104.685C104.877 214.103 105.06 214.179 105.195 214.314C105.33 214.449 105.406 214.632 105.406 214.824C105.406 215.015 105.33 215.198 105.195 215.333C105.06 215.469 104.877 215.545 104.685 215.545Z" fill="black"/>
</g>
<g opacity="0.3">
<path d="M131.589 221.968H74.8336C74.6424 221.968 74.459 221.892 74.3238 221.756C74.1886 221.621 74.1127 221.438 74.1127 221.247C74.1127 221.056 74.1886 220.872 74.3238 220.737C74.459 220.602 74.6424 220.526 74.8336 220.526H131.589C131.78 220.526 131.963 220.602 132.099 220.737C132.234 220.872 132.31 221.056 132.31 221.247C132.31 221.438 132.234 221.621 132.099 221.756C131.963 221.892 131.78 221.968 131.589 221.968Z" fill="black"/>
<path d="M131.646 225.579H69.8594C69.6683 225.579 69.4849 225.503 69.3497 225.368C69.2145 225.233 69.1386 225.05 69.1386 224.858C69.1386 224.667 69.2145 224.484 69.3497 224.349C69.4849 224.213 69.6683 224.137 69.8594 224.137H131.646C131.838 224.137 132.021 224.213 132.156 224.349C132.291 224.484 132.367 224.667 132.367 224.858C132.367 225.05 132.291 225.233 132.156 225.368C132.021 225.503 131.838 225.579 131.646 225.579Z" fill="black"/>
<path d="M131.747 229.191H69.9388C69.7476 229.191 69.5642 229.115 69.429 228.98C69.2938 228.845 69.2179 228.661 69.2179 228.47C69.2179 228.279 69.2938 228.096 69.429 227.96C69.5642 227.825 69.7476 227.749 69.9388 227.749H131.747C131.939 227.749 132.122 227.825 132.257 227.96C132.392 228.096 132.468 228.279 132.468 228.47C132.468 228.661 132.392 228.845 132.257 228.98C132.122 229.115 131.939 229.191 131.747 229.191Z" fill="black"/>
<path d="M121.727 232.803H70.018C69.8268 232.803 69.6435 232.727 69.5083 232.591C69.3731 232.456 69.2971 232.273 69.2971 232.082C69.2971 231.891 69.3731 231.707 69.5083 231.572C69.6435 231.437 69.8268 231.361 70.018 231.361H121.727C121.918 231.361 122.102 231.437 122.237 231.572C122.372 231.707 122.448 231.891 122.448 232.082C122.448 232.273 122.372 232.456 122.237 232.591C122.102 232.727 121.918 232.803 121.727 232.803Z" fill="black"/>
</g>
<g opacity="0.3">
<path d="M131.589 239.283H74.8336C74.6424 239.283 74.459 239.207 74.3238 239.072C74.1886 238.937 74.1127 238.754 74.1127 238.562C74.1127 238.371 74.1886 238.188 74.3238 238.053C74.459 237.918 74.6424 237.842 74.8336 237.842H131.589C131.78 237.842 131.963 237.918 132.099 238.053C132.234 238.188 132.31 238.371 132.31 238.562C132.31 238.754 132.234 238.937 132.099 239.072C131.963 239.207 131.78 239.283 131.589 239.283Z" fill="black"/>
<path d="M131.646 242.895H69.8594C69.6683 242.895 69.4849 242.819 69.3497 242.684C69.2145 242.549 69.1386 242.365 69.1386 242.174C69.1386 241.983 69.2145 241.8 69.3497 241.664C69.4849 241.529 69.6683 241.453 69.8594 241.453H131.646C131.838 241.453 132.021 241.529 132.156 241.664C132.291 241.8 132.367 241.983 132.367 242.174C132.367 242.365 132.291 242.549 132.156 242.684C132.021 242.819 131.838 242.895 131.646 242.895Z" fill="black"/>
<path d="M131.747 246.543H69.9388C69.7476 246.543 69.5642 246.467 69.429 246.331C69.2938 246.196 69.2179 246.013 69.2179 245.822C69.2179 245.631 69.2938 245.447 69.429 245.312C69.5642 245.177 69.7476 245.101 69.9388 245.101H131.747C131.939 245.101 132.122 245.177 132.257 245.312C132.392 245.447 132.468 245.631 132.468 245.822C132.468 246.013 132.392 246.196 132.257 246.331C132.122 246.467 131.939 246.543 131.747 246.543Z" fill="black"/>
<path d="M121.727 250.147H70.018C69.8268 250.147 69.6435 250.071 69.5083 249.936C69.3731 249.801 69.2971 249.618 69.2971 249.426C69.2971 249.235 69.3731 249.052 69.5083 248.917C69.6435 248.782 69.8268 248.706 70.018 248.706H121.727C121.918 248.706 122.102 248.782 122.237 248.917C122.372 249.052 122.448 249.235 122.448 249.426C122.448 249.618 122.372 249.801 122.237 249.936C122.102 250.071 121.918 250.147 121.727 250.147Z" fill="black"/>
</g>
<g opacity="0.3">
<path d="M104.685 155.653H69.8594C69.6682 155.653 69.4849 155.577 69.3497 155.442C69.2145 155.307 69.1385 155.124 69.1385 154.933C69.1385 154.741 69.2145 154.558 69.3497 154.423C69.4849 154.288 69.6682 154.212 69.8594 154.212H104.685C104.877 154.212 105.06 154.288 105.195 154.423C105.33 154.558 105.406 154.741 105.406 154.933C105.406 155.124 105.33 155.307 105.195 155.442C105.06 155.577 104.877 155.653 104.685 155.653Z" fill="black"/>
</g>
<path d="M296.325 83.7957H213.546C212.169 83.7957 211.052 84.9124 211.052 86.2899V223.042C211.052 224.419 212.169 225.536 213.546 225.536H296.325C297.703 225.536 298.82 224.419 298.82 223.042V86.2899C298.82 84.9124 297.703 83.7957 296.325 83.7957Z" fill="#D24347"/>
<path d="M231.734 83.1182H278.145C278.267 83.1182 278.384 83.1668 278.471 83.2534C278.557 83.3399 278.606 83.4572 278.606 83.5796V88.2221H231.265V83.5796C231.265 83.5184 231.278 83.4578 231.301 83.4013C231.325 83.3449 231.36 83.2937 231.403 83.2508C231.447 83.2078 231.498 83.174 231.555 83.1512C231.612 83.1285 231.673 83.1173 231.734 83.1182Z" fill="#263238"/>
<path opacity="0.9" d="M295.352 88.2222H214.527V221.088H295.352V88.2222Z" fill="white"/>
<path d="M270.777 94.3351H256.569L256.403 93.8377C256.302 93.5297 256.107 93.2614 255.845 93.0711C255.583 92.8809 255.267 92.7784 254.943 92.7784C254.619 92.7784 254.303 92.8809 254.041 93.0711C253.779 93.2614 253.584 93.5297 253.483 93.8377L253.317 94.3351H239.094C238.543 94.3351 238.014 94.1166 237.624 93.7275C237.233 93.3383 237.013 92.8103 237.011 92.259V87.0254C237.015 86.4747 237.236 85.9477 237.626 85.559C238.016 85.1702 238.544 84.9511 239.094 84.9492H270.813C271.363 84.9511 271.89 85.1705 272.279 85.5594C272.668 85.9484 272.887 86.4753 272.889 87.0254V92.2734C272.887 92.5479 272.831 92.8193 272.724 93.0719C272.616 93.3245 272.46 93.5533 272.263 93.745C272.067 93.9367 271.835 94.0876 271.579 94.1889C271.324 94.2902 271.052 94.3399 270.777 94.3351ZM257.556 92.8934H270.777C270.861 92.8943 270.944 92.8786 271.021 92.8471C271.098 92.8155 271.169 92.7688 271.228 92.7097C271.287 92.6506 271.334 92.5803 271.365 92.5029C271.397 92.4255 271.413 92.3426 271.412 92.259V87.0254C271.412 86.8571 271.345 86.6958 271.226 86.5768C271.107 86.4578 270.945 86.391 270.777 86.391H239.058C238.974 86.39 238.891 86.4057 238.813 86.4372C238.735 86.4687 238.665 86.5152 238.605 86.5742C238.545 86.6332 238.498 86.7035 238.466 86.7809C238.433 86.8584 238.417 86.9415 238.417 87.0254V92.2734C238.417 92.3573 238.433 92.4404 238.466 92.5178C238.498 92.5953 238.545 92.6656 238.605 92.7246C238.665 92.7836 238.735 92.8301 238.813 92.8616C238.891 92.893 238.974 92.9087 239.058 92.9078H252.323C252.578 92.4349 252.956 92.0399 253.417 91.7646C253.878 91.4892 254.406 91.3438 254.943 91.3438C255.48 91.3438 256.007 91.4892 256.469 91.7646C256.93 92.0399 257.308 92.4349 257.563 92.9078L257.556 92.8934Z" fill="#263238"/>
<g opacity="0.5">
<path d="M270.777 94.3351H256.569L256.403 93.8377C256.302 93.5297 256.107 93.2614 255.845 93.0711C255.583 92.8809 255.267 92.7784 254.943 92.7784C254.619 92.7784 254.303 92.8809 254.041 93.0711C253.779 93.2614 253.584 93.5297 253.483 93.8377L253.317 94.3351H239.094C238.543 94.3351 238.014 94.1166 237.624 93.7275C237.233 93.3383 237.013 92.8103 237.011 92.259V87.0254C237.015 86.4747 237.236 85.9477 237.626 85.559C238.016 85.1702 238.544 84.9511 239.094 84.9492H270.813C271.363 84.9511 271.89 85.1705 272.279 85.5594C272.668 85.9484 272.887 86.4753 272.889 87.0254V92.2734C272.887 92.5479 272.831 92.8193 272.724 93.0719C272.616 93.3245 272.46 93.5533 272.263 93.745C272.067 93.9367 271.835 94.0876 271.579 94.1889C271.324 94.2902 271.052 94.3399 270.777 94.3351ZM257.556 92.8934H270.777C270.861 92.8943 270.944 92.8786 271.021 92.8471C271.098 92.8155 271.169 92.7688 271.228 92.7097C271.287 92.6506 271.334 92.5803 271.365 92.5029C271.397 92.4255 271.413 92.3426 271.412 92.259V87.0254C271.412 86.8571 271.345 86.6958 271.226 86.5768C271.107 86.4578 270.945 86.391 270.777 86.391H239.058C238.974 86.39 238.891 86.4057 238.813 86.4372C238.735 86.4687 238.665 86.5152 238.605 86.5742C238.545 86.6332 238.498 86.7035 238.466 86.7809C238.433 86.8584 238.417 86.9415 238.417 87.0254V92.2734C238.417 92.3573 238.433 92.4404 238.466 92.5178C238.498 92.5953 238.545 92.6656 238.605 92.7246C238.665 92.7836 238.735 92.8301 238.813 92.8616C238.891 92.893 238.974 92.9087 239.058 92.9078H252.323C252.578 92.4349 252.956 92.0399 253.417 91.7646C253.878 91.4892 254.406 91.3438 254.943 91.3438C255.48 91.3438 256.007 91.4892 256.469 91.7646C256.93 92.0399 257.308 92.4349 257.563 92.9078L257.556 92.8934Z" fill="white"/>
</g>
<path d="M268.557 84.1128H241.322C240.928 84.1128 240.608 84.4323 240.608 84.8265V86.535C240.608 86.9291 240.928 87.2486 241.322 87.2486H268.557C268.951 87.2486 269.271 86.9291 269.271 86.535V84.8265C269.271 84.4323 268.951 84.1128 268.557 84.1128Z" fill="#263238"/>
<path opacity="0.2" d="M268.557 84.1128H241.322C240.928 84.1128 240.608 84.4323 240.608 84.8265V86.535C240.608 86.9291 240.928 87.2486 241.322 87.2486H268.557C268.951 87.2486 269.271 86.9291 269.271 86.535V84.8265C269.271 84.4323 268.951 84.1128 268.557 84.1128Z" fill="white"/>
<path d="M289.031 199.531C290.977 191.285 285.87 183.023 277.625 181.077C269.379 179.131 261.117 184.238 259.171 192.483C257.224 200.729 262.331 208.991 270.577 210.937C278.823 212.884 287.085 207.777 289.031 199.531Z" fill="#D24347"/>
<path opacity="0.3" d="M274.108 196.023H289.448C289.448 199.057 288.548 202.023 286.863 204.546C285.177 207.068 282.781 209.035 279.978 210.196C277.175 211.357 274.091 211.661 271.115 211.069C268.139 210.477 265.406 209.016 263.26 206.87C261.115 204.725 259.654 201.992 259.062 199.016C258.47 196.04 258.774 192.956 259.935 190.152C261.096 187.349 263.062 184.954 265.585 183.268C268.108 181.582 271.074 180.683 274.108 180.683H274.165L274.108 196.023Z" fill="white"/>
<path opacity="0.3" d="M274.108 196.023L282.383 208.934C280.377 210.221 278.098 211.024 275.728 211.277C273.358 211.53 270.961 211.227 268.728 210.393C266.495 209.558 264.488 208.215 262.864 206.469C261.241 204.723 260.047 202.623 259.377 200.336C258.707 198.048 258.579 195.636 259.004 193.29C259.429 190.944 260.394 188.73 261.824 186.822C263.254 184.915 265.108 183.367 267.24 182.301C269.373 181.235 271.724 180.681 274.108 180.683H274.158L274.108 196.023Z" fill="white"/>
<path opacity="0.3" d="M274.108 196.023L261.175 204.27C259.697 201.951 258.869 199.278 258.778 196.53C258.687 193.781 259.337 191.059 260.659 188.648C261.981 186.237 263.927 184.225 266.293 182.824C268.659 181.423 271.358 180.683 274.108 180.683H274.158L274.108 196.023Z" fill="white"/>
<g opacity="0.5">
<path d="M220.351 112.018V148.221H289.556V112.018H220.351ZM288.987 117.67H277.013V112.559H288.987V117.67ZM250.744 117.67H238.417V112.559H250.744V117.67ZM251.284 112.559H263.604V117.67H251.313L251.284 112.559ZM250.744 118.211V147.68H238.417V118.225L250.744 118.211ZM251.284 118.211H263.604V147.68H251.313L251.284 118.211ZM264.145 118.211H276.472V147.68H264.145V118.211ZM264.145 117.67V112.559H276.472V117.67H264.145ZM237.876 112.559V117.67H220.892V112.559H237.876ZM220.892 118.225H237.876V147.695H220.892V118.225ZM277.013 147.695V118.225H288.987V147.695H277.013Z" fill="black"/>
<path d="M242.345 123.271H247.334C247.525 123.271 247.709 123.195 247.844 123.06C247.979 122.925 248.055 122.742 248.055 122.55C248.055 122.359 247.979 122.176 247.844 122.041C247.709 121.906 247.525 121.83 247.334 121.83H242.345C242.154 121.83 241.971 121.906 241.836 122.041C241.701 122.176 241.625 122.359 241.625 122.55C241.625 122.742 241.701 122.925 241.836 123.06C241.971 123.195 242.154 123.271 242.345 123.271Z" fill="black"/>
<path d="M254.918 129.81H260.332C260.523 129.81 260.706 129.734 260.841 129.599C260.976 129.464 261.052 129.28 261.052 129.089C261.052 128.898 260.976 128.714 260.841 128.579C260.706 128.444 260.523 128.368 260.332 128.368H254.918C254.726 128.368 254.543 128.444 254.408 128.579C254.273 128.714 254.197 128.898 254.197 129.089C254.197 129.28 254.273 129.464 254.408 129.599C254.543 129.734 254.726 129.81 254.918 129.81Z" fill="black"/>
<path d="M260.591 141.452H254.918C254.726 141.452 254.543 141.528 254.408 141.663C254.273 141.798 254.197 141.982 254.197 142.173C254.197 142.364 254.273 142.548 254.408 142.683C254.543 142.818 254.726 142.894 254.918 142.894H260.569C260.761 142.894 260.944 142.818 261.079 142.683C261.214 142.548 261.29 142.364 261.29 142.173C261.29 141.982 261.214 141.798 261.079 141.663C260.944 141.528 260.761 141.452 260.569 141.452H260.591Z" fill="black"/>
<path d="M273.134 134.906H267.173C266.982 134.906 266.798 134.982 266.663 135.117C266.528 135.253 266.452 135.436 266.452 135.627C266.452 135.818 266.528 136.002 266.663 136.137C266.798 136.272 266.982 136.348 267.173 136.348H273.149C273.34 136.348 273.523 136.272 273.659 136.137C273.794 136.002 273.87 135.818 273.87 135.627C273.87 135.436 273.794 135.253 273.659 135.117C273.523 134.982 273.34 134.906 273.149 134.906H273.134Z" fill="black"/>
<path d="M286.031 121.83H279.976C279.784 121.83 279.601 121.906 279.466 122.041C279.331 122.176 279.255 122.359 279.255 122.55C279.255 122.742 279.331 122.925 279.466 123.06C279.601 123.195 279.784 123.271 279.976 123.271H286.031C286.222 123.271 286.406 123.195 286.541 123.06C286.676 122.925 286.752 122.742 286.752 122.55C286.752 122.359 286.676 122.176 286.541 122.041C286.406 121.906 286.222 121.83 286.031 121.83Z" fill="black"/>
<path d="M285.253 141.452H279.976C279.784 141.452 279.601 141.528 279.466 141.663C279.331 141.798 279.255 141.982 279.255 142.173C279.255 142.364 279.331 142.548 279.466 142.683C279.601 142.818 279.784 142.894 279.976 142.894H285.253C285.444 142.894 285.627 142.818 285.762 142.683C285.897 142.548 285.973 142.364 285.973 142.173C285.973 141.982 285.897 141.798 285.762 141.663C285.627 141.528 285.444 141.452 285.253 141.452Z" fill="black"/>
<path d="M242.345 136.348H246.62C246.812 136.348 246.995 136.272 247.13 136.137C247.265 136.002 247.341 135.818 247.341 135.627C247.341 135.436 247.265 135.253 247.13 135.117C246.995 134.982 246.812 134.906 246.62 134.906H242.345C242.154 134.906 241.971 134.982 241.836 135.117C241.701 135.253 241.625 135.436 241.625 135.627C241.625 135.818 241.701 136.002 241.836 136.137C241.971 136.272 242.154 136.348 242.345 136.348Z" fill="black"/>
<path d="M247.334 141.452H242.345C242.154 141.452 241.971 141.528 241.836 141.663C241.701 141.798 241.625 141.982 241.625 142.173C241.625 142.364 241.701 142.548 241.836 142.683C241.971 142.818 242.154 142.894 242.345 142.894H247.334C247.525 142.894 247.709 142.818 247.844 142.683C247.979 142.548 248.055 142.364 248.055 142.173C248.055 141.982 247.979 141.798 247.844 141.663C247.709 141.528 247.525 141.452 247.334 141.452Z" fill="black"/>
<path d="M223.494 123.271H234.899C235.09 123.271 235.273 123.195 235.408 123.06C235.544 122.925 235.62 122.742 235.62 122.55C235.62 122.359 235.544 122.176 235.408 122.041C235.273 121.906 235.09 121.83 234.899 121.83H223.494C223.303 121.83 223.12 121.906 222.985 122.041C222.849 122.176 222.773 122.359 222.773 122.55C222.773 122.742 222.849 122.925 222.985 123.06C223.12 123.195 223.303 123.271 223.494 123.271Z" fill="black"/>
<path d="M223.494 129.81H231.085C231.276 129.81 231.46 129.734 231.595 129.599C231.73 129.464 231.806 129.28 231.806 129.089C231.806 128.898 231.73 128.714 231.595 128.579C231.46 128.444 231.276 128.368 231.085 128.368H223.494C223.303 128.368 223.12 128.444 222.985 128.579C222.849 128.714 222.773 128.898 222.773 129.089C222.773 129.28 222.849 129.464 222.985 129.599C223.12 129.734 223.303 129.81 223.494 129.81Z" fill="black"/>
<path d="M234.899 134.906H223.494C223.303 134.906 223.12 134.982 222.985 135.117C222.849 135.253 222.773 135.436 222.773 135.627C222.773 135.818 222.849 136.002 222.985 136.137C223.12 136.272 223.303 136.348 223.494 136.348H234.899C235.09 136.348 235.273 136.272 235.408 136.137C235.544 136.002 235.62 135.818 235.62 135.627C235.62 135.436 235.544 135.253 235.408 135.117C235.273 134.982 235.09 134.906 234.899 134.906Z" fill="black"/>
<path d="M229.197 141.452H223.494C223.303 141.452 223.12 141.528 222.985 141.663C222.849 141.798 222.773 141.982 222.773 142.173C222.773 142.364 222.849 142.548 222.985 142.683C223.12 142.818 223.303 142.894 223.494 142.894H229.197C229.388 142.894 229.571 142.818 229.706 142.683C229.841 142.548 229.917 142.364 229.917 142.173C229.917 141.982 229.841 141.798 229.706 141.663C229.571 141.528 229.388 141.452 229.197 141.452Z" fill="black"/>
</g>
<g opacity="0.5">
<path d="M248.062 104.427H221.072C220.881 104.427 220.698 104.351 220.562 104.216C220.427 104.081 220.351 103.898 220.351 103.706C220.351 103.515 220.427 103.332 220.562 103.197C220.698 103.062 220.881 102.986 221.072 102.986H248.062C248.253 102.986 248.437 103.062 248.572 103.197C248.707 103.332 248.783 103.515 248.783 103.706C248.783 103.898 248.707 104.081 248.572 104.216C248.437 104.351 248.253 104.427 248.062 104.427Z" fill="black"/>
</g>
<g opacity="0.5">
<path d="M238.597 108.472H221.072C220.881 108.472 220.698 108.396 220.562 108.261C220.427 108.125 220.351 107.942 220.351 107.751C220.351 107.56 220.427 107.376 220.562 107.241C220.698 107.106 220.881 107.03 221.072 107.03H238.597C238.788 107.03 238.971 107.106 239.107 107.241C239.242 107.376 239.318 107.56 239.318 107.751C239.318 107.942 239.242 108.125 239.107 108.261C238.971 108.396 238.788 108.472 238.597 108.472Z" fill="black"/>
</g>
<g opacity="0.5">
<path d="M255.898 154.471H221.072C220.881 154.471 220.698 154.395 220.562 154.26C220.427 154.125 220.351 153.942 220.351 153.75C220.351 153.559 220.427 153.376 220.562 153.241C220.698 153.106 220.881 153.03 221.072 153.03H255.898C256.089 153.03 256.273 153.106 256.408 153.241C256.543 153.376 256.619 153.559 256.619 153.75C256.619 153.942 256.543 154.125 256.408 154.26C256.273 154.395 256.089 154.471 255.898 154.471Z" fill="black"/>
</g>
<path d="M224.655 183.047H220.351V187.351H224.655V183.047Z" fill="#D24347"/>
<g opacity="0.5">
<path d="M249.151 185.923H227.784C227.592 185.923 227.409 185.847 227.274 185.712C227.139 185.577 227.063 185.394 227.063 185.203C227.063 185.011 227.139 184.828 227.274 184.693C227.409 184.558 227.592 184.482 227.784 184.482H249.151C249.342 184.482 249.525 184.558 249.66 184.693C249.796 184.828 249.872 185.011 249.872 185.203C249.872 185.394 249.796 185.577 249.66 185.712C249.525 185.847 249.342 185.923 249.151 185.923Z" fill="black"/>
</g>
<path d="M224.655 190.263H220.351V194.567H224.655V190.263Z" fill="#D24347"/>
<g opacity="0.5">
<path d="M249.151 193.132H227.784C227.592 193.132 227.409 193.056 227.274 192.921C227.139 192.786 227.063 192.603 227.063 192.412C227.063 192.22 227.139 192.037 227.274 191.902C227.409 191.767 227.592 191.691 227.784 191.691H249.151C249.342 191.691 249.525 191.767 249.66 191.902C249.796 192.037 249.872 192.22 249.872 192.412C249.872 192.603 249.796 192.786 249.66 192.921C249.525 193.056 249.342 193.132 249.151 193.132Z" fill="black"/>
</g>
<path d="M224.655 197.472H220.351V201.776H224.655V197.472Z" fill="#D24347"/>
<g opacity="0.5">
<path d="M249.151 200.348H227.784C227.592 200.348 227.409 200.272 227.274 200.137C227.139 200.002 227.063 199.819 227.063 199.627C227.063 199.436 227.139 199.253 227.274 199.118C227.409 198.982 227.592 198.906 227.784 198.906H249.151C249.342 198.906 249.525 198.982 249.66 199.118C249.796 199.253 249.872 199.436 249.872 199.627C249.872 199.819 249.796 200.002 249.66 200.137C249.525 200.272 249.342 200.348 249.151 200.348Z" fill="black"/>
</g>
<path d="M224.655 204.688H220.351V208.992H224.655V204.688Z" fill="#D24347"/>
<g opacity="0.5">
<path d="M249.151 207.564H227.784C227.592 207.564 227.409 207.488 227.274 207.353C227.139 207.218 227.063 207.035 227.063 206.843C227.063 206.652 227.139 206.469 227.274 206.334C227.409 206.199 227.592 206.123 227.784 206.123H249.151C249.342 206.123 249.525 206.199 249.66 206.334C249.796 206.469 249.872 206.652 249.872 206.843C249.872 207.035 249.796 207.218 249.66 207.353C249.525 207.488 249.342 207.564 249.151 207.564Z" fill="black"/>
</g>
<g opacity="0.5">
<path d="M288.569 160.916H226.039C225.848 160.916 225.664 160.84 225.529 160.705C225.394 160.57 225.318 160.386 225.318 160.195C225.318 160.004 225.394 159.82 225.529 159.685C225.664 159.55 225.848 159.474 226.039 159.474H288.569C288.76 159.474 288.943 159.55 289.078 159.685C289.214 159.82 289.289 160.004 289.289 160.195C289.289 160.386 289.214 160.57 289.078 160.705C288.943 160.84 288.76 160.916 288.569 160.916Z" fill="black"/>
<path d="M288.648 164.527H221.072C220.881 164.527 220.698 164.452 220.562 164.316C220.427 164.181 220.351 163.998 220.351 163.807C220.351 163.615 220.427 163.432 220.562 163.297C220.698 163.162 220.881 163.086 221.072 163.086H288.648C288.839 163.086 289.022 163.162 289.158 163.297C289.293 163.432 289.369 163.615 289.369 163.807C289.369 163.998 289.293 164.181 289.158 164.316C289.022 164.452 288.839 164.527 288.648 164.527Z" fill="black"/>
<path d="M288.727 168.139H221.151C220.96 168.139 220.777 168.063 220.642 167.928C220.507 167.793 220.431 167.61 220.431 167.418C220.431 167.227 220.507 167.044 220.642 166.909C220.777 166.773 220.96 166.698 221.151 166.698H288.727C288.918 166.698 289.102 166.773 289.237 166.909C289.372 167.044 289.448 167.227 289.448 167.418C289.448 167.61 289.372 167.793 289.237 167.928C289.102 168.063 288.918 168.139 288.727 168.139Z" fill="black"/>
<path d="M278.707 171.751H221.231C221.04 171.751 220.856 171.675 220.721 171.54C220.586 171.405 220.51 171.221 220.51 171.03C220.51 170.839 220.586 170.655 220.721 170.52C220.856 170.385 221.04 170.309 221.231 170.309H278.707C278.898 170.309 279.081 170.385 279.217 170.52C279.352 170.655 279.428 170.839 279.428 171.03C279.428 171.221 279.352 171.405 279.217 171.54C279.081 171.675 278.898 171.751 278.707 171.751Z" fill="black"/>
</g>
<path opacity="0.3" d="M224.655 190.263H220.351V194.567H224.655V190.263Z" fill="white"/>
<path opacity="0.5" d="M224.655 197.472H220.351V201.776H224.655V197.472Z" fill="white"/>
<path opacity="0.7" d="M224.655 204.688H220.351V208.992H224.655V204.688Z" fill="white"/>
<path d="M294.141 243.839C294.141 243.839 290.717 236.371 294.631 229.004C298.546 221.636 299.678 219.906 297.183 218.399C294.689 216.893 293.543 224.289 293.543 224.289C292.309 220.943 292.183 217.289 293.182 213.865C294.912 208.538 296.001 199.858 293.636 198.928C291.272 197.998 293.182 209.742 291.121 213.764C290.075 210.949 289.399 208.009 289.109 205.02C288.828 200.745 289.268 193.911 287.401 192.159C285.534 190.407 284.33 191.619 286.168 201.062C287.273 206.705 287.883 212.434 287.992 218.183C287.992 218.183 283.933 205.791 281.201 205.431C278.469 205.07 278.476 209.086 280.812 212.567C283.148 216.049 287.653 222.278 288.388 225.486C288.388 225.486 283.926 216.165 279.918 218.998C275.91 221.831 283.407 227.49 286.752 229.523C290.097 231.556 292.404 244.337 292.404 244.337L294.141 243.839Z" fill="#D24347"/>
<path opacity="0.2" d="M294.141 243.839C294.141 243.839 290.717 236.371 294.631 229.004C298.546 221.636 299.678 219.906 297.183 218.399C294.689 216.893 293.543 224.289 293.543 224.289C292.309 220.943 292.183 217.289 293.182 213.865C294.912 208.538 296.001 199.858 293.636 198.928C291.272 197.998 293.182 209.742 291.121 213.764C290.075 210.949 289.399 208.009 289.109 205.02C288.828 200.745 289.268 193.911 287.401 192.159C285.534 190.407 284.33 191.619 286.168 201.062C287.273 206.705 287.883 212.434 287.992 218.183C287.992 218.183 283.933 205.791 281.201 205.431C278.469 205.07 278.476 209.086 280.812 212.567C283.148 216.049 287.653 222.278 288.388 225.486C288.388 225.486 283.926 216.165 279.918 218.998C275.91 221.831 283.407 227.49 286.752 229.523C290.097 231.556 292.404 244.337 292.404 244.337L294.141 243.839Z" fill="black"/>
<path d="M291.438 246.903C291.438 246.903 294.775 239.384 290.775 232.082C286.774 224.779 285.62 223.056 288.093 221.506C290.565 219.956 291.805 227.345 291.805 227.345C293 223.986 293.083 220.332 292.043 216.921C290.248 211.616 289.052 202.958 291.409 201.992C293.766 201.026 291.993 212.805 294.098 216.785C295.111 213.957 295.753 211.011 296.008 208.019C296.239 203.729 295.713 196.903 297.565 195.122C299.418 193.341 300.629 194.538 298.899 204.01C297.863 209.669 297.323 215.408 297.284 221.16C297.284 221.16 301.199 208.711 303.938 208.336C306.677 207.961 306.706 211.94 304.414 215.458C302.121 218.976 297.695 225.277 296.996 228.492C296.996 228.492 301.321 219.12 305.387 221.903C309.453 224.685 301.999 230.445 298.683 232.529C295.367 234.612 293.19 247.4 293.19 247.4L291.438 246.903Z" fill="#D24347"/>
<path d="M306.821 241.547H279.276L281.504 261.256H304.587L306.821 241.547Z" fill="#263238"/>
<path d="M140.485 72.4995H161.203C162.893 72.4995 164.514 73.1709 165.709 74.366C166.904 75.5611 167.575 77.182 167.575 78.8721V96.8942C167.575 98.5844 166.904 100.205 165.709 101.4C164.514 102.595 162.893 103.267 161.203 103.267H155.147L157.31 111.125L150.822 103.267H140.485C139.647 103.268 138.818 103.104 138.044 102.784C137.27 102.464 136.566 101.995 135.974 101.403C135.381 100.811 134.911 100.108 134.591 99.3346C134.27 98.561 134.105 97.7317 134.105 96.8942V78.8721C134.105 78.0347 134.27 77.2054 134.591 76.4318C134.911 75.6581 135.381 74.9553 135.974 74.3635C136.566 73.7716 137.27 73.3024 138.044 72.9825C138.818 72.6627 139.647 72.4986 140.485 72.4995Z" fill="#D24347"/>
<path opacity="0.7" d="M140.485 72.4995H161.203C162.893 72.4995 164.514 73.1709 165.709 74.366C166.904 75.5611 167.575 77.182 167.575 78.8721V96.8942C167.575 98.5844 166.904 100.205 165.709 101.4C164.514 102.595 162.893 103.267 161.203 103.267H155.147L157.31 111.125L150.822 103.267H140.485C139.647 103.268 138.818 103.104 138.044 102.784C137.27 102.464 136.566 101.995 135.974 101.403C135.381 100.811 134.911 100.108 134.591 99.3346C134.27 98.561 134.105 97.7317 134.105 96.8942V78.8721C134.105 78.0347 134.27 77.2054 134.591 76.4318C134.911 75.6581 135.381 74.9553 135.974 74.3635C136.566 73.7716 137.27 73.3024 138.044 72.9825C138.818 72.6627 139.647 72.4986 140.485 72.4995Z" fill="white"/>
<path opacity="0.7" d="M147.708 91.8118C151.271 91.8118 154.16 88.9232 154.16 85.3599C154.16 81.7966 151.271 78.908 147.708 78.908C144.145 78.908 141.256 81.7966 141.256 85.3599C141.256 88.9232 144.145 91.8118 147.708 91.8118Z" fill="white"/>
<path d="M147.708 92.742C146 92.7406 144.346 92.1473 143.027 91.0631C141.708 89.9789 140.805 88.4709 140.473 86.796C140.141 85.1211 140.4 83.3828 141.205 81.8773C142.011 80.3717 143.314 79.1921 144.892 78.5392C146.469 77.8863 148.225 77.8006 149.859 78.2967C151.492 78.7927 152.904 79.8399 153.852 81.2598C154.801 82.6796 155.228 84.3844 155.06 86.0837C154.893 87.7831 154.142 89.3718 152.934 90.5793C152.249 91.2663 151.434 91.8111 150.537 92.1822C149.64 92.5533 148.679 92.7436 147.708 92.742ZM147.708 79.8454C146.432 79.8456 145.196 80.2882 144.21 81.0977C143.223 81.9073 142.549 83.0337 142.3 84.2851C142.051 85.5365 142.244 86.8354 142.846 87.9605C143.447 89.0856 144.42 89.9673 145.599 90.4554C146.778 90.9435 148.089 91.0077 149.31 90.6372C150.531 90.2667 151.586 89.4843 152.295 88.4234C153.003 87.3624 153.322 86.0886 153.197 84.8189C153.072 83.5492 152.51 82.3622 151.608 81.4601C151.097 80.9462 150.489 80.5387 149.82 80.2615C149.15 79.9843 148.432 79.8429 147.708 79.8454Z" fill="#D24347"/>
<path d="M152.936 89.2599L151.611 90.5852L158.966 97.9408L160.292 96.6155L152.936 89.2599Z" fill="#D24347"/>
<path d="M160.417 99.4821C160.045 99.4787 159.688 99.3315 159.422 99.0712L153.807 93.4555C153.666 93.3276 153.553 93.1726 153.475 92.9999C153.396 92.8271 153.353 92.6402 153.348 92.4504C153.344 92.2606 153.378 92.0719 153.448 91.8956C153.518 91.7192 153.624 91.559 153.758 91.4245C153.892 91.29 154.052 91.1841 154.228 91.1131C154.404 91.042 154.592 91.0074 154.782 91.0113C154.972 91.0151 155.159 91.0574 155.332 91.1356C155.505 91.2137 155.661 91.3261 155.789 91.4659L161.412 97.0888C161.606 97.2857 161.738 97.5357 161.791 97.8074C161.844 98.0791 161.816 98.3604 161.71 98.616C161.603 98.8716 161.424 99.0901 161.194 99.2442C160.964 99.3983 160.694 99.481 160.417 99.4821Z" fill="#D24347"/>
<path d="M148.71 82.4401C148.71 82.7252 148.625 83.004 148.467 83.2411C148.309 83.4782 148.083 83.663 147.82 83.7721C147.556 83.8812 147.267 83.9098 146.987 83.8541C146.707 83.7985 146.45 83.6612 146.249 83.4595C146.047 83.2579 145.91 83.001 145.854 82.7213C145.798 82.4417 145.827 82.1518 145.936 81.8883C146.045 81.6249 146.23 81.3997 146.467 81.2413C146.704 81.0829 146.983 80.9983 147.268 80.9983C147.651 80.9983 148.017 81.1502 148.288 81.4206C148.558 81.691 148.71 82.0577 148.71 82.4401Z" fill="white"/>
<path d="M150.851 83.4929C150.851 83.6354 150.809 83.7748 150.729 83.8934C150.65 84.0119 150.538 84.1043 150.406 84.1589C150.274 84.2134 150.129 84.2277 149.989 84.1999C149.85 84.1721 149.721 84.1034 149.62 84.0026C149.519 83.9018 149.451 83.7733 149.423 83.6335C149.395 83.4937 149.409 83.3487 149.464 83.217C149.519 83.0853 149.611 82.9727 149.73 82.8935C149.848 82.8142 149.987 82.772 150.13 82.772C150.321 82.772 150.505 82.8479 150.64 82.9831C150.775 83.1183 150.851 83.3017 150.851 83.4929Z" fill="white"/>
<path d="M208.623 205.063H101.254V222.343H208.623V205.063Z" fill="#D24347"/>
<path opacity="0.8" d="M208.623 205.063H101.254V222.343H208.623V205.063Z" fill="white"/>
<path opacity="0.2" d="M208.623 209.633V208.228L135.114 208.812L208.623 209.633Z" fill="black"/>
<path opacity="0.2" d="M208.623 215.689V214.6L175.62 215.783L208.623 215.689Z" fill="black"/>
<path opacity="0.2" d="M208.623 219.74V218.334L155.414 219.149L208.623 219.74Z" fill="black"/>
<path opacity="0.2" d="M125.259 205.063L123.717 217.945L125.555 215.984C126.173 218.336 127.328 220.513 128.929 222.343C130.077 220.838 130.991 219.168 131.639 217.39L181.784 216.813L132.115 215.725C132.269 215.014 132.349 214.289 132.353 213.562C132.35 212.96 132.292 212.359 132.18 211.767L205.753 211.58L132.007 211.003C131.747 210.032 131.385 209.092 130.926 208.199C131.986 207.263 133.354 206.75 134.768 206.757H208.623V205.063H125.259Z" fill="black"/>
<path d="M126.917 213.606C126.923 215.677 127.75 217.662 129.216 219.125C130.682 220.588 132.668 221.411 134.739 221.413H209.862C209.938 221.413 210.013 221.428 210.083 221.457C210.153 221.486 210.217 221.528 210.27 221.582C210.324 221.635 210.366 221.699 210.395 221.769C210.424 221.839 210.439 221.914 210.439 221.99V222.609C210.439 222.762 210.378 222.909 210.27 223.017C210.162 223.125 210.015 223.186 209.862 223.186H98.8895C97.6237 223.186 96.3704 222.936 95.202 222.449C94.0336 221.962 92.9731 221.249 92.0817 220.35C91.1904 219.451 90.4858 218.385 90.0086 217.213C89.5315 216.04 89.2912 214.785 89.3017 213.519C89.3641 210.961 90.4303 208.529 92.27 206.75C94.1098 204.971 96.5754 203.987 99.1346 204.011H209.862C210.015 204.011 210.162 204.071 210.27 204.18C210.378 204.288 210.439 204.434 210.439 204.587V205.2C210.439 205.353 210.378 205.5 210.27 205.608C210.162 205.716 210.015 205.777 209.862 205.777H134.97C132.871 205.772 130.854 206.589 129.35 208.052C127.845 209.515 126.972 211.508 126.917 213.606Z" fill="#D24347"/>
<path opacity="0.4" d="M126.917 213.606C126.923 215.677 127.75 217.662 129.216 219.125C130.682 220.588 132.668 221.411 134.739 221.413H209.862C209.938 221.413 210.013 221.428 210.083 221.457C210.153 221.486 210.217 221.528 210.27 221.582C210.324 221.635 210.366 221.699 210.395 221.769C210.424 221.839 210.439 221.914 210.439 221.99V222.609C210.439 222.762 210.378 222.909 210.27 223.017C210.162 223.125 210.015 223.186 209.862 223.186H98.8895C97.6237 223.186 96.3704 222.936 95.202 222.449C94.0336 221.962 92.9731 221.249 92.0817 220.35C91.1904 219.451 90.4858 218.385 90.0086 217.213C89.5315 216.04 89.2912 214.785 89.3017 213.519C89.3641 210.961 90.4303 208.529 92.27 206.75C94.1098 204.971 96.5754 203.987 99.1346 204.011H209.862C210.015 204.011 210.162 204.071 210.27 204.18C210.378 204.288 210.439 204.434 210.439 204.587V205.2C210.439 205.353 210.378 205.5 210.27 205.608C210.162 205.716 210.015 205.777 209.862 205.777H134.97C132.871 205.772 130.854 206.589 129.35 208.052C127.845 209.515 126.972 211.508 126.917 213.606Z" fill="white"/>
<path d="M126.918 213.605C126.923 215.677 127.75 217.661 129.216 219.125C130.682 220.588 132.668 221.411 134.739 221.413H209.862C209.938 221.413 210.013 221.428 210.083 221.456C210.153 221.485 210.217 221.528 210.27 221.582C210.324 221.635 210.366 221.699 210.395 221.769C210.424 221.839 210.439 221.914 210.439 221.989V222.609C210.439 222.762 210.378 222.909 210.27 223.017C210.162 223.125 210.015 223.186 209.862 223.186H134.307C133.041 223.185 131.788 222.934 130.619 222.447C129.451 221.96 128.39 221.247 127.498 220.348C126.607 219.45 125.901 218.384 125.423 217.212C124.945 216.04 124.703 214.785 124.712 213.519C124.778 210.964 125.843 208.537 127.679 206.759C129.515 204.981 131.974 203.994 134.53 204.01H209.862C210.015 204.01 210.162 204.071 210.27 204.179C210.378 204.288 210.439 204.434 210.439 204.587V205.2C210.439 205.353 210.378 205.5 210.27 205.608C210.162 205.716 210.015 205.777 209.862 205.777H134.97C132.871 205.772 130.854 206.589 129.35 208.051C127.845 209.514 126.972 211.508 126.918 213.605Z" fill="#D24347"/>
<path d="M141.061 208.948V215.876L143.57 213.368L145.999 215.797V208.948H141.061Z" fill="#263238"/>
<path opacity="0.6" d="M126.918 213.605C126.923 215.677 127.75 217.661 129.216 219.125C130.682 220.588 132.668 221.411 134.739 221.413H209.862C209.938 221.413 210.013 221.428 210.083 221.456C210.153 221.485 210.217 221.528 210.27 221.582C210.324 221.635 210.366 221.699 210.395 221.769C210.424 221.839 210.439 221.914 210.439 221.989V222.609C210.439 222.762 210.378 222.909 210.27 223.017C210.162 223.125 210.015 223.186 209.862 223.186H134.307C133.041 223.185 131.788 222.934 130.619 222.447C129.451 221.96 128.39 221.247 127.498 220.348C126.607 219.45 125.901 218.384 125.423 217.212C124.945 216.04 124.703 214.785 124.712 213.519C124.778 210.964 125.843 208.537 127.679 206.759C129.515 204.981 131.974 203.994 134.53 204.01H209.862C210.015 204.01 210.162 204.071 210.27 204.179C210.378 204.288 210.439 204.434 210.439 204.587V205.2C210.439 205.353 210.378 205.5 210.27 205.608C210.162 205.716 210.015 205.777 209.862 205.777H134.97C132.871 205.772 130.854 206.589 129.35 208.051C127.845 209.514 126.972 211.508 126.918 213.605Z" fill="white"/>
<path d="M213.806 243.14H106.437V260.42H213.806V243.14Z" fill="#D24347"/>
<path opacity="0.7" d="M213.806 243.14H106.437V260.42H213.806V243.14Z" fill="white"/>
<path opacity="0.2" d="M213.806 247.703V246.298L140.297 246.889L213.806 247.703Z" fill="black"/>
<path opacity="0.2" d="M213.806 253.759V252.677L180.804 253.852L213.806 253.759Z" fill="black"/>
<path opacity="0.2" d="M213.806 257.81V256.412L160.597 257.219L213.806 257.81Z" fill="black"/>
<path opacity="0.2" d="M130.443 243.14L128.886 256.022L130.724 254.062C131.348 256.412 132.505 258.588 134.105 260.42C135.248 258.91 136.159 257.239 136.808 255.46L186.953 254.883L137.284 253.802C137.44 253.091 137.522 252.367 137.529 251.639C137.524 251.037 137.464 250.436 137.349 249.844L210.944 249.679L137.19 249.102C136.931 248.134 136.568 247.196 136.109 246.305C137.164 245.356 138.532 244.83 139.951 244.827H213.827V243.14H130.443Z" fill="black"/>
<path d="M132.101 251.675C132.097 252.705 132.296 253.725 132.688 254.676C133.079 255.628 133.655 256.493 134.382 257.222C135.109 257.951 135.972 258.529 136.923 258.923C137.874 259.317 138.893 259.52 139.922 259.519H215.046C215.199 259.519 215.345 259.579 215.453 259.688C215.562 259.796 215.622 259.942 215.622 260.095V260.715C215.622 260.868 215.562 261.015 215.453 261.123C215.345 261.231 215.199 261.292 215.046 261.292H98.1686C96.904 261.29 95.6522 261.038 94.4851 260.551C93.318 260.064 92.2586 259.352 91.3677 258.454C90.4768 257.557 89.772 256.492 89.2938 255.321C88.8155 254.15 88.5733 252.897 88.5809 251.632C88.6413 249.071 89.7075 246.636 91.5488 244.854C93.3901 243.072 95.8587 242.086 98.4209 242.109H215.046C215.199 242.109 215.345 242.17 215.453 242.278C215.562 242.386 215.622 242.533 215.622 242.686V243.306C215.622 243.459 215.562 243.606 215.453 243.714C215.345 243.822 215.199 243.883 215.046 243.883H140.153C138.06 243.878 136.049 244.689 134.545 246.145C133.041 247.6 132.164 249.584 132.101 251.675Z" fill="#263238"/>
<path opacity="0.2" d="M132.101 251.675C132.097 252.705 132.296 253.725 132.688 254.676C133.079 255.628 133.655 256.493 134.382 257.222C135.109 257.951 135.972 258.529 136.923 258.923C137.874 259.317 138.893 259.52 139.922 259.519H215.046C215.199 259.519 215.345 259.579 215.453 259.688C215.562 259.796 215.622 259.942 215.622 260.095V260.715C215.622 260.868 215.562 261.015 215.453 261.123C215.345 261.231 215.199 261.292 215.046 261.292H98.1686C96.904 261.29 95.6522 261.038 94.4851 260.551C93.318 260.064 92.2586 259.352 91.3677 258.454C90.4768 257.557 89.772 256.492 89.2938 255.321C88.8155 254.15 88.5733 252.897 88.5809 251.632C88.6413 249.071 89.7075 246.636 91.5488 244.854C93.3901 243.072 95.8587 242.086 98.4209 242.109H215.046C215.199 242.109 215.345 242.17 215.453 242.278C215.562 242.386 215.622 242.533 215.622 242.686V243.306C215.622 243.459 215.562 243.606 215.453 243.714C215.345 243.822 215.199 243.883 215.046 243.883H140.153C138.06 243.878 136.049 244.689 134.545 246.145C133.041 247.6 132.164 249.584 132.101 251.675Z" fill="white"/>
<path d="M132.101 251.675C132.097 252.705 132.296 253.725 132.688 254.676C133.079 255.628 133.655 256.493 134.382 257.222C135.109 257.951 135.972 258.529 136.923 258.923C137.874 259.317 138.893 259.52 139.922 259.519H215.046C215.199 259.519 215.345 259.579 215.453 259.688C215.562 259.796 215.622 259.942 215.622 260.095V260.715C215.622 260.868 215.562 261.015 215.453 261.123C215.345 261.231 215.199 261.292 215.046 261.292H139.49C138.225 261.292 136.972 261.042 135.804 260.555C134.636 260.069 133.576 259.356 132.685 258.458C131.793 257.56 131.089 256.495 130.611 255.323C130.133 254.152 129.892 252.897 129.902 251.632C129.961 249.071 131.025 246.636 132.865 244.854C134.705 243.072 137.173 242.086 139.735 242.109H215.046C215.199 242.109 215.345 242.17 215.453 242.278C215.562 242.386 215.622 242.533 215.622 242.686V243.306C215.622 243.459 215.562 243.606 215.453 243.714C215.345 243.822 215.199 243.883 215.046 243.883H140.153C138.06 243.878 136.049 244.689 134.545 246.145C133.041 247.6 132.164 249.584 132.101 251.675Z" fill="#263238"/>
<path d="M140.297 249.484V256.412L142.799 253.903L145.228 256.332V249.484H140.297Z" fill="#D24347"/>
<path opacity="0.4" d="M132.101 251.675C132.097 252.705 132.296 253.725 132.688 254.676C133.079 255.628 133.655 256.493 134.382 257.222C135.109 257.951 135.972 258.529 136.923 258.923C137.874 259.317 138.893 259.52 139.922 259.519H215.046C215.199 259.519 215.345 259.579 215.453 259.688C215.562 259.796 215.622 259.942 215.622 260.095V260.715C215.622 260.868 215.562 261.015 215.453 261.123C215.345 261.231 215.199 261.292 215.046 261.292H139.49C138.225 261.292 136.972 261.042 135.804 260.555C134.636 260.069 133.576 259.356 132.685 258.458C131.793 257.56 131.089 256.495 130.611 255.323C130.133 254.152 129.892 252.897 129.902 251.632C129.961 249.071 131.025 246.636 132.865 244.854C134.705 243.072 137.173 242.086 139.735 242.109H215.046C215.199 242.109 215.345 242.17 215.453 242.278C215.562 242.386 215.622 242.533 215.622 242.686V243.306C215.622 243.459 215.562 243.606 215.453 243.714C215.345 243.822 215.199 243.883 215.046 243.883H140.153C138.06 243.878 136.049 244.689 134.545 246.145C133.041 247.6 132.164 249.584 132.101 251.675Z" fill="white"/>
<path d="M96.7773 241.353H136.556V224.095H96.7773V241.353Z" fill="#D24347"/>
<path opacity="0.8" d="M96.7773 241.353H136.556V224.095H96.7773V241.353Z" fill="white"/>
<path opacity="0.2" d="M133.369 225.789H96.7773V224.102H133.326L133.369 225.789Z" fill="black"/>
<path opacity="0.2" d="M133.369 227.259L100.36 227.966L133.369 228.665V227.259Z" fill="black"/>
<path opacity="0.2" d="M133.369 233.639L98.4137 234.23L133.369 234.727V233.639Z" fill="black"/>
<path opacity="0.2" d="M133.369 237.373L98.7237 238.073L133.369 238.772V237.373Z" fill="black"/>
<path opacity="0.2" d="M96.7773 229.717L130.291 230.727L96.7773 231.433V229.717Z" fill="black"/>
<path d="M185.561 232.637C185.558 234.709 184.732 236.696 183.266 238.161C181.8 239.626 179.812 240.449 177.74 240.451H94.9391C94.7861 240.451 94.6394 240.512 94.5313 240.62C94.4231 240.728 94.3623 240.875 94.3623 241.028V241.641C94.3623 241.794 94.4231 241.94 94.5313 242.048C94.6394 242.157 94.7861 242.217 94.9391 242.217H178.172C179.438 242.219 180.692 241.97 181.86 241.485C183.029 240.999 184.09 240.286 184.982 239.388C185.874 238.49 186.578 237.423 187.055 236.251C187.532 235.079 187.772 233.823 187.76 232.557C187.702 229.996 186.637 227.561 184.797 225.779C182.957 223.997 180.489 223.011 177.927 223.035H94.9391C94.7861 223.035 94.6394 223.095 94.5313 223.204C94.4231 223.312 94.3623 223.458 94.3623 223.611V224.231C94.3623 224.384 94.4231 224.531 94.5313 224.639C94.6394 224.747 94.7861 224.808 94.9391 224.808H177.509C179.608 224.803 181.625 225.62 183.129 227.083C184.634 228.546 185.507 230.539 185.561 232.637Z" fill="#263238"/>
<path opacity="0.4" d="M185.561 232.637C185.558 234.709 184.732 236.696 183.266 238.161C181.8 239.626 179.812 240.449 177.74 240.451H94.9391C94.7861 240.451 94.6394 240.512 94.5313 240.62C94.4231 240.728 94.3623 240.875 94.3623 241.028V241.641C94.3623 241.794 94.4231 241.94 94.5313 242.048C94.6394 242.157 94.7861 242.217 94.9391 242.217H178.172C179.438 242.219 180.692 241.97 181.86 241.485C183.029 240.999 184.09 240.286 184.982 239.388C185.874 238.49 186.578 237.423 187.055 236.251C187.532 235.079 187.772 233.823 187.76 232.557C187.702 229.996 186.637 227.561 184.797 225.779C182.957 223.997 180.489 223.011 177.927 223.035H94.9391C94.7861 223.035 94.6394 223.095 94.5313 223.204C94.4231 223.312 94.3623 223.458 94.3623 223.611V224.231C94.3623 224.384 94.4231 224.531 94.5313 224.639C94.6394 224.747 94.7861 224.808 94.9391 224.808H177.509C179.608 224.803 181.625 225.62 183.129 227.083C184.634 228.546 185.507 230.539 185.561 232.637Z" fill="white"/>
<path d="M215.759 232.738C215.759 235.032 214.848 237.233 213.226 238.855C211.603 240.477 209.403 241.389 207.109 241.389H133.369V224.087H207.116C209.409 224.089 211.607 225.002 213.228 226.624C214.849 228.246 215.759 230.445 215.759 232.738Z" fill="#D24347"/>
<path opacity="0.7" d="M133.369 224.102V241.403H207.123C209.417 241.403 211.618 240.492 213.24 238.869C214.862 237.247 215.774 235.047 215.774 232.752C215.774 230.458 214.862 228.258 213.24 226.636C211.618 225.013 209.417 224.102 207.123 224.102H133.369Z" fill="white"/>
<path opacity="0.2" d="M133.369 228.665V227.259L206.878 227.85L133.369 228.665Z" fill="black"/>
<path opacity="0.2" d="M133.369 234.727V233.639L166.372 234.821L133.369 234.727Z" fill="black"/>
<path opacity="0.2" d="M133.369 238.772V237.373L186.578 238.181L133.369 238.772Z" fill="black"/>
<path opacity="0.2" d="M207.238 225.789C208.657 225.792 210.025 226.318 211.081 227.266C210.621 228.161 210.256 229.101 209.992 230.071L136.246 230.647L209.826 230.828C209.712 231.422 209.651 232.025 209.646 232.63C209.648 233.358 209.732 234.084 209.899 234.793L160.222 235.874L210.36 236.458C210.794 237.654 211.353 238.802 212.025 239.882C213.534 238.832 214.67 237.328 215.267 235.589C215.863 233.85 215.891 231.966 215.344 230.211C214.798 228.455 213.706 226.919 212.228 225.826C210.75 224.733 208.962 224.139 207.123 224.131H133.369V225.817L207.238 225.789Z" fill="black"/>
<path d="M215.074 232.637C215.071 234.709 214.245 236.696 212.779 238.161C211.313 239.626 209.325 240.449 207.253 240.451H132.129C131.977 240.451 131.83 240.512 131.722 240.62C131.614 240.728 131.553 240.875 131.553 241.028V241.641C131.553 241.794 131.614 241.94 131.722 242.048C131.83 242.157 131.977 242.217 132.129 242.217H207.685C208.951 242.219 210.205 241.97 211.374 241.485C212.542 240.999 213.603 240.286 214.495 239.388C215.387 238.49 216.091 237.423 216.568 236.251C217.045 235.079 217.285 233.823 217.273 232.557C217.215 229.996 216.15 227.561 214.31 225.779C212.47 223.997 210.002 223.011 207.44 223.035H132.129C131.977 223.035 131.83 223.095 131.722 223.204C131.614 223.312 131.553 223.458 131.553 223.611V224.231C131.553 224.384 131.614 224.531 131.722 224.639C131.83 224.747 131.977 224.808 132.129 224.808H207.022C209.121 224.803 211.138 225.62 212.642 227.083C214.147 228.546 215.02 230.539 215.074 232.637Z" fill="#263238"/>
<path d="M206.878 230.445V237.373L204.369 234.864L201.94 237.293V230.445H206.878Z" fill="#D24347"/>
<path d="M226.364 133.068H224.561C224.227 133.075 223.898 133.162 223.603 133.321C223.309 133.48 223.056 133.707 222.867 133.984L221.079 136.593C220.725 137.109 220.499 137.702 220.421 138.323C220.343 138.944 220.416 139.575 220.633 140.162L220.906 140.883C223.898 141.027 227.243 138.98 227.243 138.98L228.267 138.504C228.478 138.412 228.669 138.278 228.829 138.112C228.988 137.945 229.114 137.749 229.197 137.533C229.28 137.318 229.319 137.089 229.313 136.858C229.307 136.627 229.255 136.4 229.161 136.19L228.245 134.207C228.074 133.856 227.806 133.562 227.472 133.36C227.139 133.158 226.754 133.057 226.364 133.068Z" fill="#EEC1BB"/>
<path d="M192.201 136.247C196.829 139.988 201.825 143.593 207.339 145.799L206.654 145.655C207.159 145.777 208.486 145.273 209.178 144.934C213.027 143.059 216.675 140.248 220.135 137.682C220.489 137.425 220.923 137.304 221.359 137.34C221.795 137.376 222.203 137.566 222.511 137.877C222.818 138.188 223.004 138.599 223.035 139.035C223.066 139.471 222.94 139.904 222.68 140.255C219.227 144.58 211.456 153.368 205.299 152.085C198.552 150.074 192.59 146.318 187.277 141.726C183.831 138.41 188.452 133.227 192.201 136.247Z" fill="#EBC0BB"/>
<path d="M182.491 131.151C180.804 135.851 183.521 140.522 190.06 146.023C193.311 145.54 197.701 138.872 197.701 138.872C197.701 138.872 188.503 129.673 182.491 131.151Z" fill="#2D2F82"/>
<path d="M188.113 101.955C188.113 101.955 181.676 95.3658 173.285 103.634C164.894 111.903 163.257 139.297 163.257 139.297L185.158 143.55C185.158 143.55 187.991 140.299 189.447 130.92C190.903 121.541 191.675 112.573 193.52 110.483C195.366 108.392 188.113 101.955 188.113 101.955Z" fill="#263238"/>
<path d="M206.921 240.682L202.178 238.793L204.031 231.88L205.739 225.536L211.737 226.863L209.192 234.18L206.921 240.682Z" fill="#EEC1BB"/>
<path opacity="0.2" d="M209.134 234.331L203.98 232.01L205.717 225.601L211.722 226.899L209.134 234.331Z" fill="black"/>
<path d="M171.028 178.39C171.028 178.39 210.677 173.041 221.692 180.077C232.707 187.113 211.376 229.962 211.376 229.962L204.701 228.521C204.701 228.521 209.704 194.553 209.329 193.133C208.954 191.712 190.283 200.976 164.728 201.855L171.028 178.39Z" fill="#263238"/>
<path opacity="0.2" d="M171.028 178.39C171.028 178.39 210.677 173.041 221.692 180.077C232.707 187.113 211.376 229.962 211.376 229.962L204.701 228.521C204.701 228.521 209.704 194.553 209.329 193.133C208.954 191.712 190.283 200.976 164.728 201.855L171.028 178.39Z" fill="black"/>
<path d="M204.333 226.358L212.732 229.083L211.225 232.911L203.511 230.287L204.333 226.358Z" fill="#263238"/>
<path d="M211.311 241.749C210.403 241.749 208.803 240.307 208.471 239.961C208.452 239.943 208.437 239.921 208.428 239.896V239.853C208.426 239.807 208.439 239.762 208.464 239.723C208.507 239.673 209.56 238.282 210.569 238.238C210.722 238.223 210.876 238.241 211.02 238.292C211.165 238.343 211.296 238.426 211.405 238.534C211.658 238.772 211.744 239.002 211.657 239.219C211.521 239.565 210.937 239.752 210.281 239.867C210.811 239.943 211.311 240.165 211.722 240.509C211.795 240.581 211.851 240.668 211.887 240.764C211.923 240.86 211.938 240.962 211.931 241.064C211.931 241.482 211.708 241.648 211.549 241.706C211.474 241.735 211.393 241.75 211.311 241.749ZM209.077 240.04C209.913 240.761 211.023 241.54 211.42 241.381C211.42 241.381 211.564 241.331 211.578 241.043C211.581 240.988 211.573 240.933 211.553 240.882C211.533 240.831 211.502 240.785 211.463 240.747C211.074 240.314 209.87 240.113 209.077 240.055V240.04ZM210.648 238.599H210.583C209.946 238.766 209.381 239.138 208.976 239.658C210.079 239.608 211.203 239.399 211.319 239.103C211.355 239.01 211.232 238.873 211.153 238.801C211.015 238.675 210.834 238.608 210.648 238.613V238.599Z" fill="#E6575B"/>
<path d="M201.291 235.845C201.479 235.312 207.916 237.871 207.916 237.871C207.916 237.871 210.627 243.299 214.26 245.505C217.893 247.711 214.923 249.355 210.533 247.92L199.662 244.38C196.526 243.371 199.352 241.353 201.291 235.845Z" fill="#2E353A"/>
<path opacity="0.4" d="M204.333 226.358L212.732 229.083L211.225 232.911L203.511 230.287L204.333 226.358Z" fill="white"/>
<path d="M227.611 254.4L222.694 255.784L219.955 249.167L217.461 243.097L223.026 240.502L225.455 247.862L227.611 254.4Z" fill="#EEC1BB"/>
<path d="M220.51 252.31C220.51 251.747 227.445 252.36 227.445 252.36C227.445 252.36 231.59 256.794 235.699 257.868C239.808 258.942 237.436 261.364 232.815 261.256L221.389 260.968C218.109 260.888 220.229 258.142 220.51 252.31Z" fill="#2E353A"/>
<path d="M231.085 254.213C230.075 254.076 229.098 253.756 228.202 253.269L228.151 253.233C228.149 253.213 228.149 253.194 228.151 253.175C228.148 253.158 228.148 253.141 228.151 253.124C228.144 253.101 228.144 253.076 228.151 253.052C228.151 252.973 228.793 251.387 229.737 251.019C229.879 250.961 230.033 250.936 230.186 250.944C230.34 250.953 230.489 250.996 230.624 251.07C230.934 251.221 231.078 251.416 231.064 251.654C231.028 252.021 230.509 252.375 229.932 252.663C230.467 252.583 231.014 252.656 231.511 252.872C231.599 252.921 231.676 252.988 231.737 253.069C231.798 253.15 231.841 253.242 231.864 253.341C231.91 253.465 231.918 253.6 231.886 253.729C231.854 253.858 231.783 253.974 231.684 254.062C231.509 254.181 231.296 254.235 231.085 254.213ZM228.8 253.175C229.817 253.629 231.093 254.054 231.431 253.788C231.431 253.788 231.554 253.694 231.489 253.42C231.477 253.366 231.453 253.316 231.42 253.272C231.386 253.229 231.343 253.193 231.294 253.168C230.79 252.865 229.579 253.031 228.8 253.175ZM230.098 251.293C230.006 251.293 229.916 251.31 229.831 251.344C229.275 251.68 228.841 252.185 228.591 252.786C229.636 252.425 230.653 251.899 230.682 251.589C230.682 251.488 230.53 251.387 230.437 251.344C230.329 251.302 230.213 251.284 230.098 251.293Z" fill="#E6575B"/>
<path opacity="0.2" d="M225.498 248.013L219.998 249.304L217.475 243.162L223.033 240.538L225.498 248.013Z" fill="black"/>
<path d="M182.274 183.516C182.274 183.516 181.705 175.672 181.438 174.072C181.218 172.486 180.892 170.916 180.465 169.372C178.727 164.146 155.421 170.295 155.421 170.295L154.758 173.899C154.758 173.899 144.24 193.731 151.269 200.875C153.432 203.037 157.591 204.018 161.866 203.989C161.866 203.989 174.936 204.616 199.244 203.484C199.244 203.484 197.442 217.642 217.475 245.382L224.179 243.219C224.179 243.219 210.944 192.858 209.819 191.964C200.131 184.136 182.274 183.516 182.274 183.516Z" fill="#263238"/>
<path d="M216.264 245.043L224.59 242.095L225.722 246.053L218.001 248.662L216.264 245.043Z" fill="#263238"/>
<path d="M190.11 134.906C190.11 134.906 189.274 136.954 188.106 140.529C187.825 141.366 187.537 142.288 187.234 143.283C186.837 144.588 186.412 146.022 185.987 147.608C185.677 148.733 185.367 149.908 185.064 151.148C184.761 152.388 184.437 153.729 184.127 155.091C184.127 155.25 184.055 155.416 184.026 155.574C182.708 161.152 181.745 166.808 181.142 172.508L155.537 170.273C155.533 164.653 155.824 159.037 156.409 153.448C156.871 148.605 157.766 143.813 159.083 139.131C160.1 135.757 161.412 132.859 163.099 130.963C163.099 130.992 176.983 126.436 190.11 134.906Z" fill="#2D2F82"/>
<path d="M177.062 127.316C169.356 124.85 166.364 130.92 166.364 130.92L170.466 130.516L178.792 140.969L183.673 134.647L186.744 136.298C186.744 136.298 183.738 129.45 177.062 127.316Z" fill="#D24347"/>
<path opacity="0.6" d="M177.062 127.316C169.356 124.85 166.364 130.92 166.364 130.92L170.466 130.516L178.792 140.969L183.673 134.647L186.744 136.298C186.744 136.298 183.738 129.45 177.062 127.316Z" fill="white"/>
<path d="M178.576 140.4L171.511 129.824C174.842 128.318 177.048 121.945 177.531 118.355L182.519 125.895C180.89 128.318 179.802 131.086 183.536 133.176C183.55 133.176 178.569 140.378 178.576 140.4Z" fill="#EEC1BB"/>
<path opacity="0.2" d="M179.564 121.433L182.519 125.896C182.131 126.449 181.796 127.038 181.517 127.655C180.039 126.991 178.468 124.771 178.836 123.236C178.961 122.594 179.208 121.982 179.564 121.433Z" fill="black"/>
<path d="M155.14 171.088L163.149 171.614L162.861 173.878L154.354 173.265L155.14 171.088Z" fill="black"/>
<path d="M181.784 175.226L163.827 173.943L164.115 171.679L181.496 172.825L181.784 175.226Z" fill="black"/>
<path d="M175.202 175.218H175.13L172.968 175.074C172.709 175.057 172.468 174.94 172.296 174.747C172.123 174.555 172.033 174.302 172.045 174.043L172.103 172.602C172.102 172.465 172.13 172.33 172.186 172.206C172.242 172.081 172.324 171.971 172.427 171.881C172.522 171.789 172.636 171.719 172.76 171.674C172.884 171.63 173.016 171.612 173.148 171.621L175.397 171.751C175.528 171.758 175.656 171.792 175.774 171.849C175.892 171.906 175.998 171.987 176.084 172.086C176.171 172.184 176.237 172.299 176.279 172.424C176.32 172.548 176.337 172.68 176.327 172.811L176.219 174.31C176.195 174.562 176.077 174.795 175.889 174.964C175.7 175.132 175.455 175.223 175.202 175.218ZM172.795 172.594L172.73 174.036C172.728 174.106 172.753 174.175 172.8 174.227C172.847 174.279 172.912 174.312 172.982 174.317L175.145 174.469C175.216 174.473 175.286 174.448 175.34 174.401C175.394 174.354 175.427 174.288 175.433 174.216L175.541 172.724C175.545 172.688 175.541 172.651 175.53 172.616C175.518 172.582 175.5 172.55 175.476 172.522C175.452 172.496 175.423 172.475 175.391 172.46C175.359 172.445 175.324 172.437 175.289 172.436L173.04 172.306C172.968 172.304 172.898 172.329 172.845 172.378C172.818 172.401 172.796 172.43 172.781 172.462C172.766 172.495 172.758 172.53 172.759 172.565L172.795 172.594Z" fill="white"/>
<path opacity="0.5" d="M216.264 245.043L224.59 242.095L225.722 246.053L218.001 248.662L216.264 245.043Z" fill="white"/>
<path d="M195.034 116.416C194.997 116.417 194.96 116.407 194.928 116.388C194.896 116.369 194.87 116.341 194.854 116.308C194.654 115.919 194.369 115.581 194.019 115.318C193.669 115.056 193.264 114.877 192.835 114.794C192.808 114.793 192.782 114.787 192.758 114.775C192.733 114.764 192.712 114.747 192.694 114.727C192.677 114.707 192.663 114.683 192.655 114.657C192.647 114.631 192.645 114.604 192.648 114.578C192.655 114.526 192.681 114.479 192.721 114.446C192.761 114.412 192.812 114.395 192.864 114.397C193.363 114.483 193.834 114.684 194.241 114.984C194.648 115.285 194.979 115.676 195.207 116.128C195.219 116.151 195.227 116.176 195.229 116.202C195.231 116.228 195.228 116.254 195.22 116.279C195.212 116.304 195.199 116.327 195.182 116.347C195.165 116.367 195.144 116.383 195.12 116.394L195.034 116.416Z" fill="#263238"/>
<path d="M192.626 119.537C192.705 120.538 192.903 121.525 193.217 122.478C192.962 122.634 192.669 122.717 192.37 122.717C192.071 122.717 191.778 122.634 191.523 122.478L192.626 119.537Z" fill="#D4827D"/>
<path d="M194.219 118.463C194.032 118.91 193.643 119.184 193.34 119.054C193.037 118.925 192.943 118.463 193.131 118.016C193.318 117.569 193.707 117.295 194.01 117.425C194.313 117.555 194.4 118.009 194.219 118.463Z" fill="#263238"/>
<path d="M193.873 117.396H195.005C195.005 117.396 194.183 118.038 193.873 117.396Z" fill="#263238"/>
<path d="M177.625 122.342C177.652 122.416 177.688 122.486 177.733 122.551C177.805 122.695 177.884 122.825 177.963 122.969C178.426 123.856 179.055 124.647 179.816 125.297C182.274 127.337 184.394 127.986 186.304 127.46C186.398 127.46 186.484 127.402 186.578 127.374C189.404 126.307 191.624 123.048 193.506 118.651C194.321 116.948 194.854 115.125 195.084 113.251C195.084 113.251 195.084 113.187 195.084 113.172C195.084 113.158 195.084 113.021 195.084 112.956C195.177 111.878 194.998 110.795 194.565 109.804C194.132 108.813 193.458 107.947 192.605 107.282C191.876 106.683 191.083 106.165 190.24 105.74C182.051 101.487 173.667 114.426 177.625 122.342Z" fill="#EEC1BB"/>
<path d="M195.084 113.179C195.084 113.179 192.619 119.206 185.871 118.946C185.871 118.946 180.479 123.783 176.968 122.118C172.175 119.847 171.396 111.009 176.493 104.975C183.118 97.1465 196.959 103.216 195.084 113.179Z" fill="#263238"/>
<path d="M189.512 118.687C189.966 117.778 190.002 115.897 188.495 115.392C186.989 114.888 184.314 118.052 187.486 120.655C187.94 121.029 188.596 120.575 189.512 118.687Z" fill="#EEC1BB"/>
<path d="M188.113 101.955C188.113 101.955 194.349 103.339 196.281 107.102C198.545 111.5 198.545 114.866 192.215 116.906C192.215 116.906 184.451 109.222 181.042 108.306C179.053 107.76 177.023 107.381 174.972 107.174C177.415 100.715 185.655 99.1435 188.113 101.955Z" fill="#263238"/>
<path d="M185.886 118.946C181.964 126.782 173.342 140.097 164.151 130.704C164.151 130.704 167.453 120.078 174.121 115.695C180.789 111.312 185.886 118.946 185.886 118.946Z" fill="#263238"/>
<path d="M184.466 132.016C187.818 134.496 183.529 142.656 187.76 144.473C187.362 143.923 187.113 143.28 187.034 142.606C186.956 141.932 187.052 141.249 187.313 140.623C188.2 138.403 191.797 132.535 190.363 124.591L184.466 132.016Z" fill="#263238"/>
<path opacity="0.2" d="M167.1 149.223C167.1 149.223 161.621 152.936 156.438 153.397C156.893 148.573 157.778 143.798 159.083 139.131C159.747 138.758 160.486 138.541 161.246 138.497C165.096 138.569 166.501 142.18 166.501 142.18C166.918 144.504 167.118 146.862 167.1 149.223Z" fill="black"/>
<path d="M187.097 174.937L185.944 173.553C185.727 173.3 185.453 173.103 185.144 172.978C184.836 172.852 184.502 172.802 184.17 172.832L181.013 173.063C180.389 173.108 179.785 173.303 179.252 173.63C178.718 173.958 178.272 174.408 177.949 174.944L177.545 175.615C179.304 178.044 182.988 179.378 182.988 179.378L183.997 179.875C184.2 179.985 184.422 180.053 184.652 180.076C184.881 180.099 185.113 180.076 185.333 180.009C185.554 179.942 185.759 179.832 185.937 179.685C186.114 179.539 186.261 179.358 186.369 179.154L187.378 177.165C187.559 176.808 187.629 176.405 187.579 176.008C187.529 175.611 187.361 175.238 187.097 174.937Z" fill="#EEC1BB"/>
<path d="M164.901 141.798C164.813 146.338 165.139 150.877 165.874 155.358C166.144 156.792 166.493 158.209 166.919 159.604L166.602 158.977C168.267 161.522 170.704 163.879 172.831 166.186L176.392 169.862L179.996 173.56C180.314 173.88 180.502 174.306 180.524 174.756C180.546 175.206 180.4 175.649 180.115 175.998C179.831 176.347 179.427 176.579 178.981 176.648C178.536 176.717 178.081 176.618 177.704 176.372C176.212 175.427 174.82 174.433 173.379 173.423C168.981 170.115 164.548 167.022 161.123 162.61C158.139 156 157.411 148.654 157.663 141.474C158.089 136.68 165.038 137.033 164.98 141.841L164.901 141.798Z" fill="#EBC0BB"/>
<path d="M162.854 131.035C158.132 132.657 156.178 137.703 155.969 146.239C158.384 148.481 166.328 147.738 166.328 147.738C166.328 147.738 167.763 134.805 162.854 131.035Z" fill="#2D2F82"/>
<path d="M213.734 181.569V183.826C213.734 184.41 213.013 184.648 212.465 184.648H166.97C166.386 184.648 165.679 184.41 165.679 183.826V181.548L213.734 181.569Z" fill="#263238"/>
<path opacity="0.4" d="M213.734 181.569V183.826C213.734 184.41 213.013 184.648 212.465 184.648H166.97C166.386 184.648 165.679 184.41 165.679 183.826V181.548L213.734 181.569Z" fill="white"/>
<path opacity="0.2" d="M213.734 181.569V183.826C213.734 184.41 213.013 184.648 212.465 184.648H182.462C181.878 184.648 181.186 184.41 181.186 183.826V181.548L213.734 181.569Z" fill="black"/>
<path d="M221.346 157.939L215.925 182.499C215.829 182.895 215.604 183.247 215.285 183.5C214.967 183.753 214.573 183.893 214.166 183.898H184.61C184.426 183.892 184.246 183.845 184.084 183.759C183.921 183.672 183.781 183.55 183.674 183.401C183.566 183.251 183.495 183.08 183.465 182.898C183.435 182.717 183.447 182.531 183.5 182.355L188.914 157.975C189.023 157.604 189.257 157.281 189.576 157.062C189.895 156.843 190.28 156.74 190.665 156.771H220.258C221.036 156.771 221.519 157.153 221.346 157.939Z" fill="#263238"/>
<path opacity="0.4" d="M221.346 157.939L215.925 182.499C215.829 182.895 215.604 183.247 215.285 183.5C214.967 183.753 214.573 183.893 214.166 183.898H185.59C185.406 183.893 185.225 183.846 185.062 183.761C184.899 183.675 184.757 183.553 184.649 183.403C184.541 183.254 184.469 183.082 184.438 182.9C184.408 182.718 184.42 182.531 184.473 182.355L189.887 157.975C189.997 157.602 190.232 157.279 190.552 157.06C190.872 156.84 191.259 156.738 191.646 156.771H220.229C221.036 156.771 221.519 157.153 221.346 157.939Z" fill="white"/>
<path opacity="0.2" d="M206.755 170.425C206.755 172.522 204.499 174.231 202.848 174.231C201.197 174.231 200.217 172.522 200.686 170.425C201.154 168.327 202.805 166.676 204.42 166.618C203.951 168.716 204.96 170.425 206.582 170.425H206.755Z" fill="black"/>
</svg>
