<svg width="33" height="32" viewBox="0 0 33 32" fill="none" xmlns="http://www.w3.org/2000/svg">
<rect x="0.382812" y="-0.000488281" width="32" height="32" rx="16" fill="white"/>
<g clip-path="url(#clip0_1474_1660)">
<path d="M16.3828 5.99951C10.8608 5.99951 6.38281 10.4775 6.38281 15.9995C6.38281 21.5215 10.8608 25.9995 16.3828 25.9995C21.9048 25.9995 26.3828 21.5215 26.3828 15.9995C26.3828 10.4775 21.9048 5.99951 16.3828 5.99951ZM21.3996 13.6508V15.0048C20.7611 15.0051 20.1408 14.8799 19.5557 14.6331C19.1795 14.4743 18.829 14.2696 18.5084 14.0223L18.518 18.19C18.514 19.1285 18.1427 20.0103 17.4707 20.6744C16.9238 21.2151 16.2309 21.5588 15.4798 21.6701C15.3033 21.6963 15.1237 21.7097 14.942 21.7097C14.138 21.7097 13.3747 21.4492 12.7503 20.9687C12.6328 20.8782 12.5204 20.7801 12.4134 20.6744C11.6851 19.9546 11.3096 18.9791 11.3728 17.9528C11.4211 17.1716 11.7338 16.4265 12.2552 15.8426C12.9451 15.0699 13.9102 14.641 14.942 14.641C15.1237 14.641 15.3033 14.6546 15.4798 14.6807V15.1813V16.574C15.3124 16.5188 15.1337 16.4885 14.9476 16.4885C14.0049 16.4885 13.2422 17.2576 13.2563 18.201C13.2652 18.8047 13.595 19.3323 14.0813 19.6232C14.3098 19.7599 14.5728 19.8446 14.8534 19.86C15.0732 19.8721 15.2843 19.8414 15.4798 19.7769C16.1533 19.5544 16.6392 18.9217 16.6392 18.1756L16.6414 15.3847V10.2894H18.5061C18.5079 10.4741 18.5267 10.6544 18.5615 10.8291C18.7023 11.5362 19.1008 12.1496 19.6555 12.5678C20.1392 12.9326 20.7414 13.1488 21.3942 13.1488C21.3946 13.1488 21.4 13.1488 21.3996 13.1484V13.6508H21.3996Z" fill="#2D2F82"/>
</g>
<defs>
<clipPath id="clip0_1474_1660">
<rect width="20" height="20" fill="white" transform="translate(6.38281 5.99951)"/>
</clipPath>
</defs>
</svg>
