<svg width="40" height="40" viewBox="0 0 40 40" fill="none" xmlns="http://www.w3.org/2000/svg">
<g clip-path="url(#clip0_335_1270)">
<path d="M30.291 3.3156C30.6147 3.3156 30.877 3.05739 30.877 2.73888V2.72044C30.8502 1.95685 29.7316 1.95739 29.7051 2.72044V2.73888C29.7051 3.05731 29.9674 3.3156 30.291 3.3156Z" fill="black"/>
<path d="M27.308 3.36628C27.1482 3.08972 26.7929 2.99433 26.5145 3.153C26.2362 3.31183 26.1401 3.66472 26.2999 3.94128C26.4811 4.20863 26.7985 4.34409 27.1026 4.1705C27.381 4.01167 27.477 3.65878 27.3172 3.38222L27.308 3.36628Z" fill="black"/>
<path d="M24.5539 5.71171L24.5379 5.70234C24.2611 5.54109 23.9079 5.63765 23.7489 5.91804C23.5898 6.19843 23.685 6.55648 23.9617 6.71765C24.2514 6.86023 24.5925 6.81812 24.7668 6.51132C24.9257 6.23093 24.8305 5.87296 24.5539 5.71171Z" fill="black"/>
<path d="M23.3334 9.1051C23.0124 9.12815 22.7383 9.33698 22.7383 9.69104C22.7377 10.0215 23.0083 10.287 23.3334 10.277C24.0969 10.2504 24.0967 9.13167 23.3334 9.1051Z" fill="black"/>
<path d="M36.0125 13.6703C36.3022 13.813 36.6433 13.7709 36.8175 13.4638C36.9766 13.1833 36.8814 12.8251 36.6047 12.6638L36.5887 12.6544C36.312 12.4931 35.9588 12.5896 35.7998 12.8702C35.6405 13.1508 35.7358 13.509 36.0125 13.6703Z" fill="black"/>
<path d="M36.6523 9.69104C36.6523 10.0146 36.9105 10.277 37.2291 10.277H37.2475C38.0111 10.2503 38.0105 9.13159 37.2475 9.1051H37.2291C36.9105 9.1051 36.6523 9.36745 36.6523 9.69104Z" fill="black"/>
<path d="M36.3011 6.79623C36.4127 6.79271 36.5139 6.76381 36.6046 6.70943C36.8813 6.54943 36.9765 6.19412 36.8175 5.91584C36.6582 5.63756 36.3051 5.5417 36.0285 5.70177L36.0125 5.71107C35.7358 5.87107 35.6406 6.22638 35.7997 6.50467C35.9065 6.69154 36.101 6.79623 36.3011 6.79623Z" fill="black"/>
<path d="M33.4716 4.17066C33.7759 4.34409 34.0931 4.20886 34.2743 3.94144C34.4341 3.66488 34.338 3.31191 34.0597 3.15316C33.7811 2.99441 33.426 3.08988 33.2662 3.36644L33.257 3.38245C33.0971 3.65886 33.1933 4.01183 33.4716 4.17066Z" fill="black"/>
<path d="M33.5302 9.69101C33.5302 9.36742 33.2679 9.10508 32.9442 9.10508H30.8769V5.24852C30.8501 4.47267 29.7316 4.4733 29.7051 5.24852V9.69109C29.7051 10.0147 29.9673 10.277 30.291 10.277H32.9442C33.2679 10.2769 33.5302 10.0147 33.5302 9.69101Z" fill="black"/>
<path d="M7.8556 19.2277L9.59513 17.4917C10.1141 16.9737 9.30998 16.1207 8.76732 16.6622L7.02779 18.3982C6.44982 18.9762 7.26544 19.8178 7.8556 19.2277Z" fill="black"/>
<path d="M12.2925 16.6621L7.02693 21.9173C6.48483 22.4585 7.32435 23.2761 7.85473 22.7467L13.1203 17.4915C13.6393 16.9736 12.8352 16.1205 12.2925 16.6621Z" fill="black"/>
<path d="M39.5303 22.3483C39.3189 21.5205 38.2297 22.1148 37.7873 22.3054C37.4254 20.3385 36.8512 18.663 36.2674 17.3277C43.4883 11.6841 39.4718 0.0144091 30.2907 0.000815665C24.0849 -0.0811359 19.3085 6.02624 20.8643 12.0155H4.48812C3.31337 12.0155 2.35761 12.9712 2.35761 14.1459V17.1409C2.35761 17.4645 2.61987 17.7269 2.94354 17.7269C3.2672 17.7269 3.52946 17.4645 3.52946 17.1409V14.1459C3.52946 13.6173 3.95953 13.1874 4.48812 13.1874H29.5368C30.0654 13.1874 30.4953 13.6173 30.4953 14.1459V19.4436C30.4891 19.4631 30.483 19.4827 30.4768 19.5022C29.9025 18.9133 29.4708 18.5956 29.3482 18.5096V14.9159C29.3482 14.5923 29.0859 14.33 28.7623 14.33H5.26263C4.93897 14.33 4.67671 14.5923 4.67671 14.9159V28.9111H3.52954V20.4838C3.52954 20.1602 3.26728 19.8978 2.94361 19.8978C2.61995 19.8978 2.35769 20.1602 2.35769 20.4838V28.911H1.7295C0.775844 28.911 0 29.6869 0 30.6407C0 31.5943 0.775844 32.3702 1.7295 32.3702H27.218C27.6827 33.2873 28.158 33.8994 28.4041 34.1866V36.2202C28.4041 38.3044 30.0997 40 32.1839 40H33.8711C35.9553 40 37.6509 38.3044 37.6509 36.2202V34.1756C38.2707 33.422 38.7753 32.546 39.1521 31.568C39.4157 30.8838 38.3342 30.4312 38.0587 31.1466C37.7364 31.983 37.3106 32.7317 36.7912 33.3759H32.9971C32.8096 29.2368 34.4321 24.8642 38.5261 23.2675C38.7032 24.2331 38.9704 26.1903 38.7317 28.2985C38.649 29.027 39.8099 29.1921 39.896 28.4303C40.257 25.2422 39.5602 22.4649 39.5303 22.3483ZM29.5368 12.0154H22.0763C20.4919 6.69678 24.7221 1.09001 30.2909 1.17267C38.2298 1.17736 41.8454 11.1738 35.7538 16.2367C34.9614 14.6698 34.266 13.7844 34.2087 13.7126C33.9673 13.4098 33.4876 13.4266 33.268 13.7457C32.668 14.6174 32.1338 15.5375 31.6672 16.5005V14.1459C31.6672 12.9712 30.7114 12.0154 29.5368 12.0154ZM5.84856 15.5018H28.1763V19.2332C27.0769 21.2762 26.3843 23.2944 26.1163 25.2406C25.943 26.4987 25.9458 27.7282 26.1235 28.911H5.84856V15.5018ZM1.7295 31.1983C0.993809 31.1732 0.989512 30.1096 1.7295 30.0829H26.3607C26.4574 30.4603 26.5731 30.8327 26.7078 31.1983H1.7295ZM36.479 34.5477V36.2202C36.479 37.6582 35.3091 38.8281 33.8711 38.8281H32.1838C30.7458 38.8281 29.5759 37.6582 29.5759 36.2202V34.5477H36.479ZM32.2893 28.9756C31.8048 30.8133 31.7858 32.4901 31.8232 33.3759H29.2544C26.4352 29.9972 26.5933 24.4482 29.1651 19.8693C30.0921 20.7011 32.0728 22.8496 33.1185 26.7467C32.778 27.4307 32.5005 28.1746 32.2893 28.9756ZM33.934 25.3878C33.221 23.2393 32.2537 21.6537 31.3882 20.5479C31.9216 18.64 32.7137 16.803 33.7654 15.1228C34.5398 16.3222 36.0558 19.0522 36.6948 22.8594C35.6005 23.5058 34.6755 24.3538 33.934 25.3878Z" fill="black"/>
</g>
<defs>
<clipPath id="clip0_335_1270">
<rect width="40" height="40" fill="white"/>
</clipPath>
</defs>
</svg>
