<svg width="21" height="16" viewBox="0 0 21 16" fill="none" xmlns="http://www.w3.org/2000/svg">
<path d="M10.6282 6.10352e-05C11.1623 0.00300104 12.4986 0.0159211 13.9184 0.0727911L14.4218 0.0947409C15.8513 0.162421 17.2796 0.278041 17.988 0.475561C18.9329 0.741011 19.6756 1.51556 19.9266 2.49738C20.3263 4.05647 20.3763 7.09946 20.3825 7.83586L20.3834 7.98846V7.99916C20.3834 7.99916 20.3834 8.00286 20.3834 8.00996L20.3825 8.16256C20.3763 8.89896 20.3263 11.942 19.9266 13.5011C19.6721 14.4865 18.9294 15.2611 17.988 15.5229C17.2796 15.7204 15.8513 15.836 14.4218 15.9037L13.9184 15.9256C12.4986 15.9825 11.1623 15.9954 10.6282 15.9984L10.3938 15.9992H10.3834C10.3834 15.9992 10.3799 15.9992 10.373 15.9992L10.1388 15.9984C9.00838 15.9922 4.282 15.9411 2.77879 15.5229C1.83388 15.2574 1.0912 14.4829 0.840147 13.5011C0.440477 11.942 0.390517 8.89896 0.384277 8.16256V7.83586C0.390517 7.09946 0.440477 4.05647 0.840147 2.49738C1.09468 1.51192 1.83736 0.737381 2.77879 0.475561C4.282 0.0572912 9.00838 0.00628104 10.1388 6.10352e-05H10.6282ZM8.38339 4.4992V11.4992L14.3834 7.99916L8.38339 4.4992Z" fill="#2D2F82"/>
</svg>
