<svg width="21" height="18" viewBox="0 0 21 18" fill="none" xmlns="http://www.w3.org/2000/svg">
<path d="M20.3844 2.67845C19.621 3.01615 18.8114 3.23795 17.9825 3.33651C18.8558 2.81372 19.5093 1.9913 19.8212 1.02245C19.0006 1.51001 18.1024 1.85317 17.1657 2.03701C16.375 1.19346 15.2699 0.715429 14.1137 0.716739C11.8045 0.716739 9.93158 2.58901 9.93158 4.89923C9.93158 5.22698 9.96918 5.54482 10.0395 5.85149C6.56235 5.67644 3.48195 4.01245 1.41866 1.48181C1.04717 2.12007 0.85193 2.84558 0.85292 3.58407C0.85292 5.03499 1.59148 6.31564 2.71337 7.0654C2.04925 7.0444 1.39976 6.86504 0.81906 6.54213C0.81842 6.5597 0.81842 6.57727 0.81842 6.59388C0.81842 8.6208 2.26007 10.3116 4.17387 10.6955C3.81468 10.7927 3.4442 10.8418 3.0721 10.8415C2.80185 10.8415 2.53959 10.8166 2.28467 10.7677C2.81719 12.4289 4.36074 13.6383 6.19148 13.6715C4.71001 14.8342 2.88057 15.465 0.99731 15.4623C0.664 15.4626 0.33097 15.4429 0 15.4035C1.91192 16.6326 4.1374 17.2849 6.4103 17.2825C14.1035 17.2825 18.3099 10.9099 18.3099 5.38351C18.3099 5.2027 18.3055 5.02126 18.2975 4.84237C19.1162 4.25085 19.8229 3.51807 20.3844 2.67845Z" fill="#2D2F82"/>
</svg>
