<svg width="33" height="32" viewBox="0 0 33 32" fill="none" xmlns="http://www.w3.org/2000/svg">
<rect width="32.3844" height="31.9993" rx="15.9996" fill="white"/>
<path d="M26.3844 9.67851C25.621 10.0162 24.8114 10.238 23.9825 10.3366C24.8558 9.81378 25.5093 8.99136 25.8212 8.02251C25.0006 8.51007 24.1024 8.85323 23.1657 9.03707C22.375 8.19352 21.2699 7.71549 20.1137 7.7168C17.8045 7.7168 15.9316 9.58907 15.9316 11.8993C15.9316 12.227 15.9692 12.5449 16.0395 12.8515C12.5624 12.6765 9.48195 11.0125 7.41866 8.48187C7.04717 9.12013 6.85193 9.84564 6.85292 10.5841C6.85292 12.035 7.59148 13.3157 8.71337 14.0655C8.04925 14.0445 7.39976 13.8651 6.81906 13.5422C6.81842 13.5598 6.81842 13.5773 6.81842 13.5939C6.81842 15.6209 8.26007 17.3117 10.1739 17.6956C9.81468 17.7928 9.4442 17.8419 9.0721 17.8416C8.80185 17.8416 8.53959 17.8167 8.28467 17.7678C8.81719 19.429 10.3607 20.6384 12.1915 20.6716C10.71 21.8343 8.88057 22.4651 6.99731 22.4624C6.664 22.4627 6.33097 22.443 6 22.4036C7.91192 23.6327 10.1374 24.285 12.4103 24.2826C20.1035 24.2826 24.3099 17.91 24.3099 12.3836C24.3099 12.2028 24.3055 12.0213 24.2975 11.8424C25.1162 11.2509 25.8229 10.5181 26.3844 9.67851Z" fill="#2D2F82"/>
</svg>
