<svg width="198" height="202" viewBox="0 0 198 202" fill="none" xmlns="http://www.w3.org/2000/svg">
<rect x="8.5" y="185.26" width="128.664" height="43" rx="6.58418" transform="rotate(-90 8.5 185.26)" fill="#D24347"/>
<rect x="77.5" y="185.26" width="159.314" height="43" rx="6.58418" transform="rotate(-90 77.5 185.26)" fill="#2D2F82"/>
<rect x="146.5" y="185.26" width="159.314" height="43" rx="6.58418" transform="rotate(-90 146.5 185.26)" fill="#DA6266"/>
<path d="M2.22125 191.444L2.22379 195.622C2.2241 196.119 2.35321 196.493 2.61114 196.744C2.87536 196.995 3.2401 197.121 3.70535 197.121C4.1769 197.12 4.54148 196.994 4.79911 196.743C5.06302 196.491 5.19482 196.117 5.19452 195.62L5.19197 191.442L6.26709 191.442L6.26963 195.601C6.26995 196.135 6.15391 196.588 5.92151 196.959C5.68911 197.33 5.37806 197.607 4.98836 197.789C4.59866 197.972 4.16804 198.063 3.6965 198.064C3.22495 198.064 2.79422 197.973 2.4043 197.791C2.02067 197.609 1.71557 197.333 1.489 196.962C1.26243 196.591 1.14899 196.138 1.14866 195.604L1.14613 191.445L2.22125 191.444ZM10.2895 192.712C10.6981 192.712 11.0629 192.797 11.3836 192.966C11.7107 193.136 11.9654 193.387 12.148 193.72C12.3305 194.054 12.4219 194.456 12.4222 194.927L12.4241 197.992L11.3584 197.993L11.3566 195.088C11.3563 194.623 11.2398 194.268 11.007 194.023C10.7742 193.772 10.4567 193.646 10.0543 193.646C9.65189 193.646 9.33131 193.772 9.09255 194.024C8.86007 194.269 8.74397 194.625 8.74426 195.09L8.74603 197.995L7.67091 197.995L7.66774 192.799L8.74286 192.798L8.74322 193.392C8.91914 193.179 9.14223 193.012 9.41251 192.892C9.68908 192.773 9.9814 192.713 10.2895 192.712ZM13.4355 195.37C13.4352 194.848 13.5418 194.386 13.7553 193.983C13.9751 193.581 14.2704 193.27 14.6412 193.049C15.0183 192.823 15.4363 192.709 15.8953 192.709C16.2348 192.709 16.5681 192.784 16.8951 192.935C17.2284 193.079 17.4926 193.274 17.6877 193.519L17.6862 191.01L18.7707 191.01L18.775 197.989L17.6904 197.989L17.6899 197.206C17.514 197.458 17.269 197.666 16.9547 197.829C16.6467 197.993 16.2915 198.075 15.8892 198.075C15.4365 198.075 15.0214 197.963 14.6441 197.736C14.273 197.504 13.9773 197.184 13.757 196.775C13.543 196.36 13.4358 195.892 13.4355 195.37ZM17.6888 195.386C17.6886 195.028 17.613 194.717 17.4619 194.453C17.3171 194.189 17.1253 193.988 16.8863 193.85C16.6473 193.711 16.3894 193.642 16.1128 193.643C15.8362 193.643 15.5784 193.712 15.3396 193.851C15.1008 193.983 14.906 194.181 14.7552 194.445C14.6108 194.703 14.5387 195.011 14.5389 195.369C14.5391 195.728 14.6116 196.042 14.7564 196.312C14.9074 196.583 15.1025 196.79 15.3415 196.934C15.5868 197.073 15.8446 197.142 16.1149 197.141C16.3916 197.141 16.6493 197.072 16.8881 196.933C17.127 196.795 17.3186 196.594 17.4631 196.33C17.6138 196.059 17.689 195.745 17.6888 195.386ZM24.948 195.259C24.9481 195.454 24.9357 195.63 24.9106 195.787L20.9402 195.79C20.9719 196.205 21.1261 196.538 21.4029 196.789C21.6797 197.041 22.0193 197.166 22.4217 197.166C23.0001 197.166 23.4086 196.923 23.6473 196.439L24.8073 196.438C24.6504 196.916 24.3645 197.309 23.9498 197.618C23.5413 197.92 23.0321 198.071 22.4222 198.071C21.9256 198.072 21.4791 197.962 21.0829 197.742C20.6929 197.516 20.3846 197.202 20.1581 196.799C19.9378 196.391 19.8274 195.919 19.8271 195.385C19.8268 194.851 19.9334 194.382 20.1469 193.98C20.3667 193.571 20.6715 193.256 21.0611 193.036C21.4571 192.816 21.9097 192.705 22.419 192.705C22.9094 192.705 23.3464 192.811 23.7301 193.025C24.1137 193.238 24.4125 193.54 24.6266 193.93C24.8406 194.313 24.9477 194.756 24.948 195.259ZM23.8255 194.92C23.819 194.524 23.6773 194.207 23.4006 193.968C23.1238 193.729 22.781 193.61 22.3724 193.61C22.0014 193.611 21.684 193.73 21.4201 193.969C21.1562 194.202 20.9992 194.52 20.9491 194.922L23.8255 194.92ZM27.0801 193.542C27.2371 193.277 27.4445 193.073 27.7022 192.928C27.9661 192.777 28.2773 192.701 28.6357 192.701L28.6364 193.814L28.3629 193.814C27.9416 193.815 27.621 193.922 27.4011 194.136C27.1875 194.349 27.0808 194.72 27.0812 195.249L27.0828 197.984L26.0077 197.984L26.0045 192.788L27.0797 192.787L27.0801 193.542ZM31.7176 192.699C32.12 192.699 32.4753 192.781 32.7834 192.944C33.0979 193.101 33.3432 193.299 33.5194 193.538L33.5189 192.783L34.6035 192.783L34.6067 198.064C34.607 198.542 34.5067 198.966 34.3057 199.337C34.1047 199.715 33.8126 200.01 33.4292 200.224C33.0521 200.438 32.5995 200.545 32.0713 200.546C31.3672 200.546 30.7823 200.38 30.3169 200.047C29.8514 199.72 29.5871 199.274 29.5239 198.708L30.5896 198.708C30.6715 198.978 30.8445 199.195 31.1086 199.358C31.3791 199.528 31.6998 199.612 32.0708 199.612C32.5046 199.612 32.8534 199.48 33.1173 199.215C33.3875 198.951 33.5225 198.567 33.5222 198.064L33.5216 197.197C33.3395 197.442 33.0912 197.65 32.777 197.82C32.469 197.983 32.117 198.065 31.7209 198.066C31.2682 198.066 30.8532 197.953 30.4758 197.727C30.1047 197.494 29.809 197.174 29.5887 196.765C29.3747 196.351 29.2675 195.882 29.2672 195.36C29.2669 194.839 29.3735 194.376 29.587 193.974C29.8068 193.571 30.1021 193.26 30.4729 193.04C30.85 192.813 31.2649 192.7 31.7176 192.699ZM33.5205 195.377C33.5203 195.018 33.4447 194.707 33.2936 194.443C33.1489 194.179 32.957 193.978 32.718 193.84C32.479 193.702 32.2211 193.633 31.9445 193.633C31.6679 193.633 31.4101 193.702 31.1713 193.841C30.9325 193.973 30.7377 194.171 30.587 194.435C30.4425 194.693 30.3704 195.001 30.3706 195.36C30.3708 195.718 30.4433 196.032 30.5881 196.303C30.7391 196.573 30.9342 196.78 31.1732 196.925C31.4185 197.063 31.6763 197.132 31.9466 197.132C32.2233 197.132 32.481 197.062 32.7198 196.924C32.9587 196.785 33.1503 196.584 33.2948 196.32C33.4455 196.049 33.5207 195.735 33.5205 195.377ZM37.0912 193.535C37.2482 193.271 37.4556 193.067 37.7133 192.922C37.9772 192.771 38.2884 192.695 38.6468 192.695L38.6475 193.808L38.374 193.808C37.9527 193.808 37.6321 193.916 37.4122 194.129C37.1986 194.343 37.0919 194.714 37.0922 195.242L37.0939 197.977L36.0188 197.978L36.0156 192.782L37.0907 192.781L37.0912 193.535ZM39.2783 195.354C39.278 194.832 39.3846 194.37 39.5981 193.968C39.8179 193.565 40.1132 193.254 40.484 193.034C40.8611 192.807 41.276 192.694 41.7287 192.693C42.1374 192.693 42.4926 192.775 42.7945 192.938C43.1027 193.095 43.348 193.293 43.5305 193.532L43.53 192.777L44.6146 192.776L44.6178 197.973L43.5332 197.973L43.5327 197.2C43.3506 197.445 43.1023 197.65 42.7881 197.814C42.4738 197.977 42.1155 198.059 41.7131 198.059C41.2667 198.06 40.858 197.947 40.4869 197.721C40.1158 197.488 39.8201 197.168 39.5998 196.759C39.3858 196.344 39.2786 195.876 39.2783 195.354ZM43.5316 195.371C43.5314 195.012 43.4558 194.701 43.3047 194.437C43.1599 194.173 42.9681 193.972 42.7291 193.834C42.4901 193.696 42.2322 193.627 41.9556 193.627C41.679 193.627 41.4212 193.696 41.1824 193.835C40.9436 193.967 40.7488 194.165 40.598 194.429C40.4536 194.687 40.3815 194.995 40.3817 195.354C40.3819 195.712 40.4544 196.026 40.5992 196.297C40.7502 196.567 40.9453 196.774 41.1843 196.919C41.4296 197.057 41.6874 197.126 41.9577 197.126C42.2344 197.125 42.4921 197.056 42.7309 196.918C42.9698 196.779 43.1614 196.578 43.3059 196.314C43.4566 196.043 43.5318 195.729 43.5316 195.371ZM45.6699 195.35C45.6696 194.829 45.7762 194.366 45.9897 193.964C46.2095 193.561 46.5048 193.25 46.8757 193.03C47.2528 192.803 47.6708 192.69 48.1298 192.689C48.4693 192.689 48.8025 192.764 49.1296 192.915C49.4629 193.06 49.7271 193.254 49.9221 193.499L49.9206 190.991L51.0051 190.99L51.0094 197.969L49.9248 197.97L49.9244 197.187C49.7485 197.438 49.5034 197.646 49.1891 197.81C48.8812 197.973 48.526 198.055 48.1236 198.056C47.6709 198.056 47.2559 197.943 46.8785 197.717C46.5074 197.484 46.2117 197.164 45.9914 196.755C45.7774 196.341 45.6702 195.872 45.6699 195.35ZM49.9233 195.367C49.923 195.008 49.8474 194.697 49.6963 194.433C49.5516 194.169 49.3597 193.968 49.1207 193.83C48.8817 193.692 48.6239 193.623 48.3472 193.623C48.0706 193.623 47.8129 193.692 47.574 193.831C47.3352 193.963 47.1404 194.161 46.9897 194.425C46.8452 194.683 46.7731 194.991 46.7733 195.35C46.7735 195.708 46.846 196.022 46.9908 196.293C47.1419 196.563 47.3369 196.77 47.5759 196.915C47.8212 197.053 48.079 197.122 48.3494 197.122C48.626 197.122 48.8837 197.052 49.1226 196.914C49.3614 196.775 49.553 196.574 49.6975 196.31C49.8482 196.039 49.9235 195.725 49.9233 195.367ZM57.1244 192.769L57.1275 197.965L56.0524 197.966L56.052 197.353C55.8824 197.567 55.6593 197.737 55.3827 197.863C55.1125 197.982 54.8233 198.042 54.5152 198.042C54.1065 198.042 53.7387 197.958 53.4116 197.788C53.0909 197.619 52.8361 197.367 52.6473 197.034C52.4648 196.701 52.3733 196.299 52.3731 195.827L52.3712 192.772L53.4369 192.771L53.4386 195.666C53.4389 196.132 53.5555 196.49 53.7882 196.741C54.021 196.986 54.3386 197.109 54.741 197.108C55.1434 197.108 55.4608 196.985 55.6933 196.74C55.932 196.488 56.0513 196.13 56.051 195.665L56.0492 192.769L57.1244 192.769ZM58.1861 195.343C58.1858 194.821 58.2924 194.359 58.5059 193.956C58.7257 193.554 59.021 193.242 59.3918 193.022C59.7689 192.795 60.1838 192.682 60.6365 192.682C61.0452 192.682 61.4004 192.763 61.7023 192.926C62.0105 193.083 62.2558 193.281 62.4383 193.52L62.4378 192.766L63.5224 192.765L63.5256 197.961L62.441 197.962L62.4405 197.189C62.2584 197.434 62.0101 197.638 61.6959 197.802C61.3816 197.966 61.0233 198.048 60.6209 198.048C60.1745 198.048 59.7658 197.935 59.3947 197.709C59.0236 197.477 58.7279 197.156 58.5076 196.748C58.2936 196.333 58.1864 195.865 58.1861 195.343ZM62.4394 195.359C62.4392 195.001 62.3636 194.69 62.2125 194.426C62.0677 194.162 61.8759 193.96 61.6369 193.822C61.3979 193.684 61.14 193.615 60.8634 193.615C60.5868 193.615 60.329 193.685 60.0902 193.823C59.8514 193.955 59.6566 194.154 59.5058 194.418C59.3614 194.676 59.2893 194.984 59.2895 195.342C59.2897 195.7 59.3622 196.015 59.507 196.285C59.658 196.555 59.8531 196.763 60.0921 196.907C60.3374 197.045 60.5952 197.114 60.8655 197.114C61.1422 197.114 61.3999 197.045 61.6387 196.906C61.8776 196.768 62.0692 196.566 62.2137 196.302C62.3644 196.032 62.4396 195.717 62.4394 195.359ZM66.1894 193.64L66.1911 196.517C66.1912 196.712 66.2353 196.853 66.3234 196.941C66.4178 197.023 66.575 197.064 66.795 197.063L67.4552 197.063L67.4557 197.959L66.6069 197.959C66.1228 197.96 65.7518 197.847 65.4939 197.621C65.236 197.394 65.1069 197.027 65.1066 196.517L65.1048 193.641L64.4918 193.641L64.4913 192.764L65.1043 192.764L65.1035 191.472L66.188 191.471L66.1888 192.763L67.4526 192.763L67.4531 193.64L66.1894 193.64ZM73.2076 195.23C73.2077 195.425 73.1952 195.601 73.1702 195.758L69.1998 195.76C69.2315 196.175 69.3857 196.509 69.6625 196.76C69.9393 197.011 70.2789 197.137 70.6813 197.136C71.2597 197.136 71.6682 196.894 71.9068 196.41L73.0668 196.409C72.9099 196.887 72.6241 197.28 72.2093 197.588C71.8008 197.89 71.2917 198.041 70.6818 198.042C70.1851 198.042 69.7386 197.932 69.3424 197.713C68.9525 197.486 68.6442 197.172 68.4176 196.77C68.1973 196.362 68.087 195.89 68.0867 195.356C68.0863 194.821 68.1929 194.353 68.4065 193.95C68.6263 193.541 68.931 193.227 69.3207 193.007C69.7167 192.786 70.1693 192.676 70.6785 192.676C71.1689 192.675 71.606 192.782 71.9896 192.996C72.3733 193.209 72.6721 193.511 72.8861 193.9C73.1001 194.284 73.2073 194.727 73.2076 195.23ZM72.0851 194.891C72.0786 194.495 71.9369 194.178 71.6601 193.939C71.3833 193.7 71.0406 193.581 70.6319 193.581C70.261 193.581 69.9435 193.701 69.6796 193.94C69.4157 194.173 69.2587 194.49 69.2087 194.893L72.0851 194.891Z" fill="#1D262A"/>
<path d="M89.1851 193.324C89.0152 192.997 88.7792 192.752 88.4773 192.589C88.1755 192.42 87.8265 192.335 87.4304 192.335C86.9965 192.335 86.6099 192.433 86.2705 192.628C85.9311 192.823 85.6641 193.1 85.4694 193.459C85.281 193.817 85.187 194.232 85.1873 194.704C85.1875 195.175 85.2821 195.593 85.4709 195.958C85.6661 196.316 85.9334 196.593 86.2731 196.787C86.6127 196.982 86.9994 197.079 87.4333 197.079C88.018 197.078 88.4926 196.915 88.857 196.588C89.2215 196.26 89.4444 195.817 89.5258 195.257L87.0643 195.259L87.0638 194.401L90.6758 194.399L90.6764 195.238C90.6075 195.747 90.4255 196.216 90.1302 196.643C89.8413 197.071 89.4611 197.414 88.9897 197.672C88.5246 197.924 88.006 198.05 87.4338 198.05C86.8177 198.051 86.2549 197.909 85.7455 197.627C85.236 197.338 84.8302 196.939 84.5281 196.43C84.2323 195.921 84.0842 195.346 84.0838 194.704C84.0835 194.063 84.2309 193.488 84.526 192.978C84.8275 192.469 85.2328 192.072 85.7419 191.789C86.2573 191.5 86.8199 191.355 87.4298 191.354C88.1276 191.354 88.747 191.526 89.288 191.872C89.8352 192.211 90.2316 192.695 90.4771 193.324L89.1851 193.324ZM92.8108 193.548C92.9678 193.284 93.1752 193.08 93.4329 192.935C93.6969 192.784 94.008 192.708 94.3664 192.708L94.3671 193.821L94.0936 193.821C93.6723 193.821 93.3518 193.928 93.1318 194.142C92.9182 194.356 92.8115 194.727 92.8119 195.255L92.8135 197.99L91.7384 197.991L91.7352 192.795L92.8104 192.794L92.8108 193.548ZM94.9979 195.367C94.9976 194.845 95.1042 194.383 95.3177 193.981C95.5375 193.578 95.8328 193.267 96.2036 193.047C96.5807 192.82 96.9956 192.707 97.4483 192.706C97.857 192.706 98.2123 192.788 98.5142 192.951C98.8223 193.108 99.0676 193.306 99.2501 193.545L99.2497 192.79L100.334 192.789L100.337 197.986L99.2528 197.986L99.2524 197.213C99.0702 197.458 98.822 197.663 98.5077 197.827C98.1934 197.99 97.8351 198.072 97.4327 198.072C96.9863 198.073 96.5776 197.96 96.2065 197.734C95.8354 197.501 95.5397 197.181 95.3194 196.772C95.1054 196.357 94.9982 195.889 94.9979 195.367ZM99.2512 195.384C99.251 195.025 99.1754 194.714 99.0243 194.45C98.8796 194.186 98.6877 193.985 98.4487 193.847C98.2097 193.709 97.9519 193.64 97.6752 193.64C97.3986 193.64 97.1409 193.709 96.902 193.848C96.6632 193.98 96.4684 194.178 96.3177 194.442C96.1732 194.7 96.1011 195.008 96.1013 195.367C96.1015 195.725 96.174 196.039 96.3188 196.31C96.4699 196.58 96.6649 196.787 96.9039 196.932C97.1492 197.07 97.407 197.139 97.6774 197.139C97.954 197.138 98.2117 197.069 98.4506 196.931C98.6894 196.792 98.881 196.591 99.0255 196.327C99.1762 196.056 99.2515 195.742 99.2512 195.384ZM101.39 195.363C101.389 194.842 101.496 194.379 101.709 193.977C101.929 193.574 102.224 193.263 102.595 193.043C102.972 192.816 103.39 192.703 103.849 192.702C104.189 192.702 104.522 192.777 104.849 192.928C105.182 193.072 105.447 193.267 105.642 193.512L105.64 191.004L106.725 191.003L106.729 197.982L105.644 197.983L105.644 197.2C105.468 197.451 105.223 197.659 104.909 197.823C104.601 197.986 104.246 198.068 103.843 198.069C103.391 198.069 102.976 197.956 102.598 197.73C102.227 197.497 101.931 197.177 101.711 196.768C101.497 196.354 101.39 195.885 101.39 195.363ZM105.643 195.38C105.643 195.021 105.567 194.71 105.416 194.446C105.271 194.182 105.079 193.981 104.84 193.843C104.601 193.705 104.343 193.636 104.067 193.636C103.79 193.636 103.532 193.705 103.294 193.844C103.055 193.976 102.86 194.174 102.709 194.438C102.565 194.696 102.493 195.004 102.493 195.363C102.493 195.721 102.566 196.035 102.71 196.306C102.861 196.576 103.057 196.783 103.296 196.928C103.541 197.066 103.799 197.135 104.069 197.135C104.346 197.135 104.603 197.065 104.842 196.927C105.081 196.788 105.273 196.587 105.417 196.323C105.568 196.052 105.643 195.738 105.643 195.38ZM112.844 192.782L112.847 197.978L111.772 197.979L111.772 197.366C111.602 197.58 111.379 197.75 111.102 197.875C110.832 197.995 110.543 198.055 110.235 198.055C109.826 198.055 109.458 197.971 109.131 197.801C108.811 197.632 108.556 197.38 108.367 197.047C108.184 196.714 108.093 196.312 108.093 195.84L108.091 192.785L109.157 192.784L109.158 195.679C109.159 196.145 109.275 196.503 109.508 196.754C109.741 196.999 110.058 197.122 110.461 197.121C110.863 197.121 111.18 196.998 111.413 196.753C111.652 196.501 111.771 196.143 111.771 195.678L111.769 192.782L112.844 192.782ZM113.906 195.356C113.905 194.834 114.012 194.372 114.226 193.969C114.445 193.567 114.741 193.255 115.111 193.035C115.489 192.808 115.903 192.695 116.356 192.695C116.765 192.694 117.12 192.776 117.422 192.939C117.73 193.096 117.975 193.294 118.158 193.533L118.157 192.779L119.242 192.778L119.245 197.974L118.161 197.975L118.16 197.202C117.978 197.447 117.73 197.651 117.415 197.815C117.101 197.979 116.743 198.061 116.341 198.061C115.894 198.061 115.485 197.948 115.114 197.722C114.743 197.49 114.448 197.169 114.227 196.761C114.013 196.346 113.906 195.878 113.906 195.356ZM118.159 195.372C118.159 195.014 118.083 194.702 117.932 194.438C117.787 194.175 117.595 193.973 117.356 193.835C117.117 193.697 116.86 193.628 116.583 193.628C116.306 193.628 116.049 193.698 115.81 193.836C115.571 193.968 115.376 194.167 115.225 194.431C115.081 194.689 115.009 194.997 115.009 195.355C115.009 195.713 115.082 196.028 115.227 196.298C115.378 196.568 115.573 196.776 115.812 196.92C116.057 197.058 116.315 197.127 116.585 197.127C116.862 197.127 117.12 197.058 117.358 196.919C117.597 196.781 117.789 196.579 117.933 196.315C118.084 196.045 118.159 195.73 118.159 195.372ZM121.909 193.653L121.911 196.53C121.911 196.725 121.955 196.866 122.043 196.954C122.137 197.036 122.295 197.076 122.515 197.076L123.175 197.076L123.175 197.972L122.327 197.972C121.842 197.973 121.471 197.86 121.214 197.634C120.956 197.407 120.826 197.04 120.826 196.53L120.824 193.654L120.211 193.654L120.211 192.777L120.824 192.777L120.823 191.485L121.908 191.484L121.908 192.776L123.172 192.775L123.173 193.653L121.909 193.653ZM128.927 195.243C128.927 195.438 128.915 195.614 128.89 195.771L124.919 195.773C124.951 196.188 125.105 196.521 125.382 196.773C125.659 197.024 125.998 197.15 126.401 197.149C126.979 197.149 127.388 196.907 127.626 196.423L128.786 196.422C128.63 196.9 128.344 197.293 127.929 197.601C127.52 197.903 127.011 198.054 126.401 198.055C125.905 198.055 125.458 197.945 125.062 197.726C124.672 197.499 124.364 197.185 124.137 196.783C123.917 196.374 123.807 195.903 123.806 195.369C123.806 194.834 123.913 194.366 124.126 193.963C124.346 193.554 124.651 193.24 125.04 193.02C125.436 192.799 125.889 192.689 126.398 192.689C126.889 192.688 127.326 192.795 127.709 193.008C128.093 193.222 128.392 193.524 128.606 193.913C128.82 194.297 128.927 194.74 128.927 195.243ZM127.805 194.904C127.798 194.508 127.657 194.191 127.38 193.952C127.103 193.713 126.76 193.594 126.352 193.594C125.981 193.594 125.663 193.714 125.399 193.953C125.135 194.186 124.978 194.503 124.928 194.906L127.805 194.904Z" fill="#1D262A"/>
<path d="M153.908 191.436L153.908 192.314L152.163 192.315L152.167 197.992L151.092 197.993L151.088 192.315L149.334 192.316L149.334 191.439L153.908 191.436ZM156.073 193.548C156.23 193.283 156.437 193.079 156.695 192.934C156.959 192.783 157.27 192.708 157.628 192.707L157.629 193.82L157.356 193.82C156.934 193.821 156.614 193.928 156.394 194.142C156.18 194.356 156.074 194.727 156.074 195.255L156.076 197.99L155 197.99L154.997 192.794L156.072 192.793L156.073 193.548ZM158.26 195.366C158.26 194.845 158.366 194.382 158.58 193.98C158.8 193.577 159.095 193.266 159.466 193.046C159.843 192.819 160.258 192.706 160.71 192.705C161.119 192.705 161.474 192.787 161.776 192.95C162.084 193.107 162.33 193.305 162.512 193.544L162.512 192.789L163.596 192.789L163.599 197.985L162.515 197.986L162.514 197.212C162.332 197.458 162.084 197.662 161.77 197.826C161.456 197.989 161.097 198.071 160.695 198.072C160.248 198.072 159.84 197.959 159.469 197.733C159.097 197.5 158.802 197.18 158.581 196.771C158.367 196.357 158.26 195.888 158.26 195.366ZM162.513 195.383C162.513 195.024 162.437 194.713 162.286 194.449C162.142 194.185 161.95 193.984 161.711 193.846C161.472 193.708 161.214 193.639 160.937 193.639C160.661 193.639 160.403 193.708 160.164 193.847C159.925 193.979 159.73 194.177 159.58 194.441C159.435 194.699 159.363 195.007 159.363 195.366C159.364 195.724 159.436 196.039 159.581 196.309C159.732 196.579 159.927 196.786 160.166 196.931C160.411 197.069 160.669 197.138 160.939 197.138C161.216 197.138 161.474 197.068 161.713 196.93C161.951 196.791 162.143 196.59 162.288 196.326C162.438 196.056 162.514 195.741 162.513 195.383ZM167.63 192.701C168.039 192.701 168.404 192.786 168.724 192.955C169.051 193.125 169.306 193.376 169.489 193.709C169.671 194.042 169.763 194.445 169.763 194.916L169.765 197.981L168.699 197.982L168.697 195.077C168.697 194.612 168.58 194.257 168.348 194.012C168.115 193.76 167.797 193.635 167.395 193.635C166.993 193.635 166.672 193.761 166.433 194.013C166.201 194.258 166.085 194.614 166.085 195.079L166.087 197.984L165.012 197.984L165.008 192.788L166.084 192.787L166.084 193.381C166.26 193.167 166.483 193.001 166.753 192.881C167.03 192.761 167.322 192.701 167.63 192.701ZM173.022 198.064C172.614 198.064 172.246 197.992 171.919 197.848C171.598 197.697 171.343 197.496 171.155 197.245C170.966 196.987 170.865 196.701 170.852 196.387L171.965 196.386C171.984 196.606 172.088 196.792 172.277 196.942C172.472 197.087 172.714 197.159 173.003 197.159C173.305 197.159 173.537 197.102 173.701 196.989C173.87 196.869 173.955 196.718 173.955 196.536C173.955 196.341 173.861 196.196 173.672 196.102C173.49 196.008 173.197 195.904 172.795 195.791C172.405 195.685 172.087 195.581 171.842 195.481C171.597 195.38 171.383 195.226 171.2 195.019C171.024 194.812 170.936 194.538 170.936 194.199C170.936 193.922 171.017 193.671 171.181 193.444C171.344 193.211 171.576 193.029 171.878 192.897C172.186 192.765 172.538 192.698 172.934 192.698C173.525 192.698 174 192.848 174.359 193.15C174.723 193.445 174.919 193.851 174.944 194.366L173.869 194.367C173.85 194.134 173.755 193.949 173.586 193.81C173.416 193.672 173.186 193.603 172.897 193.603C172.614 193.604 172.397 193.657 172.246 193.764C172.096 193.871 172.02 194.013 172.02 194.189C172.02 194.327 172.071 194.443 172.171 194.538C172.272 194.632 172.395 194.707 172.539 194.764C172.684 194.814 172.898 194.88 173.181 194.961C173.558 195.062 173.866 195.165 174.105 195.272C174.35 195.372 174.561 195.523 174.737 195.724C174.914 195.925 175.005 196.192 175.011 196.526C175.012 196.821 174.93 197.085 174.767 197.318C174.603 197.551 174.371 197.733 174.069 197.865C173.774 197.998 173.425 198.064 173.022 198.064ZM178.35 193.657L177.388 193.657L177.39 197.977L176.306 197.977L176.303 193.658L175.69 193.658L175.69 192.781L176.303 192.781L176.303 192.413C176.302 191.816 176.459 191.382 176.773 191.111C177.094 190.834 177.594 190.696 178.273 190.695L178.273 191.591C177.946 191.592 177.717 191.655 177.585 191.78C177.453 191.9 177.387 192.111 177.387 192.412L177.387 192.78L178.349 192.78L178.35 193.657ZM184.066 195.247C184.066 195.442 184.054 195.618 184.029 195.775L180.058 195.778C180.09 196.193 180.244 196.526 180.521 196.777C180.798 197.028 181.137 197.154 181.54 197.154C182.118 197.153 182.527 196.911 182.765 196.427L183.925 196.426C183.769 196.904 183.483 197.297 183.068 197.605C182.659 197.907 182.15 198.059 181.54 198.059C181.044 198.059 180.597 197.95 180.201 197.73C179.811 197.504 179.503 197.189 179.276 196.787C179.056 196.379 178.946 195.907 178.945 195.373C178.945 194.838 179.052 194.37 179.265 193.967C179.485 193.559 179.79 193.244 180.179 193.024C180.575 192.803 181.028 192.693 181.537 192.693C182.028 192.693 182.465 192.799 182.848 193.013C183.232 193.226 183.531 193.528 183.745 193.917C183.959 194.301 184.066 194.744 184.066 195.247ZM182.944 194.908C182.937 194.512 182.796 194.195 182.519 193.956C182.242 193.717 181.899 193.598 181.491 193.598C181.12 193.598 180.802 193.718 180.538 193.957C180.274 194.19 180.117 194.508 180.067 194.91L182.944 194.908ZM186.198 193.529C186.355 193.265 186.563 193.061 186.82 192.916C187.084 192.765 187.395 192.689 187.754 192.689L187.755 193.802L187.481 193.802C187.06 193.802 186.739 193.909 186.519 194.123C186.306 194.337 186.199 194.708 186.199 195.236L186.201 197.971L185.126 197.972L185.123 192.775L186.198 192.775L186.198 193.529Z" fill="#1D262A"/>
</svg>
