<svg width="61" height="60" viewBox="0 0 61 60" fill="none" xmlns="http://www.w3.org/2000/svg">
<g clip-path="url(#clip0_101_15467)">
<path d="M49.0164 17.4316C49.6635 17.4316 50.1882 16.907 50.1882 16.2598V3.51562C50.1882 1.57711 48.6111 0 46.6726 0H4.01636C2.07784 0 0.500732 1.57711 0.500732 3.51562V56.4844C0.500732 58.4229 2.07784 60 4.01636 60H46.6726C48.6111 60 50.1882 58.4229 50.1882 56.4844V47.8509C50.1882 47.2037 49.6635 46.6791 49.0164 46.6791C48.3692 46.6791 47.8445 47.2037 47.8445 47.8509V56.4844C47.8445 57.1305 47.3188 57.6562 46.6726 57.6562H4.01636C3.37019 57.6562 2.84448 57.1305 2.84448 56.4844V3.51562C2.84448 2.86945 3.37019 2.34375 4.01636 2.34375H46.6726C47.3188 2.34375 47.8445 2.86945 47.8445 3.51562V16.2598C47.8445 16.907 48.3692 17.4316 49.0164 17.4316Z" fill="#D24347"/>
<path d="M25.3445 6.32812C19.3997 6.32812 14.5632 11.1646 14.5632 17.1094C14.5632 20.1934 15.8652 22.9787 17.9478 24.9456C17.9869 24.9873 18.0283 25.0268 18.0737 25.0628C19.9922 26.8181 22.5453 27.8905 25.3444 27.8905C28.1434 27.8905 30.6966 26.818 32.615 25.0628C32.6604 25.0268 32.7019 24.9872 32.7409 24.9456C34.8238 22.9787 36.1257 20.1934 36.1257 17.1094C36.1257 11.1646 31.2893 6.32812 25.3445 6.32812ZM25.3445 25.5469C23.4309 25.5469 21.6649 24.9056 20.2479 23.828C21.2778 22.0016 23.1998 20.8594 25.3445 20.8594C27.4891 20.8594 29.4111 22.0016 30.4411 23.828C29.0239 24.9056 27.258 25.5469 25.3445 25.5469ZM23.4695 16.6406V15.8789C23.4695 14.8451 24.3107 14.0039 25.3445 14.0039C26.3783 14.0039 27.2195 14.8451 27.2195 15.8789V16.6406C27.2195 17.6745 26.3783 18.5156 25.3445 18.5156C24.3107 18.5156 23.4695 17.6745 23.4695 16.6406ZM32.1343 22.1113C31.2701 20.8295 30.0723 19.8326 28.6816 19.2171C29.2336 18.5038 29.5632 17.6102 29.5632 16.6406V15.8789C29.5632 13.5526 27.6708 11.6602 25.3445 11.6602C23.0182 11.6602 21.1257 13.5526 21.1257 15.8789V16.6406C21.1257 17.6102 21.4554 18.5038 22.0073 19.2171C20.6167 19.8326 19.4189 20.8295 18.5546 22.1113C17.52 20.7105 16.907 18.9805 16.907 17.1094C16.907 12.4569 20.692 8.67188 25.3445 8.67188C29.9969 8.67188 33.782 12.4569 33.782 17.1094C33.782 18.9805 33.169 20.7105 32.1343 22.1113Z" fill="#D24347"/>
<path d="M31.6726 51.3281H25.3445C24.6974 51.3281 24.1726 51.8528 24.1726 52.5C24.1726 53.1472 24.6974 53.6719 25.3445 53.6719H31.6726C32.3197 53.6719 32.8445 53.1472 32.8445 52.5C32.8445 51.8528 32.3197 51.3281 31.6726 51.3281Z" fill="#D24347"/>
<path d="M31.6726 44.7656H15.032C14.3849 44.7656 13.8601 45.2903 13.8601 45.9375C13.8601 46.5847 14.3849 47.1094 15.032 47.1094H31.6726C32.3197 47.1094 32.8445 46.5847 32.8445 45.9375C32.8445 45.2903 32.3197 44.7656 31.6726 44.7656Z" fill="#D24347"/>
<path d="M31.6726 38.2031H15.032C14.3849 38.2031 13.8601 38.7278 13.8601 39.375C13.8601 40.0222 14.3849 40.5469 15.032 40.5469H31.6726C32.3197 40.5469 32.8445 40.0222 32.8445 39.375C32.8445 38.7278 32.3197 38.2031 31.6726 38.2031Z" fill="#D24347"/>
<path d="M10.8554 31.984C10.6376 31.766 10.3353 31.6406 10.0259 31.6406C9.71756 31.6406 9.41521 31.766 9.19736 31.984C8.97939 32.202 8.854 32.5043 8.854 32.8125C8.854 33.1207 8.97928 33.423 9.19736 33.641C9.4165 33.859 9.71756 33.9844 10.0259 33.9844C10.3353 33.9844 10.6364 33.859 10.8554 33.641C11.0734 33.423 11.1989 33.1207 11.1989 32.8125C11.1989 32.5043 11.0735 32.202 10.8554 31.984Z" fill="#D24347"/>
<path d="M10.8554 38.5465C10.6364 38.3285 10.3353 38.2031 10.0259 38.2031C9.71756 38.2031 9.4165 38.3285 9.19736 38.5465C8.97939 38.7645 8.854 39.0668 8.854 39.375C8.854 39.6832 8.97928 39.9855 9.19736 40.2035C9.4165 40.4215 9.71756 40.5469 10.0259 40.5469C10.3353 40.5469 10.6364 40.4215 10.8554 40.2035C11.0734 39.9855 11.1989 39.6832 11.1989 39.375C11.1989 39.0668 11.0735 38.7645 10.8554 38.5465Z" fill="#D24347"/>
<path d="M10.8554 45.109C10.6364 44.891 10.3353 44.7656 10.0259 44.7656C9.71756 44.7656 9.4165 44.891 9.19736 45.109C8.97939 45.327 8.854 45.6293 8.854 45.9375C8.854 46.2457 8.97928 46.548 9.19736 46.766C9.41521 46.984 9.71756 47.1094 10.0259 47.1094C10.3353 47.1094 10.6376 46.984 10.8554 46.766C11.0734 46.548 11.1989 46.2457 11.1989 45.9375C11.1989 45.6293 11.0735 45.327 10.8554 45.109Z" fill="#D24347"/>
<path d="M31.6726 31.6406H15.032C14.3849 31.6406 13.8601 32.1653 13.8601 32.8125C13.8601 33.4597 14.3849 33.9844 15.032 33.9844H31.6726C32.3197 33.9844 32.8445 33.4597 32.8445 32.8125C32.8445 32.1653 32.3197 31.6406 31.6726 31.6406Z" fill="#D24347"/>
<path d="M58.0393 15.2719C56.9009 14.6145 55.5745 14.4399 54.3045 14.7801C53.0346 15.1204 51.9731 15.9349 51.3159 17.0734L36.5688 42.6159C36.4881 42.756 36.437 42.9112 36.4191 43.0719L35.381 52.37C35.3295 52.8327 35.5566 53.2821 35.9597 53.5149C36.1417 53.6199 36.3438 53.672 36.5455 53.672C36.7907 53.672 37.0349 53.5952 37.2406 53.4437L44.7738 47.8956C44.904 47.7997 45.013 47.678 45.0938 47.5379L59.8407 21.9954C61.1978 19.6451 60.3897 16.6289 58.0393 15.2719ZM38.0074 49.968L38.5495 45.1127L41.9412 47.0709L38.0074 49.968ZM43.65 45.3511L39.1846 42.7729L51.0188 22.2757L55.4842 24.8538L43.65 45.3511ZM57.8111 20.8234L56.6559 22.8241L52.1905 20.246L53.3456 18.2453C53.6899 17.6489 54.2459 17.2223 54.911 17.0441C55.5764 16.8657 56.2711 16.9574 56.8673 17.3017C57.4637 17.646 57.8903 18.2019 58.0685 18.867C58.2468 19.5322 58.1554 20.227 57.8111 20.8234Z" fill="#D24347"/>
</g>
<defs>
<clipPath id="clip0_101_15467">
<rect width="60" height="60" fill="white" transform="translate(0.5)"/>
</clipPath>
</defs>
</svg>
