<svg width="33" height="32" viewBox="0 0 33 32" fill="none" xmlns="http://www.w3.org/2000/svg">
<rect x="0.382812" y="0.0605469" width="32" height="31.8785" rx="15.9392" fill="white"/>
<path d="M16.3828 6.06055C10.86 6.06055 6.38281 10.5377 6.38281 16.0605C6.38281 21.0518 10.0397 25.1888 14.8203 25.939V18.9511H12.2812V16.0605H14.8203V13.8574C14.8203 11.3512 16.3132 9.9668 18.5974 9.9668C19.6915 9.9668 20.8359 10.1621 20.8359 10.1621V12.623H19.5749C18.3327 12.623 17.9453 13.3939 17.9453 14.1847V16.0605H20.7187L20.2754 18.9511H17.9453V25.939C22.7259 25.1888 26.3828 21.0518 26.3828 16.0605C26.3828 10.5377 21.9056 6.06055 16.3828 6.06055Z" fill="#2D2F82"/>
</svg>
