<svg width="33" height="32" viewBox="0 0 33 32" fill="none" xmlns="http://www.w3.org/2000/svg">
<path d="M9.25498 2.33538L12.934 16.0655V0.970327C13.2257 0.902249 13.5206 0.842297 13.8182 0.790719V16.0669L17.9562 0.624023C18.2544 0.65102 18.5501 0.686348 18.8433 0.729759L14.6721 16.297L22.9634 1.93601C23.2335 2.05752 23.4996 2.18644 23.7613 2.32251L15.4391 16.7371L27.3202 4.85602C27.5344 5.05858 27.7428 5.2671 27.9454 5.48133L16.0626 17.3641L30.4789 9.04087C30.6149 9.30269 30.7438 9.56873 30.8653 9.83891L16.5078 18.1282L32.0709 13.9581C32.1142 14.2513 32.1495 14.547 32.1765 14.8452L16.7338 18.9831H32.0096C31.958 19.2808 31.8981 19.5757 31.83 19.8674H16.7315L30.4643 23.5471C30.3232 23.8171 30.1746 24.0826 30.0186 24.3431L16.5065 20.7226L27.7922 27.2383C27.5786 27.4581 27.3585 27.6716 27.1325 27.8785L16.0654 21.4889L24.4397 29.8632C24.1748 30.018 23.9049 30.1652 23.6305 30.3046L15.4392 22.1133L20.8062 31.4093C20.5124 31.4924 20.215 31.5671 19.9145 31.6332L14.6726 22.5541L17.1999 31.9862C16.9747 31.9957 16.7481 32.0005 16.5205 32.0005C16.4428 32.0005 16.3653 32 16.2878 31.9989L13.8182 22.7822V31.7692C13.5206 31.7176 13.2257 31.6577 12.934 31.5896V22.7838L10.7564 30.9102C10.4788 30.8008 10.2049 30.6836 9.93511 30.5589L12.0795 22.5561L8.05407 29.5282C7.80488 29.3687 7.56047 29.2023 7.32112 29.0293L11.3149 22.1118L5.72189 27.7049C5.50768 27.5023 5.29915 27.2938 5.09658 27.0796L10.6878 21.4884L3.7724 25.481C3.59936 25.2417 3.4329 24.9973 3.27327 24.748L10.2487 20.7208L2.24194 22.8662C2.11731 22.5965 2.0001 22.3226 1.89057 22.0449L10.0171 19.8674H1.2111C1.14301 19.5757 1.08304 19.2808 1.03144 18.9831H10.0147L0.80164 16.5144C0.800499 16.4364 0.799927 16.3582 0.799927 16.2799C0.799927 16.0529 0.804739 15.827 0.814267 15.6024L10.2475 18.13L1.16695 12.8873C1.23307 12.5867 1.30779 12.2894 1.39084 11.9955L10.6906 17.3647L2.49585 9.16999C2.63527 8.89553 2.7825 8.6257 2.93727 8.36081L11.315 16.7385L4.92284 5.66704C5.12983 5.44097 5.34333 5.22098 5.56306 5.00736L12.08 16.2951L8.45895 2.78094C8.71948 2.625 8.98495 2.47638 9.25498 2.33538Z" fill="#223043"/>
</svg>
