<svg width="1053" height="70" viewBox="0 0 1053 70" fill="none" xmlns="http://www.w3.org/2000/svg">
<g style="mix-blend-mode:darken">
<path fill-rule="evenodd" clip-rule="evenodd" d="M494.492 31.205C510.263 31.205 523.301 19.5058 525.402 4.31276C525.215 2.90171 525.118 1.46212 525.118 0H525.697H526.443H527.022C527.022 1.46212 526.926 2.90172 526.739 4.31276C528.839 19.5058 541.877 31.205 557.648 31.205H1011.32C1031.01 31.205 1047.06 46.7452 1047.88 66.2243L1051 63.1063C1051.25 62.8476 1051.67 62.8476 1051.93 63.1063C1052.19 63.365 1052.19 63.7845 1051.93 64.0432L1047.72 68.2592C1047.46 68.5179 1047.04 68.5179 1046.78 68.2592L1042.56 64.0432C1042.31 63.7845 1042.31 63.365 1042.56 63.1063C1042.82 62.8476 1043.24 62.8476 1043.5 63.1063L1046.55 66.1541C1045.69 47.4398 1030.25 32.5299 1011.32 32.5299H713.086C729.176 36.126 741.322 50.1721 742.028 67.1726L745.146 64.0551C745.404 63.7964 745.824 63.7964 746.082 64.0551C746.341 64.3138 746.341 64.7332 746.082 64.992L741.866 69.208C741.608 69.4667 741.188 69.4667 740.93 69.208L736.714 64.992C736.455 64.7332 736.455 64.3138 736.714 64.0551C736.972 63.7964 737.392 63.7964 737.65 64.0551L740.699 67.1034C739.844 48.1033 724.169 32.9618 704.958 32.9618H562.51V32.5299H557.648C543.833 32.5299 532.029 23.9179 527.313 11.7695V65.4388L530.399 62.352C530.658 62.0931 531.078 62.0931 531.337 62.352C531.596 62.6109 531.596 63.0306 531.337 63.2894L527.118 67.5078C526.86 67.7666 526.44 67.7666 526.181 67.5078L521.963 63.2894C521.704 63.0306 521.704 62.6109 521.963 62.352C522.221 62.0931 522.641 62.0931 522.9 62.352L525.987 65.4388V8.32954H526.194C526.152 8.16813 526.11 8.00624 526.07 7.84385C522.56 22.0205 509.754 32.5299 494.492 32.5299H353.08C334.171 32.5494 318.748 47.452 317.893 66.1541L320.941 63.1063C321.2 62.8476 321.619 62.8476 321.878 63.1063C322.137 63.365 322.137 63.7845 321.878 64.0432L317.662 68.2592C317.403 68.5179 316.984 68.5179 316.725 68.2592L312.509 64.0432C312.25 63.7845 312.25 63.365 312.509 63.1063C312.768 62.8476 313.187 62.8476 313.446 63.1063L316.564 66.2243C317.243 50.1018 328.356 36.6777 343.325 32.5299H40.8155C21.89 32.5299 6.44698 47.4398 5.59195 66.1541L8.63972 63.1063C8.89843 62.8476 9.31789 62.8476 9.57661 63.1063C9.83532 63.365 9.83532 63.7845 9.57661 64.0432L5.3606 68.2592C5.10189 68.5179 4.68243 68.5179 4.42371 68.2592L0.207708 64.0432C-0.0510069 63.7845 -0.0510069 63.365 0.207708 63.1063C0.466423 62.8476 0.885883 62.8476 1.1446 63.1063L4.26261 66.2243C5.08313 46.7452 21.1345 31.205 40.8155 31.205H353.077L353.117 31.205H475.372L494.492 31.205Z" fill="#D24347"/>
</g>
</svg>
