<svg width="51" height="60" viewBox="0 0 51 60" fill="none" xmlns="http://www.w3.org/2000/svg">
<path d="M49.1785 35.6934C48.4669 34.9819 47.595 34.4889 46.6444 34.2471C47.0816 32.4365 46.595 30.4464 45.1843 29.0357C44.459 28.3102 43.58 27.8301 42.6513 27.5934C43.064 25.8874 42.6822 23.8708 41.1893 22.3779C40.6885 21.8771 40.1141 21.4943 39.5012 21.2264L45.1852 15.5431C47.3408 13.3849 47.3447 9.89133 45.1843 7.73123C43.0267 5.57348 39.5328 5.56973 37.3718 7.73123L19.6414 25.4616L18.6045 20.9682C18.0092 18.3869 16.0571 16.3296 13.5102 15.5992C10.9639 14.8687 8.2184 15.579 6.34534 17.453C6.34511 17.4532 6.34487 17.4534 6.34452 17.4537C6.01482 17.7837 5.82929 18.2319 5.82976 18.6985L5.85167 40.5665L0.718068 45.7002C0.0314774 46.3868 0.0314774 47.4999 0.718068 48.1865L12.0166 59.4851C12.3462 59.8148 12.7934 60.0001 13.2597 60.0001H29.6172C31.5951 60.0001 33.455 59.2294 34.8543 57.8301L49.1784 43.506C51.3095 41.3769 51.3627 37.8746 49.1785 35.6934ZM39.8581 31.5219C40.6433 30.7366 41.9138 30.7376 42.6981 31.5219C43.481 32.3049 43.481 33.5789 42.6981 34.362L38.703 38.3569C37.9164 39.1436 36.6457 39.1398 35.8633 38.3573C35.0803 37.5738 35.0802 36.2995 35.8629 35.5168L39.8581 31.5219ZM33.3767 33.0306C32.5938 33.8136 31.3197 33.8131 30.5367 33.0306C29.7536 32.2476 29.7536 30.9736 30.5367 30.1906L35.863 24.8642C36.6466 24.0807 37.9206 24.0818 38.703 24.8642C39.4884 25.6495 39.4871 26.9203 38.703 27.7042C38.7029 27.7044 38.7025 27.7047 38.7026 27.7046C38.703 27.7042 33.3767 33.0306 33.3767 33.0306ZM32.3683 55.3435C31.6436 56.0682 30.641 56.4838 29.6173 56.4838H13.988L4.44755 46.9433L8.85366 42.5371C9.18383 42.2069 9.36901 41.7591 9.36866 41.2921L9.34686 19.5081C10.2681 18.8674 11.4405 18.6634 12.5408 18.9791C13.8595 19.3572 14.8702 20.4221 15.1783 21.7584L16.9289 29.343C17.0041 29.6692 17.1697 29.9597 17.3979 30.1885C17.3982 30.1891 18.7301 31.5219 18.7301 31.5219C21.7157 34.5074 21.7157 39.3654 18.7301 42.3511C18.0435 43.0377 18.0435 44.1508 18.7301 44.8374C19.4167 45.5241 20.53 45.5238 21.2164 44.8374C25.5729 40.4808 25.5729 33.3922 21.2164 29.0357L21.1281 28.9474L39.8582 10.2174C40.6616 9.41372 41.9335 9.45287 42.6981 10.2175C43.4819 11.0013 43.4824 12.2721 42.6981 13.0575L28.0504 27.7042C25.8964 29.8581 25.8964 33.3629 28.0508 35.5173C29.0796 36.5454 30.416 37.0813 31.7663 37.1275C31.8126 38.4778 32.3486 39.8144 33.3767 40.8432C34.4047 41.8713 35.7404 42.4074 37.0902 42.4541C37.1377 43.858 37.7052 45.1708 38.7022 46.168C39.1961 46.6625 39.7678 47.0502 40.3892 47.3229L32.3683 55.3435ZM46.6929 41.0189C46.6925 41.0191 46.6923 41.0195 46.692 41.0197L44.0286 43.6832C43.2546 44.4582 41.9816 44.4758 41.1893 43.6825C40.3992 42.8924 40.4113 41.6212 41.1899 40.8428L43.8529 38.1797C44.6432 37.3895 45.9141 37.4018 46.6928 38.1805C47.4877 38.9741 47.4652 40.2476 46.6929 41.0189Z" fill="#D24347"/>
<path d="M18.909 11.0392C19.8799 11.0392 20.667 10.2521 20.667 9.28116V1.74883C20.5741 -0.5838 17.2429 -0.582042 17.1509 1.74883V9.28128C17.1509 10.2522 17.938 11.0392 18.909 11.0392Z" fill="#D24347"/>
<path d="M10.1336 10.5244C10.8202 11.2111 11.9335 11.2108 12.6198 10.5244C13.3064 9.83777 13.3064 8.72466 12.6198 8.03807L10.7368 6.15505C10.0503 5.46846 8.93713 5.46846 8.25054 6.15505C7.56395 6.84164 7.56395 7.95474 8.25054 8.64133L10.1336 10.5244Z" fill="#D24347"/>
<path d="M27.6848 10.5244L29.5678 8.64133C30.2544 7.95474 30.2544 6.84164 29.5678 6.15505C28.8814 5.46846 27.7682 5.46846 27.0816 6.15505L25.1985 8.03807C24.5119 8.72466 24.5119 9.83777 25.1985 10.5244C25.8851 11.2111 26.9983 11.2108 27.6848 10.5244Z" fill="#D24347"/>
</svg>
