<svg width="33" height="32" viewBox="0 0 33 32" fill="none" xmlns="http://www.w3.org/2000/svg">
<rect x="0.383484" width="31.9993" height="31.9993" rx="15.9996" fill="white"/>
<path d="M17.4106 6C18.536 6.00186 19.1063 6.00782 19.5991 6.02249L19.7932 6.02883C20.0174 6.0368 20.2386 6.0468 20.5053 6.0593C21.5694 6.10847 22.2953 6.2768 22.9328 6.5243C23.5919 6.77847 24.1486 7.1218 24.7044 7.67764C25.2594 8.23347 25.6028 8.7918 25.8578 9.4493C26.1044 10.086 26.2728 10.8126 26.3228 11.8768C26.3347 12.1435 26.3443 12.3647 26.3522 12.5889L26.3585 12.783C26.3731 13.2757 26.3798 13.8461 26.3819 14.9716L26.3827 15.7172C26.3828 15.8083 26.3828 15.9023 26.3828 15.9993L26.3827 16.2814L26.3821 17.0271C26.3802 18.1525 26.3743 18.7229 26.3596 19.2156L26.3532 19.4097C26.3453 19.634 26.3353 19.8552 26.3228 20.1218C26.2736 21.186 26.1044 21.9118 25.8578 22.5493C25.6036 23.2085 25.2594 23.7652 24.7044 24.321C24.1486 24.876 23.5894 25.2193 22.9328 25.4743C22.2953 25.721 21.5694 25.8893 20.5053 25.9393C20.2386 25.9512 20.0174 25.9609 19.7932 25.9687L19.5991 25.975C19.1063 25.9897 18.536 25.9963 17.4106 25.9985L16.6649 25.9993C16.5738 25.9993 16.4798 25.9993 16.3828 25.9993H16.1007L15.355 25.9986C14.2296 25.9968 13.6592 25.9908 13.1665 25.9761L12.9724 25.9698C12.7481 25.9618 12.5269 25.9518 12.2603 25.9393C11.1961 25.8902 10.4711 25.721 9.83278 25.4743C9.17444 25.2202 8.61694 24.876 8.06111 24.321C7.50528 23.7652 7.16278 23.206 6.90778 22.5493C6.66028 21.9118 6.49278 21.186 6.44278 20.1218C6.4309 19.8552 6.42121 19.634 6.41336 19.4097L6.40707 19.2156C6.39244 18.7229 6.38577 18.1525 6.38361 17.0271L6.38348 14.9716C6.38534 13.8461 6.39129 13.2757 6.40596 12.783L6.41231 12.5889C6.42028 12.3647 6.43028 12.1435 6.44278 11.8768C6.49194 10.8118 6.66028 10.0868 6.90778 9.4493C7.16194 8.79097 7.50528 8.23347 8.06111 7.67764C8.61694 7.1218 9.17528 6.7793 9.83278 6.5243C10.4703 6.2768 11.1953 6.1093 12.2603 6.0593C12.5269 6.04743 12.7481 6.03774 12.9724 6.02989L13.1665 6.0236C13.6592 6.00896 14.2296 6.00229 15.355 6.00013L17.4106 6ZM16.3828 10.9993C13.6199 10.9993 11.3828 13.2388 11.3828 15.9993C11.3828 18.7622 13.6223 20.9993 16.3828 20.9993C19.1457 20.9993 21.3828 18.7598 21.3828 15.9993C21.3828 13.2364 19.1432 10.9993 16.3828 10.9993ZM16.3828 12.9993C18.0397 12.9993 19.3828 14.342 19.3828 15.9993C19.3828 17.6562 18.0401 18.9993 16.3828 18.9993C14.7259 18.9993 13.3828 17.6567 13.3828 15.9993C13.3828 14.3424 14.7254 12.9993 16.3828 12.9993ZM21.6328 9.4993C20.9435 9.4993 20.3828 10.0592 20.3828 10.7484C20.3828 11.4377 20.9427 11.9985 21.6328 11.9985C22.322 11.9985 22.8828 11.4386 22.8828 10.7484C22.8828 10.0592 22.3211 9.49844 21.6328 9.4993Z" fill="#2D2F82"/>
</svg>
