<svg width="31" height="30" viewBox="0 0 31 30" fill="none" xmlns="http://www.w3.org/2000/svg">
<rect x="0.382812" y="-0.000488281" width="30" height="30" rx="15" fill="white"/>
<path d="M21.718 21.3385H19.0525V17.1617C19.0525 16.1657 19.0323 14.884 17.6635 14.884C16.2738 14.884 16.0615 15.9678 16.0615 17.0882V21.3385H13.396V12.7495H15.9565V13.9202H15.991C16.3488 13.2452 17.2188 12.5328 18.5185 12.5328C21.2193 12.5328 21.7188 14.3103 21.7188 16.624L21.718 21.3385ZM10.3856 11.5743C9.52756 11.5743 8.83831 10.8798 8.83831 10.0255C8.83831 9.17201 9.52831 8.47826 10.3856 8.47826C11.2406 8.47826 11.9336 9.17201 11.9336 10.0255C11.9336 10.8798 11.2398 11.5743 10.3856 11.5743ZM11.7221 21.3385H9.04906V12.7495H11.7221V21.3385ZM23.0515 5.99951H7.71106C6.97681 5.99951 6.38281 6.58001 6.38281 7.29626V22.7028C6.38281 23.4197 6.97681 23.9995 7.71106 23.9995H23.0493C23.7828 23.9995 24.3828 23.4197 24.3828 22.7028V7.29626C24.3828 6.58001 23.7828 5.99951 23.0493 5.99951H23.0515Z" fill="#2D2F82"/>
</svg>
