<svg width="96" height="22" viewBox="0 0 96 22" fill="none" xmlns="http://www.w3.org/2000/svg">
<g clip-path="url(#clip0_60_3908)">
<path d="M28.0763 11.7804C28.0952 11.4167 28.0952 11.0522 28.0763 10.6885H7.35706C7.35269 10.7791 7.34887 10.8703 7.34669 10.9614H3.00617L3.00398 11.0979H0.666656V11.3709H3.00344L3.00671 11.5074H7.34669C7.34887 11.5991 7.35215 11.6898 7.35761 11.7804H13.306C13.2834 11.5993 13.2721 11.417 13.2722 11.2344H22.0078C22.0078 11.4195 21.9969 11.6019 21.974 11.7804H28.0763ZM28.0332 10.1425H21.8708C21.8229 9.95671 21.7627 9.77431 21.6906 9.59651H13.591C13.5195 9.7734 13.4589 9.95521 13.4109 10.1425H7.39965C7.40947 10.0513 7.42039 9.96013 7.4324 9.86949H3.09189L3.11045 9.73628H0.666656V9.46329H3.15358L3.1787 9.32352H7.51921C7.53559 9.23234 7.55416 9.14116 7.57381 9.05053H27.8601C27.9366 9.40814 27.995 9.77231 28.0332 10.1425ZM27.7275 8.50455H21.0502C20.8927 8.30799 20.7186 8.12533 20.5298 7.95858H14.7512C14.5629 8.12564 14.3882 8.308 14.2309 8.50455H7.70648C7.73105 8.41337 7.75726 8.3222 7.78456 8.23156H3.44404L3.49209 8.07815H0.666656V7.80461H3.58327L3.62585 7.68504H7.96637C7.99913 7.59332 8.03407 7.50269 8.07011 7.41205H27.3633C27.5042 7.76694 27.6259 8.1322 27.7275 8.50455ZM27.1285 6.86662H8.30488C8.34746 6.7749 8.39114 6.68427 8.43646 6.59363H4.09648L4.17347 6.44294H0.666656V6.16995H4.32143L4.39077 6.04766H8.73128C8.78424 5.95593 8.83884 5.86475 8.89453 5.77467H26.5389C26.7562 6.12518 26.9538 6.4899 27.1285 6.86662ZM7.39965 12.3264H28.0338C27.995 12.6966 27.9366 13.0613 27.8601 13.4183H21.4242C21.5252 13.2436 21.6147 13.0613 21.6911 12.8724H13.5899C13.6664 13.0613 13.7554 13.2436 13.8564 13.4183H7.57327C7.55383 13.3276 7.53563 13.2366 7.51867 13.1454H3.1787C3.1698 13.0974 3.16125 13.0493 3.15304 13.0012H0.666656V12.7282H3.1099C3.10364 12.6853 3.09763 12.6424 3.09189 12.5994H7.4324C7.42029 12.5085 7.40937 12.4175 7.39965 12.3264ZM7.70594 13.9643H27.7269C27.6259 14.3372 27.5042 14.7014 27.3633 15.0563H19.7567C20.0334 14.9027 20.2926 14.7197 20.5298 14.5103H14.7512C14.9885 14.7197 15.2477 14.9027 15.5243 15.0563H8.07011C8.03427 14.9658 7.99968 14.8748 7.96637 14.7833H3.62585L3.5789 14.6517H0.666656V14.3787H3.48827C3.47337 14.3317 3.45881 14.2845 3.44459 14.2373H7.78456C7.75726 14.1467 7.73105 14.056 7.70594 13.9643ZM8.30488 15.6023H27.1285C26.954 15.9777 26.7571 16.3423 26.5389 16.6942H8.89453C8.83853 16.6041 8.78393 16.5131 8.73074 16.4212H4.39077C4.36347 16.3743 4.33671 16.3273 4.31051 16.2798H0.666656V16.0068H4.16364L4.09648 15.8758H8.437C8.39163 15.7854 8.34759 15.6944 8.30488 15.6028V15.6023ZM9.90459 18.0592C9.98485 18.152 10.0673 18.2426 10.1514 18.3321H25.282C25.6043 17.9888 25.9029 17.6239 26.1758 17.2402H9.25761C9.32312 17.3325 9.38973 17.4236 9.45853 17.5132H5.11801L5.22611 17.6524H0.666656V17.9254H5.44942C5.48709 17.9707 5.52531 18.0149 5.56407 18.0592H9.90459ZM11.7156 19.6971C11.8483 19.7915 11.9831 19.8827 12.1196 19.9701H23.3138C23.8163 19.6474 24.2901 19.282 24.73 18.8781H10.7039C10.8049 18.9709 10.9081 19.0621 11.0129 19.1511H6.6724C6.73137 19.2013 6.79088 19.2505 6.85094 19.2985H0.666656V19.5715H7.20309C7.25988 19.6141 7.31775 19.6561 7.37562 19.6971H11.7161H11.7156ZM15.5467 21.3809C16.2467 21.5299 16.9723 21.608 17.7164 21.608C19.3838 21.608 20.959 21.2149 22.3545 20.516H13.0784C13.2727 20.6132 13.4698 20.7044 13.6702 20.789H9.32967C9.4072 20.8218 9.48528 20.854 9.56335 20.8851H0.666656V21.1581H10.3441C11.3034 21.4508 12.3216 21.608 13.3765 21.608C14.1206 21.608 14.8468 21.5299 15.5467 21.3809ZM9.25761 5.22869H26.1758C25.9029 4.84493 25.6043 4.48011 25.282 4.13674H10.1514C10.0673 4.22628 9.98485 4.31691 9.90404 4.40973H5.56407L5.46798 4.5222H0.666656V4.79519H5.24304C5.201 4.84814 5.1595 4.90165 5.11855 4.9557H9.45853C9.38973 5.04579 9.32312 5.13697 9.25761 5.22869ZM10.7034 3.59076H24.7295C24.2898 3.18687 23.8161 2.82154 23.3138 2.49881H12.1196C11.9831 2.58671 11.8483 2.67789 11.7156 2.77179H7.37562C7.31557 2.81493 7.25551 2.85806 7.19654 2.90228H0.666656V3.17527H6.84493C6.78706 3.22223 6.72973 3.26973 6.67295 3.31777H11.0129C10.9081 3.40677 10.8049 3.49794 10.7034 3.59076ZM13.0789 1.95283H22.355C20.9152 1.23238 19.327 0.858445 17.717 0.860875C16.9723 0.860875 16.2467 0.939495 15.5467 1.08855C14.8333 0.936875 14.1059 0.860565 13.3765 0.860875C12.2113 0.860875 11.0915 1.05306 10.046 1.40685H0.666656V1.67984H13.6702C13.4703 1.76459 13.2731 1.85563 13.0789 1.95283ZM61.4055 0.706909C61.7642 0.706909 62.0459 0.796449 62.2507 0.97553C62.4642 1.14642 62.5706 1.38501 62.5706 1.69294C62.5706 2.00033 62.4642 2.24329 62.2507 2.42237C62.0459 2.59326 61.7642 2.67898 61.4055 2.67898C61.0474 2.67898 60.7613 2.59326 60.5478 2.42237C60.343 2.24329 60.2404 2.00033 60.2404 1.69294C60.2404 1.38556 60.343 1.14697 60.5478 0.97553C60.7613 0.796449 61.0474 0.706909 61.4055 0.706909ZM62.4041 3.86921V9.43872C62.4041 9.79743 62.4642 10.0409 62.5837 10.1687C62.7115 10.297 62.925 10.3609 63.2236 10.3609V10.6295C62.9848 10.6178 62.7458 10.6093 62.5067 10.6038C62.1783 10.5867 61.8496 10.5781 61.5207 10.5782C61.1882 10.5782 60.8508 10.5869 60.5096 10.6038C60.2534 10.6095 59.9973 10.618 59.7414 10.6295V10.3609C60.04 10.3609 60.2491 10.297 60.3687 10.1687C60.4965 10.0409 60.5609 9.79743 60.5609 9.43872V5.40559C60.5609 5.02177 60.5008 4.7395 60.3813 4.56096C60.2704 4.37314 60.0569 4.27924 59.7414 4.27924V4.01007C60.0144 4.03573 60.2792 4.04829 60.5352 4.04829C60.8934 4.04829 61.2264 4.03573 61.5338 4.01007C61.8494 3.97622 62.1399 3.92927 62.4041 3.86921Z" fill="#223043"/>
<path fill-rule="evenodd" clip-rule="evenodd" d="M66.0076 5.04416V3.86922C65.7433 3.92928 65.4529 3.97623 65.1373 4.01008C64.8212 4.03575 64.4881 4.0483 64.1381 4.0483C63.8821 4.0483 63.6178 4.03575 63.3443 4.01008V4.27925C63.6517 4.27925 63.8652 4.37316 63.9847 4.56097C64.1043 4.74006 64.1638 5.02178 64.1638 5.4056V11.8077C64.1638 12.149 64.1043 12.3794 63.9847 12.4989C63.8739 12.6185 63.6773 12.678 63.3956 12.678V12.9472L64.0743 12.909C64.3858 12.9003 64.6974 12.8959 65.009 12.8959C65.4441 12.8959 65.8542 12.9002 66.238 12.9084C66.6305 12.9259 66.9379 12.9384 67.1601 12.9466V12.678C66.8014 12.678 66.5197 12.6098 66.315 12.4733C66.1102 12.3455 66.0076 12.0807 66.0076 11.6794V10.3964C66.12 10.4903 66.2522 10.5678 66.4045 10.6295C66.6775 10.7496 66.9805 10.8091 67.3136 10.8091C67.7662 10.8091 68.1713 10.7278 68.53 10.5656C68.8946 10.4053 69.2153 10.1594 69.4647 9.84876C69.729 9.52445 69.9299 9.12753 70.0664 8.65799C70.2116 8.18845 70.2842 7.64247 70.2842 7.01896C70.2842 6.31083 70.1816 5.72172 69.9768 5.25218C69.7721 4.77391 69.4986 4.42011 69.1573 4.18971C68.8163 3.9507 68.4086 3.82519 67.9922 3.831C67.497 3.831 67.0619 3.95876 66.6862 4.21483C66.3908 4.41411 66.1648 4.69037 66.0076 5.04471V5.04416ZM66.0076 5.48422V10.1256C66.0786 10.2097 66.1643 10.2795 66.2636 10.3352C66.4258 10.4204 66.6092 10.463 66.8145 10.463C67.1983 10.463 67.5014 10.3352 67.7236 10.0792C67.9452 9.81437 68.103 9.44747 68.1969 8.97793C68.2996 8.5002 68.3509 7.93238 68.3509 7.27503C68.3509 6.54123 68.304 5.96468 68.21 5.54646C68.1161 5.12825 67.9878 4.8296 67.8257 4.65052C67.6635 4.47089 67.4675 4.38135 67.2366 4.38135C66.9297 4.38135 66.648 4.50146 66.3919 4.74006C66.1992 4.92569 66.0709 5.17411 66.0076 5.48422Z" fill="#223043"/>
<path d="M73.2237 3.83106C73.5824 3.83106 73.8936 3.87801 74.1584 3.97192C74.4314 4.05709 74.628 4.14281 74.7475 4.22798C75.0374 4.42453 75.2171 4.29623 75.2853 3.84361H75.5539C75.537 4.08275 75.5239 4.37758 75.5157 4.727C75.507 5.06879 75.5026 5.52522 75.5026 6.09741H75.234C75.1902 5.77728 75.1085 5.4635 74.9905 5.16269C74.8818 4.87076 74.7014 4.6109 74.4658 4.40706C74.2436 4.21051 73.9537 4.11223 73.595 4.11223C73.3476 4.11223 73.1385 4.1854 72.9676 4.33063C72.7968 4.46712 72.7116 4.66749 72.7116 4.93229C72.7116 5.18835 72.7886 5.41439 72.942 5.61094C73.096 5.79876 73.292 5.98221 73.5311 6.16129C73.7784 6.33218 74.0345 6.51563 74.2993 6.71163C74.581 6.92511 74.8371 7.13858 75.0675 7.35206C75.2884 7.54515 75.4745 7.7747 75.6178 8.03071C75.7549 8.27804 75.8231 8.57232 75.8231 8.9141C75.8231 9.29792 75.7117 9.63479 75.4901 9.92525C75.2678 10.207 74.9736 10.4248 74.6067 10.5782C74.248 10.7322 73.8467 10.8092 73.4033 10.8092C73.1705 10.8118 72.9382 10.786 72.7116 10.7322C72.5341 10.688 72.3622 10.6235 72.1995 10.54C72.0886 10.4887 71.9816 10.4417 71.8795 10.3992C71.7924 10.3513 71.7025 10.3086 71.6103 10.2714C71.5252 10.2457 71.4482 10.2752 71.3799 10.3609C71.3204 10.4461 71.2735 10.5657 71.2391 10.7191H70.9705C70.9874 10.4461 71.0005 10.1131 71.0087 9.72051C71.0174 9.32795 71.0218 8.80709 71.0218 8.15902H71.2904C71.3417 8.61982 71.4356 9.0293 71.5721 9.38746C71.7086 9.73798 71.8921 10.0153 72.1225 10.2201C72.3616 10.4166 72.6603 10.5149 73.019 10.5149C73.1642 10.5149 73.3051 10.4849 73.4416 10.4248C73.578 10.3648 73.6889 10.2665 73.7746 10.13C73.8685 9.9935 73.9155 9.81879 73.9155 9.60585C73.9155 9.22968 73.7915 8.91792 73.5436 8.6706C73.3051 8.42327 72.9977 8.1541 72.622 7.86419C72.3491 7.64198 72.0886 7.42468 71.8413 7.2112C71.612 7.00136 71.4136 6.75999 71.2522 6.49433C71.0963 6.22162 71.0167 5.91194 71.0218 5.59784C71.0218 5.21402 71.1239 4.88971 71.3286 4.62491C71.5376 4.35735 71.8171 4.15334 72.1356 4.0358C72.4818 3.89836 72.8512 3.82885 73.2237 3.83106ZM89.1176 3.97192C88.8954 3.87801 88.6055 3.83106 88.2468 3.83106C87.8453 3.82698 87.4491 3.92385 87.0948 4.11278C86.7448 4.29186 86.4675 4.59488 86.2622 5.02183V3.86982C85.9979 3.92933 85.7075 3.97629 85.3919 4.01014C85.0845 4.0358 84.7515 4.04835 84.3933 4.04835C84.1372 4.04835 83.8724 4.0358 83.5995 4.01014V4.2793C83.915 4.2793 84.1285 4.37321 84.2393 4.56103C84.3589 4.74011 84.4184 5.02183 84.4184 5.40565V9.43879C84.4184 9.79749 84.3545 10.041 84.2268 10.1688C84.1072 10.2971 83.8981 10.3609 83.5995 10.3609V10.6296C83.8554 10.6181 84.1115 10.6095 84.3676 10.6039C84.7002 10.5871 85.0332 10.5785 85.3662 10.5782C85.6649 10.5782 85.9553 10.587 86.2365 10.6039C86.527 10.6126 86.7405 10.6214 86.877 10.6296V10.3609C86.6553 10.3609 86.497 10.2971 86.403 10.1688C86.3091 10.041 86.2622 9.79749 86.2622 9.43879V5.87956C86.2622 5.59784 86.3179 5.34614 86.4287 5.12393C86.5483 4.89353 86.7017 4.71445 86.8895 4.58669C87.0698 4.46101 87.2845 4.39391 87.5043 4.3945C87.7008 4.3945 87.8455 4.44146 87.9394 4.53537C88.0421 4.62054 88.1103 4.74448 88.1447 4.90663C88.1786 5.06005 88.1955 5.2435 88.1955 5.45698V9.43879C88.1955 9.79749 88.1485 10.041 88.0546 10.1688C87.9695 10.2971 87.8117 10.3609 87.5813 10.3609V10.6296C87.7347 10.6214 87.9607 10.6126 88.2599 10.6039C88.8655 10.5694 89.4725 10.5694 90.078 10.6039C90.3936 10.6126 90.6284 10.6214 90.7818 10.6296V10.3609C90.5088 10.3609 90.3166 10.2971 90.2058 10.1688C90.0949 10.041 90.0392 9.79749 90.0392 9.43879V5.93634L90.0387 5.89649L90.0365 5.76709C90.0561 5.55307 90.1134 5.34421 90.2058 5.15014C90.3253 4.91919 90.4788 4.73574 90.6666 4.59925C90.8544 4.46275 91.0597 4.3945 91.2814 4.3945C91.503 4.3945 91.6657 4.44146 91.7678 4.53537C91.8786 4.62054 91.9513 4.74448 91.9857 4.90663C92.0282 5.06005 92.0495 5.2435 92.0495 5.45698V9.43879C92.0495 9.79749 92.0026 10.041 91.9087 10.1688C91.8235 10.2971 91.6657 10.3609 91.4348 10.3609V10.6296C91.5887 10.6214 91.8148 10.6126 92.1134 10.6039C92.4161 10.5867 92.7193 10.5782 93.0225 10.5782C93.3386 10.5782 93.6585 10.587 93.9828 10.6039C94.3072 10.6126 94.5507 10.6214 94.7128 10.6296V10.3609C94.4142 10.3609 94.2007 10.2971 94.0724 10.1688C93.9528 10.041 93.8933 9.79749 93.8933 9.43879V5.99476C93.8933 5.56781 93.8633 5.22657 93.8038 4.97051C93.7437 4.70571 93.646 4.49278 93.5089 4.33063C93.3724 4.17666 93.1934 4.05764 92.9712 3.97192C92.7495 3.87801 92.459 3.83106 92.1009 3.83106C91.6657 3.83106 91.2557 3.9206 90.8719 4.09968C90.5039 4.27548 90.2058 4.61071 89.977 5.10537C89.9692 5.06017 89.9601 5.0152 89.9497 4.97051C89.8902 4.70571 89.7919 4.49278 89.6554 4.33063C89.5189 4.17666 89.3393 4.05764 89.1176 3.97192ZM82.5949 9.23405V3.86927C82.3301 3.92933 82.0401 3.97629 81.724 4.01014C81.4172 4.0358 81.0841 4.04835 80.7254 4.04835C80.4694 4.04835 80.2051 4.0358 79.9316 4.01014V4.2793C80.2477 4.2793 80.4612 4.37321 80.572 4.56103C80.6916 4.74011 80.7511 5.02183 80.7511 5.40565V8.76014C80.7511 9.04186 80.6916 9.29792 80.572 9.52833C80.4706 9.73928 80.3162 9.92027 80.1238 10.0536C79.9447 10.1817 79.7292 10.2491 79.509 10.2457C79.2961 10.2457 79.1339 10.2026 79.0225 10.1174C78.9075 10.0168 78.8269 9.88251 78.7921 9.73361C78.7559 9.54804 78.7387 9.35924 78.7408 9.17017V3.86927C78.4765 3.92933 78.1861 3.97629 77.8705 4.01014C77.5631 4.0358 77.2301 4.04835 76.8719 4.04835C76.6159 4.04835 76.3511 4.0358 76.0781 4.01014V4.2793C76.3936 4.2793 76.6071 4.37321 76.718 4.56103C76.8375 4.74011 76.897 5.02183 76.897 5.40565V8.64494C76.897 9.06315 76.9271 9.40494 76.9871 9.66919C77.0466 9.93399 77.1493 10.1475 77.294 10.3096C77.4223 10.4548 77.597 10.5744 77.8192 10.6683C78.0409 10.7617 78.3313 10.8092 78.69 10.8092C79.1339 10.8092 79.5347 10.7191 79.8934 10.54C80.2603 10.3522 80.5464 10.0448 80.7511 9.61841V10.7704C81.0371 10.7 81.3283 10.6529 81.6219 10.6296C81.9293 10.6039 82.2618 10.5913 82.6205 10.5913C82.8853 10.5913 83.1496 10.6039 83.4144 10.6296V10.3609C83.107 10.3609 82.8935 10.2714 82.7739 10.0918C82.6544 9.90396 82.5949 9.61841 82.5949 9.23459V9.23405Z" fill="#223043"/>
<path fill-rule="evenodd" clip-rule="evenodd" d="M57.8283 4.17657C57.3587 3.94617 56.8122 3.83097 56.1892 3.83097C55.5832 3.83097 55.0411 3.94617 54.5633 4.17657C54.0938 4.40697 53.7225 4.77824 53.4495 5.29036C53.1847 5.80249 53.0521 6.48114 53.0521 7.32631C53.0521 8.17148 53.1847 8.84959 53.449 9.36226C53.722 9.86565 54.0932 10.2325 54.5628 10.463C55.041 10.6934 55.5832 10.8091 56.1892 10.8091C56.8122 10.8091 57.3587 10.6934 57.8283 10.463C58.2973 10.2325 58.6647 9.86565 58.929 9.36226C59.1938 8.85013 59.3259 8.17148 59.3259 7.32631C59.3259 6.48114 59.1938 5.80304 58.929 5.29036C58.6647 4.77824 58.2973 4.40697 57.8283 4.17657ZM55.3315 4.85522C55.5619 4.34309 55.848 4.08703 56.1892 4.08703C56.5392 4.08703 56.8253 4.34309 57.047 4.85522C57.2774 5.35861 57.3926 6.18249 57.3926 7.32631C57.3926 8.47013 57.2774 9.29401 57.047 9.7974C56.8253 10.3008 56.5392 10.553 56.1892 10.553C55.848 10.553 55.5619 10.3008 55.3315 9.7974C55.1011 9.29401 54.9859 8.47013 54.9859 7.32631C54.9859 6.18249 55.1006 5.35861 55.3315 4.85522ZM48.877 13.0367C48.3474 13.0367 47.874 12.9897 47.4558 12.8958C47.0463 12.8107 46.722 12.6742 46.4829 12.4863C46.2525 12.3067 46.1373 12.085 46.1373 11.8202C46.1373 11.5555 46.2563 11.3169 46.4954 11.1034C46.7346 10.8986 47.0889 10.7365 47.5584 10.6169L47.6731 10.8217C47.5265 10.9317 47.4045 11.0712 47.3149 11.2311C47.2467 11.3851 47.2123 11.5429 47.2123 11.705C47.2123 12.0638 47.3744 12.3367 47.6993 12.524C48.0323 12.7206 48.48 12.8188 49.0435 12.8188C49.4273 12.8188 49.7691 12.7675 50.0677 12.6654C50.3751 12.5628 50.6137 12.4088 50.7846 12.2046C50.9642 11.9993 51.0538 11.7476 51.0538 11.449C51.0538 11.1929 50.9599 10.9751 50.7721 10.796C50.5842 10.6251 50.2086 10.5399 49.6452 10.5399H48.8513C48.5019 10.5399 48.194 10.5017 47.9297 10.4247C47.6731 10.3483 47.4727 10.2282 47.3275 10.066C47.1828 9.89568 47.1102 9.6822 47.1102 9.42614C47.1102 9.06743 47.251 8.75186 47.5328 8.47832C47.7533 8.2643 48.058 8.06065 48.4467 7.86792C48.1912 7.83614 47.9402 7.77476 47.6988 7.68502C47.3149 7.53979 47.0119 7.31758 46.7902 7.01893C46.568 6.72028 46.4572 6.33646 46.4572 5.86692C46.4572 5.39738 46.568 5.01301 46.7902 4.71436C47.0119 4.40697 47.3149 4.18476 47.6993 4.04827C48.0831 3.90358 48.5183 3.83097 49.0047 3.83097C49.4917 3.83097 49.9269 3.90358 50.3107 4.04881C50.564 4.13835 50.7813 4.26557 50.9642 4.42936C51.0729 4.27266 51.205 4.13289 51.3606 4.01005C51.6511 3.78838 51.9628 3.677 52.2953 3.677C52.5683 3.677 52.7736 3.75398 52.9101 3.90795C53.0553 4.05263 53.1279 4.24482 53.1279 4.48396C53.1279 4.74002 53.0592 4.93166 52.9227 5.05996C52.7862 5.18008 52.6327 5.23959 52.4619 5.23959C52.3116 5.2376 52.1667 5.18313 52.0524 5.08562C51.9323 4.98298 51.8646 4.82956 51.8476 4.62482C51.8329 4.44137 51.8842 4.21424 52.0016 3.94235C51.7526 4.04827 51.5604 4.16893 51.425 4.30488C51.323 4.40329 51.2338 4.51429 51.1597 4.63519C51.1804 4.66085 51.2007 4.68761 51.2198 4.71436C51.442 5.01301 51.5528 5.39683 51.5528 5.86637C51.5528 6.33591 51.442 6.72028 51.2198 7.01893C50.9981 7.31758 50.6951 7.53979 50.3107 7.68502C49.9269 7.8297 49.4917 7.90232 49.0047 7.90232C48.9319 7.90239 48.8591 7.90076 48.7863 7.8974C48.6711 7.97548 48.5603 8.05847 48.4544 8.14582C48.3886 8.19729 48.3358 8.26347 48.3003 8.33904C48.2647 8.41462 48.2474 8.49748 48.2496 8.58097C48.2496 8.85396 48.4205 8.99045 48.7618 8.99045H50.1573C50.6268 8.99045 51.045 9.04614 51.4119 9.15697C51.7876 9.26835 52.0819 9.4518 52.2953 9.70786C52.5175 9.95519 52.6284 10.2795 52.6284 10.6808C52.6284 11.099 52.4919 11.4872 52.2189 11.8459C51.9541 12.2046 51.5446 12.4902 50.9894 12.7036C50.4346 12.9259 49.7303 13.0367 48.877 13.0367ZM49.0047 7.67192C49.2357 7.67192 49.4142 7.54416 49.5425 7.28809C49.6708 7.0233 49.7347 6.54939 49.7347 5.86692C49.7347 5.1839 49.6708 4.71436 49.5425 4.45829C49.4148 4.1935 49.2357 4.06137 49.0053 4.06137C48.7831 4.06137 48.604 4.1935 48.4675 4.45829C48.3392 4.71436 48.2753 5.1839 48.2753 5.86692C48.2753 6.54939 48.3392 7.0233 48.4675 7.28809C48.604 7.54416 48.7831 7.67192 49.0047 7.67192ZM44.4797 4.17657C44.0101 3.94617 43.4642 3.83097 42.8412 3.83097C42.2352 3.83097 41.693 3.94617 41.2153 4.17657C40.7457 4.40697 40.3745 4.77824 40.1015 5.29036C39.8367 5.80249 39.704 6.48114 39.704 7.32631C39.704 8.17148 39.8367 8.84959 40.1009 9.36226C40.3739 9.86565 40.7452 10.2325 41.2147 10.463C41.693 10.6934 42.2352 10.8091 42.8412 10.8091C43.4642 10.8091 44.0107 10.6934 44.4797 10.463C44.9492 10.2325 45.3161 9.86565 45.5809 9.36226C45.8457 8.85013 45.9778 8.17148 45.9778 7.32631C45.9778 6.48114 45.8457 5.80304 45.5809 5.29036C45.3167 4.77824 44.9492 4.40697 44.4797 4.17657ZM41.9829 4.85522C42.2139 4.34309 42.4994 4.08703 42.8412 4.08703C43.1906 4.08703 43.4767 4.34309 43.6984 4.85522C43.9293 5.35861 44.0445 6.18249 44.0445 7.32631C44.0445 8.47013 43.9293 9.29401 43.6989 9.7974C43.4767 10.3008 43.1912 10.553 42.8412 10.553C42.4994 10.553 42.2133 10.3008 41.9829 9.7974C41.7525 9.29401 41.6373 8.47013 41.6373 7.32631C41.6373 6.18249 41.7525 5.35861 41.9829 4.85522Z" fill="#223043"/>
<path d="M36.2558 1.5647V1.82131C35.9659 1.8295 35.7437 1.86335 35.5903 1.9234C35.5201 1.94718 35.4566 1.98753 35.4053 2.04104C35.3539 2.09455 35.3163 2.15963 35.2954 2.23079C35.2447 2.37547 35.219 2.60642 35.219 2.922V9.42622C35.219 9.69047 35.2359 9.88703 35.2703 10.0153C35.3129 10.1431 35.3899 10.2283 35.5007 10.2714C35.6203 10.314 35.7956 10.3353 36.0254 10.3353H36.6533C36.9427 10.3353 37.2162 10.267 37.4723 10.1305C37.7289 9.99404 37.9587 9.80185 38.1635 9.55398C38.3794 9.27868 38.5523 8.97216 38.6761 8.64493C38.8126 8.2955 38.9147 7.90677 38.983 7.47981H39.2778C39.2521 7.77027 39.2396 8.1459 39.2396 8.60671C39.2396 8.80326 39.2434 9.08881 39.2521 9.46444C39.2609 9.84007 39.286 10.2288 39.3286 10.6296C38.8381 10.6115 38.3474 10.6029 37.8566 10.6039C37.3106 10.5957 36.8236 10.5913 36.3967 10.5913H35.5777C35.2447 10.5913 34.886 10.5957 34.5021 10.6039C34.1178 10.6039 33.7296 10.6083 33.337 10.617C32.9439 10.617 32.5727 10.6214 32.2232 10.6296V10.3735C32.4962 10.3566 32.701 10.3222 32.8375 10.2714C32.974 10.2201 33.0635 10.1174 33.1066 9.96401C33.1574 9.81004 33.1831 9.57964 33.1831 9.27225V2.922C33.1831 2.60588 33.1574 2.37602 33.1066 2.23079C33.0898 2.15976 33.0551 2.09423 33.0058 2.04042C32.9565 1.98661 32.8942 1.94633 32.8249 1.9234C32.6884 1.86335 32.4875 1.8295 32.2232 1.82076V1.5647C32.8972 1.58967 33.5716 1.60241 34.2461 1.60292C34.6217 1.60292 34.9886 1.59909 35.3468 1.59036C35.7142 1.58162 36.0172 1.57343 36.2558 1.5647Z" fill="#223043"/>
<path fill-rule="evenodd" clip-rule="evenodd" d="M93.4123 21.2099C93.3943 21.1182 93.4063 20.9986 93.4494 20.8512L95.2528 14.3175C94.9641 14.4359 94.6653 14.5282 94.3601 14.5932C94.0473 14.6549 93.6886 14.6882 93.2835 14.6948L93.219 14.8881C93.5199 14.8881 93.7071 14.9372 93.7808 15.0355C93.854 15.1337 93.8633 15.2866 93.8081 15.4952L93.3812 17.1053C93.3543 17.0276 93.3081 16.9581 93.2469 16.9033C93.1426 16.805 92.9985 16.7558 92.8145 16.7558C92.4465 16.7558 92.1058 16.8388 91.7929 17.0043C91.4783 17.1762 91.1951 17.4003 90.9554 17.6671C90.7036 17.9374 90.49 18.2408 90.3204 18.569C90.1533 18.8884 90.0206 19.2246 89.9246 19.572C89.8374 19.8712 89.7909 20.1809 89.7865 20.4925C89.7865 20.7868 89.8329 21.0292 89.9246 21.2192C90.0169 21.4032 90.1424 21.5413 90.3019 21.6331C90.4613 21.7193 90.6393 21.7619 90.8358 21.7619C91.1361 21.7619 91.4064 21.6735 91.6455 21.4955C91.8847 21.3115 92.1085 21.0292 92.3176 20.6487C92.405 20.4936 92.4929 20.3194 92.5802 20.1262L92.5196 20.3544C92.4642 20.5341 92.4273 20.7191 92.4093 20.9064C92.3973 21.0658 92.4093 21.2012 92.4465 21.3115C92.5196 21.6118 92.7468 21.7624 93.1273 21.7624C93.2682 21.7624 93.4123 21.7346 93.5597 21.6795C93.7071 21.6243 93.8447 21.5293 93.9736 21.3939C94.109 21.2591 94.216 21.0663 94.2957 20.8141L94.5168 20.1425H94.3421L94.1947 20.5564C94.0844 20.8698 93.9801 21.0811 93.8818 21.1914C93.7896 21.2962 93.6946 21.3481 93.5963 21.3481C93.492 21.3481 93.4309 21.3022 93.4123 21.2099ZM92.9215 18.8404C92.8521 19.0648 92.7768 19.2783 92.6949 19.4797C92.5415 19.8728 92.3788 20.2102 92.2068 20.4925C92.0414 20.7682 91.8787 20.9828 91.7192 21.1368C91.5598 21.2836 91.4184 21.3573 91.2961 21.3573C91.1793 21.3573 91.0935 21.3022 91.0384 21.1919C90.9893 21.0751 90.9647 20.9003 90.9647 20.6672C90.9647 20.3358 91.0013 19.9984 91.075 19.655C91.1487 19.3056 91.2497 18.9709 91.3785 18.652C91.4972 18.3528 91.6451 18.066 91.8202 17.7959C91.9862 17.5382 92.1609 17.3357 92.3449 17.1883C92.5349 17.0408 92.7222 16.9677 92.9062 16.9677C93.029 16.9677 93.1273 17.0108 93.201 17.0965C93.2523 17.1522 93.2916 17.233 93.3189 17.34L92.9215 18.8404Z" fill="#223043"/>
<path d="M87.2887 21.6331H86.1569L87.2608 17.6671C87.3165 17.4831 87.3345 17.3543 87.3165 17.2806C87.2979 17.2069 87.2428 17.1703 87.1505 17.1703C87.0342 17.1703 86.9267 17.2287 86.8284 17.345C86.7301 17.4613 86.6291 17.6671 86.5248 17.9619L86.3681 18.3938H86.1934L86.4326 17.7037C86.5188 17.458 86.6259 17.2685 86.7547 17.1331C86.8836 16.9923 87.025 16.894 87.1784 16.8389C87.3318 16.7837 87.488 16.7559 87.6474 16.7559C87.8439 16.7559 87.9881 16.7957 88.0798 16.876C88.1781 16.9557 88.2398 17.06 88.2643 17.1888C88.2954 17.3277 88.3015 17.471 88.2824 17.612C88.2703 17.7594 88.2458 17.9035 88.2086 18.0444L88.0607 18.6215L88.0984 18.5232C88.2703 18.0875 88.4358 17.7408 88.5952 17.4831C88.7612 17.2194 88.9359 17.0321 89.1199 16.9219C89.3002 16.8123 89.5073 16.7548 89.7183 16.7559C89.9388 16.7559 90.1075 16.8203 90.2244 16.9491C90.3472 17.078 90.4084 17.2374 90.4084 17.428C90.4084 17.5808 90.3713 17.7255 90.2981 17.8604C90.2265 17.9869 90.1253 18.0943 90.0033 18.1732C89.887 18.2469 89.7521 18.2835 89.5987 18.2835C89.4453 18.2835 89.3224 18.2437 89.2302 18.1639C89.1444 18.0842 89.1013 17.9674 89.1013 17.8145C89.1013 17.6791 89.1324 17.5568 89.1936 17.446C89.2527 17.3381 89.3343 17.2441 89.4327 17.1703C89.531 17.0906 89.6386 17.0354 89.7548 17.0043C89.742 16.9916 89.7262 16.9823 89.709 16.977C89.6881 16.9705 89.6664 16.9674 89.6446 16.9677C89.5097 16.9677 89.3716 17.0169 89.2302 17.1151C89.0893 17.2069 88.9419 17.3575 88.7885 17.5661C88.635 17.7747 88.4789 18.0504 88.3195 18.3938C88.1395 18.7999 87.9797 19.2146 87.8407 19.6364C87.7713 19.8406 87.7014 20.0601 87.6315 20.2954L87.2887 21.6331Z" fill="#223043"/>
<path fill-rule="evenodd" clip-rule="evenodd" d="M83.8501 20.2113L83.8113 20.3544C83.7532 20.5622 83.7132 20.7746 83.6918 20.9893C83.6732 21.1859 83.7038 21.3513 83.7835 21.4862C83.9063 21.6702 84.1149 21.7624 84.4092 21.7624C84.5506 21.7624 84.6914 21.7346 84.8329 21.6795C84.9797 21.6243 85.1179 21.5293 85.2467 21.3939C85.3756 21.2531 85.4831 21.0565 85.5688 20.8053L85.7992 20.1338H85.624L85.4858 20.5476C85.3756 20.8665 85.2685 21.0783 85.1643 21.1826C85.06 21.2864 84.9584 21.3388 84.8602 21.3388C84.7804 21.3388 84.7286 21.3142 84.704 21.2651C84.6848 21.2026 84.6785 21.1368 84.6854 21.0718C84.6974 20.9938 84.7159 20.9169 84.7406 20.8419L85.9281 16.7558C85.7433 16.8 85.5555 16.8308 85.3663 16.8481C85.1763 16.8667 84.971 16.8787 84.7499 16.8847L84.6166 17.3772C84.6111 17.2521 84.5747 17.1304 84.5107 17.0228C84.4628 16.939 84.3928 16.8698 84.3085 16.8227C84.2241 16.7757 84.1285 16.7525 84.0319 16.7558C83.7622 16.7558 83.4925 16.8388 83.2222 17.0043C82.9352 17.1847 82.6775 17.4083 82.4584 17.6671C82.2107 17.9493 81.9947 18.2578 81.8142 18.587C81.6332 18.9172 81.4882 19.2659 81.3817 19.6271C81.2813 19.9521 81.2287 20.29 81.2256 20.6301C81.2256 20.9741 81.3053 21.2498 81.4647 21.4583C81.6242 21.6609 81.8693 21.7619 82.2007 21.7619C82.4338 21.7619 82.6577 21.6947 82.8728 21.5599C83.0934 21.4245 83.3019 21.2006 83.4985 20.8883C83.6202 20.7 83.7371 20.4745 83.8501 20.2113ZM83.0568 21.1455C82.9154 21.2743 82.7898 21.3388 82.6795 21.3388C82.5873 21.3388 82.5168 21.2929 82.4677 21.2006C82.4245 21.1024 82.4033 20.9402 82.4033 20.7131C82.4033 20.3877 82.4398 20.0535 82.5135 19.7101C82.5872 19.3662 82.6855 19.0353 82.8084 18.7164C82.9372 18.397 83.0781 18.112 83.2315 17.8603C83.3849 17.6092 83.5383 17.4094 83.6918 17.262C83.8512 17.1145 84.0013 17.0414 84.1427 17.0414C84.2896 17.0414 84.3939 17.1151 84.4556 17.262C84.5167 17.3952 84.5326 17.5737 84.5031 17.797L84.2312 18.8027L84.2623 18.6427C84.164 19.0353 84.0472 19.3973 83.9123 19.7287C83.7949 20.025 83.6534 20.3111 83.4892 20.5842C83.3418 20.8234 83.1977 21.0106 83.0568 21.1455ZM79.9884 20.8512C79.9453 20.9986 79.9333 21.1182 79.9518 21.2099C79.9698 21.3022 80.0315 21.3481 80.1358 21.3481C80.2341 21.3481 80.3291 21.2962 80.4208 21.1919C80.5191 21.0811 80.6234 20.8698 80.7337 20.5564L80.8811 20.1425H81.0558L80.8352 20.8141C80.7555 21.0658 80.6479 21.2591 80.5131 21.3939C80.3984 21.5193 80.2567 21.617 80.0987 21.6795C79.9607 21.733 79.8142 21.7611 79.6663 21.7624C79.2863 21.7624 79.0592 21.6118 78.9854 21.3115C78.9466 21.1802 78.9342 21.0425 78.9489 20.9064C78.9609 20.7469 78.9975 20.5624 79.0591 20.3544L79.1197 20.1262C79.0318 20.3194 78.9439 20.4936 78.8566 20.6487C78.648 21.0292 78.4242 21.3115 78.185 21.4949C77.9519 21.671 77.667 21.7651 77.3748 21.7624C77.1788 21.7624 77.0008 21.7188 76.8414 21.6336C76.677 21.5364 76.5455 21.392 76.4641 21.2192C76.3718 21.0292 76.326 20.7868 76.326 20.4925C76.326 20.2102 76.3718 19.9029 76.4641 19.572C76.5558 19.2346 76.688 18.9004 76.8594 18.569C77.0292 18.241 77.2428 17.9375 77.4944 17.6671C77.7461 17.3908 78.0251 17.1702 78.3319 17.0043C78.6466 16.8382 78.9976 16.7528 79.3534 16.7558C79.5374 16.7558 79.6816 16.805 79.7858 16.9033C79.8459 16.9562 79.8912 17.0234 79.9207 17.1053L80.3471 15.4952C80.4028 15.2866 80.3935 15.1332 80.3198 15.0349C80.2461 14.9366 80.0588 14.8875 79.7585 14.8875L79.823 14.6948C80.1842 14.6927 80.5444 14.6587 80.8996 14.5932C81.2048 14.5282 81.5036 14.4359 81.7923 14.3175L79.9884 20.8512ZM79.2339 19.4797C79.3158 19.2777 79.3916 19.0648 79.4604 18.8404L79.8585 17.34C79.8393 17.2505 79.7986 17.1669 79.74 17.0965C79.7038 17.0542 79.6586 17.0207 79.6076 16.9983C79.5567 16.976 79.5013 16.9655 79.4457 16.9677C79.2617 16.9677 79.0744 17.0414 78.8844 17.1883C78.6999 17.3357 78.5252 17.5382 78.3597 17.7959C78.1845 18.0657 78.0365 18.3523 77.9181 18.6515C77.7873 18.9763 77.6857 19.3121 77.6145 19.655C77.5419 19.9875 77.5047 20.3268 77.5037 20.6672C77.5037 20.9003 77.5282 21.0751 77.5774 21.1914C77.6325 21.3022 77.7188 21.3573 77.8351 21.3573C77.9579 21.3573 78.0988 21.2836 78.2582 21.1362C78.4182 20.9833 78.5803 20.7682 78.7463 20.492C78.9375 20.1691 79.1006 19.8305 79.2339 19.4797Z" fill="#223043"/>
<path d="M71.2582 21.6331H72.39L72.4965 21.217L72.4911 21.2471C72.6079 20.8174 72.7395 20.4035 72.8869 20.0044C73.0301 19.6235 73.1897 19.249 73.3652 18.8819C73.5311 18.5379 73.6966 18.2376 73.8625 17.9799C74.028 17.7222 74.1874 17.523 74.3408 17.3815C74.4942 17.2341 74.6351 17.161 74.764 17.161C74.8682 17.161 74.9327 17.1976 74.9572 17.2713C74.9827 17.3549 74.9859 17.4437 74.9665 17.529C74.9481 17.6287 74.9235 17.7272 74.8928 17.8238L74.0558 20.3544C73.9696 20.6121 73.9204 20.8327 73.9084 21.0167C73.8958 21.2007 73.9297 21.3513 74.0094 21.4676C74.0711 21.5599 74.1568 21.6303 74.2671 21.6795C74.384 21.7341 74.5221 21.7625 74.6815 21.7625C74.8284 21.7625 74.9758 21.7346 75.1232 21.6795C75.2766 21.6303 75.4175 21.5381 75.5463 21.4032C75.6812 21.2684 75.792 21.0718 75.8778 20.8141L76.1076 20.1426H75.9329L75.7855 20.5564C75.6692 20.8758 75.5589 21.0871 75.4546 21.1914C75.3563 21.2962 75.2613 21.3481 75.1691 21.3481C75.0708 21.3481 75.0096 21.3082 74.9851 21.228C74.9605 21.1428 74.9758 21.0167 75.0309 20.8512L75.9329 18.1454C76.0126 17.9062 76.0525 17.6824 76.0525 17.4738C76.0585 17.2592 76.0006 17.0873 75.8778 16.9584C75.7609 16.8236 75.5523 16.7564 75.2521 16.7564C75.0249 16.7564 74.8071 16.8055 74.5985 16.9033C74.39 17.0015 74.1874 17.173 73.9914 17.4187C73.7948 17.6578 73.5923 17.9832 73.3837 18.3938C73.2453 18.6707 73.1184 18.9532 73.0032 19.2406L73.31 18.0444C73.3471 17.897 73.3744 17.7495 73.393 17.6027C73.4116 17.4498 73.405 17.3111 73.3744 17.1883C73.3452 17.0614 73.2699 16.95 73.1632 16.8754C73.0589 16.7957 72.9055 16.7559 72.7029 16.7559C72.4572 16.7559 72.2334 16.8236 72.0308 16.9584C71.8288 17.0933 71.6628 17.3417 71.534 17.7037L71.2948 18.3938H71.4695L71.6262 17.9614C71.7365 17.6611 71.8375 17.4553 71.9298 17.345C72.0281 17.2287 72.1351 17.1703 72.2519 17.1703C72.3376 17.1703 72.39 17.1948 72.4086 17.244C72.4326 17.2931 72.4392 17.3542 72.4266 17.428C72.4129 17.5087 72.3945 17.5885 72.3715 17.6671L71.2582 21.6331Z" fill="#223043"/>
<path fill-rule="evenodd" clip-rule="evenodd" d="M68.9127 20.3544L68.9514 20.2113C68.8531 20.4463 68.7355 20.6728 68.5998 20.8884C68.4033 21.2007 68.1947 21.4251 67.9736 21.5599C67.759 21.6948 67.5352 21.7619 67.302 21.7619C66.9706 21.7619 66.7255 21.6609 66.5661 21.4584C66.4061 21.2498 66.3264 20.9741 66.3264 20.6301C66.3264 20.3113 66.3788 19.9771 66.4831 19.6272C66.5895 19.266 66.7345 18.9173 66.9155 18.5871C67.0958 18.2577 67.3119 17.9492 67.5597 17.6671C67.7789 17.4083 68.0365 17.1848 68.3236 17.0043C68.5933 16.8388 68.8635 16.7559 69.1333 16.7559C69.3418 16.7559 69.5012 16.8449 69.6121 17.0234C69.671 17.1146 69.7065 17.2325 69.718 17.3772L69.8512 16.8847C70.0718 16.8787 70.2776 16.8667 70.4676 16.8481C70.6642 16.8296 70.8509 16.799 71.0289 16.7559L69.8419 20.8425C69.817 20.9174 69.7985 20.9943 69.7868 21.0724C69.7798 21.1374 69.7861 21.2031 69.8054 21.2656C69.8299 21.3148 69.8818 21.3393 69.9615 21.3393C70.0598 21.3393 70.1608 21.2875 70.2651 21.1832C70.3693 21.0789 70.4769 20.8665 70.5872 20.5482L70.7253 20.1338H70.9L70.6702 20.8054C70.5845 21.0571 70.4769 21.2531 70.3481 21.395C70.2334 21.5201 70.0919 21.6176 69.9342 21.68C69.7994 21.734 69.6557 21.7622 69.5105 21.763C69.2162 21.763 69.0077 21.6707 68.8848 21.4868C68.8051 21.3519 68.7745 21.1865 68.7931 20.9899C68.8145 20.7752 68.8546 20.5622 68.9127 20.3544ZM67.7803 21.3388C67.8912 21.3388 68.0167 21.2744 68.1581 21.1455C68.299 21.0107 68.4431 20.8234 68.5905 20.5843C68.7374 20.3451 68.8788 20.0601 69.0137 19.7287C69.1485 19.3973 69.2654 19.0353 69.3637 18.6422L69.3325 18.8027L69.6044 17.7976C69.6334 17.5737 69.6175 17.3952 69.5569 17.2625C69.4952 17.1151 69.391 17.0414 69.2435 17.0414C69.1027 17.0414 68.9525 17.1151 68.7931 17.262C68.6397 17.4094 68.4863 17.6087 68.3328 17.8604C68.1794 18.1115 68.038 18.3971 67.9092 18.7159C67.7856 19.039 67.6872 19.3713 67.6149 19.7096C67.5428 20.0393 67.5058 20.3756 67.5046 20.7131C67.5046 20.9402 67.5259 21.1029 67.569 21.2007C67.6182 21.2929 67.6886 21.3388 67.7803 21.3388Z" fill="#223043"/>
<path d="M66.9647 17.0688L66.9925 16.8848H65.8962L66.3297 15.3757C66.1483 15.4204 65.9638 15.4512 65.7777 15.468C65.5877 15.486 65.3819 15.4985 65.1613 15.5045L64.7655 16.8848H63.9279L63.8821 17.0688H64.7131L63.7713 20.3545C63.6915 20.6242 63.6642 20.8666 63.6888 21.0811C63.7194 21.2897 63.8051 21.4557 63.9465 21.578C64.0934 21.7008 64.3052 21.7625 64.5815 21.7625C64.8943 21.7625 65.164 21.6795 65.3912 21.5136C65.6183 21.3481 65.7963 21.0751 65.9251 20.6946L66.1091 20.1426H65.9339L65.7963 20.5199C65.6854 20.8267 65.5631 21.0413 65.4277 21.1641C65.2989 21.287 65.17 21.3481 65.0412 21.3481C64.9906 21.3498 64.9402 21.3399 64.894 21.319C64.8478 21.2982 64.807 21.2671 64.7748 21.228C64.7131 21.1488 64.7071 21.0233 64.7562 20.8513L65.8432 17.0688H66.9647ZM63.917 15.0536C63.8559 15.213 63.7729 15.4467 63.6686 15.753C63.5703 16.0532 63.4726 16.4463 63.3743 16.9306H63.1903C63.2083 16.8449 63.2209 16.7559 63.2269 16.6642C63.2387 16.5819 63.2449 16.4989 63.2455 16.4158C63.2455 16.1761 63.1963 15.9681 63.0981 15.7901C63.0037 15.6034 62.8522 15.4517 62.6656 15.3571C62.4756 15.2468 62.23 15.1917 61.9297 15.1917C61.6043 15.1917 61.328 15.2774 61.1014 15.4494C60.8743 15.6148 60.7607 15.8818 60.7607 16.2498C60.7607 16.4769 60.8126 16.692 60.9169 16.894C61.0277 17.0906 61.1658 17.2839 61.3313 17.4739C61.5033 17.6579 61.684 17.8451 61.874 18.0351C62.0645 18.2191 62.2425 18.4097 62.4079 18.6057C62.5734 18.8022 62.7088 19.0108 62.8131 19.2314C62.9233 19.4465 62.9785 19.6824 62.9785 19.9401C62.9785 20.2655 62.8988 20.5445 62.7394 20.7776C62.5838 21.0066 62.3795 21.1983 62.141 21.3388C61.8909 21.4818 61.6213 21.5872 61.3406 21.6517C61.0703 21.7239 60.792 21.7611 60.5123 21.7625C60.236 21.7625 60.0062 21.7407 59.8222 21.6981C59.6649 21.6685 59.513 21.6157 59.3712 21.5414C59.2508 21.4754 59.131 21.408 59.012 21.3394C58.9578 21.2939 58.8953 21.2594 58.828 21.2378C58.7851 21.2163 58.7383 21.2037 58.6904 21.2007C58.6101 21.2007 58.543 21.2406 58.4878 21.3208C58.4154 21.4407 58.3539 21.5668 58.3038 21.6976H58.1193C58.2713 21.3233 58.3975 20.9392 58.4971 20.5477C58.5703 20.2655 58.6533 19.9128 58.7455 19.4891H58.9295C58.9038 19.611 58.8823 19.7337 58.8651 19.8571C58.8465 19.9799 58.8405 20.1028 58.8465 20.2256C58.8651 20.6547 58.9967 20.9861 59.2424 21.2193C59.4941 21.4524 59.8621 21.5687 60.3463 21.5687C60.7575 21.5687 61.0676 21.483 61.2761 21.3115C61.4847 21.1336 61.589 20.8759 61.589 20.5384C61.589 20.2807 61.5398 20.0471 61.4416 19.839C61.3488 19.6227 61.2248 19.4211 61.0736 19.2407C60.9176 19.054 60.755 18.873 60.586 18.698C60.4167 18.5229 60.2539 18.3417 60.0979 18.1547C59.9473 17.9689 59.8205 17.7649 59.7206 17.5476C59.6202 17.3152 59.5701 17.0642 59.5738 16.8111C59.5738 16.5048 59.6382 16.2378 59.7671 16.0107C59.8969 15.7891 60.0724 15.5978 60.2819 15.4494C60.4968 15.296 60.7365 15.1807 60.9906 15.1087C61.2377 15.0307 61.4952 14.9904 61.7544 14.9891C62.0858 14.9891 62.3588 15.029 62.5734 15.1093C62.7885 15.1884 62.9725 15.284 63.1259 15.3942L63.3006 15.5045C63.3558 15.5291 63.3989 15.5411 63.4295 15.5411C63.5152 15.5411 63.6167 15.379 63.733 15.0536H63.917Z" fill="#223043"/>
<path fill-rule="evenodd" clip-rule="evenodd" d="M55.034 21.2099C55.0154 21.1182 55.028 20.9986 55.0711 20.8512L56.8745 14.3175C56.5857 14.4359 56.287 14.5282 55.9818 14.5932C55.669 14.6549 55.3102 14.6882 54.9051 14.6948L54.8407 14.8881C55.141 14.8881 55.3288 14.9372 55.402 15.0355C55.4757 15.1337 55.485 15.2866 55.4298 15.4952L55.0029 17.1053C54.976 17.0276 54.9298 16.958 54.8685 16.9033C54.7643 16.805 54.6201 16.7558 54.4361 16.7558C54.0676 16.7558 53.7275 16.8388 53.4146 17.0043C53.0999 17.1762 52.8167 17.4003 52.5771 17.6671C52.3253 17.9374 52.1117 18.2408 51.9421 18.569C51.775 18.8884 51.6423 19.2246 51.5463 19.572C51.4589 19.8712 51.4124 20.1808 51.4081 20.4925C51.4081 20.7868 51.4546 21.0292 51.5463 21.2192C51.6385 21.4032 51.7641 21.5413 51.9235 21.6331C52.083 21.7193 52.261 21.7619 52.4575 21.7619C52.7578 21.7619 53.0281 21.6735 53.2672 21.4955C53.5063 21.3115 53.7302 21.0292 53.9387 20.6487C54.0261 20.4936 54.114 20.3194 54.2019 20.1262L54.1419 20.3544C54.086 20.5341 54.0489 20.719 54.031 20.9064C54.0164 21.0425 54.0288 21.1802 54.0676 21.3115C54.1413 21.6118 54.3679 21.7624 54.749 21.7624C54.8898 21.7624 55.034 21.7346 55.1814 21.6795C55.3288 21.6243 55.4664 21.5293 55.5952 21.3939C55.7306 21.2591 55.8377 21.0663 55.9174 20.8141L56.1385 20.1425H55.9638L55.8164 20.5564C55.7061 20.8698 55.6018 21.0811 55.5035 21.1914C55.4112 21.2962 55.3162 21.3481 55.218 21.3481C55.1142 21.3481 55.0525 21.3022 55.034 21.2099ZM54.5426 18.8404C54.4738 19.0648 54.3985 19.2783 54.316 19.4797C54.1631 19.8728 54.0004 20.2102 53.8285 20.4925C53.663 20.7682 53.5003 20.9828 53.3409 21.1368C53.1815 21.2836 53.0406 21.3573 52.9172 21.3573C52.8009 21.3573 52.7152 21.3022 52.6601 21.1919C52.6109 21.0751 52.5864 20.9003 52.5864 20.6672C52.5864 20.3358 52.6229 19.9984 52.6966 19.655C52.7704 19.3056 52.8714 18.9709 53.0002 18.652C53.1189 18.3527 53.2671 18.0659 53.4425 17.7959C53.6079 17.5382 53.7826 17.3357 53.9666 17.1883C54.1566 17.0408 54.3439 16.9677 54.5279 16.9677C54.6507 16.9677 54.749 17.0108 54.8227 17.0965C54.874 17.1522 54.9133 17.233 54.9406 17.34L54.5426 18.8404Z" fill="#223043"/>
<path d="M47.4722 21.6331H46.3404L47.4542 17.6671C47.4788 17.5814 47.4968 17.5017 47.5088 17.428C47.5225 17.3663 47.5162 17.3018 47.4908 17.244C47.4722 17.1948 47.4198 17.1703 47.3341 17.1703C47.2178 17.1703 47.1102 17.2287 47.0119 17.345C46.9202 17.4553 46.8187 17.6611 46.7084 17.9619L46.5522 18.3938H46.3775L46.6167 17.7037C46.7455 17.3417 46.9115 17.0933 47.1135 16.9584C47.3155 16.8236 47.5394 16.7564 47.7851 16.7564C47.9876 16.7564 48.141 16.7957 48.2453 16.8754C48.3522 16.9499 48.4277 17.0613 48.4571 17.1883C48.4877 17.3111 48.4937 17.4492 48.4757 17.6027C48.4569 17.7514 48.4292 17.8989 48.3927 18.0444L48.0859 19.2411C48.2158 18.9196 48.3425 18.6378 48.4664 18.3938C48.675 17.9832 48.877 17.6578 49.0736 17.4187C49.2701 17.173 49.4721 17.0015 49.6807 16.9033C49.8898 16.805 50.1071 16.7559 50.3342 16.7559C50.6345 16.7559 50.8436 16.8236 50.9599 16.9584C51.0827 17.0873 51.1412 17.2587 51.1346 17.4738C51.1346 17.6824 51.0953 17.9062 51.0151 18.1454L50.1136 20.8512C50.058 21.0167 50.0427 21.1428 50.0672 21.228C50.0918 21.3082 50.1535 21.3481 50.2518 21.3481C50.3435 21.3481 50.4385 21.2962 50.5368 21.1919C50.6411 21.0871 50.7513 20.8753 50.8682 20.5564L51.0156 20.1426H51.1903L50.9599 20.8141C50.8742 21.0718 50.7634 21.2684 50.629 21.4038C50.5134 21.53 50.3676 21.6249 50.2054 21.6795C50.0644 21.7336 49.9147 21.7617 49.7637 21.7625C49.6042 21.7625 49.4661 21.7346 49.3498 21.6795C49.239 21.6303 49.1533 21.5594 49.0921 21.4676C49.0124 21.3513 48.9786 21.2007 48.9906 21.0167C49.0031 20.8327 49.0523 20.6121 49.138 20.3544L49.9755 17.8238C50.0061 17.7255 50.0307 17.6272 50.0492 17.529C50.0685 17.4437 50.0653 17.3549 50.0399 17.2713C50.0154 17.1976 49.9509 17.161 49.8467 17.161C49.7178 17.161 49.5764 17.2347 49.4235 17.3815C49.2701 17.523 49.1101 17.7222 48.9447 17.9799C48.7611 18.2703 48.5952 18.5715 48.4479 18.8819C48.2824 19.2259 48.1225 19.5993 47.969 20.0044C47.8216 20.403 47.6906 20.8174 47.5738 21.2471L47.5792 21.217L47.4722 21.6331Z" fill="#223043"/>
<path fill-rule="evenodd" clip-rule="evenodd" d="M44.0336 20.2114L43.9954 20.3544C43.9374 20.5623 43.8972 20.7747 43.8753 20.9894C43.8567 21.186 43.8873 21.3514 43.967 21.4862C44.0898 21.6702 44.2984 21.7625 44.5932 21.7625C44.7506 21.7614 44.906 21.7281 45.05 21.6647C45.1941 21.6014 45.3236 21.5092 45.4308 21.394C45.5596 21.2531 45.6666 21.0566 45.7529 20.8054L45.9822 20.1339H45.8075L45.6699 20.5477C45.5591 20.8666 45.4515 21.0784 45.3478 21.1827C45.2435 21.2864 45.1419 21.3388 45.0442 21.3388C44.9639 21.3388 44.9121 21.3143 44.8875 21.2651C44.8683 21.2026 44.862 21.1369 44.8689 21.0719C44.8815 20.9921 44.8995 20.9157 44.9246 20.842L46.1116 16.7559C45.9269 16.8001 45.7394 16.8309 45.5503 16.8482C45.3598 16.8667 45.1545 16.8788 44.9334 16.8848L44.8002 17.3772C44.7945 17.2522 44.7581 17.1305 44.6942 17.0229C44.6463 16.9391 44.5765 16.87 44.4922 16.8229C44.4079 16.7759 44.3124 16.7527 44.216 16.7559C43.9457 16.7559 43.6754 16.8389 43.4057 17.0043C43.136 17.1703 42.8816 17.3909 42.6419 17.6671C42.394 17.9492 42.178 18.2577 41.9976 18.5871C41.8167 18.9173 41.6717 19.266 41.5652 19.6272C41.4649 19.9522 41.4123 20.29 41.4091 20.6302C41.4091 20.9741 41.4888 21.2498 41.6482 21.4584C41.8076 21.661 42.0533 21.762 42.3842 21.762C42.6173 21.762 42.8417 21.6948 43.0558 21.56C43.2769 21.4246 43.486 21.2007 43.682 20.8884C43.8037 20.7 43.9206 20.4746 44.0336 20.2114ZM43.2403 21.1456C43.0994 21.2744 42.9733 21.3388 42.863 21.3388C42.7708 21.3388 42.7003 21.293 42.6512 21.2007C42.6086 21.1024 42.5868 20.9403 42.5868 20.7131C42.5868 20.3877 42.6239 20.0536 42.6976 19.7102C42.7708 19.3662 42.869 19.0354 42.9919 18.7165C43.1207 18.3971 43.2616 18.1121 43.415 17.8604C43.5684 17.6093 43.7218 17.4094 43.8753 17.262C44.0347 17.1146 44.1848 17.0415 44.3262 17.0415C44.4737 17.0415 44.5774 17.1152 44.6391 17.262C44.7002 17.3952 44.7155 17.5738 44.6866 17.7971L44.4147 18.8028L44.4458 18.6428C44.3475 19.0354 44.2312 19.3973 44.0964 19.7288C43.961 20.0596 43.8201 20.3452 43.6727 20.5843C43.5253 20.8234 43.3812 21.0107 43.2403 21.1456Z" fill="#223043"/>
<path d="M38.9478 21.6331H37.816L38.92 17.6671C38.9751 17.4831 38.9937 17.3543 38.9751 17.2806C38.9571 17.2069 38.902 17.1703 38.8097 17.1703C38.6934 17.1703 38.5858 17.2287 38.4876 17.345C38.3893 17.4613 38.2883 17.6671 38.184 17.9619L38.0273 18.3938H37.8526L38.0917 17.7037C38.178 17.458 38.285 17.2685 38.4139 17.1331C38.5427 16.9923 38.6841 16.894 38.8375 16.8389C38.9904 16.7837 39.1471 16.7559 39.3071 16.7559C39.5031 16.7559 39.6472 16.7957 39.7389 16.876C39.8365 16.9543 39.9022 17.0655 39.9235 17.1888C39.9541 17.3177 39.9601 17.4585 39.9415 17.612C39.9295 17.7594 39.9049 17.9035 39.8678 18.0444L39.7204 18.6215L39.7351 18.5816L39.7575 18.5232C39.9295 18.0875 40.0949 17.7408 40.2543 17.4831C40.4203 17.2194 40.595 17.0321 40.779 16.9219C40.9593 16.8123 41.1664 16.7548 41.3774 16.7559C41.598 16.7559 41.7667 16.8203 41.8835 16.9491C42.0058 17.078 42.0675 17.2374 42.0675 17.428C42.0675 17.5808 42.0304 17.7255 41.9567 17.8604C41.8853 17.9869 41.7843 18.0942 41.6624 18.1732C41.5408 18.2482 41.4001 18.2865 41.2573 18.2835C41.1044 18.2835 40.9816 18.2437 40.8893 18.1639C40.8036 18.0842 40.7605 17.9674 40.7605 17.8145C40.7605 17.6791 40.791 17.5568 40.8527 17.446C40.9139 17.3357 40.9936 17.244 41.0919 17.1703C41.1901 17.0906 41.2972 17.0354 41.414 17.0043C41.4011 16.9917 41.3853 16.9824 41.3681 16.977C41.3559 16.9729 41.3433 16.9701 41.3305 16.9688C41.3214 16.9679 41.3123 16.9676 41.3032 16.9677C41.1689 16.9677 41.0302 17.0169 40.8893 17.1151C40.7485 17.2069 40.601 17.3575 40.4476 17.5661C40.2947 17.7747 40.138 18.0504 39.9781 18.3938C39.7982 18.7999 39.6386 19.2146 39.4998 19.6364C39.4305 19.8401 39.3606 20.0601 39.2907 20.2954L38.9478 21.6331Z" fill="#223043"/>
<path fill-rule="evenodd" clip-rule="evenodd" d="M37.2264 15.4587C36.9195 15.2376 36.4287 15.1273 35.7539 15.1273C35.5453 15.1273 35.3368 15.1306 35.1276 15.1366C34.9256 15.1426 34.6925 15.1459 34.4288 15.1459H33.9685C33.8026 15.1393 33.6464 15.1366 33.499 15.1366C33.3763 15.1312 33.2536 15.125 33.131 15.118L33.0851 15.302C33.3243 15.302 33.487 15.3326 33.5727 15.3943C33.665 15.4489 33.7076 15.5352 33.7016 15.652C33.6892 15.801 33.6645 15.9487 33.6278 16.0937L32.413 20.6581C32.3584 20.8786 32.2968 21.0446 32.2291 21.1549C32.1679 21.2604 32.0696 21.3393 31.9533 21.376C31.8365 21.4126 31.6738 21.4372 31.4652 21.4492L31.4286 21.6332C31.5324 21.6277 31.6585 21.6245 31.8054 21.6245C31.9528 21.6179 32.1095 21.6152 32.2749 21.6152C32.738 21.6011 33.2015 21.6042 33.6644 21.6245C33.9161 21.6299 34.1465 21.6337 34.3551 21.6337C34.7537 21.6337 35.1309 21.5933 35.4869 21.5136C35.815 21.4392 36.1288 21.312 36.4161 21.1369C36.6732 20.9838 36.8907 20.7725 37.0511 20.5199C37.2105 20.2743 37.2903 19.9865 37.2903 19.6551C37.2903 19.2806 37.1374 18.9584 36.8305 18.6887C36.5303 18.4185 36.0542 18.259 35.4039 18.2099C35.8096 18.1517 36.2038 18.0306 36.5723 17.8512C36.9163 17.6732 37.186 17.4554 37.3825 17.1977C37.5804 16.953 37.6876 16.6475 37.6861 16.3328C37.6861 15.9649 37.5338 15.6733 37.2264 15.4587ZM34.289 18.33L33.6737 20.6581C33.6371 20.8109 33.6126 20.9463 33.6005 21.0626C33.594 21.1795 33.6246 21.2685 33.6923 21.3302C33.76 21.3913 33.8855 21.4219 34.0695 21.4219C34.5052 21.4219 34.8612 21.3389 35.1369 21.1735C35.4071 21.0146 35.6223 20.7771 35.7539 20.4926C35.8887 20.1978 35.9559 19.8664 35.9559 19.499C35.9559 19.2713 35.916 19.072 35.8363 18.9006C35.7661 18.7264 35.6399 18.5806 35.4776 18.4862C35.3122 18.3819 35.0911 18.33 34.8148 18.33H34.289ZM34.3305 18.1733H34.7509C35.1003 18.1733 35.3979 18.0843 35.643 17.9063C35.8947 17.7224 36.0853 17.4832 36.2141 17.1889C36.3483 16.8974 36.4173 16.5801 36.4161 16.2591C36.4161 15.9523 36.355 15.7164 36.2322 15.5505C36.1159 15.385 35.91 15.302 35.6152 15.302C35.4012 15.302 35.2478 15.3452 35.1555 15.4309C35.0638 15.5106 34.9841 15.6853 34.9164 15.955L34.3305 18.1733Z" fill="#223043"/>
</g>
<defs>
<clipPath id="clip0_60_3908">
<rect width="95" height="21.2931" fill="white" transform="translate(0.666656 0.706909)"/>
</clipPath>
</defs>
</svg>
