<svg width="627" height="526" viewBox="0 0 627 526" fill="none" xmlns="http://www.w3.org/2000/svg">
<mask id="mask0_434_6307" style="mask-type:alpha" maskUnits="userSpaceOnUse" x="0" y="0" width="627" height="526">
<rect x="0.638672" y="0.527832" width="625.819" height="525.472" fill="#8A3C41"/>
</mask>
<g mask="url(#mask0_434_6307)">
<rect x="-272.781" y="170.701" width="884.779" height="2.158" transform="rotate(-34.7596 -272.781 170.701)" fill="#8A3C41"/>
<rect x="-266.629" y="179.565" width="884.779" height="2.158" transform="rotate(-34.7596 -266.629 179.565)" fill="#8A3C41"/>
<rect x="-260.477" y="188.43" width="884.779" height="2.158" transform="rotate(-34.7596 -260.477 188.43)" fill="#8A3C41"/>
<rect x="-254.326" y="197.294" width="884.779" height="2.158" transform="rotate(-34.7596 -254.326 197.294)" fill="#8A3C41"/>
<rect x="-248.174" y="206.159" width="884.779" height="2.158" transform="rotate(-34.7596 -248.174 206.159)" fill="#8A3C41"/>
<rect x="-242.023" y="215.024" width="884.779" height="2.158" transform="rotate(-34.7596 -242.023 215.024)" fill="#8A3C41"/>
<rect x="-235.869" y="223.888" width="884.779" height="2.158" transform="rotate(-34.7596 -235.869 223.888)" fill="#8A3C41"/>
<rect x="-229.717" y="232.752" width="884.779" height="2.158" transform="rotate(-34.7596 -229.717 232.752)" fill="#8A3C41"/>
<rect x="-223.566" y="241.617" width="884.779" height="2.158" transform="rotate(-34.7596 -223.566 241.617)" fill="#8A3C41"/>
<rect x="-217.414" y="250.482" width="884.779" height="2.158" transform="rotate(-34.7596 -217.414 250.482)" fill="#8A3C41"/>
<rect x="-211.264" y="259.346" width="884.779" height="2.158" transform="rotate(-34.7596 -211.264 259.346)" fill="#8A3C41"/>
<rect x="-205.111" y="268.211" width="884.779" height="2.158" transform="rotate(-34.7596 -205.111 268.211)" fill="#8A3C41"/>
<rect x="-198.959" y="277.075" width="884.779" height="2.158" transform="rotate(-34.7596 -198.959 277.075)" fill="#8A3C41"/>
<rect x="-192.809" y="285.94" width="884.779" height="2.158" transform="rotate(-34.7596 -192.809 285.94)" fill="#8A3C41"/>
<rect x="-186.656" y="294.804" width="884.779" height="2.158" transform="rotate(-34.7596 -186.656 294.804)" fill="#8A3C41"/>
<rect x="-180.506" y="303.669" width="884.779" height="2.158" transform="rotate(-34.7596 -180.506 303.669)" fill="#8A3C41"/>
<rect x="-174.354" y="312.533" width="884.779" height="2.158" transform="rotate(-34.7596 -174.354 312.533)" fill="#8A3C41"/>
<rect x="-168.201" y="321.398" width="884.779" height="2.158" transform="rotate(-34.7596 -168.201 321.398)" fill="#8A3C41"/>
<rect x="-162.049" y="330.262" width="884.779" height="2.158" transform="rotate(-34.7596 -162.049 330.262)" fill="#8A3C41"/>
<rect x="-155.896" y="339.127" width="884.779" height="2.158" transform="rotate(-34.7596 -155.896 339.127)" fill="#8A3C41"/>
<rect x="-149.746" y="347.991" width="884.779" height="2.158" transform="rotate(-34.7596 -149.746 347.991)" fill="#8A3C41"/>
<rect x="-143.594" y="356.856" width="884.779" height="2.158" transform="rotate(-34.7596 -143.594 356.856)" fill="#8A3C41"/>
<rect x="-137.441" y="365.72" width="884.779" height="2.158" transform="rotate(-34.7596 -137.441 365.72)" fill="#8A3C41"/>
<rect x="-131.291" y="374.585" width="884.779" height="2.158" transform="rotate(-34.7596 -131.291 374.585)" fill="#8A3C41"/>
<rect x="-125.139" y="383.449" width="884.779" height="2.158" transform="rotate(-34.7596 -125.139 383.449)" fill="#8A3C41"/>
<rect x="-118.988" y="392.314" width="884.779" height="2.158" transform="rotate(-34.7596 -118.988 392.314)" fill="#8A3C41"/>
<rect x="-112.836" y="401.178" width="884.779" height="2.158" transform="rotate(-34.7596 -112.836 401.178)" fill="#8A3C41"/>
<rect x="-106.684" y="410.043" width="884.779" height="2.158" transform="rotate(-34.7596 -106.684 410.043)" fill="#8A3C41"/>
<rect x="-100.533" y="418.908" width="884.779" height="2.158" transform="rotate(-34.7596 -100.533 418.908)" fill="#8A3C41"/>
<rect x="-94.3789" y="427.772" width="884.779" height="2.158" transform="rotate(-34.7596 -94.3789 427.772)" fill="#8A3C41"/>
<rect x="-88.2285" y="436.637" width="884.779" height="2.158" transform="rotate(-34.7596 -88.2285 436.637)" fill="#8A3C41"/>
<rect x="-82.0762" y="445.501" width="884.779" height="2.158" transform="rotate(-34.7596 -82.0762 445.501)" fill="#8A3C41"/>
<rect x="-75.9238" y="454.366" width="884.779" height="2.158" transform="rotate(-34.7596 -75.9238 454.366)" fill="#8A3C41"/>
<rect x="-69.7734" y="463.23" width="884.779" height="2.158" transform="rotate(-34.7596 -69.7734 463.23)" fill="#8A3C41"/>
<rect x="-63.6211" y="472.095" width="884.779" height="2.158" transform="rotate(-34.7596 -63.6211 472.095)" fill="#8A3C41"/>
<rect x="-57.4707" y="480.959" width="884.779" height="2.158" transform="rotate(-34.7596 -57.4707 480.959)" fill="#8A3C41"/>
<rect x="-51.3184" y="489.824" width="884.779" height="2.158" transform="rotate(-34.7596 -51.3184 489.824)" fill="#8A3C41"/>
<rect x="-45.166" y="498.688" width="884.779" height="2.158" transform="rotate(-34.7596 -45.166 498.688)" fill="#8A3C41"/>
<rect x="-39.0156" y="507.553" width="884.779" height="2.158" transform="rotate(-34.7596 -39.0156 507.553)" fill="#8A3C41"/>
<rect x="-32.8633" y="516.417" width="884.779" height="2.158" transform="rotate(-34.7596 -32.8633 516.417)" fill="#8A3C41"/>
<rect x="-26.709" y="525.282" width="884.779" height="2.158" transform="rotate(-34.7596 -26.709 525.282)" fill="#8A3C41"/>
<rect x="-20.5586" y="534.147" width="884.779" height="2.158" transform="rotate(-34.7596 -20.5586 534.147)" fill="#8A3C41"/>
<rect x="-14.4062" y="543.011" width="884.779" height="2.158" transform="rotate(-34.7596 -14.4062 543.011)" fill="#8A3C41"/>
<rect x="-8.25586" y="551.875" width="884.779" height="2.158" transform="rotate(-34.7596 -8.25586 551.875)" fill="#8A3C41"/>
<rect x="-2.10352" y="560.74" width="884.779" height="2.158" transform="rotate(-34.7596 -2.10352 560.74)" fill="#8A3C41"/>
<rect x="4.04883" y="569.605" width="884.779" height="2.158" transform="rotate(-34.7596 4.04883 569.605)" fill="#8A3C41"/>
<rect x="10.1992" y="578.469" width="884.779" height="2.158" transform="rotate(-34.7596 10.1992 578.469)" fill="#8A3C41"/>
<rect x="16.3516" y="587.334" width="884.779" height="2.158" transform="rotate(-34.7596 16.3516 587.334)" fill="#8A3C41"/>
<rect x="22.502" y="596.198" width="884.779" height="2.158" transform="rotate(-34.7596 22.502 596.198)" fill="#8A3C41"/>
<rect x="28.6543" y="605.063" width="884.779" height="2.158" transform="rotate(-34.7596 28.6543 605.063)" fill="#8A3C41"/>
<rect x="34.8066" y="613.927" width="884.779" height="2.158" transform="rotate(-34.7596 34.8066 613.927)" fill="#8A3C41"/>
<rect x="40.957" y="622.792" width="884.779" height="2.158" transform="rotate(-34.7596 40.957 622.792)" fill="#8A3C41"/>
<rect x="47.1113" y="631.656" width="884.779" height="2.158" transform="rotate(-34.7596 47.1113 631.656)" fill="#8A3C41"/>
<rect x="53.2617" y="640.521" width="884.779" height="2.158" transform="rotate(-34.7596 53.2617 640.521)" fill="#8A3C41"/>
<rect x="59.4141" y="649.385" width="884.779" height="2.158" transform="rotate(-34.7596 59.4141 649.385)" fill="#8A3C41"/>
<rect x="65.5664" y="658.25" width="884.779" height="2.158" transform="rotate(-34.7596 65.5664 658.25)" fill="#8A3C41"/>
<rect x="71.7168" y="667.115" width="884.779" height="2.158" transform="rotate(-34.7596 71.7168 667.115)" fill="#8A3C41"/>
<rect x="77.8691" y="675.979" width="884.779" height="2.158" transform="rotate(-34.7596 77.8691 675.979)" fill="#8A3C41"/>
<rect x="84.0195" y="684.844" width="884.779" height="2.158" transform="rotate(-34.7596 84.0195 684.844)" fill="#8A3C41"/>
<rect x="90.1719" y="693.708" width="884.779" height="2.158" transform="rotate(-34.7596 90.1719 693.708)" fill="#8A3C41"/>
<rect x="96.3242" y="702.573" width="884.779" height="2.158" transform="rotate(-34.7596 96.3242 702.573)" fill="#8A3C41"/>
<rect x="102.475" y="711.437" width="884.779" height="2.158" transform="rotate(-34.7596 102.475 711.437)" fill="#8A3C41"/>
<rect x="108.627" y="720.302" width="884.779" height="2.158" transform="rotate(-34.7596 108.627 720.302)" fill="#8A3C41"/>
<rect x="114.779" y="729.166" width="884.779" height="2.158" transform="rotate(-34.7596 114.779 729.166)" fill="#8A3C41"/>
<rect x="120.932" y="738.031" width="884.779" height="2.158" transform="rotate(-34.7596 120.932 738.031)" fill="#8A3C41"/>
<rect x="127.084" y="746.895" width="884.779" height="2.158" transform="rotate(-34.7596 127.084 746.895)" fill="#8A3C41"/>
<rect x="133.234" y="755.76" width="884.779" height="2.158" transform="rotate(-34.7596 133.234 755.76)" fill="#8A3C41"/>
<rect x="139.387" y="764.624" width="884.779" height="2.158" transform="rotate(-34.7596 139.387 764.624)" fill="#8A3C41"/>
</g>
</svg>
