<svg width="306" height="268" viewBox="0 0 306 268" fill="none" xmlns="http://www.w3.org/2000/svg">
<path d="M271.203 179.727H161.028C160.081 179.725 159.173 179.348 158.504 178.679C157.834 178.009 157.457 177.102 157.456 176.155V15.6745C157.457 14.7276 157.834 13.82 158.504 13.1505C159.173 12.481 160.081 12.1042 161.028 12.1025H271.203C272.149 12.1042 273.057 12.481 273.726 13.1505C274.396 13.82 274.773 14.7276 274.774 15.6745V176.155C274.773 177.102 274.396 178.009 273.726 178.679C273.057 179.348 272.149 179.725 271.203 179.727ZM161.028 12.2549C160.121 12.2565 159.252 12.6173 158.611 13.2583C157.971 13.8992 157.61 14.768 157.608 15.6745V176.155C157.61 177.061 157.971 177.93 158.611 178.571C159.252 179.212 160.121 179.573 161.028 179.574H271.203C272.109 179.574 272.979 179.214 273.62 178.573C274.262 177.932 274.622 177.062 274.622 176.155V15.6745C274.622 14.7675 274.262 13.8978 273.62 13.2565C272.979 12.6152 272.109 12.2549 271.203 12.2549H161.028ZM144.156 179.727H33.9868C33.0389 179.727 32.1297 179.351 31.4589 178.681C30.7881 178.011 30.4104 177.103 30.4088 176.155V15.6745C30.4104 14.7266 30.7881 13.818 31.4589 13.1484C32.1297 12.4787 33.0389 12.1025 33.9868 12.1025H144.156C145.103 12.1025 146.011 12.4789 146.681 13.1487C147.351 13.8186 147.727 14.7271 147.727 15.6745V176.155C147.727 177.102 147.351 178.011 146.681 178.681C146.011 179.35 145.103 179.727 144.156 179.727ZM33.9868 12.2549C33.0793 12.2549 32.2089 12.615 31.5666 13.2561C30.9244 13.8972 30.5628 14.767 30.5612 15.6745V176.155C30.5579 176.607 30.6442 177.055 30.8149 177.473C30.9856 177.892 31.2374 178.272 31.5558 178.593C31.8743 178.914 32.253 179.168 32.6702 179.342C33.0874 179.515 33.5349 179.605 33.9868 179.605H144.156C144.605 179.605 145.049 179.516 145.464 179.345C145.879 179.173 146.256 178.921 146.574 178.603C146.891 178.286 147.143 177.909 147.315 177.494C147.487 177.079 147.575 176.634 147.575 176.185V15.6745C147.575 15.2254 147.487 14.7807 147.315 14.3659C147.143 13.951 146.891 13.574 146.574 13.2565C146.256 12.939 145.879 12.6871 145.464 12.5152C145.049 12.3434 144.605 12.2549 144.156 12.2549H33.9868ZM305.386 216.952H0.614319V217.104H305.386V216.952ZM32.1094 225.796H41.8986V225.644H32.1094V225.796ZM104.45 224.144H137.079V223.992H104.45V224.144ZM42.5082 231.459H64.6163V231.306H42.5082V231.459ZM231.235 224.065H257.561V223.913H231.235V224.065ZM262.992 224.065H266.85V223.913H262.992V224.065ZM193.358 227.862H226.206V227.71H193.358V227.862Z" fill="#E0E0E0"/>
<path d="M76.4963 42.074H46.8847V80.0668H76.4963V42.074Z" fill="#E6E6E6"/>
<path d="M75.0455 42.074H40.2589V80.0668H75.0455V42.074Z" fill="#F0F0F0"/>
<path d="M71.687 45.4443H43.4651V76.6895H71.687V45.4443Z" fill="white"/>
<path d="M62.9218 55.429H52.7363V66.7055H62.9218V55.429Z" fill="#F0F0F0"/>
<path d="M134.47 225.577C134.605 224.614 134.605 223.638 134.47 222.675C134.403 222.102 134.336 221.548 134.281 220.999C132.714 221.359 131.337 221.06 130.837 220.121C130.154 218.835 131.373 216.848 133.568 215.678L133.885 215.519C133.586 206.62 135.183 202.341 135.183 202.341C131.349 202.469 126.467 204.328 122.06 207.095C122.237 207.532 122.354 207.992 122.407 208.461C122.608 210.222 121.932 211.746 120.901 211.868C119.975 211.972 119.073 210.905 118.762 209.43C115.013 212.356 112.008 215.867 110.905 219.317C109.403 218.794 107.847 218.44 106.266 218.262C106.614 219.262 106.461 220.219 105.876 220.493C105.291 220.767 104.267 220.127 103.749 219.006C103.612 218.71 103.518 218.396 103.469 218.073C99.8479 218.018 96.2759 218.683 93.9475 219.981C93.9475 219.981 96.4405 221.944 99.4699 227.344H99.7138C101.445 227.247 102.889 227.99 102.944 229.002C102.987 229.74 102.274 230.416 101.213 230.764C101.378 231.111 101.536 231.465 101.701 231.837C104.694 238.542 111.143 233.129 110.771 228.429C110.771 228.429 113.819 227.625 115.349 225.991C117.186 226.003 119.016 225.756 120.786 225.26C121.455 226.536 122.439 227.621 123.644 228.411C123.169 228.762 122.739 229.172 122.364 229.63C119.055 233.714 126.473 235.116 126.473 235.116C126.418 239.243 132.361 243.601 134.586 237.554C134.708 237.225 134.836 236.908 134.958 236.591C134.013 236.347 133.348 235.799 133.342 235.153C133.342 234.263 134.561 233.537 136.067 233.519H136.28C138.621 228.643 140.681 226.765 140.681 226.765C138.716 225.942 136.6 225.537 134.47 225.577Z" fill="#EBEBEB"/>
<path d="M134.019 229.856C129.453 232.775 120.255 239.425 118.981 240.346C119.085 241.632 119.237 242.918 119.469 244.192L119.018 244.277C118.786 242.997 118.634 241.705 118.53 240.413C118.512 240.391 118.497 240.367 118.488 240.34C117.074 236.201 112.307 227.283 104.365 223.157C104.338 223.144 104.313 223.126 104.294 223.103C104.274 223.08 104.259 223.054 104.25 223.025C104.241 222.997 104.238 222.967 104.24 222.937C104.243 222.907 104.252 222.878 104.267 222.852C104.281 222.826 104.299 222.802 104.322 222.783C104.345 222.763 104.371 222.749 104.399 222.74C104.427 222.731 104.457 222.727 104.487 222.73C104.517 222.732 104.545 222.741 104.572 222.754C111.929 226.57 116.598 234.421 118.451 238.962C118.073 229.349 121.111 219.912 127.027 212.325L127.387 212.612C121.351 220.345 118.349 230.017 118.945 239.809C120.834 238.438 129.411 232.263 133.769 229.447C133.819 229.424 133.876 229.42 133.93 229.435C133.983 229.451 134.029 229.485 134.059 229.532C134.09 229.578 134.102 229.634 134.095 229.689C134.087 229.744 134.06 229.794 134.019 229.831V229.856Z" fill="#E0E0E0"/>
<path d="M129.782 247.776L126.595 262.631H112.118L108.546 247.776H106.358V243.162H131.489V247.776H129.782ZM110.155 242.217C110.155 242.177 110.139 242.138 110.111 242.109C110.082 242.081 110.043 242.065 110.003 242.065H107.766C107.725 242.065 107.687 242.081 107.658 242.109C107.629 242.138 107.613 242.177 107.613 242.217C107.613 242.257 107.629 242.296 107.658 242.325C107.687 242.353 107.725 242.369 107.766 242.369H110.003C110.043 242.369 110.082 242.353 110.111 242.325C110.139 242.296 110.155 242.257 110.155 242.217ZM117.311 242.217C117.311 242.177 117.295 242.138 117.267 242.109C117.238 242.081 117.199 242.065 117.159 242.065H111.063C111.023 242.065 110.984 242.081 110.956 242.109C110.927 242.138 110.911 242.177 110.911 242.217C110.911 242.257 110.927 242.296 110.956 242.325C110.984 242.353 111.023 242.369 111.063 242.369H117.159C117.199 242.369 117.238 242.353 117.267 242.325C117.295 242.296 117.311 242.257 117.311 242.217Z" fill="#E0E0E0"/>
<path d="M99.0249 145.27H79.2148V153.498H99.0249V145.27Z" fill="#E0E0E0"/>
<path d="M110.033 137.108H90.2232V145.336H110.033V137.108Z" fill="#E6E6E6"/>
<path d="M110.692 153.34H90.8815V161.569H110.692V153.34Z" fill="#F5F5F5"/>
<path d="M181.77 200.323H161.96V208.552H181.77V200.323Z" fill="#E6E6E6"/>
<path d="M191.675 208.552H171.865V216.781H191.675V208.552Z" fill="#F5F5F5"/>
<path d="M282.564 124.85H262.754V133.079H282.564V124.85Z" fill="#E6E6E6"/>
<path d="M292.469 133.079H272.659V141.307H292.469V133.079Z" fill="#F5F5F5"/>
<path d="M181.77 7.64062H161.96V15.8695H181.77V7.64062Z" fill="#E6E6E6"/>
<path d="M191.675 15.8694H171.865V24.0982H191.675V15.8694Z" fill="#F5F5F5"/>
<path d="M280.321 263.971C280.321 266.032 223.317 267.708 153 267.708C82.6831 267.708 25.6787 266.032 25.6787 263.971C25.6787 261.911 82.6831 260.229 153 260.229C223.317 260.229 280.321 261.893 280.321 263.971Z" fill="#F5F5F5"/>
<path d="M169.604 195.977H102.225C100.77 195.977 99.3748 195.399 98.3459 194.37C97.3171 193.341 96.7392 191.946 96.7392 190.491V123.106C96.7392 121.651 97.3171 120.256 98.3459 119.227C99.3748 118.198 100.77 117.62 102.225 117.62H169.604C171.059 117.62 172.454 118.198 173.483 119.227C174.512 120.256 175.09 121.651 175.09 123.106V190.485C175.091 191.206 174.949 191.92 174.674 192.586C174.399 193.252 173.995 193.858 173.485 194.368C172.976 194.878 172.371 195.283 171.705 195.559C171.039 195.835 170.325 195.977 169.604 195.977ZM110.314 199.025H141.016C141.138 199.025 141.254 198.976 141.34 198.891C141.425 198.805 141.473 198.689 141.473 198.567C141.473 198.446 141.425 198.33 141.34 198.244C141.254 198.158 141.138 198.11 141.016 198.11H110.332C110.211 198.11 110.094 198.158 110.009 198.244C109.923 198.33 109.875 198.446 109.875 198.567C109.875 198.689 109.923 198.805 110.009 198.891C110.094 198.976 110.211 199.025 110.332 199.025H110.314ZM143.113 199.025H145.466C145.587 199.025 145.704 198.976 145.789 198.891C145.875 198.805 145.923 198.689 145.923 198.567C145.923 198.446 145.875 198.33 145.789 198.244C145.704 198.158 145.587 198.11 145.466 198.11H143.113C142.992 198.11 142.876 198.158 142.79 198.244C142.704 198.33 142.656 198.446 142.656 198.567C142.658 198.688 142.706 198.803 142.792 198.889C142.877 198.974 142.992 199.023 143.113 199.025Z" fill="#D24347"/>
<path d="M151.44 165.542V166.762H146.441C146.399 164.592 146.38 162.361 146.441 161.849H155.883V156.814H141.016V158.161H140.962H135.933C135.884 155.881 135.866 153.528 135.933 153.175C135.936 153.155 135.936 153.134 135.933 153.114H145.484V148.085H130.593V149.438C130.534 149.417 130.473 149.405 130.41 149.402H125.345C125.296 147.116 125.284 144.763 125.345 144.41C125.345 144.41 125.345 144.41 125.345 144.367H135.025V139.338H120.17V140.765H115.111C115.062 138.479 115.044 136.126 115.111 135.779C115.117 135.728 115.117 135.677 115.111 135.626H124.608V130.591H109.753V135.626H113.898C113.806 136.406 113.849 139.131 113.898 141.386C113.898 141.548 113.962 141.703 114.076 141.817C114.191 141.932 114.346 141.996 114.507 141.996H120.164V144.379H124.12C124.041 145.287 124.083 147.878 124.12 150.036C124.12 150.197 124.184 150.352 124.298 150.467C124.413 150.581 124.568 150.645 124.729 150.645H130.392C130.455 150.643 130.517 150.628 130.575 150.603V153.138H134.714C134.634 154.022 134.671 156.637 134.714 158.813C134.714 158.975 134.778 159.13 134.892 159.244C135.007 159.358 135.162 159.423 135.323 159.423H141.035V161.91H145.234C145.167 162.897 145.234 165.372 145.234 167.45C145.234 167.612 145.299 167.767 145.413 167.881C145.527 167.996 145.682 168.06 145.844 168.06H151.44V170.669H166.288V165.64L151.44 165.542Z" fill="white"/>
<path d="M124.004 181.805L122.523 186.309H121.407L120.42 183.262L119.402 186.309H118.293L116.818 181.823H117.896L118.908 184.975L119.969 181.823H120.926L121.956 184.999L122.998 181.823L124.004 181.805ZM127.387 185.328H125.302L124.906 186.291H123.846L125.845 181.805H126.869L128.874 186.291H127.783L127.387 185.328ZM127.058 184.542L126.351 182.823L125.638 184.542H127.058ZM130.045 182.646H128.618V181.805H132.525V182.652H131.093V186.309H130.051L130.045 182.646ZM136.542 185.456V186.309H133.068V181.823H136.463V182.652H134.104V183.627H136.183V184.438H134.104V185.474L136.542 185.456ZM140.23 186.291L139.365 185.042H138.408V186.309H137.371V181.823H139.31C139.665 181.815 140.018 181.882 140.346 182.018C140.627 182.135 140.867 182.333 141.035 182.586C141.204 182.84 141.294 183.137 141.294 183.442C141.294 183.746 141.204 184.043 141.035 184.297C140.867 184.55 140.627 184.748 140.346 184.865L141.352 186.309L140.23 186.291ZM139.968 182.853C139.762 182.702 139.51 182.628 139.255 182.646H138.408V184.213H139.255C139.51 184.231 139.762 184.157 139.968 184.005C140.045 183.93 140.106 183.841 140.148 183.742C140.189 183.643 140.211 183.537 140.211 183.429C140.211 183.322 140.189 183.216 140.148 183.117C140.106 183.018 140.045 182.928 139.968 182.853ZM143.119 182.634V183.823H145.198V184.658H143.125V186.309H142.089V181.823H145.478V182.652L143.119 182.634ZM148.947 185.328H146.862L146.466 186.291H145.399L147.398 181.805H148.422L150.428 186.291H149.343L148.947 185.328ZM148.617 184.542L147.904 182.823L147.197 184.542H148.617ZM150.897 181.805H151.933V185.462H154.219V186.309H150.928L150.897 181.805ZM154.768 181.805H155.81V185.462H158.053V186.309H154.768V181.805Z" fill="white"/>
<path d="M255.915 116.986H186.165C183.789 116.986 181.862 118.913 181.862 121.29V191.04C181.862 193.416 183.789 195.343 186.165 195.343H255.915C258.292 195.343 260.219 193.416 260.219 191.04V121.29C260.219 118.913 258.292 116.986 255.915 116.986Z" fill="#D24347"/>
<path opacity="0.3" d="M255.915 116.986H186.165C183.789 116.986 181.862 118.913 181.862 121.29V191.04C181.862 193.416 183.789 195.343 186.165 195.343H255.915C258.292 195.343 260.219 193.416 260.219 191.04V121.29C260.219 118.913 258.292 116.986 255.915 116.986Z" fill="black"/>
<path d="M206.548 185.28L205.939 185.889V187.029H204.909V182.543H205.939V184.633L207.926 182.543H209.078L207.249 184.56L209.218 187.047H207.999L206.548 185.28ZM212.406 186.084H210.327L209.931 187.047H208.865L210.864 182.561H211.888L213.893 187.047H212.808L212.406 186.084ZM212.083 185.292L211.37 183.579L210.657 185.292H212.083ZM218.477 182.561V187.047H217.612L215.374 184.323V187.047H214.35V182.561H215.21L217.441 185.28V182.561H218.477ZM223.439 185.121C223.589 185.323 223.667 185.57 223.658 185.822C223.665 186 223.626 186.176 223.545 186.334C223.464 186.492 223.343 186.627 223.195 186.724C222.793 186.964 222.327 187.077 221.86 187.047H219.544V182.561H221.732C222.175 182.533 222.615 182.641 222.994 182.872C223.133 182.965 223.246 183.093 223.323 183.242C223.4 183.391 223.438 183.558 223.433 183.725C223.44 183.939 223.385 184.151 223.274 184.335C223.169 184.507 223.016 184.647 222.835 184.737C223.072 184.798 223.283 184.932 223.439 185.121ZM220.574 183.341V184.396H221.604C221.816 184.414 222.029 184.368 222.214 184.262C222.278 184.218 222.33 184.159 222.364 184.089C222.398 184.02 222.413 183.943 222.409 183.865C222.412 183.788 222.396 183.712 222.362 183.642C222.328 183.573 222.277 183.513 222.214 183.469C222.027 183.369 221.815 183.324 221.604 183.341H220.574ZM222.403 186.127C222.471 186.082 222.526 186.021 222.563 185.948C222.599 185.875 222.615 185.794 222.61 185.712C222.61 185.341 222.335 185.152 221.781 185.152H220.562V186.261H221.781C221.997 186.275 222.212 186.229 222.403 186.127ZM227.395 186.084H225.316L224.92 187.047H223.853L225.853 182.561H226.877L228.882 187.047H227.797L227.395 186.084ZM227.072 185.292L226.358 183.579L225.645 185.292H227.072ZM233.46 182.561V187.047H232.606L230.369 184.323V187.047H229.345V182.561H230.205L232.436 185.28V182.561H233.46Z" fill="white"/>
<path d="M205.421 139.192H199.441V133.212H205.421V139.192ZM214.149 133.212H208.17V139.192H214.149V133.212ZM222.884 133.212H216.904V139.192H222.884V133.212ZM205.421 141.508H199.441V147.488H205.421V141.508ZM214.149 141.508H208.17V147.488H214.149V141.508ZM222.884 141.508H216.904V147.488H222.884V141.508ZM205.421 149.798H199.441V155.784H205.421V149.798ZM214.149 149.798H208.17V155.784H214.149V149.798ZM205.421 158.734H199.441V164.713H205.421V158.734ZM231.631 133.212H225.658V139.192H231.631V133.212ZM240.366 133.212H234.386V139.192H240.366V133.212Z" fill="white"/>
<path d="M239.019 169.462L236.696 167.499C236.573 167.394 236.412 167.342 236.25 167.356C236.089 167.369 235.939 167.446 235.834 167.569C235.729 167.693 235.677 167.853 235.69 168.015C235.703 168.177 235.78 168.327 235.904 168.432L236.952 169.316H199.465C199.304 169.316 199.149 169.38 199.034 169.494C198.92 169.608 198.856 169.763 198.856 169.925C198.856 170.087 198.92 170.242 199.034 170.356C199.149 170.47 199.304 170.535 199.465 170.535H237.16L236.014 171.681C235.928 171.765 235.869 171.874 235.845 171.992C235.821 172.11 235.833 172.233 235.879 172.344C235.924 172.456 236.002 172.551 236.102 172.619C236.202 172.686 236.32 172.722 236.44 172.723C236.521 172.723 236.601 172.706 236.675 172.675C236.749 172.643 236.817 172.598 236.873 172.54L239.055 170.352C239.115 170.292 239.161 170.221 239.192 170.142C239.223 170.064 239.237 169.98 239.233 169.896C239.23 169.812 239.209 169.729 239.172 169.653C239.135 169.577 239.083 169.51 239.019 169.456V169.462Z" fill="white"/>
<path d="M255.05 111.037H187.043C185.67 111.037 184.353 110.492 183.382 109.522C182.41 108.551 181.863 107.235 181.862 105.862V37.8554C181.863 36.4824 182.41 35.1661 183.382 34.1958C184.353 33.2254 185.67 32.6804 187.043 32.6804H255.05C256.422 32.6804 257.738 33.2256 258.709 34.1961C259.679 35.1667 260.225 36.4829 260.225 37.8554V105.85C260.226 106.531 260.094 107.205 259.834 107.834C259.575 108.463 259.194 109.035 258.713 109.517C258.233 109.999 257.661 110.381 257.033 110.642C256.404 110.903 255.73 111.037 255.05 111.037ZM263.37 65.0959V95.6523C263.37 95.7735 263.418 95.8898 263.504 95.9755C263.59 96.0613 263.706 96.1094 263.827 96.1094C263.948 96.1094 264.065 96.0613 264.15 95.9755C264.236 95.8898 264.284 95.7735 264.284 95.6523V65.0959C264.284 64.9747 264.236 64.8584 264.15 64.7726C264.065 64.6869 263.948 64.6387 263.827 64.6387C263.706 64.6387 263.59 64.6869 263.504 64.7726C263.418 64.8584 263.37 64.9747 263.37 65.0959ZM264.132 98.9621V102.01C264.132 102.131 264.18 102.247 264.266 102.333C264.351 102.419 264.468 102.467 264.589 102.467C264.71 102.467 264.826 102.419 264.912 102.333C264.998 102.247 265.046 102.131 265.046 102.01V98.9621C265.046 98.8408 264.998 98.7246 264.912 98.6388C264.826 98.5531 264.71 98.5049 264.589 98.5049C264.468 98.5049 264.351 98.5531 264.266 98.6388C264.18 98.7246 264.132 98.8408 264.132 98.9621Z" fill="#D24347"/>
<path d="M206.317 102.558C206.03 102.481 205.76 102.353 205.518 102.18L205.872 101.4C206.079 101.55 206.31 101.665 206.554 101.741C206.812 101.825 207.082 101.869 207.353 101.869C207.579 101.886 207.804 101.84 208.005 101.735C208.069 101.702 208.122 101.652 208.16 101.591C208.198 101.53 208.218 101.46 208.218 101.388C208.219 101.336 208.208 101.285 208.186 101.239C208.164 101.192 208.131 101.152 208.09 101.12C207.996 101.044 207.889 100.986 207.774 100.949C207.639 100.906 207.463 100.864 207.243 100.809C206.958 100.747 206.677 100.665 206.402 100.565C206.184 100.486 205.991 100.352 205.841 100.175C205.678 99.9717 205.596 99.7157 205.61 99.4556C205.606 99.2035 205.68 98.9565 205.823 98.7485C205.976 98.5284 206.187 98.3553 206.433 98.2487C206.763 98.1134 207.118 98.049 207.475 98.0597C207.758 98.0604 208.041 98.0952 208.316 98.1634C208.568 98.2212 208.809 98.3201 209.029 98.4559L208.712 99.2484C208.344 99.0265 207.923 98.9047 207.493 98.8948C207.269 98.8811 207.045 98.9297 206.847 99.035C206.784 99.0747 206.732 99.1296 206.696 99.1945C206.66 99.2595 206.64 99.3325 206.64 99.4068C206.64 99.4821 206.663 99.5555 206.707 99.6167C206.75 99.678 206.812 99.7239 206.884 99.7482C207.118 99.8506 207.364 99.9262 207.615 99.9737C207.9 100.037 208.181 100.116 208.456 100.211C208.671 100.296 208.863 100.43 209.017 100.602C209.18 100.8 209.262 101.052 209.249 101.309C209.251 101.559 209.177 101.803 209.035 102.01C208.873 102.237 208.649 102.413 208.389 102.516C208.057 102.646 207.703 102.708 207.347 102.698C206.999 102.701 206.652 102.654 206.317 102.558ZM210.864 102.406C210.505 102.214 210.204 101.93 209.992 101.583C209.787 101.218 209.679 100.807 209.679 100.388C209.679 99.9697 209.787 99.5583 209.992 99.1935C210.203 98.8441 210.504 98.5578 210.864 98.3645C211.219 98.1849 211.608 98.0838 212.006 98.068C212.404 98.0522 212.8 98.1222 213.168 98.2731C213.477 98.41 213.749 98.6191 213.96 98.8826L213.29 99.4922C213.155 99.3239 212.983 99.1886 212.787 99.0967C212.592 99.0048 212.378 98.9587 212.162 98.9619C211.903 98.958 211.647 99.021 211.419 99.1447C211.206 99.2651 211.03 99.4424 210.913 99.6567C210.788 99.8845 210.725 100.141 210.73 100.4C210.726 100.66 210.789 100.916 210.913 101.144C211.031 101.357 211.206 101.532 211.419 101.65C211.647 101.774 211.903 101.837 212.162 101.833C212.378 101.836 212.592 101.79 212.787 101.698C212.983 101.606 213.155 101.471 213.29 101.303L213.96 101.912C213.747 102.177 213.473 102.386 213.162 102.522C212.828 102.66 212.469 102.728 212.107 102.723C211.673 102.721 211.246 102.612 210.864 102.406ZM217.514 102.625L216.648 101.376H215.698V102.625H214.655V98.139H216.6C216.955 98.1319 217.308 98.1983 217.636 98.334C217.912 98.4536 218.147 98.6505 218.313 98.9009C218.471 99.1614 218.551 99.4618 218.544 99.7665C218.556 100.069 218.474 100.367 218.309 100.62C218.145 100.874 217.905 101.07 217.624 101.181L218.629 102.625H217.514ZM217.252 99.1874C217.044 99.0401 216.793 98.9691 216.539 98.9863H215.698V100.547H216.539C216.793 100.564 217.044 100.493 217.252 100.346C217.334 100.274 217.399 100.185 217.441 100.084C217.483 99.9839 217.502 99.8752 217.496 99.7665C217.502 99.6577 217.484 99.5488 217.442 99.4484C217.399 99.3479 217.334 99.2586 217.252 99.1874ZM219.861 102.168C219.675 101.964 219.532 101.724 219.441 101.463C219.35 101.202 219.312 100.926 219.33 100.65V98.139H220.367V100.614C220.367 101.412 220.702 101.833 221.366 101.833C221.504 101.842 221.642 101.82 221.771 101.77C221.899 101.719 222.015 101.641 222.11 101.54C222.303 101.279 222.394 100.956 222.366 100.632V98.1573H223.39V100.669C223.377 101.072 223.25 101.462 223.023 101.796C222.796 102.129 222.478 102.39 222.108 102.549C221.738 102.709 221.329 102.759 220.931 102.695C220.534 102.631 220.162 102.454 219.861 102.186V102.168ZM228.498 102.625V99.931L227.175 102.15H226.712L225.395 99.992V102.625H224.42V98.139H225.28L226.962 100.925L228.614 98.139H229.467V102.625H228.498Z" fill="white"/>
<path d="M218.544 87.6855H198.326C198.164 87.6855 198.009 87.6213 197.895 87.507C197.78 87.3927 197.716 87.2377 197.716 87.076C197.716 86.9143 197.78 86.7593 197.895 86.645C198.009 86.5307 198.164 86.4665 198.326 86.4665H218.544C221.968 86.4667 225.287 85.2884 227.943 83.1296C230.6 80.9708 232.433 77.9631 233.133 74.6121C233.834 71.2612 233.359 67.7712 231.789 64.729C230.219 61.6868 227.65 59.2778 224.513 57.9069C221.376 56.5361 217.863 56.2869 214.564 57.2014C211.265 58.1159 208.382 60.1383 206.398 62.9285C204.415 65.7188 203.452 69.1068 203.673 72.523C203.893 75.9393 205.283 79.1755 207.609 81.6876L207.322 80.5661C207.282 80.4093 207.306 80.2428 207.388 80.1034C207.47 79.9639 207.605 79.8629 207.761 79.8224C207.918 79.782 208.085 79.8056 208.224 79.8879C208.364 79.9702 208.465 80.1045 208.505 80.2613L209.255 83.2115C209.275 83.2929 209.279 83.3777 209.265 83.4605C209.252 83.5434 209.221 83.6226 209.175 83.693C209.13 83.7635 209.07 83.8237 208.999 83.8698C208.929 83.916 208.85 83.9471 208.767 83.9612L205.719 84.4793H205.616C205.454 84.4923 205.294 84.4405 205.17 84.3353C205.047 84.2301 204.97 84.0802 204.957 83.9186C204.945 83.7569 204.996 83.5967 205.101 83.4733C205.207 83.3498 205.357 83.2732 205.518 83.2603L207.182 82.9738C204.27 80.087 202.568 76.1982 202.423 72.1C202.279 68.0019 203.702 64.0028 206.404 60.9179C209.106 57.833 212.882 55.8945 216.964 55.4974C221.045 55.1004 225.124 56.2747 228.37 58.781C227.855 57.1848 227.896 55.4614 228.485 53.8912C229.074 52.3209 230.177 50.996 231.614 50.1321C233.052 49.2682 234.739 48.916 236.402 49.1328C238.065 49.3497 239.606 50.1227 240.774 51.3263V49.6623C240.774 49.5006 240.838 49.3456 240.953 49.2313C241.067 49.117 241.222 49.0527 241.384 49.0527C241.545 49.0527 241.7 49.117 241.815 49.2313C241.929 49.3456 241.993 49.5006 241.993 49.6623L242.024 53.1793C242.024 53.2596 242.009 53.3391 241.978 53.4133C241.948 53.4876 241.903 53.5552 241.847 53.6121C241.748 53.7089 241.619 53.7691 241.481 53.7828H241.426H237.69C237.528 53.7828 237.373 53.7186 237.259 53.6043C237.145 53.4899 237.08 53.3349 237.08 53.1732C237.08 53.0116 237.145 52.8565 237.259 52.7422C237.373 52.6279 237.528 52.5637 237.69 52.5637H240.262C239.335 51.4333 238.038 50.6667 236.6 50.3992C235.163 50.1317 233.677 50.3805 232.405 51.1017C231.133 51.8228 230.156 52.97 229.648 54.3409C229.139 55.7118 229.131 57.2183 229.624 58.5947C230.118 59.9711 231.082 61.1289 232.346 61.8639C233.61 62.5989 235.093 62.8639 236.533 62.6121C237.974 62.3603 239.279 61.608 240.219 60.4878C241.159 59.3675 241.673 57.9514 241.67 56.4892C241.67 56.3275 241.734 56.1725 241.849 56.0581C241.963 55.9438 242.118 55.8796 242.28 55.8796C242.441 55.8796 242.596 55.9438 242.711 56.0581C242.825 56.1725 242.889 56.3275 242.889 56.4892C242.889 57.7351 242.576 58.9611 241.978 60.0544C241.381 61.1477 240.518 62.0733 239.469 62.7463C238.421 63.4193 237.22 63.818 235.977 63.9058C234.734 63.9936 233.489 63.7678 232.356 63.249C233.88 65.7565 234.683 68.6352 234.679 71.5692C234.672 75.8447 232.97 79.943 229.945 82.9645C226.92 85.986 222.82 87.6839 218.544 87.6855ZM241.323 86.6066C241.317 86.5459 241.303 86.4863 241.28 86.4299C241.28 86.4299 241.244 86.3872 241.231 86.3628C241.201 86.3148 241.164 86.2717 241.122 86.2348L236.989 83.1018C236.86 83.004 236.697 82.9616 236.536 82.9838C236.375 83.0061 236.23 83.0913 236.133 83.2206C236.035 83.35 235.992 83.5129 236.015 83.6735C236.037 83.8341 236.122 83.9792 236.251 84.077L238.939 86.1129H227.736C227.574 86.1129 227.419 86.1771 227.305 86.2915C227.191 86.4058 227.126 86.5608 227.126 86.7225C227.126 86.8841 227.191 87.0392 227.305 87.1535C227.419 87.2678 227.574 87.332 227.736 87.332H239.086L236.196 89.8067C236.102 89.8877 236.034 89.9958 236.003 90.1164C235.971 90.237 235.978 90.3643 236.021 90.4812C236.064 90.5981 236.142 90.6989 236.244 90.7701C236.346 90.8414 236.468 90.8796 236.593 90.8795C236.738 90.8796 236.878 90.8277 236.989 90.7333L241.128 87.1857C241.179 87.1358 241.222 87.0782 241.256 87.015C241.256 87.015 241.256 87.015 241.256 86.9785C241.288 86.9033 241.304 86.8225 241.304 86.7407C241.322 86.6983 241.328 86.6522 241.323 86.6066Z" fill="white"/>
<path d="M170.719 32.6804H101.494C98.9722 32.6804 96.9282 34.7245 96.9282 37.2459V106.472C96.9282 108.993 98.9722 111.037 101.494 111.037H170.719C173.241 111.037 175.285 108.993 175.285 106.472V37.2459C175.285 34.7245 173.241 32.6804 170.719 32.6804Z" fill="#D24347"/>
<path opacity="0.3" d="M170.719 32.6804H101.494C98.9722 32.6804 96.9282 34.7245 96.9282 37.2459V106.472C96.9282 108.993 98.9722 111.037 101.494 111.037H170.719C173.241 111.037 175.285 108.993 175.285 106.472V37.2459C175.285 34.7245 173.241 32.6804 170.719 32.6804Z" fill="black"/>
<path d="M119.365 70.0026C119.373 65.2393 121.111 60.641 124.256 57.0639C127.402 53.4868 131.74 51.1747 136.463 50.5582C136.625 50.538 136.788 50.5829 136.916 50.6829C137.045 50.7829 137.129 50.9299 137.149 51.0916C137.169 51.2532 137.124 51.4163 137.024 51.5449C136.924 51.6735 136.777 51.7571 136.615 51.7773C132.861 52.2669 129.35 53.9037 126.561 56.464C123.772 59.0242 121.841 62.3832 121.033 66.0818C120.225 69.7805 120.578 73.6385 122.045 77.1288C123.512 80.6192 126.02 83.5715 129.228 85.5825C129.341 85.6525 129.428 85.7573 129.475 85.8811C129.523 86.0049 129.529 86.1409 129.493 86.2685C129.456 86.3961 129.379 86.5083 129.273 86.588C129.167 86.6677 129.038 86.7106 128.905 86.7102C128.79 86.7109 128.677 86.6769 128.582 86.6127C125.757 84.859 123.428 82.4124 121.815 79.5054C120.202 76.5983 119.359 73.3272 119.365 70.0026ZM138.981 89.6055H116.616V91.5439C116.616 91.7055 116.552 91.8606 116.438 91.9749C116.324 92.0892 116.169 92.1534 116.007 92.1534H110.564C110.402 92.1534 110.247 92.0892 110.133 91.9749C110.018 91.8606 109.954 91.7055 109.954 91.5439V86.1007C109.954 85.939 110.018 85.784 110.133 85.6696C110.247 85.5553 110.402 85.4911 110.564 85.4911H116.007C116.169 85.4911 116.324 85.5553 116.438 85.6696C116.552 85.784 116.616 85.939 116.616 86.1007V88.3864H138.981C143.722 88.3955 148.283 86.5718 151.711 83.2965C155.139 80.0212 157.169 75.5477 157.376 70.811C157.583 66.0743 155.951 61.4408 152.822 57.879C149.692 54.3172 145.308 52.1026 140.584 51.6981L141.62 52.716C141.735 52.83 141.801 52.9852 141.802 53.1475C141.803 53.3098 141.74 53.466 141.626 53.5816C141.512 53.6971 141.357 53.7627 141.194 53.7639C141.032 53.765 140.876 53.7016 140.76 53.5877L138.688 51.5335C138.591 51.4764 138.512 51.3936 138.459 51.2942C138.406 51.1949 138.382 51.0828 138.388 50.9704C138.395 50.8581 138.433 50.7498 138.498 50.6577C138.563 50.5656 138.652 50.4932 138.755 50.4485L140.809 48.8027C140.871 48.7497 140.943 48.7097 141.021 48.6851C141.099 48.6605 141.181 48.6518 141.262 48.6594C141.344 48.6671 141.423 48.6911 141.494 48.7298C141.566 48.7686 141.63 48.8214 141.681 48.8851C141.732 48.9489 141.769 49.0222 141.792 49.1008C141.814 49.1793 141.82 49.2616 141.81 49.3426C141.799 49.4236 141.773 49.5017 141.732 49.5723C141.691 49.6429 141.636 49.7046 141.571 49.7536L140.669 50.479C145.715 50.8971 150.403 53.252 153.751 57.0502C157.1 60.8484 158.848 65.7952 158.629 70.8537C158.411 75.9123 156.243 80.69 152.58 84.1857C148.918 87.6814 144.044 89.6237 138.981 89.6055ZM115.41 90.9343V89.2642C115.371 89.18 115.35 89.0887 115.349 88.996C115.349 88.9052 115.37 88.8156 115.41 88.7339V86.7102H111.185V90.9343H115.41ZM165.66 88.4962L163.71 86.5639C163.595 86.4504 163.441 86.3867 163.28 86.3867C163.119 86.3867 162.964 86.4504 162.85 86.5639C162.793 86.6206 162.748 86.688 162.717 86.7623C162.686 86.8365 162.67 86.9162 162.67 86.9967C162.67 87.0772 162.686 87.1568 162.717 87.2311C162.748 87.3054 162.793 87.3728 162.85 87.4295L163.752 88.3194H149.818C149.657 88.3194 149.501 88.3836 149.387 88.4979C149.273 88.6122 149.209 88.7673 149.209 88.9289C149.209 89.0906 149.273 89.2456 149.387 89.3599C149.501 89.4743 149.657 89.5385 149.818 89.5385H163.905L162.96 90.6113C162.857 90.7338 162.806 90.892 162.818 91.0517C162.831 91.2114 162.906 91.3597 163.027 91.4646C163.137 91.559 163.278 91.6109 163.423 91.6109C163.511 91.6109 163.598 91.5919 163.678 91.555C163.758 91.5182 163.829 91.4645 163.886 91.3976L165.685 89.2764C165.777 89.1607 165.825 89.0153 165.818 88.8672C165.811 88.7191 165.751 88.5785 165.648 88.4718L165.66 88.4962Z" fill="white"/>
<path d="M131.38 100.522H129.295L128.899 101.485H127.832L129.831 96.9991H130.861L132.867 101.485H131.776L131.38 100.522ZM131.056 99.7542L130.343 98.0353L129.63 99.7542H131.056ZM136.305 99.1874H137.255V101.016C136.999 101.204 136.713 101.346 136.408 101.437C136.094 101.533 135.768 101.582 135.439 101.583C135.002 101.59 134.57 101.488 134.183 101.284C133.82 101.099 133.518 100.813 133.312 100.461C133.107 100.097 132.999 99.6851 132.999 99.2666C132.999 98.8481 133.107 98.4367 133.312 98.0719C133.522 97.7196 133.826 97.4325 134.189 97.2429C134.581 97.0393 135.016 96.9366 135.457 96.9442C135.825 96.9391 136.19 97.0075 136.53 97.1454C136.841 97.2687 137.117 97.4653 137.335 97.7184L136.67 98.3279C136.429 98.0726 136.111 97.9029 135.764 97.8446C135.418 97.7863 135.062 97.8425 134.75 98.0049C134.53 98.1186 134.348 98.2945 134.226 98.5108C134.1 98.7402 134.037 98.9989 134.043 99.2605C134.039 99.52 134.102 99.7761 134.226 100.004C134.351 100.216 134.529 100.391 134.744 100.51C134.976 100.635 135.236 100.698 135.5 100.693C135.78 100.698 136.056 100.633 136.305 100.504V99.1874ZM138.212 97.0174H139.255V101.504H138.212V97.0174ZM140.315 97.0174H141.358V100.675H143.607V101.522H140.315V97.0174ZM147.63 100.675V101.51H144.156V97.0235H147.545V97.8525H145.186V98.8277H147.27V99.6384H145.186V100.675H147.63Z" fill="white"/>
<path d="M264.741 161.83C254.184 174.186 251.094 192.478 257.018 207.644C263.608 201.768 268.24 192.807 268.533 184.975C268.825 177.142 266.777 169.401 264.741 161.83Z" fill="#D24347"/>
<path d="M262.9 209.045C259.303 214.593 257.617 221.164 258.097 227.758C263.809 225.771 268.844 219.316 271.861 214.08C274.878 208.844 276.573 202.95 278.102 197.104C271.868 199.319 266.529 203.513 262.9 209.045Z" fill="#D24347"/>
<path d="M249.698 217.609C252.704 222.244 254.11 227.735 253.702 233.244C248.942 231.586 244.742 226.204 242.225 221.833C239.707 217.463 238.299 212.52 237.019 207.643C242.22 209.493 246.672 212.993 249.698 217.609Z" fill="#D24347"/>
<path d="M276.195 219.048C269.49 225.96 262.62 232.726 255.903 239.638C255.976 241.032 256.065 242.424 256.171 243.814C256.171 244.106 255.738 244.106 255.714 243.814C255.539 241.542 255.405 239.268 255.312 236.993C255.312 236.993 255.312 236.993 255.312 236.95C251.705 228.58 247.138 220.657 241.701 213.343C241.524 213.105 241.92 212.879 242.097 213.111C247.322 220.168 251.752 227.781 255.306 235.81C255.245 233.982 255.202 232.153 255.202 230.324C255.196 214.462 257.347 198.672 261.596 183.39C261.612 183.331 261.651 183.282 261.703 183.252C261.756 183.223 261.818 183.215 261.876 183.231C261.935 183.247 261.984 183.286 262.014 183.339C262.043 183.391 262.051 183.453 262.035 183.512C260.844 187.799 259.816 192.126 258.951 196.495C256.628 208.271 255.532 220.255 255.677 232.257C260.061 222.132 265.582 212.539 272.135 203.663C272.306 203.425 272.702 203.663 272.531 203.895C265.884 212.893 260.306 222.634 255.909 232.921C255.894 232.96 255.868 232.995 255.835 233.021C255.802 233.046 255.762 233.062 255.72 233.067C255.749 235.042 255.816 237.021 255.921 239.004C262.547 232.196 269.331 225.515 275.92 218.707C276.079 218.512 276.402 218.835 276.195 219.048Z" fill="#263238"/>
<path d="M276.438 215.86C270.607 221.49 265.302 227.642 260.59 234.238H261.657C263.885 234.134 266.065 233.558 268.053 232.548C270.041 231.539 271.792 230.118 273.19 228.38C274.587 226.642 275.6 224.628 276.16 222.469C276.72 220.311 276.815 218.058 276.438 215.86Z" fill="#D24347"/>
<path d="M248.832 202.456C251.331 206.552 253.688 210.732 255.903 214.995C256.037 215.257 256.433 215.025 256.299 214.763C254.076 210.504 251.717 206.325 249.222 202.225C249.07 201.975 248.674 202.225 248.832 202.456Z" fill="#263238"/>
<path d="M242.804 181.781C241.847 186.047 240.902 191.661 240.89 196.129C240.878 200.597 242.243 204.968 244.785 207.966C247.327 210.965 252.459 212.27 254.538 210.557L242.804 181.781Z" fill="#D24347"/>
<path d="M268.143 241.638H242.67V246.362H245.498L248.198 263.179H264.016L266.149 246.362H268.143V241.638Z" fill="#263238"/>
<path opacity="0.2" d="M245.516 246.447H266.137L265.881 248.477H245.839L245.516 246.447Z" fill="black"/>
<path d="M56.4606 31.5285C56.4773 31.5649 56.479 31.6064 56.4653 31.644C56.4516 31.6817 56.4236 31.7124 56.3875 31.7296C56.3654 31.735 56.3424 31.735 56.3204 31.7296C56.2917 31.7285 56.2639 31.7194 56.2402 31.7032C56.2165 31.687 56.1978 31.6645 56.1863 31.6382C55.8644 30.9335 55.6921 30.1697 55.6804 29.3951C55.6787 29.3748 55.6812 29.3545 55.6878 29.3353C55.6944 29.3161 55.7049 29.2985 55.7187 29.2836C55.7324 29.2687 55.7491 29.2569 55.7677 29.2487C55.7863 29.2406 55.8064 29.2365 55.8267 29.2366C55.8677 29.2365 55.9071 29.2524 55.9366 29.2808C55.9662 29.3092 55.9836 29.348 55.9852 29.389C55.9929 30.1274 56.1549 30.8562 56.4606 31.5285ZM61.337 14.2967C61.3635 14.2675 61.3782 14.2295 61.3782 14.19C61.3782 14.1506 61.3635 14.1125 61.337 14.0833C61.3127 14.051 61.2766 14.0296 61.2366 14.0239C61.1966 14.0182 61.1559 14.0286 61.1236 14.0529C59.1665 15.6035 57.6203 17.6113 56.6212 19.8996C55.6221 22.188 55.2007 24.6868 55.3939 27.1763C55.3969 27.2136 55.4134 27.2484 55.4404 27.2743C55.4673 27.3001 55.5029 27.3151 55.5402 27.3165C55.56 27.315 55.5793 27.3095 55.5969 27.3003C55.6145 27.2911 55.6301 27.2784 55.6426 27.263C55.6552 27.2476 55.6644 27.2299 55.6699 27.2107C55.6753 27.1916 55.6768 27.1716 55.6743 27.1519C55.4888 24.7106 55.9065 22.2611 56.8908 20.0193C57.8751 17.7775 59.3958 15.8122 61.3187 14.2967H61.337ZM85.6455 35.1065C83.9521 37.6642 81.5222 39.6478 78.6772 40.795C75.8322 41.9421 72.7061 42.1988 69.7121 41.531L66.0121 44.1886L64.854 39.5196C64.787 39.4769 64.7077 39.4403 64.6407 39.3916C62.1404 37.7363 60.1872 35.3768 59.028 32.6114C57.8688 29.846 57.5558 26.799 58.1285 23.8557C58.7012 20.9124 60.134 18.205 62.2455 16.076C64.357 13.9471 67.0525 12.4921 69.991 11.8952C72.9295 11.2983 75.979 11.5862 78.7539 12.7226C81.5287 13.859 83.9042 15.7928 85.5799 18.2794C87.2556 20.7659 88.1563 23.6936 88.168 26.6921C88.1796 29.6906 87.3018 32.6252 85.6455 35.1248V35.1065ZM80.7692 24.1347L78.6358 22.0013L71.5224 28.9684L67.2556 25.049L65.2258 27.2799L71.6199 33.1194L80.7692 24.1347Z" fill="#D24347"/>
<path d="M67.4507 76.9451C67.5479 76.8101 67.6374 76.6697 67.7189 76.5246C68.7429 74.7752 68.7612 72.4528 68.1455 70.4291V70.3621C68.9014 68.1616 70.0107 67.0157 69.0721 63.5474C68.0279 59.861 66.1082 56.4817 63.4764 53.6972C62.0075 52.1124 60.3434 50.6495 58.338 50.0399C56.3326 49.4304 54.0712 49.6315 52.5474 51.0944C52.5474 51.0944 51.3283 52.2221 50.0178 55.1052C47.6222 60.4509 49.6398 67.3631 51.3892 71.2276C50.8184 71.2323 50.2499 71.3019 49.6947 71.4349C49.0842 71.585 48.4961 71.8145 47.9453 72.1176C47.7356 72.2237 47.5321 72.3418 47.3358 72.4711C46.9765 72.7078 46.6398 72.9771 46.33 73.2757C45.9079 73.6893 45.5393 74.1541 45.2328 74.6594C43.7699 77.0244 43.1055 80.066 44.4343 82.5042C48.0916 79.9441 47.226 83.2966 50.292 83.2966C55.6134 83.2966 60.7152 83.9061 60.7152 83.9061C60.7276 83.7906 60.7276 83.6742 60.7152 83.5587C61.8906 83.8098 63.1057 83.8098 64.281 83.5587C65.0523 83.4002 65.7972 83.1335 66.4937 82.7663C67.3958 82.2847 70.4191 79.2553 67.4507 76.9451Z" fill="#263238"/>
<path d="M58.9109 53.8434C52.7057 50.7957 46.269 55.4465 46.4092 62.0356C46.5494 68.4114 46.4884 71.2214 49.3289 74.641C49.3231 74.7547 49.3231 74.8686 49.3289 74.9823C49.3228 75.0858 49.3228 75.1896 49.3289 75.2932C49.9384 78.7798 49.847 81.0655 48.2195 82.9795C48.2195 82.9795 45.6777 87.1305 54.2723 90.2209C55.7169 90.8304 56.7104 91.184 57.7832 90.0685C61.4405 86.3076 61.3856 84.6436 60.7151 84.2596C59.618 83.7049 56.9177 81.3581 56.8263 79.7611C56.8222 79.4767 56.8222 79.1922 56.8263 78.9078V78.2556C58.4898 78.1922 60.0882 77.5921 61.3824 76.5451C62.6767 75.498 63.5973 74.0602 64.0067 72.4466C65.5915 66.6316 65.116 56.8667 58.9109 53.8434Z" fill="#B97964"/>
<path d="M59.5205 54.7274C58.9902 52.85 56.9482 51.2408 53.2178 50.424L53.035 50.3814C49.4752 49.6377 45.6595 48.4918 44.1417 52.4172C40.1675 62.6575 34.3159 61.2495 35.6081 64.3887C35.805 64.7882 36.1124 65.1229 36.4938 65.353C36.8752 65.5831 37.3146 65.699 37.7598 65.687C37.9856 65.6825 38.2086 65.6371 38.4181 65.5529C38.156 65.7906 37.8513 66.0344 37.5709 66.2965C36.047 67.7411 34.5658 69.4479 33.9624 71.5142C33.8294 71.8522 33.7591 72.2116 33.7551 72.5748C33.7519 72.963 33.8252 73.3481 33.9708 73.708C34.1164 74.0679 34.3315 74.3956 34.6037 74.6724C34.876 74.9492 35.2001 75.1696 35.5576 75.3211C35.915 75.4727 36.2988 75.5523 36.687 75.5555C36.5529 75.7018 34.9925 77.317 34.7487 77.7315C32.0179 82.2848 34.0599 88.2888 40.4052 85.6556C42.1302 84.9424 46.8603 83.1382 46.8603 83.1382C46.8603 83.1382 48.6889 84.8876 48.6889 81.5168L48.8169 81.5778C48.8136 81.5576 48.8136 81.537 48.8169 81.5168C47.6664 78.9213 47.2247 76.0671 47.5369 73.2453C47.5369 73.0868 47.5735 72.9223 47.5978 72.7638C47.671 72.2639 47.799 71.7093 47.8843 71.2887C47.9618 70.8981 48.0657 70.5132 48.1952 70.1366C48.4217 69.415 48.6987 68.7103 49.0242 68.0276C49.2192 67.6314 49.4204 67.2413 49.6337 66.8695L49.8044 66.6074C50.7566 64.9407 52.1427 63.5631 53.8152 62.621C58.2344 60.3535 60.3495 57.2692 59.5205 54.7274Z" fill="#263238"/>
<path d="M43.4956 67.6682C43.7879 68.3054 44.2033 68.8785 44.718 69.3545C45.2327 69.8305 45.8365 70.2 46.4945 70.4416C48.2074 71.0512 49.3472 68.2899 48.8961 66.4918C48.6844 65.674 48.1854 64.9597 47.4904 64.4796C46.7953 63.9994 45.9507 63.7855 45.1109 63.8768C43.4285 64.078 42.7337 66.0468 43.4956 67.6682Z" fill="#B97964"/>
<path d="M49.4204 52.8928C48.7255 55.0506 46.7932 54.9531 45.5802 56.867C44.3673 58.781 43.6663 61.4142 45.0134 63.2367C45.4492 63.714 45.8563 64.2167 46.2325 64.7423C47.1224 66.321 46.1106 68.2655 46.074 70.0758C46.074 71.7581 45.9521 73.7331 47.2931 74.6352C47.8454 75.0097 48.2997 75.5113 48.6179 76.0979C48.9361 76.6844 49.1089 77.3388 49.1217 78.006C49.1217 78.4326 47.8112 81.3219 47.7441 81.7364C47.6527 82.3459 49.3655 80.4441 49.9751 80.5173C50.1934 80.549 50.4163 80.5156 50.6158 80.4213C50.8153 80.327 50.9826 80.1759 51.0966 79.987C51.1332 79.9199 51.1637 79.8529 51.1941 79.7858C51.7121 78.7756 52.0014 77.6638 52.0414 76.5292C52.0815 75.3947 51.8713 74.2652 51.4258 73.221C50.9016 72.002 50.3286 70.8621 49.8105 69.6674C49.219 68.4929 48.9939 67.1678 49.1644 65.8639C49.7312 62.9381 56.6983 56.3306 51.1454 50.9666C51.0729 50.8933 50.9742 50.8517 50.8711 50.8508C50.6423 50.8762 50.4234 50.9579 50.234 51.0888C50.0446 51.2197 49.8907 51.3955 49.7861 51.6006C49.6166 52.0164 49.494 52.4498 49.4204 52.8928Z" fill="#263238"/>
<path d="M59.7399 64.9248C60.2044 66.3835 60.8171 67.7908 61.5685 69.1246C61.6101 69.1925 61.6353 69.2693 61.642 69.3487C61.6487 69.4281 61.6368 69.5079 61.6072 69.5819C61.5776 69.6559 61.5311 69.722 61.4715 69.7748C61.4119 69.8277 61.3408 69.8659 61.2638 69.8865C60.6726 70.01 60.0587 69.9678 59.49 69.7646L59.7399 64.9248Z" fill="#A24E3F"/>
<path d="M59.1303 71.5693C58.6604 72.1474 58.2327 72.7585 57.8503 73.3979L57.4785 73.2577C55.8144 72.5872 55.2658 71.7278 55.1561 70.9719C55.1152 70.6048 55.1612 70.2331 55.2902 69.887C55.3564 69.6876 55.4508 69.4987 55.5706 69.3262C56.2411 70.21 57.7467 70.9536 58.5635 71.3133C58.8804 71.49 59.1303 71.5693 59.1303 71.5693Z" fill="#263238"/>
<path d="M58.5209 71.3316L58.1308 71.868C56.5642 71.2584 55.5463 70.5758 55.2476 69.9053C55.3138 69.7059 55.4082 69.517 55.528 69.3445C56.2168 70.2283 57.7224 70.972 58.5209 71.3316Z" fill="white"/>
<path d="M57.4541 73.276C55.7901 72.6055 55.2415 71.7461 55.1318 70.9902C55.7611 71.2575 56.3388 71.6329 56.8385 72.0996C57.1626 72.417 57.3781 72.8288 57.4541 73.276Z" fill="#DE5753"/>
<path d="M54.0529 62.2611C54.0188 62.2877 53.9793 62.3064 53.9371 62.3159C53.895 62.3253 53.8512 62.3254 53.8091 62.3159C53.7266 62.3002 53.6528 62.2546 53.6018 62.1879C53.5483 62.1195 53.5235 62.0329 53.5326 61.9465C53.5417 61.86 53.584 61.7805 53.6506 61.7247C54.0411 61.4109 54.5044 61.2007 54.9977 61.1133C55.4909 61.0259 55.9982 61.0643 56.4728 61.2249C56.5532 61.2587 56.6186 61.3207 56.6567 61.3992C56.6948 61.4777 56.7031 61.5674 56.68 61.6515C56.6671 61.6912 56.6463 61.7277 56.6187 61.7589C56.5911 61.7902 56.5575 61.8154 56.5198 61.8331C56.4821 61.8508 56.4411 61.8606 56.3995 61.8619C56.3579 61.8631 56.3164 61.8559 56.2777 61.8405C55.9011 61.7206 55.5005 61.6963 55.1122 61.7697C54.7238 61.8431 54.3598 62.012 54.0529 62.2611ZM64.0006 61.7003C63.6297 61.4103 63.1902 61.2209 62.7246 61.1504C62.259 61.08 61.7832 61.1308 61.343 61.298C61.2738 61.3387 61.2235 61.4051 61.2029 61.4827C61.1824 61.5603 61.1933 61.6429 61.2333 61.7125C61.2644 61.7867 61.3231 61.8459 61.397 61.8777C61.4709 61.9096 61.5542 61.9115 61.6295 61.8832C61.9807 61.7539 62.3593 61.7174 62.7288 61.7772C63.0982 61.837 63.446 61.9911 63.7385 62.2245C63.7721 62.2473 63.81 62.2628 63.8498 62.2702C63.8897 62.2775 63.9307 62.2765 63.9701 62.2672C64.0047 62.2598 64.0371 62.2443 64.0647 62.2221C64.0922 62.1999 64.1141 62.1714 64.1286 62.1392C64.1633 62.0634 64.1701 61.9778 64.1478 61.8975C64.1255 61.8172 64.0755 61.7474 64.0067 61.7003H64.0006Z" fill="#263238"/>
<path d="M55.5889 63.7184C55.3887 63.833 55.2251 64.0022 55.1172 64.2061C55.0093 64.41 54.9615 64.6404 54.9794 64.8704C54.9794 65.5714 55.2841 66.1748 55.7169 66.2236C56.1497 66.2724 56.5276 65.736 56.552 65.0045C56.5742 64.6348 56.4782 64.2675 56.2777 63.9561C56.5995 63.8594 56.8884 63.6759 57.1128 63.4258L55.5645 63.6574L55.5889 63.7184ZM62.172 64.2609C61.8062 64.334 61.5197 64.8034 61.4954 65.4007C61.471 65.9981 61.8001 66.6685 62.2329 66.7112C62.6657 66.7539 63.0375 66.2419 63.0619 65.5653C63.0828 65.2118 62.9887 64.8612 62.7937 64.5656C63.151 64.4888 63.4738 64.2985 63.7141 64.0231L62.1659 64.2548L62.172 64.2609Z" fill="#263238"/>
<path d="M36.9979 250.568L37.6806 251.531L39.0155 250.921L39.8566 255.09L45.5619 263.063C45.5619 263.063 47.7319 263.411 46.0191 258.882C45.9408 258.66 45.8817 258.431 45.8423 258.199C45.3364 255.487 46.4519 250.275 46.4519 250.275L43.3188 245.905C43.0244 245.918 42.7312 245.951 42.4411 246.002C41.161 246.246 38.5644 246.88 36.9979 250.568Z" fill="#D24347"/>
<path opacity="0.2" d="M36.9979 250.568L37.6806 251.531L39.0155 250.921L39.8566 255.09L45.5619 263.063C45.5619 263.063 47.7319 263.411 46.0191 258.882C45.9408 258.66 45.8817 258.431 45.8423 258.199C45.3364 255.487 46.4519 250.275 46.4519 250.275L43.3188 245.905C43.0244 245.918 42.7312 245.951 42.4411 246.002C41.161 246.246 38.5644 246.88 36.9979 250.568Z" fill="black"/>
<path d="M42.4594 246.045C43.5139 246.16 42.5935 250.83 43.0141 253.444C43.3981 255.779 44.4038 257.986 45.8789 258.217C45.373 255.505 47.2016 249.336 47.2016 249.336L44.6842 245.819C44.6842 245.819 43.0141 245.941 42.4594 246.045Z" fill="#A24E3F"/>
<path d="M45.7204 262.777H46.8786L47.2016 261.332L51.06 263.112H60.8127C60.8127 263.112 62.361 261.539 57.7162 260.29C57.4912 260.225 57.2728 260.14 57.064 260.034C54.5832 258.863 51.06 254.914 51.06 254.914H45.7204C45.5563 255.161 45.4096 255.42 45.2816 255.688C44.6903 256.846 43.6846 259.333 45.7204 262.777Z" fill="#2D2F82"/>
<path d="M45.2755 255.657C45.9825 254.865 49.1948 258.351 51.5476 259.534C53.6506 260.588 56.0156 261.058 57.0335 259.985C54.5832 258.845 50.6577 253.457 50.6577 253.457L46.3543 253.591C46.3543 253.591 45.5254 255.151 45.2755 255.657Z" fill="#B97964"/>
<path d="M80.4095 183.999V183.926L76.3987 159.611C74.9785 148.676 70.1997 129.622 70.1997 129.622L68.1516 121.966H48.9449C48.9422 122.009 48.9422 122.051 48.9449 122.094L42.3801 121.966C42.3801 121.966 33.5296 127.994 34.6938 149.859C35.1814 158.947 38.3023 181.762 38.0097 185.261C34.5841 212.081 41.3561 253.914 41.3561 253.914L51.4319 253.42C51.3831 252.597 51.3526 251.628 51.3404 250.537C51.4518 250.549 51.5642 250.549 51.6757 250.537C53.1142 246.575 55.4183 240.876 58.2465 234.347C60.9346 228.161 64.0799 221.242 67.3897 214.342C69.9254 209.112 74.5457 203.37 77.1424 198.494C79.5422 194.054 80.6726 189.039 80.4095 183.999ZM54.5893 208.552C54.0407 210.063 53.5226 211.599 53.0228 213.099C54.0407 197.799 55.1379 184.334 55.1379 184.334C55.3939 180.921 56.235 173.972 57.2774 165.926C59.1852 172.558 61.5442 179.976 64.3968 188.223C60.4957 194.044 57.2469 201.237 54.5893 208.552Z" fill="#263238"/>
<path opacity="0.2" d="M53.0349 213.129C53.5347 211.618 54.0529 210.082 54.6014 208.582C55.9546 216.159 57.4724 225.735 58.2587 234.384C55.4304 240.912 53.1263 246.612 51.6878 250.574C51.5764 250.586 51.464 250.586 51.3526 250.574C51.249 242.296 52.1023 226.948 53.0349 213.129ZM59.685 148.152C58.8317 154.351 57.9478 160.873 57.1859 166.749C58.088 169.053 59.0511 171.589 59.9654 174.643C63.3118 158.24 60.575 147.213 60.575 147.213C60.2885 147.445 59.9898 147.768 59.6728 148.122L59.685 148.152ZM34.5963 144.007V146.592L48.9571 148.298L50.5541 123.191L34.5963 144.007Z" fill="black"/>
<path d="M69.773 96.1765C69.456 91.355 63.6227 84.5342 63.6227 84.5342C63.2997 84.4976 61.148 84.4672 60.8188 84.4306L59.7948 84.3514L57.0275 80.5478L55.589 82.986L51.249 79.7798L48.9084 80.8831L50.0543 84.2477C48.5731 84.3392 47.0066 84.4611 45.3913 84.5952C44.7818 84.65 44.1722 84.7049 43.5992 84.778C43.0263 84.8512 37.7598 84.9731 37.7598 84.9731C37.7598 84.9731 35.6142 89.4715 36.876 93.4579C40.771 105.722 43.0324 117.395 43.581 123.764L67.5908 123.332C67.8834 117.181 71.053 110.812 71.0835 106.441C71.242 100.029 69.9437 98.8707 69.773 96.1765Z" fill="white"/>
<path d="M51.3404 112.073C51.4867 109.269 51.5781 106.654 51.5781 104.405C52.3888 87.7585 48.9998 81.0596 48.9998 81.0596L48.9083 80.9072C48.2378 81.4436 47.1224 82.2238 46.1471 82.876L39.3629 83.7111C35.5045 84.3694 27.2269 101.656 23.9476 110.184C22.954 112.774 25.1666 116.09 27.0684 116.62C29.0982 117.181 34.9925 117.742 40.6185 118.181L31.2377 144.452L48.1586 146.232C48.1586 146.232 49.8836 132.06 50.8893 118.894L52.9801 119.016L53.7969 112.585L51.3404 112.073ZM35.4252 108.739L38.4059 104.216C38.7655 105.618 39.1374 107.038 39.5031 108.416C39.625 108.873 39.7408 109.281 39.8505 109.635L35.4252 108.739Z" fill="#2D2F82"/>
<path d="M86.194 99.4984C85.6436 98.5839 85.4281 97.5065 85.5845 96.4507C85.9441 94.9634 85.8344 93.6834 86.194 92.5923C86.5537 91.5012 87.1449 92.9214 87.3156 93.7382C87.4863 94.555 87.6935 95.4754 88.2848 95.2499C88.876 95.0244 92.32 90.7819 93.1611 90.5625C94.0023 90.3431 93.6731 91.172 93.6731 91.172C93.6731 91.172 94.5387 90.1663 95.0263 90.3979C95.1543 90.4589 95.3555 90.8063 95.0263 91.3305C94.2888 92.5252 92.6552 94.8781 92.6552 94.8781C92.7466 94.7379 94.9897 91.9462 95.3799 91.5743C95.8919 91.0867 96.3795 91.1111 96.6538 91.4159C97.0439 91.8547 94.3863 95.4084 94.3741 95.6339C94.3741 95.6339 95.837 93.5371 96.5867 93.6224C97.3365 93.7077 96.4892 95.0731 95.5079 96.1398C94.6118 97.1151 93.1124 99.2729 92.1005 100.175C90.8814 101.29 89.7721 101.76 88.3396 101.132C87.4962 100.78 86.7573 100.218 86.194 99.4984Z" fill="#B97964"/>
<path opacity="0.3" d="M91.6129 94.0188C91.585 94.0269 91.5554 94.0269 91.5276 94.0188C91.5111 94.0072 91.497 93.9925 91.4863 93.9755C91.4755 93.9585 91.4682 93.9396 91.4648 93.9198C91.4614 93.8999 91.462 93.8796 91.4665 93.86C91.471 93.8404 91.4793 93.8218 91.491 93.8055C92.1005 92.9216 92.7101 92.0561 93.3989 91.2332C93.4125 91.2186 93.4291 91.207 93.4474 91.199C93.4657 91.1911 93.4855 91.187 93.5055 91.187C93.5255 91.187 93.5453 91.1911 93.5636 91.199C93.582 91.207 93.5985 91.2186 93.6122 91.2332C93.6401 91.2617 93.6558 91.3 93.6558 91.3399C93.6558 91.3797 93.6401 91.418 93.6122 91.4465C92.9478 92.2572 92.3078 93.1167 91.7165 93.9944C91.6858 94.0142 91.6492 94.0229 91.6129 94.0188Z" fill="black"/>
<path opacity="0.3" d="M93.8255 96.6458C93.8008 96.6468 93.7763 96.6418 93.754 96.6312C93.7317 96.6206 93.7123 96.6047 93.6975 96.5849C92.911 95.4812 91.8172 94.6332 90.5523 94.1467C90.5143 94.1322 90.4836 94.1031 90.467 94.066C90.4505 94.0288 90.4493 93.9866 90.4639 93.9486C90.4784 93.9106 90.5075 93.88 90.5446 93.8634C90.5818 93.8468 90.624 93.8457 90.662 93.8602C91.9807 94.3675 93.1226 95.2488 93.9474 96.3959C93.9591 96.4123 93.9674 96.4308 93.9719 96.4505C93.9764 96.4701 93.977 96.4904 93.9736 96.5102C93.9702 96.5301 93.9629 96.549 93.9521 96.566C93.9414 96.583 93.9273 96.5977 93.9108 96.6093C93.8874 96.6308 93.8573 96.6437 93.8255 96.6458Z" fill="black"/>
<path opacity="0.3" d="M88.5652 99.1449C88.5305 99.1442 88.4966 99.1336 88.4677 99.1144C88.4398 99.0859 88.4241 99.0476 88.4241 99.0077C88.4241 98.9678 88.4398 98.9295 88.4677 98.9011C88.7873 98.4777 88.9488 97.956 88.9243 97.4261C88.8998 96.8963 88.6909 96.3917 88.3336 95.9996C88.3172 95.9855 88.304 95.9679 88.2949 95.9483C88.2858 95.9286 88.281 95.9072 88.2808 95.8855C88.2807 95.8638 88.2851 95.8424 88.2939 95.8226C88.3027 95.8027 88.3156 95.785 88.3318 95.7706C88.348 95.7562 88.367 95.7454 88.3877 95.7389C88.4084 95.7324 88.4302 95.7304 88.4518 95.7331C88.4733 95.7357 88.494 95.7429 88.5125 95.7542C88.531 95.7655 88.5469 95.7806 88.5591 95.7985C88.9609 96.2438 89.1958 96.8148 89.2236 97.4139C89.2514 98.0131 89.0704 98.6033 88.7115 99.0839C88.6951 99.1065 88.6727 99.1242 88.6469 99.1349C88.6211 99.1457 88.5928 99.1491 88.5652 99.1449Z" fill="black"/>
<path d="M70.3093 120.107C71.4736 121.533 72.8816 122.423 74.5274 121.984C76.3011 121.509 90.8509 102.296 90.8509 102.296L84.6214 97.3162L74.7529 106.459C74.7529 106.459 73.607 97.2736 71.6077 91.2939C71.0573 89.6427 70.1844 88.1173 69.0397 86.8062C67.8949 85.4951 66.5012 84.4244 64.9393 83.6564L64.5857 83.4796L61.7879 83.2907L61.5319 83.12C60.1909 82.2118 57.5577 80.8342 57.2103 80.9439L57.9112 81.7729L57.8198 81.7363C57.8198 81.7363 58.277 82.2849 58.9962 83.2114C62.1476 87.4782 68.4563 96.5299 68.499 100.888C68.5539 106.484 68.6087 107.721 68.6087 107.721C68.1759 113.341 67.1946 119.693 67.3896 122.009C67.9138 128.104 70.6141 135.608 74.0946 146.573L76.4109 146.244L70.035 121.978C70.035 121.978 70.1326 121.265 70.3093 120.107Z" fill="#2D2F82"/>
<path opacity="0.3" d="M68.4685 100.876C68.4076 95.0794 57.2103 80.9075 57.2103 80.9075C57.5577 80.7978 60.1909 82.1754 61.5319 83.0836C63.4947 84.4124 65.6098 85.7107 65.6098 85.7107L65.0368 89.6606L69.4194 92.9033C69.4194 92.9033 69.4804 95.7865 69.7425 99.651C69.8116 102.383 69.4179 105.108 68.5782 107.709C68.5782 107.709 68.5234 106.46 68.4685 100.876ZM71.8149 121.698V105.85L70.3093 120.132C70.7581 120.702 71.2625 121.227 71.8149 121.698Z" fill="black"/>
<path opacity="0.2" d="M41.3012 99.8701C41.5755 101.979 41.6304 104.631 40.7587 106.868C40.5303 107.502 40.1026 108.045 39.5397 108.416C39.1739 107.038 38.8021 105.618 38.4425 104.216L41.3012 99.8701ZM48.9083 80.9072C47.5369 82.0166 44.2697 84.1134 44.2697 84.1134L47.3174 90.2088L45.0194 93.9393L51.3709 107.593C52.8155 88.5997 48.9937 81.0535 48.9937 81.0535L48.9083 80.9072ZM35.4252 108.739C35.4252 108.739 32.7006 108.312 30.9756 109.757C30.9756 109.757 32.8042 106.776 36.1811 107.599L35.4252 108.739ZM50.8893 118.894L40.6064 118.193L39.9968 119.894L50.7004 121.253L50.8893 118.894Z" fill="black"/>
<path opacity="0.3" d="M60.1788 84.8752L58.9414 87.9291L55.8815 84.8752L53.7969 88.4594L50.6821 86.9355L53.998 89.5626L55.9181 85.6372L59.4351 88.947L60.1788 84.8752Z" fill="black"/>
<path d="M62.9644 113.396L61.0139 111.86C60.7947 111.688 60.5378 111.571 60.2644 111.518C59.9909 111.465 59.7088 111.478 59.4413 111.555L53.7177 113.207L52.9801 119.016H52.657C53.6689 121.692 58.9536 119.382 58.9536 119.382L60.2641 120.217C61.3247 120.887 63.8482 120.144 64.0616 118.9L64.214 115.712C64.3237 115.048 63.4764 113.804 62.9644 113.396Z" fill="#B97964"/>
</svg>
