<svg width="14" height="14" viewBox="0 0 14 14" fill="none" xmlns="http://www.w3.org/2000/svg">
<path d="M5.2828 13.0392C5.886 13.2215 6.49548 13.3283 7.14266 13.3283C8.80908 13.3283 10.4073 12.6663 11.5856 11.4879C12.7639 10.3096 13.4259 8.71143 13.4259 7.045C13.4259 6.21987 13.2634 5.40281 12.9476 4.64049C12.6319 3.87817 12.1691 3.18551 11.5856 2.60205C11.0021 2.01859 10.3095 1.55577 9.54716 1.24001C8.78484 0.924241 7.96779 0.761719 7.14266 0.761719C6.31752 0.761719 5.50047 0.924241 4.73815 1.24001C3.97583 1.55577 3.28316 2.01859 2.69971 2.60205C1.52136 3.78039 0.859375 5.37857 0.859375 7.045C0.859375 9.71539 2.53701 12.0088 4.90581 12.9136C4.84926 12.4235 4.79271 11.6129 4.90581 11.0537L5.62838 7.94979C5.62838 7.94979 5.44617 7.58536 5.44617 7.0073C5.44617 6.14021 5.98653 5.49303 6.60229 5.49303C7.14266 5.49303 7.39399 5.88888 7.39399 6.39782C7.39399 6.93818 7.03584 7.71103 6.85362 8.45245C6.74681 9.06822 7.18036 9.60858 7.80868 9.60858C8.92711 9.60858 9.7942 8.41475 9.7942 6.73083C9.7942 5.22285 8.71348 4.19239 7.1615 4.19239C5.38962 4.19239 4.3466 5.51188 4.3466 6.90048C4.3466 7.44085 4.52253 7.98749 4.81156 8.34564C4.86811 8.38334 4.86811 8.4336 4.84926 8.52785L4.66704 9.21273C4.66704 9.31955 4.59793 9.35725 4.49111 9.28185C3.68685 8.92998 3.22189 7.78643 3.22189 6.86278C3.22189 4.87727 4.62934 3.07397 7.34372 3.07397C9.50517 3.07397 11.1891 4.62594 11.1891 6.68685C11.1891 8.8483 9.85075 10.5825 7.93435 10.5825C7.32487 10.5825 6.72796 10.2558 6.51433 9.87247L6.09335 11.3616C5.94883 11.902 5.55299 12.6246 5.2828 13.0581V13.0392Z" fill="#121416"/>
</svg>
