<svg width="40" height="40" viewBox="0 0 40 40" fill="none" xmlns="http://www.w3.org/2000/svg">
<path d="M27.5251 17.818C27.0905 17.818 26.7383 18.1703 26.7383 18.6048V18.6093C26.7383 19.0439 27.0905 19.3939 27.5251 19.3939C27.9596 19.3939 28.3119 19.0393 28.3119 18.6047C28.3119 18.1701 27.9596 17.818 27.5251 17.818Z" fill="black"/>
<path d="M14.447 4.88182H20.0252C20.4597 4.88182 20.812 4.52956 20.812 4.09502C20.812 3.66049 20.4597 3.30823 20.0252 3.30823H14.447C14.0124 3.30823 13.6602 3.66049 13.6602 4.09502C13.6602 4.52956 14.0124 4.88182 14.447 4.88182Z" fill="black"/>
<path d="M35.952 26.8352C35.1723 26.007 34.1579 25.5691 33.0184 25.5688C33.018 25.5688 33.0179 25.5688 33.0175 25.5688C32.6498 25.5688 32.2719 25.6177 31.8934 25.7085V4.50484C31.8934 3.39305 30.9873 2.48852 29.8735 2.48852H25.6863C25.7002 2.31586 25.7076 2.14188 25.7076 1.96656C25.7076 0.882188 24.6938 0 23.4475 0H11.024C9.77648 0 8.76164 0.882188 8.76164 1.96656C8.76164 2.14188 8.76898 2.31586 8.78297 2.48852H4.5957C3.4832 2.48852 2.57812 3.39297 2.57812 4.50484V36.348C2.57812 37.4598 3.4832 38.3643 4.5957 38.3643H26.3748L26.8392 38.8573C26.8546 38.8737 26.8707 38.8895 26.8874 38.9044C27.7041 39.6348 28.5048 40 29.3009 40C30.1095 40 30.9136 39.623 31.724 38.8691C31.7366 38.8573 31.7489 38.8451 31.7609 38.8325L35.9521 34.3829C37.9119 32.3006 37.9117 28.9146 35.952 26.8352ZM25.3537 4.06211H29.8736C30.1155 4.06211 30.3198 4.26484 30.3198 4.50484V26.3347C29.9603 26.537 29.6137 26.7748 29.2906 27.0454C28.9812 26.7838 28.6523 26.5542 28.3122 26.3575V21.9628C28.3122 21.5283 27.9599 21.176 27.5254 21.176C27.0909 21.176 26.7386 21.5283 26.7386 21.9628V25.7163C26.3496 25.6213 25.9588 25.5709 25.5751 25.5709C24.4238 25.5709 23.4038 26.008 22.6254 26.8352C22.3638 27.1132 22.1384 27.415 21.9467 27.7334H17.8375C17.403 27.7334 17.0507 28.0857 17.0507 28.5202C17.0507 28.9548 17.403 29.307 17.8375 29.307H21.3083C21.002 30.6108 21.1646 32.014 21.7945 33.213H7.73305V7.63977H12.0516C13.5034 8.55836 15.3059 9.05727 17.2346 9.05727C19.164 9.05727 20.9668 8.55836 22.4186 7.63977H26.7384V15.2468C26.7384 15.6813 27.0907 16.0336 27.5252 16.0336C27.9598 16.0336 28.312 15.6813 28.312 15.2468V6.85289C28.312 6.41836 27.9598 6.06609 27.5252 6.06609H24.218C24.7202 5.45594 25.1023 4.78086 25.3537 4.06211ZM11.024 1.57367H23.4475C23.8602 1.57367 24.134 1.81016 24.134 1.96656C24.134 2.35703 24.088 2.73547 24.0005 3.09906C23.999 3.10547 23.997 3.11172 23.9957 3.1182C23.6931 4.35148 22.9069 5.41016 21.789 6.17664C21.7566 6.19586 21.7255 6.21688 21.6964 6.24039C20.5102 7.02344 18.9663 7.48359 17.2346 7.48359C15.5102 7.48359 13.9718 7.02758 12.7876 6.25047C12.749 6.21805 12.7073 6.18937 12.663 6.16477C11.5599 5.4032 10.783 4.35586 10.4786 3.13703C10.4733 3.10719 10.4667 3.07773 10.4581 3.04922C10.3781 2.70086 10.3352 2.33938 10.3352 1.96664C10.3352 1.81016 10.6099 1.57367 11.024 1.57367ZM4.5957 36.7907C4.35086 36.7907 4.15172 36.5921 4.15172 36.348V4.50484C4.15172 4.26078 4.35086 4.06211 4.5957 4.06211H9.11578C9.36719 4.78086 9.74945 5.45586 10.2519 6.06609H6.94625C6.51172 6.06609 6.15945 6.41836 6.15945 6.85289V33.9998C6.15945 34.4344 6.51172 34.7866 6.94625 34.7866H23.0056L24.8929 36.7906L4.5957 36.7907ZM34.8065 33.3041L30.6338 37.734C29.6384 38.6526 28.9825 38.6577 27.9609 37.7532C27.9609 37.7532 23.9131 33.4527 23.8902 33.4308L23.7714 33.3047C22.6535 32.1152 22.4305 30.3308 23.1004 28.9039C23.1166 28.8751 23.1309 28.8451 23.1433 28.8141C23.3056 28.4903 23.5146 28.1862 23.7711 27.9136C24.2515 27.4031 24.8584 27.1444 25.5749 27.1444C26.0404 27.1444 26.5348 27.2583 27.018 27.4659C27.1179 27.5502 27.2388 27.6102 27.372 27.6366C27.8562 27.8941 28.3184 28.2434 28.7157 28.6655C28.8644 28.8234 29.0716 28.913 29.2884 28.913H29.2887C29.5055 28.913 29.7127 28.8236 29.8613 28.6659C30.7334 27.7403 31.9721 27.1424 33.0175 27.1424H33.0181C33.7229 27.1426 34.3246 27.4021 34.8066 27.9141C36.2061 29.3991 36.2059 31.8172 34.8065 33.3041Z" fill="black"/>
<path d="M14.6637 10.8597H11.1345C10.6999 10.8597 10.3477 11.212 10.3477 11.6465V15.1721C10.3477 15.6066 10.6999 15.9589 11.1345 15.9589H14.6637C15.0982 15.9589 15.4505 15.6066 15.4505 15.1721V11.6465C15.4505 11.212 15.0982 10.8597 14.6637 10.8597ZM13.8769 14.3853H11.9212V12.4334H13.8769V14.3853Z" fill="black"/>
<path d="M23.2238 12.6213H17.904C17.4695 12.6213 17.1172 12.9736 17.1172 13.4081C17.1172 13.8427 17.4695 14.1949 17.904 14.1949H23.2238C23.6584 14.1949 24.0106 13.8427 24.0106 13.4081C24.0106 12.9736 23.6584 12.6213 23.2238 12.6213Z" fill="black"/>
<path d="M14.6011 18.4156H11.072C10.6374 18.4156 10.2852 18.7679 10.2852 19.2024V22.728C10.2852 23.1625 10.6374 23.5148 11.072 23.5148H14.6011C15.0356 23.5148 15.3879 23.1625 15.3879 22.728V19.2024C15.3879 18.7679 15.0356 18.4156 14.6011 18.4156ZM13.8143 21.9412H11.8587V19.9892H13.8143V21.9412Z" fill="black"/>
<path d="M23.1566 20.1774H18.3083C17.8737 20.1774 17.5215 20.5296 17.5215 20.9642C17.5215 21.3987 17.8737 21.751 18.3083 21.751H23.1566C23.5912 21.751 23.9434 21.3987 23.9434 20.9642C23.9434 20.5296 23.5911 20.1774 23.1566 20.1774Z" fill="black"/>
<path d="M14.6011 25.9695H11.072C10.6374 25.9695 10.2852 26.3217 10.2852 26.7563V30.2818C10.2852 30.7164 10.6374 31.0686 11.072 31.0686H14.6011C15.0356 31.0686 15.3879 30.7164 15.3879 30.2818V26.7563C15.3879 26.3217 15.0356 25.9695 14.6011 25.9695ZM13.8143 29.495H11.8587V27.5431H13.8143V29.495Z" fill="black"/>
</svg>
