<svg width="61" height="60" viewBox="0 0 61 60" fill="none" xmlns="http://www.w3.org/2000/svg">
<path d="M39.8305 0C28.4334 0 19.161 9.27225 19.161 20.6695C19.161 25.3591 20.7319 29.688 23.3736 33.1601L19.1864 37.3473C19.1598 37.3738 19.1356 37.4018 19.1127 37.4306C18.7699 37.3592 18.4177 37.3217 18.0595 37.3217C16.6923 37.3217 15.4068 37.8542 14.4397 38.8213L1.99922 51.2618C1.03235 52.2284 0.5 53.5138 0.5 54.8811C0.5 56.2484 1.03235 57.5339 1.99909 58.5003C2.96621 59.4674 4.25174 59.9999 5.61891 59.9999C6.98608 59.9999 8.2716 59.4674 9.23873 58.5003L21.6792 46.0598C22.646 45.0933 23.1784 43.8079 23.1784 42.4405C23.1784 42.0822 23.1409 41.7298 23.0695 41.3871C23.0983 41.3643 23.1262 41.34 23.1527 41.3135L27.3398 37.1264C30.812 39.7682 35.1409 41.339 39.8305 41.339C51.2276 41.339 60.5 32.0668 60.5 20.6695C60.5 9.27225 51.2276 0 39.8305 0ZM7.86404 57.1258C7.26418 57.7257 6.46694 58.056 5.61891 58.056C4.77088 58.056 3.97364 57.7257 3.37364 57.1257C2.77403 56.5264 2.44384 55.7293 2.44384 54.8811C2.44384 54.0329 2.77403 53.2358 3.37377 52.6363L14.6089 41.4012L19.0988 45.8911L7.86404 57.1258ZM20.4665 44.5098L15.992 40.0353C16.5849 39.5253 17.3213 39.2674 18.0595 39.2674C18.8725 39.2674 19.6858 39.577 20.3048 40.196C20.9044 40.7954 21.2346 41.5925 21.2346 42.4406C21.2346 43.2086 20.9629 43.9343 20.4665 44.5098ZM22.236 39.4813C22.0704 39.2486 21.8854 39.0274 21.6793 38.8215C21.473 38.6153 21.2515 38.4301 21.0187 38.2644L24.6266 34.6565C25.0153 35.0788 25.4215 35.4849 25.8438 35.8737L22.236 39.4813ZM39.8305 39.3952C29.5051 39.3952 21.1048 30.9949 21.1048 20.6695C21.1048 10.3441 29.5051 1.94384 39.8305 1.94384C50.1559 1.94384 58.5562 10.3441 58.5562 20.6695C58.5562 30.9949 50.1559 39.3952 39.8305 39.3952Z" fill="#D24347"/>
<path d="M39.8305 4.14697C30.7199 4.14697 23.3079 11.559 23.3079 20.6696C23.3079 29.7803 30.7199 37.1923 39.8305 37.1923C48.9412 37.1923 56.3531 29.7803 56.3531 20.6696C56.3531 11.559 48.9412 4.14697 39.8305 4.14697ZM39.8305 35.2484C31.7918 35.2484 25.2517 28.7084 25.2517 20.6696C25.2517 12.6308 31.7918 6.09081 39.8305 6.09081C47.8692 6.09081 54.4093 12.6308 54.4093 20.6696C54.4093 28.7084 47.8692 35.2484 39.8305 35.2484Z" fill="#D24347"/>
<path d="M46.5793 10.2943C46.1297 10.0012 45.5276 10.128 45.2345 10.5779C44.9413 11.0275 45.0683 11.6297 45.518 11.9227C48.4887 13.8588 50.2623 17.1286 50.2623 20.6695C50.2623 23.0885 49.4155 25.4462 47.878 27.3078C47.5361 27.7216 47.5945 28.3343 48.0085 28.6762C48.1896 28.8258 48.4089 28.8987 48.6269 28.8987C48.9068 28.8987 49.1846 28.7783 49.3768 28.5457C51.2013 26.3366 52.2061 23.5394 52.2061 20.6696C52.2062 16.4691 50.1027 12.5906 46.5793 10.2943Z" fill="#D24347"/>
<path d="M42.0796 8.4978C41.3425 8.36238 40.5858 8.2937 39.8306 8.2937C39.2937 8.2937 38.8586 8.72886 38.8586 9.26562C38.8586 9.80238 39.2937 10.2375 39.8306 10.2375C40.4684 10.2375 41.1069 10.2955 41.7284 10.4096C41.7879 10.4205 41.8468 10.4258 41.9052 10.4258C42.3651 10.4258 42.7738 10.0978 42.86 9.62938C42.9569 9.10143 42.6075 8.59487 42.0796 8.4978Z" fill="#D24347"/>
</svg>
