<svg width="18" height="18" viewBox="0 0 18 18" fill="none" xmlns="http://www.w3.org/2000/svg">
<path d="M16.8562 1.14842C16.4395 0.722586 15.8229 0.565086 15.2479 0.731753L1.83954 4.60592C1.23287 4.77425 0.80287 5.25509 0.687037 5.86509C0.568704 6.48675 0.982037 7.27675 1.52204 7.60675L5.71454 10.1668C6.14454 10.4301 6.69954 10.3643 7.05537 10.0076L11.8562 5.20675C12.0979 4.95592 12.4979 4.95592 12.7395 5.20675C12.9812 5.44759 12.9812 5.84009 12.7395 6.09009L7.93037 10.8909C7.5737 11.2476 7.50704 11.8009 7.76954 12.2318L10.3312 16.4401C10.6312 16.9393 11.1479 17.2234 11.7145 17.2234C11.7812 17.2234 11.8562 17.2234 11.9229 17.2143C12.5729 17.1318 13.0895 16.6893 13.2812 16.0643L17.2562 2.75675C17.4312 2.19009 17.2729 1.57342 16.8562 1.14842Z" fill="#D24347"/>
<path opacity="0.4" d="M6.87618 14.9515C7.11951 15.1957 7.11951 15.5915 6.87618 15.8357L5.73785 16.9732C5.61618 17.0957 5.45618 17.1565 5.29618 17.1565C5.13618 17.1565 4.97618 17.0957 4.85451 16.9732C4.61035 16.729 4.61035 16.334 4.85451 16.0898L5.99201 14.9515C6.23618 14.7082 6.63201 14.7082 6.87618 14.9515ZM6.2231 11.7948C6.46643 12.039 6.46643 12.4348 6.2231 12.679L5.08476 13.8165C4.9631 13.939 4.8031 13.9998 4.6431 13.9998C4.4831 13.9998 4.3231 13.939 4.20143 13.8165C3.95726 13.5723 3.95726 13.1773 4.20143 12.9332L5.33893 11.7948C5.5831 11.5515 5.97893 11.5515 6.2231 11.7948ZM3.08876 10.8012C3.3321 11.0453 3.3321 11.4412 3.08876 11.6853L1.95043 12.8228C1.82876 12.9453 1.66876 13.0062 1.50876 13.0062C1.34876 13.0062 1.18876 12.9453 1.0671 12.8228C0.822931 12.5787 0.822931 12.1837 1.0671 11.9395L2.2046 10.8012C2.44876 10.5578 2.8446 10.5578 3.08876 10.8012Z" fill="#D24347"/>
</svg>
