<svg width="61" height="60" viewBox="0 0 61 60" fill="none" xmlns="http://www.w3.org/2000/svg">
<path d="M55.6857 4.36548H48.0168C47.5315 4.36548 47.1379 4.75899 47.1379 5.24438C47.1379 5.72978 47.5315 6.12329 48.0168 6.12329H55.6857C56.1711 6.12329 56.5646 5.72978 56.5646 5.24438C56.5646 4.75899 56.1712 4.36548 55.6857 4.36548Z" fill="#D24347"/>
<path d="M43.6621 6.12329H44.5969C45.0823 6.12329 45.4758 5.72978 45.4758 5.24438C45.4758 4.75899 45.0823 4.36548 44.5969 4.36548H43.6621C43.1767 4.36548 42.7832 4.75899 42.7832 5.24438C42.7832 5.72978 43.1767 6.12329 43.6621 6.12329Z" fill="#D24347"/>
<path d="M43.6621 10.252H55.686C56.1714 10.252 56.5649 9.85844 56.5649 9.37305C56.5649 8.88766 56.1714 8.49414 55.686 8.49414H43.6621C43.1767 8.49414 42.7832 8.88766 42.7832 9.37305C42.7832 9.85844 43.1767 10.252 43.6621 10.252Z" fill="#D24347"/>
<path d="M46.841 52.0428C46.841 48.532 45.6689 45.0877 43.5339 42.3049L43.6968 39.3043C43.8077 37.2617 42.1868 35.5337 40.1252 35.5337H30.5043C30.0617 35.2209 29.7932 34.7129 29.7932 34.1642V31.7102C31.2849 30.7455 32.3322 29.6453 33.1016 28.3361H34.8024C36.7701 28.3361 38.3709 26.7353 38.3709 24.7676V18.2037C38.3709 17.0967 37.7305 16.118 36.7727 15.655V11.0484C36.7727 8.9512 35.0666 7.24495 32.9694 7.24495H32.8708C32.8108 7.24495 32.7621 7.19608 32.7621 7.1362C32.7621 5.03901 31.0558 3.33276 28.9586 3.33276H19.6505C15.0302 3.33276 11.2712 7.09179 11.2712 11.7121V15.6549C10.3135 16.1179 9.67297 17.0966 9.67297 18.2036V21.5418C9.67297 23.1037 10.9436 24.3744 12.5055 24.3744H13.6401C13.9338 26.8583 15.099 29.1268 16.9241 30.7039C17.3523 31.074 17.7951 31.4046 18.2506 31.6999V34.1641C18.2506 34.7111 17.9811 35.2192 17.5365 35.5335H7.91902C5.8734 35.5335 4.2357 37.2457 4.3475 39.3042L4.51039 42.3048C2.37535 45.0877 1.20324 48.532 1.20324 52.0428V55.3532C0.76625 55.843 0.5 56.4881 0.5 57.1945C0.5 58.7212 1.74207 59.9632 3.26879 59.9632H44.7754C46.3021 59.9632 47.5442 58.7211 47.5442 57.1945C47.5442 56.4881 47.278 55.843 46.841 55.3534V52.0428ZM45.0832 52.0428V54.4432C44.982 54.4319 44.8795 54.4257 44.7754 54.4257H42.8761L43.3721 45.2862C44.4846 47.3524 45.0832 49.6801 45.0832 52.0428ZM36.523 17.7746C36.5807 17.9068 36.6133 18.0519 36.6133 18.2039V21.5421C36.6133 22.1347 36.1312 22.6168 35.5386 22.6168H34.4934V19.3035L35.035 19.1149C35.7051 18.8814 36.2321 18.3892 36.523 17.7746ZM30.655 27.958H28.4493C28.0938 27.958 27.8045 27.6687 27.8045 27.3132C27.8045 26.9576 28.0938 26.6684 28.4493 26.6684H30.655C31.0106 26.6684 31.2998 26.9576 31.2998 27.3132C31.2998 27.6687 31.0106 27.958 30.655 27.958ZM34.8027 26.5784H33.9143C34.1618 25.8727 34.3326 25.1335 34.4227 24.3746H35.5386C35.9189 24.3746 36.2817 24.2988 36.6133 24.1623V24.7679C36.6133 25.7662 35.801 26.5784 34.8027 26.5784ZM13.0292 11.7124C13.0292 8.06128 15.9997 5.09081 19.6508 5.09081H28.9589C30.0868 5.09081 31.0045 6.00851 31.0045 7.13644C31.0045 8.16569 31.8419 9.003 32.8711 9.003H32.9696C34.0975 9.003 35.0151 9.92069 35.0151 11.0486V16.6693C35.0151 17.023 34.7907 17.3387 34.4567 17.455L32.6097 18.0983C32.5353 18.1241 32.4586 18.0704 32.4586 17.9903L32.462 14.4977C32.4726 11.9487 30.0859 9.72569 26.7418 10.7998C25.0599 11.3403 22.9786 11.3384 21.3023 10.7998C17.9929 9.73624 15.5715 11.9198 15.5821 14.495L15.5862 17.9906C15.5862 18.0712 15.5077 18.1243 15.4351 18.0983L13.5875 17.4549C13.2535 17.3387 13.0291 17.0228 13.0291 16.6692L13.0292 11.7124ZM11.431 21.5421V18.2037C11.431 18.0519 11.4636 17.9067 11.5214 17.7745C11.8123 18.3892 12.3393 18.8814 13.0096 19.1149L13.5512 19.3034V22.6167H12.5059C11.9131 22.6168 11.431 22.1346 11.431 21.5421ZM15.325 23.3594C15.2959 22.2039 15.3138 20.9775 15.3089 19.8546C15.363 19.8592 15.4173 19.8619 15.4715 19.8619C16.5165 19.8619 17.3458 19.0126 17.3441 17.988L17.34 14.4902C17.334 13.0631 18.6141 11.7821 20.7645 12.4733C22.8027 13.1281 25.2481 13.1261 27.2796 12.4733C29.3284 11.815 30.7105 12.9739 30.7041 14.4931L30.7007 17.9882C30.6993 19.0776 31.6305 19.9504 32.7354 19.8546V23.4305C32.7098 24.1901 32.5848 24.9315 32.3727 25.6365C31.9361 25.1893 31.3278 24.9105 30.655 24.9105H28.4493C27.1245 24.9105 26.0466 25.9883 26.0466 27.3131C26.0466 28.6379 27.1245 29.7157 28.4493 29.7157H29.566C27.9426 30.9828 26.0966 31.6435 24.0682 31.6771C19.631 31.6416 15.452 28.3635 15.325 23.3594ZM20.0088 34.1643V32.6265C21.2792 33.1525 22.6345 33.4251 24.0658 33.4352H24.072C24.0766 33.4352 24.0812 33.4352 24.0857 33.4351C25.4792 33.4134 26.7985 33.1434 28.0358 32.6336V34.1642C28.0358 34.6441 28.1362 35.1086 28.3211 35.5337H19.7224C19.9079 35.1085 20.0088 34.6439 20.0088 34.1643ZM4.67211 45.2862L4.81086 47.8434C4.83723 48.3282 5.25242 48.701 5.73605 48.6734C6.22074 48.6472 6.59234 48.2329 6.56609 47.7482L6.10262 39.2091C6.04625 38.1704 6.87055 37.2916 7.91902 37.2916H40.1253C41.1661 37.2916 41.9984 38.1625 41.9417 39.2091L41.1158 54.4258H27.3336C27.5015 53.4219 27.9536 52.4776 28.6501 51.7039L28.6753 51.6758C31.3357 48.6994 30.5394 44.0452 27.1006 42.0912C26.2182 41.5899 25.0975 42.2151 25.0975 43.2544V47.2423C25.0975 47.4251 24.9488 47.5737 24.766 47.5737H23.2782C23.0954 47.5737 22.9467 47.425 22.9467 47.2423V43.2544C22.9467 42.2171 21.8278 41.5889 20.9436 42.0912C17.495 44.0506 16.7149 48.7066 19.3716 51.6787L19.3941 51.7039C20.0906 52.4775 20.5427 53.4217 20.7106 54.4257H6.92855L6.78758 51.8273C6.76133 51.3426 6.34707 50.9705 5.86238 50.9973C5.3777 51.0235 5.00609 51.4378 5.03234 51.9225L5.16816 54.4257H3.26879C3.16473 54.4257 3.06219 54.432 2.96105 54.4432V52.0428C2.96105 49.6802 3.55977 47.3524 4.67211 45.2862ZM22.4866 54.4257C22.3067 52.9856 21.6894 51.6261 20.7008 50.5279L20.6796 50.5041C18.9814 48.6045 19.2089 45.667 21.189 44.0469V47.2422C21.189 48.3943 22.1262 49.3314 23.2783 49.3314H24.7661C25.9182 49.3314 26.8555 48.3942 26.8555 47.2422V44.0469C28.8225 45.6562 29.0744 48.5916 27.3627 50.5066L27.3437 50.5278C26.355 51.6261 25.7376 52.9856 25.5577 54.4257H22.4866ZM44.7754 58.2055H3.26879C2.71133 58.2055 2.25781 57.7519 2.25781 57.1946C2.25781 56.6373 2.71133 56.1836 3.26879 56.1836H44.7754C45.3329 56.1836 45.7864 56.6371 45.7864 57.1946C45.7864 57.7521 45.3329 58.2055 44.7754 58.2055Z" fill="#D24347"/>
<path d="M59.6211 6.0515C60.1065 6.0515 60.5001 5.65799 60.5001 5.1726V3.4715C60.5001 1.57752 58.9592 0.0366211 57.0651 0.0366211H42.2829C40.3888 0.0366211 38.8479 1.57752 38.8479 3.4715V10.8646C38.8479 12.7587 40.3888 14.2996 42.2829 14.2996C42.6213 14.2996 42.8967 14.575 42.8967 14.9135V19.4855C42.8967 20.1459 43.3242 20.7079 43.9607 20.884C44.6009 21.0612 45.2548 20.7947 45.5924 20.2318L48.9709 14.5978C49.0812 14.4139 49.283 14.2996 49.4974 14.2996H57.0652C58.9593 14.2996 60.5002 12.7587 60.5002 10.8646V9.28166C60.5002 8.79627 60.1067 8.40275 59.6213 8.40275C59.1359 8.40275 58.7424 8.79627 58.7424 9.28166V10.8646C58.7424 11.7895 57.99 12.5418 57.0652 12.5418H49.4973C48.6688 12.5418 47.8894 12.9833 47.4633 13.6938L44.6544 18.3778V14.9135C44.6544 13.6058 43.5905 12.5418 42.2828 12.5418C41.3579 12.5418 40.6056 11.7895 40.6056 10.8646V3.4715C40.6056 2.54678 41.3579 1.79443 42.2828 1.79443H57.0651C57.9899 1.79443 58.7422 2.54678 58.7422 3.4715V5.1726C58.7422 5.65799 59.1358 6.0515 59.6211 6.0515Z" fill="#D24347"/>
</svg>
