<svg width="14" height="14" viewBox="0 0 14 14" fill="none" xmlns="http://www.w3.org/2000/svg">
<path d="M3.02956 8.4857C3.88133 8.4857 4.57182 7.81055 4.57182 6.97771C4.57182 6.14488 3.88133 5.46973 3.02956 5.46973C2.1778 5.46973 1.4873 6.14488 1.4873 6.97771C1.4873 7.81055 2.1778 8.4857 3.02956 8.4857Z" stroke="#121416" stroke-width="1.13099" stroke-linecap="round" stroke-linejoin="round"/>
<path d="M11.2552 3.96178C12.1069 3.96178 12.7974 3.28663 12.7974 2.45379C12.7974 1.62095 12.1069 0.945801 11.2552 0.945801C10.4034 0.945801 9.71289 1.62095 9.71289 2.45379C9.71289 3.28663 10.4034 3.96178 11.2552 3.96178Z" stroke="#121416" stroke-width="1.13099" stroke-linecap="round" stroke-linejoin="round"/>
<path d="M11.2552 13.0099C12.1069 13.0099 12.7974 12.3347 12.7974 11.5019C12.7974 10.669 12.1069 9.9939 11.2552 9.9939C10.4034 9.9939 9.71289 10.669 9.71289 11.5019C9.71289 12.3347 10.4034 13.0099 11.2552 13.0099Z" stroke="#121416" stroke-width="1.13099" stroke-linecap="round" stroke-linejoin="round"/>
<path d="M4.37305 7.71708L9.9104 10.7626M9.9104 3.19312L4.37305 6.23862" stroke="#121416" stroke-width="1.13099" stroke-linecap="round" stroke-linejoin="round"/>
</svg>
