<svg width="21" height="20" viewBox="0 0 21 20" fill="none" xmlns="http://www.w3.org/2000/svg">
<path d="M9.24037 15.2686L10.0382 13.4412C10.7483 11.815 12.0263 10.5205 13.6205 9.81282L15.8166 8.838C16.5147 8.52809 16.5147 7.51235 15.8166 7.20243L13.689 6.25804C12.0538 5.5322 10.7529 4.18974 10.055 2.50804L9.24683 0.560576C8.94692 -0.16212 7.94837 -0.162118 7.64847 0.560576L6.84026 2.50802C6.14235 4.18974 4.8414 5.5322 3.20624 6.25804L1.07872 7.20243C0.380499 7.51235 0.380498 8.52809 1.07872 8.838L3.27483 9.81282C4.869 10.5205 6.14702 11.815 6.85706 13.4412L7.65492 15.2686C7.96161 15.971 8.93365 15.971 9.24037 15.2686ZM17.2286 19.718L17.4529 19.2037C17.8529 18.2868 18.5734 17.5567 19.4723 17.1574L20.1636 16.8502C20.5375 16.6841 20.5375 16.1407 20.1636 15.9746L19.511 15.6846C18.5889 15.275 17.8556 14.5179 17.4624 13.5698L17.232 13.0141C17.0714 12.6268 16.5359 12.6268 16.3753 13.0141L16.1449 13.5698C15.7518 14.5179 15.0185 15.275 14.0964 15.6846L13.4437 15.9746C13.0699 16.1407 13.0699 16.6841 13.4437 16.8502L14.135 17.1574C15.034 17.5567 15.7544 18.2868 16.1544 19.2037L16.3788 19.718C16.543 20.0945 17.0643 20.0945 17.2286 19.718Z" fill="#D24347"/>
</svg>
