<svg width="224" height="121" viewBox="0 0 224 121" fill="none" xmlns="http://www.w3.org/2000/svg">
<path d="M198.878 2.37712C201.951 2.37712 204.929 2.97997 207.731 4.16551C210.439 5.31072 212.872 6.95193 214.961 9.04275C217.05 11.1336 218.691 13.5651 219.837 16.2749C221.022 19.0775 221.623 22.0574 221.623 25.1281C221.623 31.1748 219.302 36.8565 215.088 41.1269C210.874 45.3992 205.225 47.7965 199.18 47.8772C199.078 47.8772 198.975 47.8792 198.87 47.8792C195.108 47.8792 191.38 46.9416 188.091 45.1694C186.95 44.5544 185.66 44.2278 184.361 44.2278C182.46 44.2278 180.623 44.9133 179.185 46.1614L164.552 58.8595C162.088 60.9967 161.187 64.4767 162.308 67.5172C163.235 70.0314 163.705 72.6767 163.705 75.3824C163.705 78.4551 163.104 81.4351 161.919 84.2377C160.773 86.9475 159.132 89.379 157.041 91.4698C154.951 93.5607 152.517 95.1998 149.809 96.3471C147.007 97.5326 144.027 98.1335 140.954 98.1335C140.895 98.1335 140.837 98.1335 140.779 98.1335C137.728 98.1113 134.768 97.4862 131.98 96.2805C129.286 95.1132 126.865 93.4558 124.788 91.3509C122.709 89.2459 121.082 86.8063 119.949 84.0965C118.778 81.294 118.191 78.3261 118.205 75.2736C118.217 72.6041 118.687 69.9931 119.602 67.5131C120.723 64.4747 119.82 60.9987 117.356 58.8595L102.722 46.1614C101.289 44.9173 99.4521 44.2318 97.5528 44.2318C96.2503 44.2318 94.9539 44.5585 93.8046 45.1774C90.5202 46.9457 86.7983 47.8792 83.04 47.8792C79.2818 47.8792 75.5599 46.9457 72.2754 45.1774C71.1262 44.5585 69.8298 44.2318 68.5273 44.2318C66.628 44.2318 64.7912 44.9173 63.3577 46.1614L48.724 58.8595C46.2601 60.9967 45.3589 64.4747 46.4779 67.5131C47.4437 70.1302 47.9134 72.8884 47.8731 75.7091C47.7884 81.7496 45.3891 87.3951 41.1188 91.6049C36.8484 95.8148 31.1667 98.1335 25.1241 98.1335H25.1181C22.0453 98.1335 19.0674 97.5306 16.2648 96.3451C13.5571 95.1999 11.1235 93.5586 9.03468 91.4678C6.94588 89.377 5.30467 86.9454 4.15946 84.2356C2.97392 81.4331 2.37309 78.4531 2.37309 75.3824C2.37309 69.3358 4.69376 63.6541 8.90766 59.3817C13.1216 55.1093 18.771 52.712 24.8156 52.6334C24.9185 52.6334 25.0213 52.6314 25.1241 52.6314C28.8864 52.6314 32.6144 53.5689 35.9028 55.3412C37.044 55.9562 38.3344 56.2828 39.6328 56.2828C41.5341 56.2828 43.3709 55.5973 44.8064 54.3492L59.4402 41.6511C61.904 39.5139 62.8052 36.0339 61.6842 32.9934C60.7568 30.4792 60.287 27.8339 60.287 25.1281C60.287 22.0554 60.8878 19.0755 62.0734 16.2729C63.2186 13.5631 64.8598 11.1295 66.9506 9.04073C69.0414 6.94991 71.475 5.31072 74.1828 4.16349C76.9853 2.97796 79.9653 2.37712 83.038 2.37712C83.0965 2.37712 83.155 2.37712 83.2134 2.37712C86.264 2.3993 89.2238 3.02433 92.0122 4.23003C94.7059 5.39742 97.1274 7.05475 99.2041 9.15969C101.283 11.2646 102.91 13.7042 104.043 16.414C105.214 19.2166 105.801 22.1845 105.787 25.237C105.775 27.9065 105.305 30.5175 104.39 32.9975C103.269 36.0359 104.172 39.5119 106.636 41.6511L121.27 54.3492C122.703 55.5932 124.54 56.2787 126.439 56.2787C127.742 56.2787 129.038 55.9521 130.187 55.3331C133.472 53.5649 137.194 52.6314 140.952 52.6314C144.71 52.6314 148.432 53.5649 151.717 55.3331C152.866 55.9521 154.162 56.2787 155.465 56.2787C157.364 56.2787 159.201 55.5932 160.634 54.3492L175.268 41.6511C177.732 39.5139 178.633 36.0359 177.514 32.9975C176.548 30.3784 176.078 27.6222 176.119 24.8015C176.203 18.7609 178.603 13.1155 182.873 8.90564C187.144 4.69578 192.825 2.37712 198.868 2.37712H198.874M83.042 0C69.1644 0 57.9139 11.2485 57.9139 25.1281C57.9139 28.1827 58.4583 31.1083 59.4563 33.816C60.2447 35.9573 59.6075 38.3626 57.8857 39.8566L43.2519 52.5548C42.2257 53.446 40.9353 53.9057 39.6348 53.9057C38.7457 53.9057 37.8505 53.6899 37.0319 53.2484C33.4894 51.339 29.4328 50.2543 25.1261 50.2543C25.0132 50.2543 24.8983 50.2543 24.7854 50.2563C10.9884 50.4398 0 61.5834 0 75.3824C0 89.258 11.2465 100.507 25.1221 100.511H25.1281C38.9211 100.511 50.0607 89.5343 50.2523 75.7433C50.2966 72.5577 49.7482 69.5051 48.7099 66.6905C47.9215 64.5513 48.5627 62.148 50.2825 60.6539L64.9162 47.9558C65.9425 47.0666 67.2309 46.6069 68.5293 46.6069C69.4245 46.6069 70.3257 46.8247 71.1524 47.2683C74.6929 49.1736 78.7414 50.2543 83.042 50.2543C87.3426 50.2543 91.3932 49.1736 94.9317 47.2683C95.7563 46.8247 96.6576 46.6069 97.5548 46.6069C98.8532 46.6069 100.142 47.0646 101.168 47.9558L115.802 60.6539C117.523 62.148 118.165 64.5513 117.374 66.6905C116.388 69.364 115.844 72.2492 115.83 75.2615C115.765 89.0564 126.969 100.406 140.764 100.509C140.829 100.509 140.893 100.509 140.958 100.509C154.836 100.509 166.086 89.2601 166.086 75.3804C166.086 72.3258 165.542 69.4003 164.544 66.6925C163.755 64.5513 164.392 62.1459 166.114 60.6519L180.748 47.9538C181.774 47.0626 183.065 46.6029 184.365 46.6029C185.254 46.6029 186.15 46.8186 186.968 47.2602C190.511 49.1696 194.567 50.2543 198.874 50.2543C198.987 50.2543 199.102 50.2543 199.215 50.2523C213.012 50.0688 224 38.9251 224 25.1281C224 11.2525 212.754 0.00403244 198.88 0H198.874C185.081 0 173.941 10.9763 173.748 24.7672C173.703 27.9529 174.252 31.0054 175.29 33.8201C176.078 35.9593 175.437 38.3626 173.717 39.8566L159.084 52.5548C158.058 53.4439 156.769 53.9036 155.471 53.9036C154.576 53.9036 153.674 53.6859 152.848 53.2423C149.307 51.337 145.259 50.2563 140.958 50.2563C136.657 50.2563 132.607 51.337 129.068 53.2423C128.244 53.6859 127.342 53.9036 126.445 53.9036C125.147 53.9036 123.858 53.446 122.832 52.5548L108.198 39.8566C106.477 38.3626 105.835 35.9593 106.626 33.8201C107.612 31.1466 108.156 28.2614 108.17 25.2491C108.235 11.4521 97.0306 0.104843 83.2356 0C83.1711 0 83.1066 0 83.042 0Z" fill="url(#paint0_linear_234_19597)"/>
<path d="M71.6443 60.8879H94.3228V65.8942H85.9212V90.1715H80.0479V65.8942H71.6464V60.8879H71.6443Z" fill="#8384D4"/>
<path d="M184.607 60.8879H191.543L199.787 82.6611L208.032 60.8879H214.927V90.1715H209.054V71.1243L202.013 90.1715H197.565L190.482 71.1243V90.1715H184.609V60.8879H184.607Z" fill="#D24347"/>
<path d="M25.5011 39.6854C19.9061 39.6854 14.9362 36.9232 14.3091 32.0843C14.2466 31.5984 14.6196 31.1669 15.1075 31.1669H20.386C20.5493 33.4614 22.7147 34.9755 25.3761 34.9755C28.0376 34.9755 30.326 33.542 30.326 31.4935C30.326 25.3098 14.2829 29.0358 14.3232 18.6744C14.3232 13.5149 19.1501 10.4019 25.0475 10.4019C30.5397 10.4019 34.9814 13.031 35.8181 17.6119C35.9069 18.1018 35.5218 18.5514 35.0238 18.5514H29.6304C29.5074 16.6683 27.342 15.1924 24.8862 15.1521C22.6341 15.0694 20.3053 16.1763 20.3053 18.5111C20.3053 24.2452 36.2657 21.0495 36.2657 31.1246C36.2657 35.6288 32.0115 39.6834 25.5011 39.6834V39.6854Z" fill="#DA6266"/>
<path d="M150.551 15.1944H137.815V22.5496H150.112V27.2151H137.815V34.9897H150.551V39.7802H131.929V10.4019H150.551V15.1924V15.1944Z" fill="#892124"/>
<path d="M155.787 77.3423C155.862 76.7556 155.896 76.1588 155.896 75.5519C155.896 74.945 155.856 74.2897 155.777 73.6768L152.557 72.6385C152.275 71.5376 151.835 70.4993 151.265 69.5496L152.803 66.5475C152.041 65.5696 151.16 64.6925 150.178 63.9385L147.164 65.4829C146.23 64.9325 145.214 64.505 144.138 64.2308L143.101 61.0129C142.49 60.9343 141.869 60.896 141.238 60.896C140.607 60.896 139.986 60.9363 139.375 61.0129L138.337 64.2308C137.27 64.503 136.262 64.9244 135.337 65.4688L132.318 63.9223C131.329 64.6804 130.439 65.5615 129.675 66.5454L131.214 69.5496C130.655 70.4811 130.222 71.4973 129.937 72.5719L126.707 73.6123C126.623 74.2474 126.578 74.8966 126.578 75.5539C126.578 76.1487 126.613 76.7334 126.683 77.308L129.887 78.3423C130.157 79.4493 130.587 80.4916 131.147 81.4493L129.599 84.4696C130.345 85.4415 131.21 86.3185 132.171 87.0746L135.165 85.5403C136.135 86.131 137.198 86.5847 138.327 86.873L139.365 90.0929C139.976 90.1715 140.601 90.2098 141.232 90.2098C141.831 90.2098 142.422 90.1735 143 90.103L144.035 86.8972C145.176 86.6169 146.249 86.1693 147.23 85.5806L150.235 87.119C151.194 86.373 152.059 85.508 152.807 84.5463L151.267 81.5401C151.848 80.5683 152.293 79.5037 152.573 78.3746L155.781 77.3403L155.787 77.3423ZM141.24 82.1228C137.611 82.1228 134.669 79.1811 134.669 75.5519C134.669 71.9227 137.611 68.981 141.24 68.981C144.869 68.981 147.811 71.9227 147.811 75.5519C147.811 79.1811 144.869 82.1228 141.24 82.1228Z" fill="#892124"/>
<path d="M140.295 73.9144C139.391 74.4367 139.081 75.5919 139.603 76.4952C140.125 77.3985 141.281 77.709 142.184 77.1868C143.087 76.6646 143.398 75.5093 142.875 74.606C142.353 73.7027 141.198 73.3922 140.295 73.9144Z" fill="#892124"/>
<path d="M94.5103 27.5475C94.7805 27.2773 94.7805 26.8378 94.5103 26.5676C94.2401 26.2974 93.8006 26.2974 93.5304 26.5676C93.2602 26.8378 93.2602 27.2773 93.5304 27.5475C93.8006 27.8177 94.2401 27.8177 94.5103 27.5475Z" fill="#8384D4"/>
<path d="M81.4432 35.9111C81.173 35.641 80.7335 35.641 80.4633 35.9111C80.1931 36.1813 80.1931 36.6208 80.4633 36.891C80.7335 37.1612 81.173 37.1612 81.4432 36.891C81.7134 36.6208 81.7134 36.1813 81.4432 35.9111Z" fill="#8384D4"/>
<path d="M85.5805 23.0275C85.8506 23.2977 86.2902 23.2977 86.5604 23.0275C86.8305 22.7573 86.8305 22.3178 86.5604 22.0476C86.2902 21.7774 85.8506 21.7774 85.5805 22.0476C85.3103 22.3178 85.3103 22.7573 85.5805 23.0275Z" fill="#8384D4"/>
<path d="M87.3749 35.7213L89.7299 38.0762C91.0626 37.3948 92.3126 36.4975 93.4276 35.3826C97.7121 31.0981 98.7968 24.8095 96.6838 19.5089L88.0766 28.1161C87.8911 28.3016 87.6411 28.4044 87.379 28.4044H81.9069C81.8061 28.602 81.6751 28.7875 81.5077 28.9549C80.6609 29.8017 79.2818 29.8017 78.435 28.9549C77.5882 28.108 77.5882 26.729 78.435 25.8821C79.2818 25.0353 80.6609 25.0353 81.5077 25.8821C81.673 26.0475 81.8061 26.233 81.9069 26.4326H86.9717L95.7745 17.6298C95.1454 16.5349 94.3631 15.5047 93.4296 14.5711C93.3853 14.5268 93.3389 14.4824 93.2945 14.4401L89.2016 18.533C89.0161 18.7185 88.7661 18.8213 88.504 18.8213H77.4975L74.09 22.2288C74.332 22.9808 74.1566 23.8377 73.5618 24.4345C72.715 25.2813 71.3359 25.2813 70.4891 24.4345C69.6423 23.5877 69.6423 22.2086 70.4891 21.3618C71.0839 20.767 71.9428 20.5916 72.6948 20.8335L76.3926 17.1358C76.5781 16.9503 76.8281 16.8475 77.0902 16.8475H88.0967L91.7904 13.1537C87.8507 10.2282 82.7679 9.52657 78.2797 11.0488L79.7798 12.5489L83.161 12.561C83.2618 12.3654 83.3929 12.1819 83.5562 12.0186C84.403 11.1718 85.7821 11.1718 86.6289 12.0186C87.4757 12.8654 87.4757 14.2445 86.6289 15.0913C85.7821 15.9381 84.403 15.9381 83.5562 15.0913C83.3889 14.924 83.2558 14.7365 83.155 14.5349L79.3665 14.5228C79.1064 14.5228 78.8564 14.4179 78.6729 14.2344L76.318 11.8795C74.9852 12.561 73.7352 13.4582 72.6202 14.5732C68.3358 18.8576 67.251 25.1462 69.364 30.4469L77.9713 21.8396C78.1568 21.6541 78.4068 21.5513 78.6689 21.5513H84.1409C84.2417 21.3537 84.3728 21.1682 84.5401 21.0009C85.3869 20.1541 86.766 20.1541 87.6128 21.0009C88.4596 21.8477 88.4596 23.2268 87.6128 24.0736C86.766 24.9204 85.3869 24.9204 84.5401 24.0736C84.3748 23.9083 84.2417 23.7228 84.1409 23.5232H79.0762L70.2733 32.326C70.9024 33.4208 71.6847 34.4511 72.6182 35.3846C72.6626 35.4289 72.7089 35.4733 72.7533 35.5156L76.8462 31.4227C77.0317 31.2372 77.2817 31.1344 77.5438 31.1344H88.5504L91.9578 27.727C91.7158 26.9749 91.8912 26.118 92.486 25.5212C93.3328 24.6744 94.7119 24.6744 95.5588 25.5212C96.4056 26.3681 96.4056 27.7471 95.5588 28.594C94.962 29.1887 94.1051 29.3642 93.353 29.1222L89.6553 32.82C89.4698 33.0054 89.2198 33.1083 88.9576 33.1083H77.9511L74.2574 36.802C78.1971 39.7275 83.28 40.4292 87.7681 38.9069L86.268 37.4069H82.8787C82.78 37.5984 82.6489 37.7778 82.4896 37.9371C81.6428 38.7839 80.2637 38.7839 79.4169 37.9371C78.5701 37.0903 78.5701 35.7112 79.4169 34.8644C80.2637 34.0176 81.6428 34.0176 82.4896 34.8644C82.661 35.0358 82.7941 35.2273 82.8969 35.433H86.6773C86.9394 35.433 87.1894 35.5378 87.3749 35.7213Z" fill="#8384D4"/>
<path d="M84.5986 14.0451C84.8688 14.3152 85.3083 14.3152 85.5785 14.0451C85.8486 13.7749 85.8486 13.3354 85.5785 13.0652C85.3083 12.795 84.8688 12.795 84.5986 13.0652C84.3284 13.3354 84.3284 13.7749 84.5986 14.0451Z" fill="#8384D4"/>
<path d="M80.4613 26.9304C80.1911 26.6602 79.7516 26.6602 79.4814 26.9304C79.2112 27.2006 79.2112 27.6401 79.4814 27.9103C79.7516 28.1805 80.1911 28.1805 80.4613 27.9103C80.7315 27.6401 80.7315 27.2006 80.4613 26.9304Z" fill="#8384D4"/>
<path d="M71.5314 22.4104C71.2613 22.6806 71.2613 23.1201 71.5314 23.3903C71.8016 23.6605 72.2412 23.6605 72.5113 23.3903C72.7815 23.1201 72.7815 22.6806 72.5113 22.4104C72.2412 22.1402 71.8016 22.1402 71.5314 22.4104Z" fill="#8384D4"/>
<path d="M38.2961 80.1748C38.1348 79.4208 37.8303 78.7534 37.4775 78.1425C37.1206 77.5316 36.7093 76.9731 36.2698 76.4489C35.9069 76.0154 35.5238 75.6061 35.1266 75.2149C35.1689 75.1625 35.2093 75.1121 35.2476 75.0577C35.3464 74.9266 35.4472 74.7996 35.5419 74.6665L35.8202 74.2653C35.5601 74.5556 35.2919 74.8379 35.0177 75.1101C34.9693 75.0617 34.9209 75.0133 34.8705 74.967C34.3806 74.5032 33.8725 74.0637 33.3503 73.6463C32.8281 73.229 32.2918 72.8298 31.7414 72.4547C31.4369 72.2471 31.1304 72.0455 30.8199 71.8479C30.8139 71.7712 30.8058 71.6946 30.7998 71.618C30.7353 70.9627 30.6526 70.3095 30.5397 69.6582C30.457 69.1663 30.3582 68.6764 30.2453 68.1884C30.3683 68.1602 30.4933 68.132 30.6163 68.1078C31.2373 67.9787 31.8664 67.884 32.4954 67.8316C33.1245 67.7791 33.7556 67.7711 34.3766 67.8396C34.9935 67.9102 35.6064 68.0554 36.1407 68.3497C36.2738 68.4243 36.3988 68.507 36.5198 68.5997C36.6367 68.6945 36.7476 68.7993 36.8484 68.9122C37.048 69.1401 37.1993 69.4103 37.2981 69.7046C37.3948 69.999 37.4372 70.3176 37.4311 70.6361C37.4271 70.9204 37.3868 71.2067 37.3263 71.489C37.1529 71.4224 36.9634 71.3861 36.7658 71.3861C35.8928 71.3861 35.183 72.0959 35.183 72.9689C35.183 73.8419 35.8928 74.5516 36.7658 74.5516C37.6388 74.5516 38.3485 73.8419 38.3485 72.9689C38.3485 72.2975 37.9291 71.7249 37.3384 71.493C37.3807 71.3741 37.4231 71.2531 37.4553 71.1281C37.4956 70.9688 37.5319 70.8075 37.5541 70.6442C37.5985 70.3155 37.5965 69.9768 37.5299 69.6401C37.4594 69.3054 37.3223 68.9808 37.1206 68.6965C37.0198 68.5534 36.9069 68.4203 36.7819 68.2993C36.6549 68.1783 36.5198 68.0695 36.3766 67.9687C36.2335 67.8699 36.0843 67.7832 35.9311 67.7025C35.7778 67.6259 35.6185 67.5553 35.4593 67.4948C35.1387 67.3739 34.808 67.2852 34.4753 67.2166C33.81 67.0835 33.1346 67.0412 32.4632 67.0432C31.7918 67.0472 31.1264 67.1037 30.4651 67.1904C30.3139 67.2106 30.1627 67.2327 30.0114 67.2569C29.8743 66.765 29.7171 66.275 29.5396 65.7911C29.3058 65.1601 29.0356 64.535 28.7009 63.9302C28.5335 63.6277 28.3521 63.3293 28.1484 63.041C27.9448 62.7527 27.721 62.4704 27.467 62.2043C27.3399 62.0712 27.2049 61.9422 27.0617 61.8192C26.9165 61.6982 26.7653 61.5793 26.6 61.4724C26.2734 61.2567 25.9004 61.0772 25.4931 60.9704C25.0858 60.8655 24.6463 60.8373 24.2249 60.9018C23.8015 60.9623 23.4043 61.1095 23.0514 61.301C22.6986 61.4946 22.3901 61.7305 22.1159 61.9865C21.8397 62.2406 21.5978 62.5168 21.38 62.7991C20.9405 63.3676 20.5917 63.9705 20.2892 64.5875C19.9908 65.2044 19.7408 65.8355 19.5251 66.4726C19.4243 66.769 19.3335 67.0674 19.2468 67.3658C18.4827 67.2589 17.7085 67.1944 16.9322 67.1944C16.2628 67.1985 15.5914 67.2428 14.9281 67.3759C14.5974 67.4424 14.2668 67.5291 13.9462 67.6461C13.7849 67.7025 13.6276 67.7711 13.4724 67.8457C13.3192 67.9223 13.1679 68.007 13.0228 68.0997C12.8796 68.1965 12.7405 68.3013 12.6115 68.4163C12.4824 68.5332 12.3635 68.6602 12.2586 68.7993C12.0469 69.0756 11.8937 69.3921 11.809 69.7228C11.7284 70.0554 11.7142 70.3942 11.7485 70.7248C11.7667 70.8902 11.7969 71.0515 11.8352 71.2107C11.8755 71.37 11.9259 71.5253 11.9824 71.6785C11.9118 71.3599 11.8695 71.0373 11.8715 70.7188C11.8755 70.4002 11.928 70.0837 12.0368 69.7954C12.1477 69.507 12.311 69.2429 12.5207 69.0231C12.6256 68.9143 12.7405 68.8135 12.8615 68.7227C12.9845 68.634 13.1135 68.5534 13.2486 68.4828C13.3837 68.4142 13.5248 68.3517 13.668 68.2973C13.8131 68.2449 13.9583 68.1965 14.1075 68.1582C14.4059 68.0775 14.7124 68.0251 15.0229 67.9908C15.6439 67.9223 16.2749 67.9263 16.904 67.9747C17.5331 68.0231 18.1621 68.1118 18.7851 68.2328C18.8597 68.2469 18.9323 68.263 19.0069 68.2792C18.9968 68.3215 18.9867 68.3618 18.9767 68.4042C18.8234 69.0534 18.6984 69.7066 18.5956 70.3619C18.5069 70.9224 18.4343 71.4829 18.3799 72.0475C18.154 72.1987 17.9302 72.3499 17.7085 72.5072C17.1621 72.8902 16.6338 73.2975 16.1156 73.7229C15.5995 74.1484 15.0954 74.594 14.6115 75.0637C14.5349 75.1383 14.4583 75.217 14.3817 75.2936C14.0974 75.0214 13.8212 74.7411 13.553 74.4508C14.0248 74.1766 14.3414 73.6665 14.3414 73.0818C14.3414 72.2088 13.6317 71.4991 12.7586 71.4991C11.8856 71.4991 11.1759 72.2088 11.1759 73.0818C11.1759 73.9548 11.8856 74.6645 12.7586 74.6645C13.0449 74.6645 13.3131 74.5879 13.547 74.4548L13.797 74.8057C13.8938 74.9367 13.9966 75.0637 14.0974 75.1928C14.1539 75.2654 14.2123 75.3359 14.2708 75.4065C13.9119 75.7755 13.5651 76.1606 13.2345 76.5638C12.801 77.0941 12.3957 77.6546 12.0429 78.2675C11.8675 78.574 11.7062 78.8946 11.5671 79.2313C11.4279 79.568 11.309 79.9208 11.2263 80.2938C11.186 80.4813 11.1537 80.6729 11.1356 80.8704C11.1255 80.9692 11.1215 81.07 11.1174 81.1688C11.1174 81.2697 11.1174 81.3705 11.1235 81.4753C11.1436 81.8846 11.2404 82.31 11.4219 82.7032C11.6054 83.0943 11.8675 83.4492 12.178 83.7294C12.3332 83.8706 12.4965 83.9976 12.6659 84.1065C12.8353 84.2154 13.0087 84.3121 13.1861 84.3928C13.8938 84.7214 14.6156 84.8646 15.3213 84.9291C16.0269 84.9936 16.7205 84.9775 17.402 84.921C18.0835 84.8646 18.7529 84.7557 19.4122 84.6186C19.4868 84.6025 19.5594 84.5863 19.634 84.5702C19.7932 85.0319 19.9666 85.4896 20.1662 85.9392C20.4344 86.5461 20.7388 87.1429 21.1018 87.7074C21.4647 88.27 21.8841 88.8103 22.3982 89.266C22.5272 89.3789 22.6623 89.4857 22.8034 89.5866C22.9466 89.6854 23.0918 89.7781 23.247 89.8588C23.4023 89.9394 23.5615 90.01 23.7289 90.0644C23.8962 90.1188 24.0676 90.1592 24.243 90.1834C24.5918 90.2297 24.9487 90.2035 25.2814 90.1108C25.6141 90.018 25.9205 89.8608 26.1947 89.6712C26.4689 89.4797 26.7109 89.2519 26.9286 89.0079C27.1464 88.7639 27.3379 88.4998 27.5113 88.2276C27.3016 88.4736 27.0799 88.7075 26.8399 88.9212C26.602 89.1329 26.3439 89.3224 26.0677 89.4696C25.7935 89.6168 25.5032 89.7297 25.2048 89.7781C24.9084 89.8245 24.606 89.8184 24.3196 89.7519C23.745 89.6148 23.241 89.2579 22.8256 88.8204C22.4083 88.3788 22.0635 87.8627 21.7711 87.3143C21.4768 86.7679 21.2308 86.1912 21.0191 85.6005C20.8699 85.1852 20.7368 84.7617 20.6179 84.3343C20.8659 84.2678 21.1139 84.1992 21.3598 84.1246C21.999 83.929 22.628 83.7113 23.247 83.4734C23.7612 83.2738 24.2672 83.0621 24.7672 82.8363C25.2451 83.0399 25.729 83.2335 26.2189 83.4149C26.5294 83.5298 26.844 83.6387 27.1605 83.7415C27.477 83.8464 27.7936 83.9432 28.1142 84.0359C28.4973 84.1448 28.8824 84.2436 29.2735 84.3343C29.213 84.5863 29.1505 84.8384 29.082 85.0904C29.1848 84.8484 29.2836 84.6045 29.3763 84.3585C29.6062 84.4109 29.836 84.4593 30.0659 84.5057C30.7252 84.6327 31.3946 84.7315 32.076 84.7819C32.7555 84.8323 33.4471 84.8404 34.1507 84.7718C34.5016 84.7376 34.8564 84.6831 35.2113 84.5984C35.3887 84.5581 35.5661 84.5037 35.7435 84.4472C35.921 84.3847 36.0984 84.3202 36.2738 84.2395C36.6246 84.0803 36.9694 83.8706 37.2819 83.5964C37.4372 83.4593 37.5844 83.306 37.7174 83.1387C37.8485 82.9693 37.9634 82.7859 38.0602 82.5943C38.159 82.4028 38.2316 82.1971 38.286 81.9915C38.3404 81.7858 38.3767 81.5761 38.3908 81.3685C38.4211 80.9551 38.3828 80.5539 38.3021 80.1769L38.2961 80.1748ZM36.421 72.1362C36.3222 72.2047 36.2335 72.2773 36.1528 72.358C36.0722 72.4386 35.9996 72.5253 35.9311 72.6261C35.8625 72.7269 35.802 72.8378 35.7335 72.9709C35.6649 72.8358 35.6569 72.6765 35.6931 72.5253C35.7294 72.3761 35.8101 72.235 35.921 72.1241C36.0319 72.0132 36.173 71.9325 36.3222 71.8963C36.4714 71.862 36.6307 71.868 36.7678 71.9366C36.6327 72.0051 36.5218 72.0676 36.423 72.1362H36.421ZM12.4098 72.2511C12.311 72.3197 12.2223 72.3922 12.1417 72.4729C12.061 72.5535 11.9884 72.6402 11.9199 72.741C11.8513 72.8419 11.7909 72.9527 11.7223 73.0858C11.6538 72.9507 11.6457 72.7915 11.682 72.6402C11.7183 72.491 11.7989 72.3499 11.9078 72.239C12.0187 72.1281 12.1598 72.0475 12.309 72.0112C12.4582 71.9769 12.6175 71.9829 12.7546 72.0515C12.6195 72.12 12.5086 72.1826 12.4098 72.2511ZM15.7144 76.1908C16.4967 75.4065 17.3516 74.6807 18.2428 74.0012C18.2125 74.7653 18.2085 75.5275 18.2327 76.2896C18.2528 76.9469 18.2871 77.6062 18.3476 78.2615C18.3496 78.2937 18.3537 78.328 18.3577 78.3603L17.9746 78.1123L17.773 77.9812L17.5734 77.8441C17.4403 77.7534 17.3072 77.6626 17.1762 77.5699C16.9161 77.3804 16.652 77.1969 16.3959 76.9993C16.1358 76.8078 15.8878 76.6021 15.6338 76.4025L15.5612 76.342C15.6116 76.2896 15.664 76.2392 15.7144 76.1868V76.1908ZM19.144 83.2435C18.525 83.3524 17.904 83.427 17.2891 83.4653C16.6741 83.5036 16.0612 83.4996 15.4725 83.431C14.8858 83.3605 14.3172 83.2294 13.8454 83.0016C13.7264 82.9451 13.6176 82.8806 13.5147 82.8121C13.4119 82.7435 13.3192 82.6689 13.2345 82.5903C13.0651 82.433 12.9401 82.2516 12.8474 82.0519C12.7627 81.8503 12.7062 81.6326 12.6982 81.3926C12.6941 81.3342 12.6961 81.2717 12.6961 81.2112C12.7002 81.1487 12.7002 81.0862 12.7082 81.0237C12.7203 80.8967 12.7425 80.7676 12.7707 80.6366C12.8292 80.3745 12.9179 80.1103 13.0288 79.8462C13.1397 79.5821 13.2728 79.32 13.422 79.0639C13.7184 78.5478 14.0712 78.0477 14.4583 77.5699C14.7305 77.2332 15.0229 76.9066 15.3253 76.588C15.3495 76.6122 15.3737 76.6384 15.3979 76.6626C15.6318 76.8924 15.8636 77.1243 16.1076 77.3441C16.8455 78.0296 17.6339 78.6627 18.4504 79.2595C18.4887 79.5821 18.5331 79.9047 18.5815 80.2273C18.6783 80.8785 18.8033 81.5277 18.9484 82.1709C19.0291 82.5278 19.1178 82.8826 19.2126 83.2355C19.1884 83.2395 19.1662 83.2435 19.142 83.2476L19.144 83.2435ZM30.828 77.5094C30.9369 76.2573 30.9712 74.9972 30.9349 73.735C31.941 74.4629 32.9047 75.2452 33.7838 76.1021C33.81 76.1263 33.8342 76.1525 33.8604 76.1767C33.816 76.215 33.7717 76.2533 33.7273 76.2916C33.4753 76.4953 33.2313 76.7049 32.9733 76.9005C32.7212 77.1021 32.4591 77.2896 32.2011 77.4832L31.8059 77.7635C31.7393 77.8098 31.6748 77.8562 31.6083 77.9026L31.4087 78.0377C31.1849 78.1909 30.957 78.3401 30.7292 78.4873C30.7675 78.1627 30.7998 77.836 30.828 77.5094ZM28.7715 68.5755C28.838 68.5554 28.9045 68.5372 28.9711 68.5191C29.0981 68.9747 29.211 69.4344 29.3098 69.8982C29.3925 70.2893 29.4691 70.6825 29.5396 71.0777C29.1384 70.8498 28.7332 70.6281 28.3239 70.4184C27.7351 70.1159 27.1403 69.8256 26.5335 69.5574C26.4508 69.5211 26.3661 69.4849 26.2834 69.4486C26.5072 69.3578 26.7331 69.2691 26.9589 69.1844C27.5557 68.9606 28.1605 68.759 28.7715 68.5755ZM21.0251 66.9908C21.2247 66.4061 21.4566 65.8355 21.7228 65.2931C21.9869 64.7508 22.2873 64.2306 22.6381 63.7749C22.9849 63.3193 23.3882 62.9281 23.8156 62.6882C24.243 62.4462 24.6785 62.3736 25.1161 62.4785C25.5536 62.5833 25.9951 62.8777 26.3863 63.2688C26.7794 63.662 27.1262 64.1439 27.4287 64.6621C27.7311 65.1822 27.9972 65.7347 28.2311 66.3073C28.3924 66.7045 28.5396 67.1118 28.6727 67.5231C28.6162 67.5352 28.5618 67.5473 28.5053 67.5614C27.8581 67.7106 27.217 67.89 26.5839 68.0876C25.9508 68.2872 25.3237 68.507 24.7068 68.7489C24.6806 68.759 24.6564 68.7691 24.6301 68.7792C24.0313 68.5554 23.4244 68.3538 22.8115 68.1683C22.1764 67.9767 21.5352 67.8074 20.886 67.6682C20.8598 67.6622 20.8356 67.6582 20.8094 67.6521C20.8759 67.4303 20.9465 67.2085 21.0211 66.9908H21.0251ZM20.5009 68.7812C20.511 68.7389 20.5231 68.6965 20.5332 68.6562C20.5675 68.6663 20.5997 68.6743 20.634 68.6844C21.2449 68.8598 21.8518 69.0534 22.4526 69.2671C22.6381 69.3336 22.8216 69.4022 23.0051 69.4728C22.9627 69.4929 22.9184 69.5111 22.876 69.5312C22.2752 69.8095 21.6824 70.1079 21.0977 70.4204C20.7449 70.6079 20.3961 70.8035 20.0513 71.0051C20.1703 70.2551 20.3175 69.5131 20.5009 68.7812ZM22.8176 82.2979C22.2147 82.4995 21.6038 82.683 20.9909 82.8403C20.757 82.9008 20.5211 82.9592 20.2872 83.0117C20.2771 82.9653 20.267 82.9189 20.257 82.8705C20.1924 82.5621 20.132 82.2516 20.0795 81.9411C19.9807 81.3685 19.9041 80.7898 19.8376 80.2111C20.9364 80.9208 22.0776 81.5701 23.2551 82.1467C23.1099 82.1971 22.9627 82.2475 22.8155 82.2959L22.8176 82.2979ZM24.7632 81.5781C23.0373 80.9168 21.3598 80.1123 19.7428 79.197C19.5775 77.0941 19.6017 74.973 19.8094 72.8802C21.3457 71.8479 22.9748 70.9365 24.6584 70.1522C26.4488 70.9486 28.1807 71.8862 29.8098 72.9608C29.836 73.1907 29.8602 73.4225 29.8844 73.6524C29.9449 74.2855 29.9872 74.9206 30.0135 75.5577C30.0296 75.8763 30.0336 76.1948 30.0417 76.5134C30.0437 76.832 30.0477 77.1525 30.0437 77.4711C30.0397 77.961 30.0256 78.451 30.0014 78.9409C29.9288 78.9853 29.8542 79.0317 29.7816 79.076C28.1686 80.0337 26.4911 80.8785 24.7632 81.5781ZM28.4529 82.7415C28.1444 82.6669 27.838 82.5862 27.5335 82.5016C27.227 82.4169 26.9226 82.3241 26.6202 82.2274C26.5032 82.1891 26.3843 82.1507 26.2673 82.1124C27.5396 81.4592 28.7674 80.7212 29.9429 79.9127C29.8643 80.941 29.7372 81.9653 29.5517 82.9834C29.1848 82.9109 28.8178 82.8302 28.4549 82.7415H28.4529ZM36.8061 81.2495C36.8 81.3664 36.7799 81.4793 36.7517 81.5862C36.7234 81.6931 36.6871 81.7979 36.6388 81.8947C36.5904 81.9935 36.5339 82.0862 36.4694 82.1749C36.4008 82.2637 36.3242 82.3463 36.2375 82.4249C36.0641 82.5822 35.8524 82.7193 35.6125 82.8322C35.4935 82.8907 35.3665 82.9391 35.2375 82.9855C35.1064 83.0298 34.9734 83.0722 34.8342 83.1064C34.558 83.177 34.2697 83.2294 33.9753 83.2657C33.3866 83.3383 32.7737 83.3484 32.1587 83.3181C31.5417 83.2859 30.9207 83.2173 30.3018 83.1205C30.1385 83.0943 29.9751 83.0661 29.8118 83.0359C29.9751 82.4895 30.1163 81.935 30.2413 81.3785C30.3865 80.7434 30.4973 80.1002 30.5982 79.4551C30.5982 79.451 30.5982 79.449 30.5982 79.445C30.9994 79.1526 31.3946 78.8522 31.7776 78.5357L31.9692 78.3804C32.0317 78.328 32.0942 78.2736 32.1567 78.2211L32.5317 77.9006C32.7757 77.6808 33.0237 77.463 33.2575 77.2352C33.4975 77.0114 33.7273 76.7775 33.9572 76.5436C33.9995 76.4973 34.0419 76.4529 34.0842 76.4065C34.4209 76.7473 34.7435 77.0981 35.0459 77.463C35.4371 77.9368 35.796 78.4308 36.0924 78.9429C36.2395 79.199 36.3746 79.4591 36.4855 79.7192C36.5944 79.9813 36.6851 80.2454 36.7396 80.5035C36.796 80.7616 36.8182 81.0136 36.8021 81.2495H36.8061Z" fill="#DA6266"/>
<path d="M28.4186 85.1086C27.5456 85.1086 26.8359 85.8184 26.8359 86.6914C26.8359 87.5644 27.5456 88.2741 28.4186 88.2741C29.2916 88.2741 30.0013 87.5644 30.0013 86.6914C30.0013 85.8184 29.2916 85.1086 28.4186 85.1086ZM28.0738 85.8567C27.975 85.9252 27.8863 85.9978 27.8057 86.0784C27.725 86.1591 27.6524 86.2458 27.5839 86.3466C27.5153 86.4474 27.4548 86.5583 27.3863 86.6914C27.3177 86.5563 27.3097 86.397 27.346 86.2458C27.3823 86.0966 27.4629 85.9555 27.5738 85.8446C27.6847 85.7337 27.8258 85.653 27.975 85.6167C28.1242 85.5825 28.2835 85.5885 28.4206 85.6571C28.2855 85.7256 28.1746 85.7881 28.0758 85.8567H28.0738Z" fill="#DA6266"/>
<path d="M24.6463 73.1707C23.1805 73.1707 21.9869 74.3643 21.9869 75.83C21.9869 77.2958 23.1805 78.4894 24.6463 78.4894C26.1121 78.4894 27.3057 77.2979 27.3057 75.83C27.3057 74.3622 26.1121 73.1707 24.6463 73.1707ZM23.987 74.2251C23.7914 74.3421 23.616 74.4772 23.4607 74.6324C23.3055 74.7877 23.1684 74.9631 23.0534 75.1586C22.9345 75.3542 22.8417 75.572 22.749 75.818C22.6563 75.5679 22.6623 75.2877 22.7349 75.0256C22.8095 74.7614 22.9547 74.5155 23.1502 74.3199C23.3458 74.1243 23.5918 73.9771 23.8559 73.9046C24.118 73.832 24.4003 73.8259 24.6483 73.9187C24.4003 74.0114 24.1845 74.1062 23.989 74.2231L23.987 74.2251Z" fill="#DA6266"/>
<path d="M201.751 25.6687H196.001V27.201H201.751V25.6687Z" fill="#D24347"/>
<path d="M201.751 22.7068H196.001V24.2391H201.751V22.7068Z" fill="#D24347"/>
<path d="M203.816 20.1442C204.919 21.247 205.602 22.6584 205.788 24.1827H213.641C213.239 16.6622 207.193 10.6175 199.674 10.2163V18.0735C201.152 18.255 202.582 18.9082 203.713 20.0413L203.818 20.1462L203.816 20.1442ZM203.836 16.3194H209.011V18.1582H203.836V16.3194Z" fill="#D24347"/>
<path d="M194.043 29.9168L193.938 29.8119C192.835 28.7091 192.152 27.2977 191.966 25.7734H184.113C184.514 33.2939 190.561 39.3386 198.08 39.7398V31.8826C196.602 31.7011 195.172 31.0479 194.041 29.9148L194.043 29.9168ZM190.128 35.1045L188.827 33.804L192.487 30.1446L193.787 31.4451L190.128 35.1045Z" fill="#D24347"/>
<path d="M193.938 20.0392C195.073 18.9041 196.507 18.2508 197.987 18.0714V10.2202C190.541 10.6638 184.563 16.6439 184.119 24.0878H191.966C192.15 22.5595 192.833 21.1441 193.938 20.0392ZM188.72 18.1581V16.3193H190.388V14.6519H192.226V16.3193H193.894V18.1581H192.226V19.8255H190.388V18.1581H188.72Z" fill="#D24347"/>
<path d="M203.816 29.9167C202.681 31.0519 201.247 31.7051 199.767 31.8846V39.7357C207.213 39.2922 213.191 33.312 213.635 25.8682H205.788C205.604 27.3965 204.921 28.8118 203.816 29.9167ZM207.602 30.1446L208.903 31.445L207.723 32.6245L208.903 33.804L207.602 35.1045L206.423 33.925L205.243 35.1045L203.943 33.804L205.122 32.6245L203.943 31.445L205.243 30.1446L206.423 31.3241L207.602 30.1446Z" fill="#D24347"/>
<path d="M3.48001 116.58C3.16144 116.223 2.70981 116.045 2.12712 116.045C1.64726 116.045 1.29644 116.136 1.07667 116.32C0.856904 116.503 0.748028 116.749 0.748028 117.058C0.748028 117.215 0.776255 117.346 0.830693 117.449C0.887147 117.554 0.971828 117.642 1.09079 117.715C1.20773 117.789 1.35693 117.852 1.53839 117.902C1.71783 117.953 1.93558 118.007 2.18963 118.062C2.45375 118.118 2.69166 118.179 2.9074 118.245C3.12314 118.312 3.30459 118.396 3.45581 118.499C3.60501 118.6 3.72195 118.725 3.8026 118.874C3.88325 119.021 3.92357 119.205 3.92357 119.423C3.92357 119.64 3.88123 119.83 3.79454 119.991C3.70986 120.152 3.58888 120.288 3.43363 120.396C3.27838 120.505 3.09289 120.588 2.87917 120.642C2.66344 120.699 2.42552 120.725 2.1614 120.725C1.39322 120.725 0.743996 120.479 0.21373 119.989L0.401238 119.705C0.608909 119.923 0.862953 120.094 1.16337 120.221C1.46379 120.348 1.80049 120.413 2.17551 120.413C2.60497 120.413 2.94168 120.334 3.18362 120.177C3.42557 120.019 3.54856 119.781 3.54856 119.463C3.54856 119.302 3.5163 119.165 3.45178 119.05C3.38726 118.937 3.29048 118.838 3.16346 118.755C3.03644 118.673 2.87514 118.6 2.68158 118.54C2.48803 118.479 2.26019 118.423 2.00212 118.366C1.73799 118.31 1.50613 118.251 1.3045 118.189C1.10288 118.126 0.935537 118.048 0.798434 117.953C0.661331 117.858 0.558503 117.743 0.489952 117.61C0.421401 117.477 0.385109 117.308 0.385109 117.104C0.385109 116.882 0.427449 116.687 0.514147 116.515C0.598828 116.344 0.717785 116.201 0.871018 116.082C1.02425 115.965 1.20571 115.874 1.41943 115.816C1.63113 115.755 1.86703 115.725 2.12712 115.725C2.44569 115.725 2.72997 115.773 2.97998 115.866C3.22999 115.961 3.45581 116.106 3.65945 116.299L3.48001 116.578V116.58Z" fill="white"/>
<path d="M5.16357 118.189C5.16357 117.892 5.216 117.598 5.31882 117.304C5.42367 117.009 5.57488 116.747 5.77247 116.517C5.97208 116.286 6.21604 116.098 6.50436 115.953C6.79268 115.808 7.12334 115.735 7.49231 115.735C7.93184 115.735 8.30686 115.836 8.61534 116.038C8.92584 116.239 9.15569 116.497 9.30892 116.81L9.01859 116.977C8.92987 116.806 8.82705 116.663 8.71011 116.548C8.59316 116.433 8.46413 116.338 8.32904 116.267C8.19194 116.195 8.0508 116.144 7.90362 116.112C7.75643 116.08 7.60925 116.064 7.4661 116.064C7.15157 116.064 6.87333 116.128 6.6334 116.255C6.39347 116.382 6.18983 116.548 6.02248 116.751C5.85514 116.955 5.73013 117.185 5.64545 117.441C5.56077 117.697 5.51641 117.955 5.51641 118.213C5.51641 118.503 5.56682 118.782 5.66965 119.046C5.77046 119.31 5.90958 119.542 6.08499 119.743C6.2604 119.945 6.46807 120.104 6.71001 120.225C6.94994 120.346 7.21004 120.405 7.48626 120.405C7.63344 120.405 7.78668 120.387 7.94394 120.348C8.10121 120.312 8.25041 120.253 8.39557 120.175C8.53873 120.096 8.67381 119.995 8.7968 119.872C8.92181 119.749 9.02464 119.606 9.10932 119.439L9.41377 119.584C9.3311 119.77 9.21819 119.933 9.07302 120.076C8.92987 120.219 8.77059 120.34 8.59518 120.437C8.41977 120.534 8.23428 120.606 8.03669 120.655C7.84111 120.703 7.64756 120.727 7.45803 120.727C7.12132 120.727 6.81284 120.653 6.53259 120.505C6.25233 120.358 6.01039 120.165 5.80876 119.927C5.60513 119.689 5.44786 119.419 5.33294 119.116C5.22003 118.814 5.16357 118.505 5.16357 118.191V118.189Z" fill="white"/>
<path d="M10.9824 120.685V115.761H11.3352V120.685H10.9824Z" fill="white"/>
<path d="M16.5975 120.366V120.685H13.3172V115.761H16.535V116.08H13.672V118.015H16.1762V118.32H13.672V120.366H16.5975Z" fill="white"/>
<path d="M18.6097 116.427V120.685H18.2569V115.761H18.5271L21.9809 120.094V115.761H22.3337V120.685H22.0071L18.6097 116.427Z" fill="white"/>
<path d="M23.9689 118.189C23.9689 117.892 24.0213 117.598 24.1241 117.304C24.229 117.009 24.3802 116.747 24.5778 116.517C24.7774 116.286 25.0213 116.098 25.3096 115.953C25.598 115.808 25.9286 115.735 26.2976 115.735C26.7371 115.735 27.1121 115.836 27.4206 116.038C27.7311 116.239 27.961 116.497 28.1142 116.81L27.8239 116.977C27.7352 116.806 27.6323 116.663 27.5154 116.548C27.3985 116.433 27.2694 116.338 27.1343 116.267C26.9972 116.195 26.8561 116.144 26.7069 116.112C26.5597 116.08 26.4125 116.064 26.2694 116.064C25.9548 116.064 25.6766 116.128 25.4367 116.255C25.1967 116.382 24.9931 116.548 24.8258 116.751C24.6584 116.955 24.5334 117.185 24.4487 117.441C24.364 117.697 24.3197 117.955 24.3197 118.213C24.3197 118.503 24.3701 118.782 24.4729 119.046C24.5737 119.31 24.7128 119.542 24.8883 119.743C25.0637 119.945 25.2713 120.104 25.5133 120.225C25.7532 120.346 26.0133 120.405 26.2895 120.405C26.4367 120.405 26.5899 120.387 26.7472 120.348C26.9045 120.312 27.0537 120.253 27.1988 120.175C27.342 120.096 27.4771 119.995 27.6001 119.872C27.7251 119.749 27.8279 119.606 27.9126 119.439L28.217 119.584C28.1344 119.77 28.0215 119.933 27.8763 120.076C27.7331 120.219 27.5739 120.34 27.3984 120.437C27.223 120.534 27.0375 120.606 26.84 120.655C26.6444 120.703 26.4508 120.727 26.2613 120.727C25.9246 120.727 25.6161 120.653 25.3359 120.505C25.0556 120.358 24.8137 120.165 24.612 119.927C24.4084 119.689 24.2511 119.419 24.1362 119.116C24.0233 118.814 23.9668 118.505 23.9668 118.191L23.9689 118.189Z" fill="white"/>
<path d="M33.066 120.366V120.685H29.7857V115.761H33.0035V116.08H30.1405V118.015H32.6447V118.32H30.1405V120.366H33.066Z" fill="white"/>
<path d="M37.0198 118.959V118.64H39.0159V118.959H37.0198Z" fill="white"/>
<path d="M46.5404 116.08H44.7379V120.685H44.3851V116.08H42.5826V115.761H46.5424V116.08H46.5404Z" fill="white"/>
<path d="M51.2765 120.366V120.685H47.9961V115.761H51.214V116.08H48.351V118.015H50.8551V118.32H48.351V120.366H51.2765Z" fill="white"/>
<path d="M52.4882 118.189C52.4882 117.892 52.5407 117.598 52.6435 117.304C52.7483 117.009 52.8996 116.747 53.0971 116.517C53.2968 116.286 53.5407 116.098 53.829 115.953C54.1174 115.808 54.448 115.735 54.817 115.735C55.2565 115.735 55.6315 115.836 55.94 116.038C56.2505 116.239 56.4804 116.497 56.6336 116.81L56.3433 116.977C56.2545 116.806 56.1517 116.663 56.0348 116.548C55.9178 116.433 55.7888 116.338 55.6537 116.267C55.5166 116.195 55.3755 116.144 55.2263 116.112C55.0791 116.08 54.9319 116.064 54.7888 116.064C54.4742 116.064 54.196 116.128 53.9561 116.255C53.7161 116.382 53.5125 116.548 53.3451 116.751C53.1778 116.955 53.0528 117.185 52.9681 117.441C52.8834 117.697 52.8391 117.955 52.8391 118.213C52.8391 118.503 52.8895 118.782 52.9923 119.046C53.0931 119.31 53.2322 119.542 53.4076 119.743C53.5831 119.945 53.7907 120.104 54.0327 120.225C54.2726 120.346 54.5327 120.405 54.8089 120.405C54.9561 120.405 55.1093 120.387 55.2666 120.348C55.4239 120.312 55.5731 120.253 55.7182 120.175C55.8614 120.096 55.9965 119.995 56.1195 119.872C56.2445 119.749 56.3473 119.606 56.432 119.439L56.7364 119.584C56.6538 119.77 56.5408 119.933 56.3957 120.076C56.2525 120.219 56.0932 120.34 55.9178 120.437C55.7424 120.534 55.5569 120.606 55.3593 120.655C55.1638 120.703 54.9702 120.727 54.7807 120.727C54.444 120.727 54.1355 120.653 53.8552 120.505C53.575 120.358 53.333 120.165 53.1314 119.927C52.9278 119.689 52.7705 119.419 52.6556 119.116C52.5427 118.814 52.4862 118.505 52.4862 118.191L52.4882 118.189Z" fill="white"/>
<path d="M62.1197 115.761V120.685H61.7669V118.328H58.6599V120.685H58.3071V115.761H58.6599V118.007H61.7669V115.761H62.1197Z" fill="white"/>
<path d="M64.4505 116.427V120.685H64.0976V115.761H64.3678L67.8216 120.094V115.761H68.1744V120.685H67.8478L64.4505 116.427Z" fill="white"/>
<path d="M72.1121 120.719C71.7693 120.719 71.4588 120.647 71.1766 120.503C70.8943 120.36 70.6524 120.173 70.4487 119.941C70.2451 119.709 70.0878 119.445 69.9769 119.144C69.866 118.844 69.8096 118.538 69.8096 118.223C69.8096 117.909 69.868 117.58 69.987 117.279C70.1039 116.979 70.2673 116.713 70.4729 116.483C70.6786 116.251 70.9225 116.068 71.2048 115.933C71.4871 115.796 71.7915 115.729 72.1202 115.729C72.4488 115.729 72.7754 115.802 73.0597 115.947C73.344 116.092 73.586 116.283 73.7876 116.519C73.9892 116.755 74.1445 117.021 74.2553 117.32C74.3662 117.618 74.4227 117.919 74.4227 118.225C74.4227 118.558 74.3642 118.874 74.2453 119.175C74.1283 119.475 73.965 119.739 73.7593 119.969C73.5537 120.199 73.3097 120.38 73.0275 120.518C72.7452 120.655 72.4407 120.721 72.1121 120.721V120.719ZM70.1644 118.223C70.1644 118.505 70.2108 118.778 70.3056 119.038C70.4003 119.3 70.5354 119.53 70.7068 119.731C70.8802 119.933 71.0879 120.092 71.3278 120.213C71.5677 120.334 71.8318 120.393 72.1181 120.393C72.4045 120.393 72.6807 120.33 72.9186 120.205C73.1565 120.08 73.3601 119.915 73.5295 119.709C73.6989 119.503 73.8279 119.272 73.9207 119.011C74.0134 118.753 74.0598 118.489 74.0598 118.221C74.0598 117.939 74.0114 117.667 73.9146 117.407C73.8178 117.144 73.6827 116.915 73.5093 116.713C73.3359 116.511 73.1323 116.352 72.8964 116.231C72.6605 116.11 72.4024 116.052 72.1202 116.052C71.8238 116.052 71.5556 116.114 71.3157 116.239C71.0758 116.364 70.8701 116.529 70.6987 116.735C70.5274 116.941 70.3963 117.173 70.3036 117.433C70.2108 117.691 70.1644 117.955 70.1644 118.223Z" fill="white"/>
<path d="M76.0639 120.685V115.761H76.4168V120.366H79.3564V120.685H76.0619H76.0639Z" fill="white"/>
<path d="M82.4372 120.719C82.0945 120.719 81.784 120.647 81.5017 120.503C81.2194 120.36 80.9775 120.173 80.7738 119.941C80.5702 119.709 80.4129 119.445 80.302 119.144C80.1911 118.844 80.1347 118.538 80.1347 118.223C80.1347 117.909 80.1932 117.58 80.3121 117.279C80.4291 116.979 80.5924 116.713 80.798 116.483C81.0037 116.251 81.2476 116.068 81.5299 115.933C81.8122 115.796 82.1166 115.729 82.4453 115.729C82.7739 115.729 83.1005 115.802 83.3848 115.947C83.6691 116.092 83.9111 116.283 84.1127 116.519C84.3143 116.755 84.4696 117.021 84.5805 117.32C84.6913 117.618 84.7478 117.919 84.7478 118.225C84.7478 118.558 84.6893 118.874 84.5704 119.175C84.4534 119.475 84.2901 119.739 84.0845 119.969C83.8788 120.199 83.6348 120.38 83.3526 120.518C83.0703 120.655 82.7659 120.721 82.4372 120.721V120.719ZM80.4895 118.223C80.4895 118.505 80.5359 118.778 80.6307 119.038C80.7254 119.3 80.8605 119.53 81.0319 119.731C81.2053 119.933 81.413 120.092 81.6529 120.213C81.8928 120.334 82.157 120.393 82.4433 120.393C82.7296 120.393 83.0058 120.33 83.2437 120.205C83.4816 120.08 83.6852 119.915 83.8546 119.709C84.024 119.503 84.153 119.272 84.2458 119.011C84.3385 118.753 84.3849 118.489 84.3849 118.221C84.3849 117.939 84.3365 117.667 84.2397 117.407C84.1429 117.144 84.0078 116.915 83.8344 116.713C83.6611 116.511 83.4574 116.352 83.2215 116.231C82.9856 116.11 82.7275 116.052 82.4453 116.052C82.1489 116.052 81.8807 116.114 81.6408 116.239C81.4009 116.364 81.1952 116.529 81.0238 116.735C80.8525 116.941 80.7214 117.173 80.6287 117.433C80.5359 117.691 80.4895 117.955 80.4895 118.223Z" fill="white"/>
<path d="M90.0162 119.915C89.5403 120.451 88.9879 120.719 88.3588 120.719C88.0262 120.719 87.7177 120.647 87.4334 120.503C87.1491 120.36 86.9051 120.171 86.7015 119.935C86.4979 119.699 86.3386 119.431 86.2237 119.13C86.1087 118.83 86.0503 118.526 86.0503 118.215C86.0503 117.905 86.1067 117.58 86.2196 117.279C86.3325 116.979 86.4898 116.713 86.6914 116.483C86.893 116.251 87.131 116.068 87.4092 115.933C87.6874 115.796 87.9899 115.729 88.3185 115.729C88.5645 115.729 88.7843 115.755 88.9798 115.81C89.1754 115.862 89.3528 115.937 89.5061 116.031C89.6613 116.126 89.7944 116.239 89.9073 116.372C90.0202 116.503 90.117 116.648 90.1956 116.806L89.9053 116.979C89.7379 116.656 89.5182 116.421 89.244 116.275C88.9698 116.13 88.6572 116.058 88.3105 116.058C88.0201 116.058 87.756 116.12 87.5201 116.245C87.2842 116.37 87.0826 116.533 86.9172 116.737C86.7499 116.941 86.6229 117.173 86.5362 117.431C86.4475 117.689 86.4051 117.955 86.4051 118.229C86.4051 118.519 86.4555 118.796 86.5584 119.058C86.6592 119.32 86.8003 119.55 86.9777 119.747C87.1552 119.947 87.3648 120.104 87.6048 120.223C87.8447 120.34 88.1048 120.401 88.381 120.401C88.6814 120.401 88.9677 120.332 89.2379 120.193C89.5081 120.054 89.7682 119.834 90.0182 119.534V118.584H88.9012V118.3H90.3226V120.693H90.0182V119.923L90.0162 119.915Z" fill="white"/>
<path d="M91.7219 115.761L93.4417 118.487L95.1676 115.761H95.5628L93.6212 118.826V120.685H93.2683V118.812L91.3328 115.761H91.7219Z" fill="white"/>
<path d="M99.0851 118.959V118.64H101.081V118.959H99.0851Z" fill="white"/>
<path d="M108.64 120.366V120.685H105.36V115.761H108.577V116.08H105.714V118.015H108.219V118.32H105.714V120.366H108.64Z" fill="white"/>
<path d="M110.652 116.427V120.685H110.299V115.761H110.569L114.023 120.094V115.761H114.376V120.685H114.049L110.652 116.427Z" fill="white"/>
<path d="M119.979 119.915C119.503 120.451 118.951 120.719 118.322 120.719C117.989 120.719 117.681 120.647 117.396 120.503C117.112 120.36 116.868 120.171 116.665 119.935C116.461 119.699 116.302 119.431 116.187 119.13C116.072 118.83 116.013 118.526 116.013 118.215C116.013 117.905 116.07 117.58 116.183 117.279C116.296 116.979 116.453 116.713 116.654 116.483C116.856 116.251 117.094 116.068 117.372 115.933C117.65 115.796 117.953 115.729 118.282 115.729C118.528 115.729 118.747 115.755 118.943 115.81C119.138 115.862 119.316 115.937 119.469 116.031C119.624 116.126 119.757 116.239 119.87 116.372C119.983 116.503 120.08 116.648 120.159 116.806L119.868 116.979C119.701 116.656 119.481 116.421 119.207 116.275C118.933 116.13 118.62 116.058 118.273 116.058C117.983 116.058 117.719 116.12 117.483 116.245C117.247 116.37 117.046 116.533 116.88 116.737C116.713 116.941 116.586 117.173 116.499 117.431C116.41 117.689 116.368 117.955 116.368 118.229C116.368 118.519 116.419 118.796 116.521 119.058C116.622 119.32 116.763 119.55 116.941 119.747C117.118 119.947 117.328 120.104 117.568 120.223C117.808 120.34 118.068 120.401 118.344 120.401C118.644 120.401 118.931 120.332 119.201 120.193C119.471 120.054 119.731 119.834 119.981 119.534V118.584H118.864V118.3H120.286V120.693H119.981V119.923L119.979 119.915Z" fill="white"/>
<path d="M122.018 120.685V115.761H122.37V120.685H122.018Z" fill="white"/>
<path d="M124.707 116.427V120.685H124.354V115.761H124.625L128.078 120.094V115.761H128.431V120.685H128.105L124.707 116.427Z" fill="white"/>
<path d="M133.687 120.366V120.685H130.407V115.761H133.625V116.08H130.762V118.015H133.266V118.32H130.762V120.366H133.687Z" fill="white"/>
<path d="M138.623 120.366V120.685H135.343V115.761H138.561V116.08H135.698V118.015H138.202V118.32H135.698V120.366H138.623Z" fill="white"/>
<path d="M140.281 120.685V115.761H142.327C142.535 115.761 142.726 115.806 142.902 115.892C143.077 115.981 143.228 116.096 143.355 116.243C143.482 116.388 143.581 116.554 143.654 116.735C143.726 116.919 143.76 117.102 143.76 117.285C143.76 117.469 143.732 117.64 143.678 117.81C143.621 117.979 143.543 118.13 143.442 118.263C143.341 118.398 143.218 118.509 143.075 118.596C142.932 118.685 142.775 118.741 142.603 118.769L143.831 120.683H143.422L142.228 118.824H140.633V120.683H140.281V120.685ZM140.635 118.501H142.361C142.519 118.501 142.662 118.467 142.791 118.396C142.92 118.328 143.031 118.235 143.123 118.122C143.216 118.009 143.287 117.88 143.335 117.733C143.383 117.588 143.408 117.439 143.408 117.285C143.408 117.132 143.379 116.977 143.321 116.832C143.262 116.687 143.184 116.558 143.085 116.447C142.986 116.336 142.869 116.247 142.738 116.181C142.607 116.114 142.464 116.08 142.311 116.08H140.633V118.499L140.635 118.501Z" fill="white"/>
<path d="M145.474 120.685V115.761H145.827V120.685H145.474Z" fill="white"/>
<path d="M148.166 116.427V120.685H147.813V115.761H148.083L151.537 120.094V115.761H151.89V120.685H151.563L148.166 116.427Z" fill="white"/>
<path d="M157.491 119.915C157.015 120.451 156.463 120.719 155.834 120.719C155.501 120.719 155.192 120.647 154.908 120.503C154.624 120.36 154.38 120.171 154.176 119.935C153.973 119.699 153.813 119.431 153.698 119.13C153.584 118.83 153.525 118.526 153.525 118.215C153.525 117.905 153.581 117.58 153.694 117.279C153.807 116.979 153.965 116.713 154.166 116.483C154.368 116.251 154.606 116.068 154.884 115.933C155.162 115.796 155.465 115.729 155.793 115.729C156.037 115.729 156.259 115.755 156.455 115.81C156.65 115.862 156.828 115.937 156.981 116.031C157.136 116.126 157.269 116.239 157.382 116.372C157.495 116.503 157.592 116.648 157.67 116.806L157.38 116.979C157.213 116.656 156.993 116.421 156.719 116.275C156.445 116.13 156.132 116.058 155.785 116.058C155.495 116.058 155.231 116.12 154.995 116.245C154.759 116.37 154.557 116.533 154.392 116.737C154.225 116.941 154.098 117.173 154.011 117.431C153.922 117.689 153.88 117.955 153.88 118.229C153.88 118.519 153.93 118.796 154.033 119.058C154.134 119.32 154.275 119.55 154.452 119.747C154.63 119.947 154.84 120.104 155.08 120.223C155.319 120.34 155.58 120.401 155.856 120.401C156.156 120.401 156.443 120.332 156.713 120.193C156.983 120.054 157.243 119.834 157.493 119.534V118.584H156.376V118.3H157.797V120.693H157.493V119.923L157.491 119.915Z" fill="white"/>
<path d="M161.826 118.959V118.64H163.822V118.959H161.826Z" fill="white"/>
<path d="M172.56 120.685V116.427L170.619 119.747H170.397L168.455 116.427V120.685H168.102V115.761H168.455L170.508 119.284L172.56 115.761H172.913V120.685H172.56Z" fill="white"/>
<path d="M176.441 115.761H176.746L178.827 120.685H178.452L177.766 119.062H175.415L174.73 120.685H174.349L176.443 115.761H176.441ZM177.669 118.771L176.595 116.193L175.5 118.771H177.669Z" fill="white"/>
<path d="M183.224 116.08H181.421V120.685H181.069V116.08H179.266V115.761H183.226V116.08H183.224Z" fill="white"/>
<path d="M188.492 115.761V120.685H188.14V118.328H185.033V120.685H184.68V115.761H185.033V118.007H188.14V115.761H188.492Z" fill="white"/>
<path d="M193.749 120.366V120.685H190.468V115.761H193.686V116.08H190.823V118.015H193.327V118.32H190.823V120.366H193.749Z" fill="white"/>
<path d="M199.866 120.685V116.427L197.924 119.747H197.702L195.761 116.427V120.685H195.408V115.761H195.761L197.813 119.284L199.866 115.761H200.219V120.685H199.866Z" fill="white"/>
<path d="M203.749 115.761H204.054L206.134 120.685H205.759L205.074 119.062H202.723L202.037 120.685H201.656L203.751 115.761H203.749ZM204.975 118.771L203.9 116.193L202.806 118.771H204.975Z" fill="white"/>
<path d="M210.53 116.08H208.727V120.685H208.374V116.08H206.572V115.761H210.532V116.08H210.53Z" fill="white"/>
<path d="M211.985 120.685V115.761H212.338V120.685H211.985Z" fill="white"/>
<path d="M213.983 118.189C213.983 117.892 214.036 117.598 214.139 117.304C214.243 117.009 214.395 116.747 214.592 116.517C214.792 116.286 215.036 116.098 215.324 115.953C215.612 115.808 215.943 115.735 216.312 115.735C216.752 115.735 217.127 115.836 217.435 116.038C217.746 116.239 217.976 116.497 218.129 116.81L217.838 116.977C217.75 116.806 217.647 116.663 217.53 116.548C217.413 116.433 217.284 116.338 217.149 116.267C217.012 116.195 216.871 116.144 216.721 116.112C216.574 116.08 216.427 116.064 216.284 116.064C215.969 116.064 215.691 116.128 215.451 116.255C215.211 116.382 215.008 116.548 214.84 116.751C214.673 116.955 214.548 117.185 214.463 117.441C214.379 117.697 214.334 117.955 214.334 118.213C214.334 118.503 214.385 118.782 214.487 119.046C214.588 119.31 214.727 119.542 214.903 119.743C215.078 119.945 215.286 120.104 215.528 120.225C215.768 120.346 216.028 120.405 216.304 120.405C216.451 120.405 216.604 120.387 216.762 120.348C216.919 120.312 217.068 120.253 217.213 120.175C217.357 120.096 217.492 119.995 217.615 119.872C217.74 119.749 217.842 119.606 217.927 119.439L218.232 119.584C218.149 119.77 218.036 119.933 217.891 120.076C217.748 120.219 217.588 120.34 217.413 120.437C217.238 120.534 217.052 120.606 216.854 120.655C216.659 120.703 216.465 120.727 216.276 120.727C215.939 120.727 215.631 120.653 215.35 120.505C215.07 120.358 214.828 120.165 214.627 119.927C214.423 119.689 214.266 119.419 214.151 119.116C214.038 118.814 213.981 118.505 213.981 118.191L213.983 118.189Z" fill="white"/>
<path d="M222.663 116.58C222.345 116.223 221.893 116.045 221.31 116.045C220.83 116.045 220.48 116.136 220.26 116.32C220.04 116.503 219.931 116.749 219.931 117.058C219.931 117.215 219.959 117.346 220.014 117.449C220.07 117.554 220.157 117.642 220.274 117.715C220.391 117.789 220.54 117.852 220.722 117.902C220.901 117.953 221.119 118.007 221.373 118.062C221.637 118.118 221.875 118.179 222.091 118.245C222.306 118.312 222.488 118.396 222.639 118.499C222.788 118.6 222.905 118.725 222.986 118.874C223.066 119.021 223.107 119.205 223.107 119.423C223.107 119.64 223.064 119.83 222.978 119.991C222.893 120.152 222.772 120.288 222.617 120.396C222.462 120.505 222.276 120.588 222.062 120.642C221.847 120.699 221.609 120.725 221.345 120.725C220.576 120.725 219.927 120.479 219.397 119.989L219.584 119.705C219.792 119.923 220.046 120.094 220.347 120.221C220.647 120.348 220.984 120.413 221.359 120.413C221.788 120.413 222.125 120.334 222.367 120.177C222.609 120.019 222.732 119.781 222.732 119.463C222.732 119.302 222.7 119.165 222.635 119.05C222.57 118.937 222.474 118.838 222.347 118.755C222.22 118.673 222.058 118.6 221.865 118.54C221.671 118.479 221.443 118.423 221.185 118.366C220.921 118.31 220.689 118.251 220.488 118.189C220.286 118.126 220.119 118.048 219.982 117.953C219.845 117.858 219.742 117.743 219.673 117.61C219.605 117.477 219.568 117.308 219.568 117.104C219.568 116.882 219.611 116.687 219.697 116.515C219.782 116.344 219.901 116.201 220.054 116.082C220.207 115.965 220.389 115.874 220.603 115.816C220.814 115.755 221.05 115.725 221.31 115.725C221.629 115.725 221.913 115.773 222.163 115.866C222.413 115.961 222.639 116.106 222.843 116.299L222.663 116.578V116.58Z" fill="white"/>
<path d="M3.48001 116.58C3.16144 116.223 2.70981 116.045 2.12712 116.045C1.64726 116.045 1.29644 116.136 1.07667 116.32C0.856904 116.503 0.748028 116.749 0.748028 117.058C0.748028 117.215 0.776255 117.346 0.830693 117.449C0.887147 117.554 0.973845 117.642 1.09079 117.715C1.20773 117.789 1.35693 117.852 1.53839 117.902C1.71783 117.953 1.93558 118.007 2.18963 118.062C2.45375 118.116 2.69166 118.179 2.9074 118.245C3.12314 118.312 3.30459 118.396 3.45581 118.499C3.60703 118.6 3.72195 118.725 3.8026 118.874C3.88325 119.021 3.92357 119.205 3.92357 119.423C3.92357 119.64 3.88123 119.83 3.79454 119.991C3.70986 120.152 3.58888 120.288 3.43363 120.396C3.27838 120.505 3.09289 120.588 2.87917 120.642C2.66344 120.699 2.42552 120.725 2.1614 120.725C1.39322 120.725 0.743996 120.479 0.21373 119.989L0.401238 119.705C0.608909 119.923 0.862953 120.094 1.16337 120.221C1.46379 120.348 1.80049 120.413 2.17551 120.413C2.60497 120.413 2.94168 120.334 3.18362 120.177C3.42557 120.019 3.54856 119.781 3.54856 119.463C3.54856 119.302 3.5163 119.165 3.45178 119.05C3.38726 118.937 3.29048 118.838 3.16346 118.755C3.03644 118.673 2.87514 118.6 2.68158 118.54C2.48803 118.479 2.26019 118.423 2.00212 118.366C1.73799 118.312 1.50613 118.251 1.3045 118.189C1.10288 118.126 0.935537 118.048 0.798434 117.953C0.661331 117.858 0.558503 117.743 0.489952 117.61C0.421401 117.475 0.385109 117.308 0.385109 117.104C0.385109 116.882 0.427449 116.687 0.514147 116.515C0.598828 116.344 0.717785 116.201 0.871018 116.082C1.02425 115.965 1.20571 115.874 1.41943 115.816C1.63113 115.755 1.86703 115.725 2.12712 115.725C2.44569 115.725 2.72997 115.773 2.97998 115.866C3.22999 115.961 3.45581 116.106 3.65945 116.299L3.48001 116.578V116.58Z" fill="url(#paint1_linear_234_19597)"/>
<path d="M5.16358 118.189C5.16358 117.892 5.216 117.598 5.31882 117.304C5.42367 117.009 5.57488 116.747 5.77247 116.517C5.97208 116.286 6.21604 116.098 6.50436 115.953C6.79268 115.808 7.12334 115.735 7.49231 115.735C7.93185 115.735 8.30686 115.836 8.61534 116.038C8.92584 116.239 9.15569 116.497 9.30892 116.81L9.01859 116.977C8.92987 116.806 8.82705 116.663 8.71011 116.548C8.59317 116.433 8.46413 116.338 8.32904 116.267C8.19194 116.195 8.0508 116.144 7.9016 116.112C7.75442 116.08 7.60723 116.064 7.46408 116.064C7.14955 116.064 6.87333 116.128 6.63138 116.255C6.39145 116.382 6.18782 116.548 6.02047 116.751C5.85312 116.955 5.72812 117.185 5.64344 117.441C5.55876 117.697 5.5144 117.955 5.5144 118.213C5.5144 118.503 5.5648 118.782 5.66763 119.046C5.76844 119.31 5.90756 119.542 6.08297 119.743C6.25838 119.945 6.46605 120.104 6.708 120.225C6.94793 120.346 7.20802 120.405 7.48425 120.405C7.63143 120.405 7.78466 120.387 7.94193 120.35C8.09919 120.314 8.24839 120.255 8.39356 120.177C8.53671 120.098 8.6718 119.997 8.79479 119.874C8.91979 119.751 9.02464 119.608 9.1073 119.441L9.41175 119.586C9.32909 119.772 9.21618 119.935 9.07101 120.078C8.92786 120.221 8.76858 120.342 8.59317 120.439C8.41775 120.536 8.23226 120.608 8.03467 120.657C7.83708 120.705 7.64554 120.729 7.45602 120.729C7.11931 120.729 6.81083 120.655 6.53057 120.507C6.25032 120.36 6.00837 120.167 5.80675 119.929C5.60311 119.691 5.44585 119.421 5.33092 119.118C5.21801 118.816 5.16156 118.507 5.16156 118.193L5.16358 118.189Z" fill="url(#paint2_linear_234_19597)"/>
<path d="M10.9824 120.685V115.761H11.3352V120.685H10.9824Z" fill="url(#paint3_linear_234_19597)"/>
<path d="M16.5975 120.366V120.685H13.3172V115.761H16.535V116.08H13.672V118.015H16.1741V118.32H13.672V120.366H16.5975Z" fill="url(#paint4_linear_234_19597)"/>
<path d="M18.6097 116.427V120.685H18.2569V115.761H18.5271L21.9809 120.094V115.761H22.3337V120.685H22.0071L18.6097 116.427Z" fill="url(#paint5_linear_234_19597)"/>
<path d="M23.9689 118.189C23.9689 117.892 24.0213 117.598 24.1241 117.304C24.229 117.009 24.3802 116.747 24.5778 116.517C24.7774 116.286 25.0213 116.098 25.3096 115.953C25.598 115.808 25.9286 115.735 26.2976 115.735C26.7371 115.735 27.1121 115.836 27.4206 116.038C27.7311 116.239 27.961 116.497 28.1142 116.81L27.8239 116.977C27.7352 116.806 27.6323 116.663 27.5154 116.548C27.3964 116.433 27.2694 116.338 27.1343 116.267C26.9972 116.195 26.8561 116.144 26.7069 116.112C26.5597 116.08 26.4125 116.064 26.2694 116.064C25.9548 116.064 25.6766 116.128 25.4367 116.255C25.1967 116.382 24.9931 116.548 24.8258 116.751C24.6584 116.955 24.5334 117.185 24.4487 117.441C24.364 117.697 24.3197 117.955 24.3197 118.213C24.3197 118.503 24.3701 118.782 24.4729 119.046C24.5737 119.31 24.7128 119.542 24.8883 119.743C25.0637 119.945 25.2713 120.104 25.5133 120.225C25.7532 120.346 26.0133 120.405 26.2895 120.405C26.4367 120.405 26.5899 120.387 26.7472 120.35C26.9045 120.314 27.0537 120.255 27.1988 120.177C27.342 120.098 27.4771 119.997 27.6001 119.874C27.7251 119.751 27.8299 119.608 27.9126 119.441L28.217 119.586C28.1344 119.772 28.0215 119.935 27.8763 120.078C27.7331 120.221 27.5739 120.342 27.3984 120.439C27.223 120.536 27.0375 120.608 26.84 120.657C26.6424 120.705 26.4508 120.729 26.2613 120.729C25.9246 120.729 25.6161 120.655 25.3359 120.507C25.0556 120.36 24.8137 120.167 24.612 119.929C24.4084 119.691 24.2511 119.421 24.1362 119.118C24.0233 118.816 23.9668 118.507 23.9668 118.193L23.9689 118.189Z" fill="url(#paint6_linear_234_19597)"/>
<path d="M33.066 120.366V120.685H29.7857V115.761H33.0035V116.08H30.1405V118.015H32.6447V118.32H30.1405V120.366H33.066Z" fill="url(#paint7_linear_234_19597)"/>
<path d="M37.0198 118.959V118.64H39.0159V118.959H37.0198Z" fill="url(#paint8_linear_234_19597)"/>
<path d="M46.5404 116.08H44.7379V120.685H44.3851V116.08H42.5826V115.761H46.5424V116.08H46.5404Z" fill="url(#paint9_linear_234_19597)"/>
<path d="M51.2745 120.366V120.685H47.9941V115.761H51.212V116.08H48.349V118.015H50.8531V118.32H48.349V120.366H51.2745Z" fill="url(#paint10_linear_234_19597)"/>
<path d="M52.4883 118.189C52.4883 117.892 52.5407 117.598 52.6435 117.304C52.7484 117.009 52.8996 116.747 53.0972 116.517C53.2968 116.286 53.5387 116.098 53.8291 115.953C54.1174 115.808 54.4481 115.735 54.817 115.735C55.2566 115.735 55.6316 115.836 55.9401 116.038C56.2506 116.239 56.4804 116.497 56.6336 116.81L56.3433 116.977C56.2546 116.806 56.1518 116.663 56.0348 116.548C55.9179 116.433 55.7888 116.338 55.6537 116.267C55.5166 116.195 55.3755 116.144 55.2283 116.112C55.0811 116.08 54.934 116.064 54.7908 116.064C54.4763 116.064 54.198 116.128 53.9581 116.255C53.7182 116.382 53.5145 116.548 53.3472 116.751C53.1798 116.955 53.0548 117.185 52.9702 117.441C52.8855 117.697 52.8411 117.955 52.8411 118.213C52.8411 118.503 52.8915 118.782 52.9944 119.046C53.0952 119.31 53.2343 119.542 53.4097 119.743C53.5851 119.945 53.7928 120.104 54.0347 120.225C54.2747 120.346 54.5347 120.405 54.811 120.405C54.9582 120.405 55.1114 120.387 55.2686 120.35C55.4259 120.314 55.5751 120.255 55.7203 120.177C55.8634 120.098 55.9985 119.997 56.1215 119.874C56.2465 119.751 56.3493 119.608 56.434 119.441L56.7385 119.586C56.6558 119.772 56.5429 119.935 56.3977 120.078C56.2526 120.221 56.0953 120.342 55.9199 120.439C55.7445 120.536 55.559 120.608 55.3614 120.657C55.1658 120.705 54.9723 120.729 54.7827 120.729C54.446 120.729 54.1376 120.655 53.8573 120.507C53.577 120.36 53.3351 120.167 53.1335 119.929C52.9298 119.691 52.7726 119.421 52.6576 119.118C52.5447 118.816 52.4883 118.507 52.4883 118.193V118.189Z" fill="url(#paint11_linear_234_19597)"/>
<path d="M62.1198 115.761V120.685H61.7669V118.328H58.6599V120.685H58.3071V115.761H58.6599V118.007H61.7669V115.761H62.1198Z" fill="url(#paint12_linear_234_19597)"/>
<path d="M64.4505 116.427V120.685H64.0977V115.761H64.3678L67.8216 120.094V115.761H68.1745V120.685H67.8478L64.4505 116.427Z" fill="url(#paint13_linear_234_19597)"/>
<path d="M72.1121 120.719C71.7694 120.719 71.4589 120.649 71.1766 120.503C70.8943 120.36 70.6524 120.173 70.4488 119.941C70.2451 119.709 70.0879 119.445 69.977 119.145C69.8661 118.844 69.8096 118.538 69.8096 118.223C69.8096 117.909 69.8681 117.58 69.987 117.28C70.104 116.979 70.2673 116.713 70.4729 116.481C70.6786 116.249 70.9226 116.066 71.2048 115.931C71.4871 115.794 71.7916 115.727 72.1202 115.727C72.4488 115.727 72.7755 115.8 73.0598 115.945C73.344 116.09 73.586 116.282 73.7876 116.517C73.9892 116.753 74.1445 117.019 74.2554 117.318C74.3663 117.616 74.4227 117.919 74.4227 118.223C74.4227 118.556 74.3642 118.872 74.2453 119.173C74.1284 119.473 73.965 119.737 73.7594 119.967C73.5537 120.195 73.3098 120.378 73.0275 120.516C72.7452 120.653 72.4408 120.719 72.1121 120.719ZM70.1645 118.223C70.1645 118.505 70.2108 118.778 70.3056 119.038C70.4004 119.3 70.5334 119.53 70.7068 119.731C70.8802 119.933 71.0879 120.092 71.3278 120.213C71.5678 120.334 71.8319 120.393 72.1182 120.393C72.4045 120.393 72.6807 120.33 72.9186 120.205C73.1565 120.08 73.3602 119.915 73.5295 119.709C73.6989 119.503 73.8279 119.272 73.9207 119.011C74.0134 118.753 74.0598 118.489 74.0598 118.221C74.0598 117.939 74.0114 117.667 73.9146 117.407C73.8179 117.144 73.6828 116.915 73.5094 116.713C73.336 116.511 73.1323 116.352 72.8964 116.231C72.6605 116.11 72.4025 116.052 72.1202 116.052C71.8238 116.052 71.5557 116.114 71.3157 116.239C71.0758 116.364 70.8701 116.53 70.6988 116.735C70.5274 116.941 70.3963 117.173 70.3036 117.433C70.2108 117.691 70.1645 117.955 70.1645 118.223Z" fill="url(#paint14_linear_234_19597)"/>
<path d="M76.0639 120.685V115.761H76.4168V120.366H79.3564V120.685H76.0619H76.0639Z" fill="url(#paint15_linear_234_19597)"/>
<path d="M82.4372 120.719C82.0945 120.719 81.784 120.649 81.5017 120.503C81.2194 120.36 80.9775 120.173 80.7738 119.941C80.5702 119.709 80.4129 119.445 80.302 119.145C80.1911 118.844 80.1347 118.538 80.1347 118.223C80.1347 117.909 80.1932 117.58 80.3121 117.28C80.4311 116.979 80.5924 116.713 80.798 116.481C81.0037 116.249 81.2476 116.066 81.5299 115.931C81.8122 115.794 82.1166 115.727 82.4453 115.727C82.7739 115.727 83.1005 115.8 83.3848 115.945C83.6691 116.09 83.9111 116.282 84.1127 116.517C84.3143 116.753 84.4696 117.019 84.5805 117.318C84.6913 117.616 84.7478 117.919 84.7478 118.223C84.7478 118.556 84.6893 118.872 84.5704 119.173C84.4534 119.473 84.2901 119.737 84.0845 119.967C83.8788 120.195 83.6348 120.378 83.3526 120.516C83.0703 120.653 82.7659 120.719 82.4372 120.719ZM80.4895 118.223C80.4895 118.505 80.5359 118.778 80.6307 119.038C80.7254 119.3 80.8605 119.53 81.0339 119.731C81.2073 119.933 81.415 120.092 81.6549 120.213C81.8948 120.334 82.159 120.393 82.4453 120.393C82.7316 120.393 83.0078 120.33 83.2457 120.205C83.4836 120.08 83.6873 119.915 83.8566 119.709C84.026 119.503 84.155 119.272 84.2478 119.011C84.3405 118.753 84.3869 118.489 84.3869 118.221C84.3869 117.939 84.3385 117.667 84.2417 117.407C84.1449 117.144 84.0099 116.915 83.8365 116.713C83.6631 116.511 83.4594 116.352 83.2235 116.231C82.9876 116.11 82.7296 116.052 82.4473 116.052C82.1509 116.052 81.8827 116.114 81.6428 116.239C81.4029 116.364 81.1972 116.53 81.0259 116.735C80.8545 116.941 80.7234 117.173 80.6307 117.433C80.5379 117.691 80.4916 117.955 80.4916 118.223H80.4895Z" fill="url(#paint16_linear_234_19597)"/>
<path d="M90.0162 119.915C89.5403 120.451 88.9879 120.719 88.3588 120.719C88.0262 120.719 87.7177 120.649 87.4334 120.503C87.1491 120.36 86.9051 120.171 86.7015 119.935C86.4979 119.699 86.3386 119.431 86.2237 119.13C86.1087 118.83 86.0503 118.526 86.0503 118.215C86.0503 117.905 86.1067 117.58 86.2196 117.28C86.3325 116.979 86.4898 116.713 86.6914 116.481C86.893 116.249 87.131 116.066 87.4092 115.931C87.6874 115.794 87.9899 115.727 88.3185 115.727C88.5625 115.727 88.7843 115.753 88.9798 115.808C89.1754 115.86 89.3528 115.935 89.5061 116.029C89.6613 116.124 89.7944 116.237 89.9073 116.368C90.0202 116.499 90.117 116.644 90.1956 116.802L89.9053 116.975C89.7379 116.652 89.5182 116.417 89.244 116.271C88.9698 116.126 88.6572 116.054 88.3105 116.054C88.0201 116.054 87.756 116.116 87.5201 116.241C87.2842 116.366 87.0826 116.53 86.9172 116.733C86.7499 116.937 86.6229 117.169 86.5362 117.427C86.4475 117.685 86.4051 117.951 86.4051 118.223C86.4051 118.513 86.4555 118.79 86.5584 119.052C86.6592 119.314 86.8003 119.544 86.9777 119.741C87.1552 119.941 87.3648 120.098 87.6048 120.217C87.8447 120.334 88.1048 120.395 88.381 120.395C88.6814 120.395 88.9677 120.326 89.2379 120.187C89.5081 120.048 89.7682 119.828 90.0182 119.528V118.578H88.9012V118.294H90.3226V120.687H90.0182V119.917L90.0162 119.915Z" fill="url(#paint17_linear_234_19597)"/>
<path d="M91.7219 115.761L93.4417 118.487L95.1676 115.761H95.5628L93.6212 118.826V120.685H93.2683V118.812L91.3328 115.761H91.7219Z" fill="url(#paint18_linear_234_19597)"/>
<path d="M99.0851 118.959V118.64H101.081V118.959H99.0851Z" fill="url(#paint19_linear_234_19597)"/>
<path d="M108.64 120.366V120.685H105.36V115.761H108.577V116.08H105.714V118.015H108.219V118.32H105.714V120.366H108.64Z" fill="url(#paint20_linear_234_19597)"/>
<path d="M110.652 116.427V120.685H110.299V115.761H110.57L114.023 120.094V115.761H114.376V120.685H114.05L110.652 116.427Z" fill="url(#paint21_linear_234_19597)"/>
<path d="M119.977 119.915C119.501 120.451 118.949 120.719 118.32 120.719C117.987 120.719 117.679 120.649 117.394 120.503C117.11 120.36 116.866 120.171 116.663 119.935C116.459 119.699 116.3 119.431 116.185 119.13C116.07 118.83 116.011 118.526 116.011 118.215C116.011 117.905 116.068 117.58 116.181 117.28C116.294 116.979 116.451 116.713 116.652 116.481C116.854 116.249 117.092 116.066 117.37 115.931C117.648 115.794 117.951 115.727 118.28 115.727C118.524 115.727 118.745 115.753 118.941 115.808C119.136 115.86 119.314 115.935 119.467 116.029C119.622 116.124 119.755 116.237 119.87 116.368C119.983 116.499 120.08 116.644 120.159 116.802L119.868 116.975C119.701 116.652 119.481 116.417 119.207 116.271C118.933 116.126 118.62 116.054 118.274 116.054C117.983 116.054 117.719 116.116 117.483 116.241C117.247 116.366 117.046 116.53 116.88 116.733C116.713 116.937 116.586 117.169 116.499 117.427C116.411 117.685 116.368 117.951 116.368 118.223C116.368 118.513 116.419 118.79 116.521 119.052C116.622 119.314 116.763 119.544 116.941 119.741C117.118 119.941 117.328 120.098 117.568 120.217C117.808 120.334 118.068 120.395 118.344 120.395C118.644 120.395 118.931 120.326 119.201 120.187C119.471 120.048 119.731 119.828 119.981 119.528V118.578H118.864V118.294H120.286V120.687H119.981V119.917L119.977 119.915Z" fill="url(#paint22_linear_234_19597)"/>
<path d="M122.016 120.685V115.761H122.368V120.685H122.016Z" fill="url(#paint23_linear_234_19597)"/>
<path d="M124.707 116.427V120.685H124.354V115.761H124.625L128.078 120.094V115.761H128.431V120.685H128.105L124.707 116.427Z" fill="url(#paint24_linear_234_19597)"/>
<path d="M133.687 120.366V120.685H130.407V115.761H133.625V116.08H130.762V118.015H133.266V118.32H130.762V120.366H133.687Z" fill="url(#paint25_linear_234_19597)"/>
<path d="M138.623 120.366V120.685H135.343V115.761H138.561V116.08H135.698V118.015H138.202V118.32H135.698V120.366H138.623Z" fill="url(#paint26_linear_234_19597)"/>
<path d="M140.281 120.685V115.761H142.327C142.535 115.761 142.726 115.806 142.902 115.892C143.077 115.981 143.228 116.096 143.355 116.243C143.482 116.388 143.581 116.554 143.654 116.735C143.724 116.919 143.761 117.102 143.761 117.285C143.761 117.469 143.732 117.64 143.678 117.81C143.623 117.979 143.543 118.13 143.442 118.263C143.341 118.398 143.218 118.509 143.075 118.596C142.932 118.685 142.775 118.741 142.603 118.769L143.831 120.683H143.422L142.228 118.824H140.633V120.683H140.281V120.685ZM140.635 118.501H142.361C142.519 118.501 142.662 118.467 142.791 118.396C142.92 118.328 143.031 118.235 143.123 118.122C143.216 118.009 143.287 117.88 143.335 117.733C143.383 117.588 143.408 117.439 143.408 117.285C143.408 117.132 143.379 116.977 143.321 116.832C143.263 116.687 143.184 116.558 143.085 116.447C142.986 116.336 142.869 116.247 142.738 116.181C142.607 116.114 142.464 116.08 142.313 116.08H140.635V118.499V118.501Z" fill="url(#paint27_linear_234_19597)"/>
<path d="M145.474 120.685V115.761H145.827V120.685H145.474Z" fill="url(#paint28_linear_234_19597)"/>
<path d="M148.164 116.427V120.685H147.811V115.761H148.081L151.535 120.094V115.761H151.888V120.685H151.561L148.164 116.427Z" fill="url(#paint29_linear_234_19597)"/>
<path d="M157.491 119.915C157.015 120.451 156.463 120.719 155.834 120.719C155.501 120.719 155.192 120.649 154.908 120.503C154.624 120.36 154.38 120.171 154.176 119.935C153.973 119.699 153.813 119.431 153.698 119.13C153.584 118.83 153.525 118.526 153.525 118.215C153.525 117.905 153.582 117.58 153.694 117.28C153.807 116.979 153.965 116.713 154.166 116.481C154.368 116.249 154.606 116.066 154.884 115.931C155.162 115.794 155.465 115.727 155.793 115.727C156.037 115.727 156.259 115.753 156.455 115.808C156.65 115.86 156.828 115.935 156.981 116.029C157.136 116.124 157.269 116.237 157.384 116.368C157.497 116.499 157.594 116.644 157.672 116.802L157.382 116.975C157.215 116.652 156.995 116.417 156.721 116.271C156.447 116.126 156.134 116.054 155.787 116.054C155.497 116.054 155.233 116.116 154.997 116.241C154.761 116.366 154.559 116.53 154.394 116.733C154.227 116.937 154.1 117.169 154.013 117.427C153.924 117.685 153.882 117.951 153.882 118.223C153.882 118.513 153.932 118.79 154.035 119.052C154.136 119.314 154.277 119.544 154.455 119.741C154.632 119.941 154.842 120.098 155.082 120.217C155.322 120.334 155.582 120.395 155.858 120.395C156.158 120.395 156.445 120.326 156.715 120.187C156.985 120.048 157.245 119.828 157.495 119.528V118.578H156.378V118.294H157.799V120.687H157.495V119.917L157.491 119.915Z" fill="url(#paint30_linear_234_19597)"/>
<path d="M161.826 118.959V118.64H163.822V118.959H161.826Z" fill="url(#paint31_linear_234_19597)"/>
<path d="M172.558 120.685V116.427L170.617 119.747H170.395L168.453 116.427V120.685H168.1V115.761H168.453L170.506 119.284L172.558 115.761H172.911V120.685H172.558Z" fill="url(#paint32_linear_234_19597)"/>
<path d="M176.441 115.761H176.746L178.827 120.685H178.452L177.766 119.062H175.415L174.73 120.685H174.349L176.443 115.761H176.441ZM177.669 118.771L176.595 116.193L175.5 118.771H177.669Z" fill="url(#paint33_linear_234_19597)"/>
<path d="M183.224 116.08H181.421V120.685H181.069V116.08H179.266V115.761H183.226V116.08H183.224Z" fill="url(#paint34_linear_234_19597)"/>
<path d="M188.492 115.761V120.685H188.14V118.328H185.033V120.685H184.68V115.761H185.033V118.007H188.14V115.761H188.492Z" fill="url(#paint35_linear_234_19597)"/>
<path d="M193.749 120.366V120.685H190.468V115.761H193.686V116.08H190.823V118.015H193.327V118.32H190.823V120.366H193.749Z" fill="url(#paint36_linear_234_19597)"/>
<path d="M199.866 120.685V116.427L197.924 119.747H197.702L195.761 116.427V120.685H195.408V115.761H195.761L197.813 119.284L199.866 115.761H200.219V120.685H199.866Z" fill="url(#paint37_linear_234_19597)"/>
<path d="M203.747 115.761H204.052L206.132 120.685H205.757L205.072 119.062H202.721L202.035 120.685H201.654L203.749 115.761H203.747ZM204.975 118.771L203.9 116.193L202.806 118.771H204.975Z" fill="url(#paint38_linear_234_19597)"/>
<path d="M210.53 116.08H208.727V120.685H208.374V116.08H206.572V115.761H210.532V116.08H210.53Z" fill="url(#paint39_linear_234_19597)"/>
<path d="M211.985 120.685V115.761H212.338V120.685H211.985Z" fill="url(#paint40_linear_234_19597)"/>
<path d="M213.983 118.189C213.983 117.892 214.036 117.598 214.139 117.304C214.244 117.009 214.395 116.747 214.592 116.517C214.792 116.286 215.036 116.098 215.324 115.953C215.613 115.808 215.943 115.735 216.312 115.735C216.752 115.735 217.127 115.836 217.435 116.038C217.746 116.239 217.976 116.497 218.129 116.81L217.838 116.977C217.75 116.806 217.647 116.663 217.53 116.548C217.413 116.433 217.284 116.338 217.149 116.267C217.012 116.195 216.871 116.144 216.723 116.112C216.576 116.08 216.429 116.064 216.286 116.064C215.971 116.064 215.693 116.128 215.453 116.255C215.213 116.382 215.01 116.548 214.842 116.751C214.675 116.955 214.55 117.185 214.465 117.441C214.381 117.697 214.336 117.955 214.336 118.213C214.336 118.503 214.387 118.782 214.489 119.046C214.59 119.31 214.729 119.542 214.905 119.743C215.08 119.945 215.288 120.104 215.53 120.225C215.77 120.346 216.03 120.405 216.306 120.405C216.453 120.405 216.607 120.387 216.764 120.35C216.921 120.314 217.07 120.255 217.215 120.177C217.359 120.098 217.494 119.997 217.619 119.874C217.744 119.751 217.847 119.608 217.931 119.441L218.236 119.586C218.153 119.772 218.04 119.935 217.895 120.078C217.75 120.221 217.592 120.342 217.417 120.439C217.242 120.536 217.056 120.608 216.859 120.657C216.663 120.705 216.469 120.729 216.28 120.729C215.943 120.729 215.635 120.655 215.354 120.507C215.074 120.36 214.832 120.167 214.631 119.929C214.427 119.691 214.27 119.421 214.155 119.118C214.042 118.816 213.985 118.507 213.985 118.193L213.983 118.189Z" fill="url(#paint41_linear_234_19597)"/>
<path d="M222.663 116.58C222.345 116.223 221.893 116.045 221.31 116.045C220.831 116.045 220.48 116.136 220.26 116.32C220.04 116.503 219.931 116.749 219.931 117.058C219.931 117.215 219.959 117.346 220.014 117.449C220.068 117.554 220.157 117.642 220.274 117.715C220.391 117.789 220.54 117.852 220.722 117.902C220.901 117.953 221.119 118.007 221.373 118.062C221.637 118.116 221.875 118.179 222.091 118.245C222.306 118.312 222.488 118.396 222.639 118.499C222.788 118.6 222.905 118.725 222.986 118.874C223.066 119.021 223.107 119.205 223.107 119.423C223.107 119.64 223.064 119.83 222.978 119.991C222.893 120.152 222.772 120.288 222.617 120.396C222.462 120.505 222.276 120.588 222.062 120.642C221.847 120.699 221.609 120.725 221.345 120.725C220.576 120.725 219.927 120.479 219.397 119.989L219.584 119.705C219.792 119.923 220.046 120.094 220.347 120.221C220.647 120.348 220.984 120.413 221.359 120.413C221.788 120.413 222.125 120.334 222.367 120.177C222.609 120.019 222.732 119.781 222.732 119.463C222.732 119.302 222.7 119.165 222.635 119.05C222.57 118.937 222.474 118.838 222.347 118.755C222.22 118.673 222.058 118.6 221.865 118.54C221.671 118.479 221.443 118.423 221.185 118.366C220.921 118.312 220.689 118.251 220.488 118.189C220.286 118.126 220.119 118.048 219.982 117.953C219.845 117.858 219.742 117.743 219.673 117.61C219.605 117.475 219.568 117.308 219.568 117.104C219.568 116.882 219.611 116.687 219.697 116.515C219.782 116.344 219.901 116.201 220.054 116.082C220.207 115.965 220.389 115.874 220.603 115.816C220.814 115.755 221.05 115.725 221.31 115.725C221.629 115.725 221.913 115.773 222.163 115.866C222.413 115.961 222.639 116.106 222.843 116.299L222.663 116.578V116.58Z" fill="url(#paint42_linear_234_19597)"/>
<defs>
<linearGradient id="paint0_linear_234_19597" x1="-8710.94" y1="50.3377" x2="2438.69" y2="50.3377" gradientUnits="userSpaceOnUse">
<stop offset="0.05" stop-color="#D24347"/>
<stop offset="0.45" stop-color="#F39597"/>
<stop offset="0.65" stop-color="#696AA8"/>
<stop offset="0.95" stop-color="#2D2F82"/>
</linearGradient>
<linearGradient id="paint1_linear_234_19597" x1="-144.055" y1="118.229" x2="40.6028" y2="118.229" gradientUnits="userSpaceOnUse">
<stop offset="0.05" stop-color="#D24347"/>
<stop offset="0.45" stop-color="#F39597"/>
<stop offset="0.65" stop-color="#696AA8"/>
<stop offset="0.95" stop-color="#2D2F82"/>
</linearGradient>
<linearGradient id="paint2_linear_234_19597" x1="-160.12" y1="118.236" x2="51.4333" y2="118.236" gradientUnits="userSpaceOnUse">
<stop offset="0.05" stop-color="#D24347"/>
<stop offset="0.45" stop-color="#F39597"/>
<stop offset="0.65" stop-color="#696AA8"/>
<stop offset="0.95" stop-color="#2D2F82"/>
</linearGradient>
<linearGradient id="paint3_linear_234_19597" x1="-2.73884" y1="118.227" x2="14.8237" y2="118.227" gradientUnits="userSpaceOnUse">
<stop offset="0.05" stop-color="#D24347"/>
<stop offset="0.45" stop-color="#F39597"/>
<stop offset="0.65" stop-color="#696AA8"/>
<stop offset="0.95" stop-color="#2D2F82"/>
</linearGradient>
<linearGradient id="paint4_linear_234_19597" x1="-114.251" y1="118.227" x2="49.0307" y2="118.227" gradientUnits="userSpaceOnUse">
<stop offset="0.05" stop-color="#D24347"/>
<stop offset="0.45" stop-color="#F39597"/>
<stop offset="0.65" stop-color="#696AA8"/>
<stop offset="0.95" stop-color="#2D2F82"/>
</linearGradient>
<linearGradient id="paint5_linear_234_19597" x1="-140.282" y1="118.227" x2="62.6409" y2="118.227" gradientUnits="userSpaceOnUse">
<stop offset="0.05" stop-color="#D24347"/>
<stop offset="0.45" stop-color="#F39597"/>
<stop offset="0.65" stop-color="#696AA8"/>
<stop offset="0.95" stop-color="#2D2F82"/>
</linearGradient>
<linearGradient id="paint6_linear_234_19597" x1="-141.315" y1="118.236" x2="70.2386" y2="118.236" gradientUnits="userSpaceOnUse">
<stop offset="0.05" stop-color="#D24347"/>
<stop offset="0.45" stop-color="#F39597"/>
<stop offset="0.65" stop-color="#696AA8"/>
<stop offset="0.95" stop-color="#2D2F82"/>
</linearGradient>
<linearGradient id="paint7_linear_234_19597" x1="-97.7825" y1="118.227" x2="65.4992" y2="118.227" gradientUnits="userSpaceOnUse">
<stop offset="0.05" stop-color="#D24347"/>
<stop offset="0.45" stop-color="#F39597"/>
<stop offset="0.65" stop-color="#696AA8"/>
<stop offset="0.95" stop-color="#2D2F82"/>
</linearGradient>
<linearGradient id="paint8_linear_234_19597" x1="-40.603" y1="118.8" x2="58.7509" y2="118.8" gradientUnits="userSpaceOnUse">
<stop offset="0.05" stop-color="#D24347"/>
<stop offset="0.45" stop-color="#F39597"/>
<stop offset="0.65" stop-color="#696AA8"/>
<stop offset="0.95" stop-color="#2D2F82"/>
</linearGradient>
<linearGradient id="paint9_linear_234_19597" x1="-111.409" y1="118.227" x2="85.6935" y2="118.227" gradientUnits="userSpaceOnUse">
<stop offset="0.05" stop-color="#D24347"/>
<stop offset="0.45" stop-color="#F39597"/>
<stop offset="0.65" stop-color="#696AA8"/>
<stop offset="0.95" stop-color="#2D2F82"/>
</linearGradient>
<linearGradient id="paint10_linear_234_19597" x1="-79.5741" y1="118.227" x2="83.7077" y2="118.227" gradientUnits="userSpaceOnUse">
<stop offset="0.05" stop-color="#D24347"/>
<stop offset="0.45" stop-color="#F39597"/>
<stop offset="0.65" stop-color="#696AA8"/>
<stop offset="0.95" stop-color="#2D2F82"/>
</linearGradient>
<linearGradient id="paint11_linear_234_19597" x1="-112.794" y1="118.236" x2="98.7601" y2="118.236" gradientUnits="userSpaceOnUse">
<stop offset="0.05" stop-color="#D24347"/>
<stop offset="0.45" stop-color="#F39597"/>
<stop offset="0.65" stop-color="#696AA8"/>
<stop offset="0.95" stop-color="#2D2F82"/>
</linearGradient>
<linearGradient id="paint12_linear_234_19597" x1="-89.9606" y1="118.227" x2="99.8156" y2="118.227" gradientUnits="userSpaceOnUse">
<stop offset="0.05" stop-color="#D24347"/>
<stop offset="0.45" stop-color="#F39597"/>
<stop offset="0.65" stop-color="#696AA8"/>
<stop offset="0.95" stop-color="#2D2F82"/>
</linearGradient>
<linearGradient id="paint13_linear_234_19597" x1="-94.4413" y1="118.227" x2="108.482" y2="118.227" gradientUnits="userSpaceOnUse">
<stop offset="0.05" stop-color="#D24347"/>
<stop offset="0.45" stop-color="#F39597"/>
<stop offset="0.65" stop-color="#696AA8"/>
<stop offset="0.95" stop-color="#2D2F82"/>
</linearGradient>
<linearGradient id="paint14_linear_234_19597" x1="-109.586" y1="118.227" x2="120.033" y2="118.227" gradientUnits="userSpaceOnUse">
<stop offset="0.05" stop-color="#D24347"/>
<stop offset="0.45" stop-color="#F39597"/>
<stop offset="0.65" stop-color="#696AA8"/>
<stop offset="0.95" stop-color="#2D2F82"/>
</linearGradient>
<linearGradient id="paint15_linear_234_19597" x1="-52.0551" y1="118.227" x2="111.929" y2="118.227" gradientUnits="userSpaceOnUse">
<stop offset="0.05" stop-color="#D24347"/>
<stop offset="0.45" stop-color="#F39597"/>
<stop offset="0.65" stop-color="#696AA8"/>
<stop offset="0.95" stop-color="#2D2F82"/>
</linearGradient>
<linearGradient id="paint16_linear_234_19597" x1="-99.2603" y1="118.227" x2="130.358" y2="118.227" gradientUnits="userSpaceOnUse">
<stop offset="0.05" stop-color="#D24347"/>
<stop offset="0.45" stop-color="#F39597"/>
<stop offset="0.65" stop-color="#696AA8"/>
<stop offset="0.95" stop-color="#2D2F82"/>
</linearGradient>
<linearGradient id="paint17_linear_234_19597" x1="-80.0941" y1="118.227" x2="132.564" y2="118.227" gradientUnits="userSpaceOnUse">
<stop offset="0.05" stop-color="#D24347"/>
<stop offset="0.45" stop-color="#F39597"/>
<stop offset="0.65" stop-color="#696AA8"/>
<stop offset="0.95" stop-color="#2D2F82"/>
</linearGradient>
<linearGradient id="paint18_linear_234_19597" x1="-73.1652" y1="118.227" x2="137.385" y2="118.227" gradientUnits="userSpaceOnUse">
<stop offset="0.05" stop-color="#D24347"/>
<stop offset="0.45" stop-color="#F39597"/>
<stop offset="0.65" stop-color="#696AA8"/>
<stop offset="0.95" stop-color="#2D2F82"/>
</linearGradient>
<linearGradient id="paint19_linear_234_19597" x1="21.4623" y1="118.8" x2="120.816" y2="118.8" gradientUnits="userSpaceOnUse">
<stop offset="0.05" stop-color="#D24347"/>
<stop offset="0.45" stop-color="#F39597"/>
<stop offset="0.65" stop-color="#696AA8"/>
<stop offset="0.95" stop-color="#2D2F82"/>
</linearGradient>
<linearGradient id="paint20_linear_234_19597" x1="-22.2087" y1="118.227" x2="141.073" y2="118.227" gradientUnits="userSpaceOnUse">
<stop offset="0.05" stop-color="#D24347"/>
<stop offset="0.45" stop-color="#F39597"/>
<stop offset="0.65" stop-color="#696AA8"/>
<stop offset="0.95" stop-color="#2D2F82"/>
</linearGradient>
<linearGradient id="paint21_linear_234_19597" x1="-48.2398" y1="118.227" x2="154.683" y2="118.227" gradientUnits="userSpaceOnUse">
<stop offset="0.05" stop-color="#D24347"/>
<stop offset="0.45" stop-color="#F39597"/>
<stop offset="0.65" stop-color="#696AA8"/>
<stop offset="0.95" stop-color="#2D2F82"/>
</linearGradient>
<linearGradient id="paint22_linear_234_19597" x1="-50.2116" y1="118.227" x2="162.547" y2="118.227" gradientUnits="userSpaceOnUse">
<stop offset="0.05" stop-color="#D24347"/>
<stop offset="0.45" stop-color="#F39597"/>
<stop offset="0.65" stop-color="#696AA8"/>
<stop offset="0.95" stop-color="#2D2F82"/>
</linearGradient>
<linearGradient id="paint23_linear_234_19597" x1="108.294" y1="118.227" x2="125.857" y2="118.227" gradientUnits="userSpaceOnUse">
<stop offset="0.05" stop-color="#D24347"/>
<stop offset="0.45" stop-color="#F39597"/>
<stop offset="0.65" stop-color="#696AA8"/>
<stop offset="0.95" stop-color="#2D2F82"/>
</linearGradient>
<linearGradient id="paint24_linear_234_19597" x1="-34.1843" y1="118.227" x2="168.738" y2="118.227" gradientUnits="userSpaceOnUse">
<stop offset="0.05" stop-color="#D24347"/>
<stop offset="0.45" stop-color="#F39597"/>
<stop offset="0.65" stop-color="#696AA8"/>
<stop offset="0.95" stop-color="#2D2F82"/>
</linearGradient>
<linearGradient id="paint25_linear_234_19597" x1="2.83877" y1="118.227" x2="166.121" y2="118.227" gradientUnits="userSpaceOnUse">
<stop offset="0.05" stop-color="#D24347"/>
<stop offset="0.45" stop-color="#F39597"/>
<stop offset="0.65" stop-color="#696AA8"/>
<stop offset="0.95" stop-color="#2D2F82"/>
</linearGradient>
<linearGradient id="paint26_linear_234_19597" x1="7.77499" y1="118.227" x2="171.056" y2="118.227" gradientUnits="userSpaceOnUse">
<stop offset="0.05" stop-color="#D24347"/>
<stop offset="0.45" stop-color="#F39597"/>
<stop offset="0.65" stop-color="#696AA8"/>
<stop offset="0.95" stop-color="#2D2F82"/>
</linearGradient>
<linearGradient id="paint27_linear_234_19597" x1="2.20596" y1="118.227" x2="178.935" y2="118.227" gradientUnits="userSpaceOnUse">
<stop offset="0.05" stop-color="#D24347"/>
<stop offset="0.45" stop-color="#F39597"/>
<stop offset="0.65" stop-color="#696AA8"/>
<stop offset="0.95" stop-color="#2D2F82"/>
</linearGradient>
<linearGradient id="paint28_linear_234_19597" x1="131.753" y1="118.227" x2="149.316" y2="118.227" gradientUnits="userSpaceOnUse">
<stop offset="0.05" stop-color="#D24347"/>
<stop offset="0.45" stop-color="#F39597"/>
<stop offset="0.65" stop-color="#696AA8"/>
<stop offset="0.95" stop-color="#2D2F82"/>
</linearGradient>
<linearGradient id="paint29_linear_234_19597" x1="-10.7281" y1="118.227" x2="192.195" y2="118.227" gradientUnits="userSpaceOnUse">
<stop offset="0.05" stop-color="#D24347"/>
<stop offset="0.45" stop-color="#F39597"/>
<stop offset="0.65" stop-color="#696AA8"/>
<stop offset="0.95" stop-color="#2D2F82"/>
</linearGradient>
<linearGradient id="paint30_linear_234_19597" x1="-12.6978" y1="118.227" x2="200.06" y2="118.227" gradientUnits="userSpaceOnUse">
<stop offset="0.05" stop-color="#D24347"/>
<stop offset="0.45" stop-color="#F39597"/>
<stop offset="0.65" stop-color="#696AA8"/>
<stop offset="0.95" stop-color="#2D2F82"/>
</linearGradient>
<linearGradient id="paint31_linear_234_19597" x1="84.2027" y1="118.8" x2="183.557" y2="118.8" gradientUnits="userSpaceOnUse">
<stop offset="0.05" stop-color="#D24347"/>
<stop offset="0.45" stop-color="#F39597"/>
<stop offset="0.65" stop-color="#696AA8"/>
<stop offset="0.95" stop-color="#2D2F82"/>
</linearGradient>
<linearGradient id="paint32_linear_234_19597" x1="-18.9786" y1="118.227" x2="220.474" y2="118.227" gradientUnits="userSpaceOnUse">
<stop offset="0.05" stop-color="#D24347"/>
<stop offset="0.45" stop-color="#F39597"/>
<stop offset="0.65" stop-color="#696AA8"/>
<stop offset="0.95" stop-color="#2D2F82"/>
</linearGradient>
<linearGradient id="paint33_linear_234_19597" x1="0.206534" y1="118.227" x2="223.101" y2="118.227" gradientUnits="userSpaceOnUse">
<stop offset="0.05" stop-color="#D24347"/>
<stop offset="0.45" stop-color="#F39597"/>
<stop offset="0.65" stop-color="#696AA8"/>
<stop offset="0.95" stop-color="#2D2F82"/>
</linearGradient>
<linearGradient id="paint34_linear_234_19597" x1="25.2747" y1="118.227" x2="222.377" y2="118.227" gradientUnits="userSpaceOnUse">
<stop offset="0.05" stop-color="#D24347"/>
<stop offset="0.45" stop-color="#F39597"/>
<stop offset="0.65" stop-color="#696AA8"/>
<stop offset="0.95" stop-color="#2D2F82"/>
</linearGradient>
<linearGradient id="paint35_linear_234_19597" x1="36.4118" y1="118.227" x2="226.188" y2="118.227" gradientUnits="userSpaceOnUse">
<stop offset="0.05" stop-color="#D24347"/>
<stop offset="0.45" stop-color="#F39597"/>
<stop offset="0.65" stop-color="#696AA8"/>
<stop offset="0.95" stop-color="#2D2F82"/>
</linearGradient>
<linearGradient id="paint36_linear_234_19597" x1="62.9" y1="118.227" x2="226.182" y2="118.227" gradientUnits="userSpaceOnUse">
<stop offset="0.05" stop-color="#D24347"/>
<stop offset="0.45" stop-color="#F39597"/>
<stop offset="0.65" stop-color="#696AA8"/>
<stop offset="0.95" stop-color="#2D2F82"/>
</linearGradient>
<linearGradient id="paint37_linear_234_19597" x1="8.32909" y1="118.227" x2="247.782" y2="118.227" gradientUnits="userSpaceOnUse">
<stop offset="0.05" stop-color="#D24347"/>
<stop offset="0.45" stop-color="#F39597"/>
<stop offset="0.65" stop-color="#696AA8"/>
<stop offset="0.95" stop-color="#2D2F82"/>
</linearGradient>
<linearGradient id="paint38_linear_234_19597" x1="27.5122" y1="118.227" x2="250.407" y2="118.227" gradientUnits="userSpaceOnUse">
<stop offset="0.05" stop-color="#D24347"/>
<stop offset="0.45" stop-color="#F39597"/>
<stop offset="0.65" stop-color="#696AA8"/>
<stop offset="0.95" stop-color="#2D2F82"/>
</linearGradient>
<linearGradient id="paint39_linear_234_19597" x1="52.5814" y1="118.227" x2="249.682" y2="118.227" gradientUnits="userSpaceOnUse">
<stop offset="0.05" stop-color="#D24347"/>
<stop offset="0.45" stop-color="#F39597"/>
<stop offset="0.65" stop-color="#696AA8"/>
<stop offset="0.95" stop-color="#2D2F82"/>
</linearGradient>
<linearGradient id="paint40_linear_234_19597" x1="198.264" y1="118.227" x2="215.827" y2="118.227" gradientUnits="userSpaceOnUse">
<stop offset="0.05" stop-color="#D24347"/>
<stop offset="0.45" stop-color="#F39597"/>
<stop offset="0.65" stop-color="#696AA8"/>
<stop offset="0.95" stop-color="#2D2F82"/>
</linearGradient>
<linearGradient id="paint41_linear_234_19597" x1="48.6234" y1="118.236" x2="260.277" y2="118.236" gradientUnits="userSpaceOnUse">
<stop offset="0.05" stop-color="#D24347"/>
<stop offset="0.45" stop-color="#F39597"/>
<stop offset="0.65" stop-color="#696AA8"/>
<stop offset="0.95" stop-color="#2D2F82"/>
</linearGradient>
<linearGradient id="paint42_linear_234_19597" x1="75.1279" y1="118.229" x2="259.786" y2="118.229" gradientUnits="userSpaceOnUse">
<stop offset="0.05" stop-color="#D24347"/>
<stop offset="0.45" stop-color="#F39597"/>
<stop offset="0.65" stop-color="#696AA8"/>
<stop offset="0.95" stop-color="#2D2F82"/>
</linearGradient>
</defs>
</svg>
