<svg width="324" height="270" viewBox="0 0 324 270" fill="none" xmlns="http://www.w3.org/2000/svg">
<path d="M130.464 48.7349C130.464 48.7349 126.045 42.935 123.889 42.9055C121.734 42.876 119.702 47.4805 118.19 47.237C116.679 46.9935 115.037 41.7101 111.153 42.9572C107.269 44.2042 106.308 50.3361 103.726 50.1148C101.144 49.8934 88.6534 27.4097 88.6534 27.4097L79.6563 32.7447C79.6563 32.7447 93.1157 54.6455 91.9513 57.0141C90.7869 59.3828 85.1818 56.9698 82.0719 59.6779C78.962 62.386 82.5059 66.6215 81.9128 68.053C81.3197 69.4846 77.436 68.7319 76.3294 70.6209C75.2229 72.5099 76.6766 79.4757 76.6766 79.4757L101.889 59.7886L130.464 48.7349Z" fill="white" stroke="#263238" stroke-width="0.822238" stroke-miterlimit="10"/>
<path d="M71.3753 21.9268L69.0031 32.855L71.802 38.2786L78.8029 34.5227C78.8029 34.5227 75.2157 30.0953 71.3753 21.9268Z" fill="#D24347" stroke="#263238" stroke-width="0.822238" stroke-miterlimit="10"/>
<path d="M83.504 15.4041L93.6293 19.5953L96.4282 25.0189L89.4562 28.7821C89.4562 28.7821 87.9229 23.2627 83.504 15.4041Z" fill="#D24347" stroke="#263238" stroke-width="0.822238" stroke-miterlimit="10"/>
<path d="M69.2056 2.89624C69.2056 2.89624 63.4703 19.8679 78.7957 34.493L90.1071 28.4275C90.1071 28.4275 87.3299 8.83631 69.2056 2.89624Z" fill="white" stroke="#263238" stroke-width="0.822238" stroke-miterlimit="10"/>
<path d="M74.9915 30.228C76.1642 31.7466 77.448 33.1723 78.8318 34.4931L90.1071 28.4275C89.7917 26.5416 89.3075 24.6891 88.6606 22.8933L74.9915 30.228Z" fill="#D24347" stroke="#263238" stroke-width="0.822238" stroke-miterlimit="10"/>
<path d="M80.3675 17.0316C81.0558 14.6299 79.7056 12.1137 77.3516 11.4114C74.9977 10.7091 72.5314 12.0867 71.8431 14.4883C71.1548 16.89 72.505 19.4062 74.8589 20.1085C77.2129 20.8108 79.6791 19.4332 80.3675 17.0316Z" fill="#D24347" stroke="#263238" stroke-width="0.822238" stroke-miterlimit="10"/>
<path d="M78.6076 14.4081C78.35 13.9119 77.954 13.5048 77.4697 13.2381C76.9854 12.9714 76.4344 12.8571 75.8865 12.9097C75.3386 12.9623 74.8182 13.1793 74.3911 13.5334C73.964 13.8876 73.6493 14.3629 73.4869 14.8994C73.3244 15.4358 73.3213 16.0094 73.4782 16.5476C73.635 17.0859 73.9446 17.5646 74.368 17.9234C74.7913 18.2822 75.3094 18.5049 75.8567 18.5635C76.4041 18.6221 76.9561 18.5139 77.4432 18.2525C77.7675 18.0785 78.0549 17.841 78.2891 17.5534C78.5232 17.2659 78.6994 16.934 78.8075 16.5769C78.9157 16.2197 78.9537 15.8443 78.9194 15.4722C78.8851 15.1 78.7792 14.7384 78.6076 14.4081Z" fill="white" stroke="#263238" stroke-width="0.822238" stroke-miterlimit="10"/>
<path d="M289.916 139.843L284.007 144.027L284.043 151.361L278.315 146.927L271.488 149.229L273.853 142.3L269.6 136.382L276.789 136.537L280.991 130.582L283.067 137.607L289.916 139.843Z" fill="white" stroke="#D24347" stroke-width="0.822238" stroke-miterlimit="10"/>
<path d="M13.9213 169.278L12.5037 174.303L15.7583 178.346L10.6305 178.523L7.86777 182.929L6.11753 178.007L1.15613 176.693L5.20625 173.476L4.9025 168.252L9.1479 171.181L13.9213 169.278Z" fill="white" stroke="#D24347" stroke-width="0.822238" stroke-miterlimit="10"/>
<path d="M96.949 234.249L95.5315 239.274L98.786 243.318L93.6583 243.495L90.8955 247.9L89.1525 242.986L84.1911 241.665L88.234 238.448L87.9302 233.224L92.1756 236.153L96.949 234.249Z" fill="white" stroke="#D24347" stroke-width="0.822238" stroke-miterlimit="10"/>
<path d="M216.37 234.249L214.945 239.274L218.2 243.318L213.079 243.495L210.316 247.9L208.566 242.986L203.605 241.665L207.648 238.448L207.344 233.224L211.589 236.153L216.37 234.249Z" fill="white" stroke="#D24347" stroke-width="0.822238" stroke-miterlimit="10"/>
<path d="M38.9525 78.0363L37.9617 81.5635L40.2399 84.397L36.6454 84.515L34.7143 87.6068L33.4848 84.1609L30.0133 83.2311L32.8484 80.9805L32.6314 77.3206L35.6112 79.3793L38.9525 78.0363Z" fill="white" stroke="#D24347" stroke-width="0.822238" stroke-miterlimit="10"/>
<path d="M105.078 5.97343L101.968 7.81817L101.701 11.4781L99.0246 9.0357L95.5313 9.89904L96.9778 6.54161L95.0901 3.42768L98.6702 3.79663L100.992 1L101.751 4.58618L105.078 5.97343Z" fill="white" stroke="#D24347" stroke-width="0.822238" stroke-miterlimit="10"/>
<path d="M296.454 151.199L295.456 154.726L297.741 157.56L294.147 157.678L292.208 160.769L290.986 157.323L287.507 156.401L290.343 154.143L290.133 150.483L293.105 152.542L296.454 151.199Z" fill="white" stroke="#D24347" stroke-width="0.822238" stroke-miterlimit="10"/>
<path d="M182.436 21.4546L181.011 26.4797L184.265 30.5234L179.145 30.7005L176.382 35.1057L174.632 30.1913L169.67 28.8705L173.713 25.6533L173.41 20.429L177.655 23.3584L182.436 21.4546Z" fill="white" stroke="#D24347" stroke-width="0.822238" stroke-miterlimit="10"/>
<path d="M151.987 238.205C205.184 238.205 248.308 194.207 248.308 139.932C248.308 85.6573 205.184 41.6589 151.987 41.6589C98.7908 41.6589 55.6666 85.6573 55.6666 139.932C55.6666 194.207 98.7908 238.205 151.987 238.205Z" fill="#2D2F82" stroke="#263238" stroke-width="0.822238" stroke-miterlimit="10"/>
<path d="M132.641 230.855C137.806 232.004 143.06 232.685 148.342 232.892" stroke="#263238" stroke-width="0.822238" stroke-miterlimit="10"/>
<path d="M120.837 227.365C123.448 228.332 126.103 229.188 128.793 229.911" stroke="#263238" stroke-width="0.822238" stroke-miterlimit="10"/>
<path d="M64.2803 114.474C58.1497 136.5 60.1927 160.06 70.0185 180.646C79.8442 201.232 96.7632 217.401 117.539 226.059" stroke="#263238" stroke-width="0.822238" stroke-miterlimit="10"/>
<path d="M76.5391 87.7107C73.2454 92.6686 70.424 97.9366 68.1134 103.443" stroke="#263238" stroke-width="0.822238" stroke-miterlimit="10"/>
<path d="M138.933 96.2847L148.754 98.3582L152.103 101.9L156.464 102.586L157.853 106.807L156.833 109.67L153.86 111.057L146.57 109.847L146.375 108.932L149.818 106.482L147.438 102.003L140.922 101.088L137.45 98.0556L138.933 96.2847Z" fill="white" stroke="#263238" stroke-width="0.822238" stroke-miterlimit="10"/>
<path d="M218.069 188.736L210.28 187.393L200.878 186.175L193.964 187.74L187.194 187.843L180.396 191.053L176.433 192.196L173.974 192.75L169.88 196.543L165.816 199.376L158.945 196.867L159.126 190.145L154.981 189.407L150.519 190.418L149.413 188.551L148.964 184.353L146.91 182.427L143.88 183.593L143.482 186.072L139.743 187.157L135.505 183.821L132.973 178.656L134.933 171.521L141.5 170.51L143.634 171.705L146.317 171.093L149.21 168.289L152.305 168.539L157.86 174.686L159.371 174.111L157.788 168.945L155.857 166.51L155.358 162.083L162.821 156.571L162.098 147.893L164.991 144.122L166.756 138.219L168.889 137.253L173.279 132.678L173.106 130.803L169.584 131.844L168.52 130.169L166.061 130.73L162.445 132.501L163.588 129.136L170.965 125.092L172.303 122.642L176.519 126.944L178.978 128.538L181.871 126.915L179.89 124.258L174.458 121.912L167.797 116.975L161.375 114.37L155.82 114.673L152.544 112.548L148.776 112.444L148.53 113.455L149.521 120.156L150.91 122.236L150.483 129.977L145.232 127.343V124L140.054 122.79L137.501 120.738L137.378 114.791L142.809 108.548L142.086 102.977L139.678 103.767L137.674 102.07L136.228 98.8081L134.615 98.9336L134.521 102.778L132.127 103.796L129.278 96.0779L127.245 95.34L123.824 94.6833L120.649 97.3102L126.052 100.623L127.788 104.313L118.386 99.9888L111.471 95.1039L109.707 89.0458L103.509 88.5366L99.69 92.5065C98.7527 93.421 97.7676 94.2831 96.7392 95.0891C95.7194 95.827 91.5825 97.2143 91.5825 97.2143L91.5318 101.287L86.4692 102.675L87.46 105.08L96.0159 104.578L101.296 108.393L103.031 116.363L102.113 123.978L104.196 131.357L100.37 143.901L102.648 160.821L106.742 169.934L111.226 176.575L114.675 176.273L112.766 172.878L110.387 170.554L108.181 165.794L110.09 164.887L114.994 172.377L118.812 179.158L120.1 185.061L125.481 189.333L134.297 193.377L146.592 193.938L150.931 196.543L154.403 199.575L158.959 201.169L164.167 201.428L169.027 200.085C169.027 200.085 169.302 202.409 169.547 203.553C169.793 204.696 167.515 209.271 167.515 209.271L166.069 214.378L168.962 218.982L174.321 219.919L182.754 225.638L186.175 226.295L186.898 229.711L187.621 231.187C204.374 224.411 218.919 212.96 229.591 198.144L229.352 196.469L232.968 183.925L229.619 182.53L218.069 188.736Z" fill="white" stroke="#263238" stroke-width="0.822238" stroke-miterlimit="10"/>
<path d="M221.7 93.54L218.308 89.7693L214.092 85.4674L211.712 78.8263L215.878 78.5975L215.603 76.2732L212.652 76.7011L214.858 75.004L217.194 72.7903L216.695 70.5102L213.224 67.4774L211.589 62.7032C195.092 49.4543 174.806 42.063 153.815 41.6528C132.824 41.2426 112.275 47.8359 95.2927 60.4305L101.252 62.9836L99.0173 67.7873L94.9744 69.6616L95.8713 75.9116L94.2295 76.9963L92.5444 80.0069L93.6582 84.058L97.5564 83.6521L96.8332 87.8729L100.63 87.0169L105.266 77.1291L105.143 73.3363L111.291 71.4694L112.26 68.3777L118.581 66.2304L118.407 62.2088L123.043 60.9175C123.043 60.9175 125.994 58.3349 126.659 58.1873C128.012 58.1788 129.363 58.2725 130.702 58.4677L134.644 60.4379L139.36 59.4196L142.831 56.0105L148.06 55.2726C148.905 55.6046 149.815 55.726 150.714 55.6268C151.828 55.3685 154.83 53.022 154.83 53.022L162.192 55.6489L165.316 57.1247L166.04 60.5412L169.49 60.2387L170.155 57.9364L173.359 58.6743L173.532 60.5412L167.233 63.847L172.115 67.994L181.141 70.7316L185.48 74.5243L190.485 73.8676L191.107 71.3366L192.792 70.4807L186.001 67.2413L182.334 67.5955L185.032 66.0238L181.51 62.7623L185.256 61.6702L190.76 63.2935L193.067 68.5031L196.163 70.9086L199.612 77.0553L205.312 79.5863L206.953 87.0981L212.826 89.3561L213.13 91.8871V95.001L215.364 98.7938L216.254 100.742L220.196 100.565L221.136 96.2923L221.7 93.54Z" fill="white" stroke="#263238" stroke-width="0.822238" stroke-miterlimit="10"/>
<path d="M219.639 69.9421L219.921 71.2482L219.603 75.1443L220.962 78.1845L223.617 78.5386L224.557 82.8627L221.664 82.3314L223.667 94.7798L222.083 100.395L225.251 106.365L228.752 108.438L231.428 120.739L236.411 129.638L241.119 136.22L246.551 136.419L247.346 131.461L247.946 130.723C247.564 126.659 246.939 122.622 246.073 118.636C242.069 100.135 232.886 83.2192 219.639 69.9421Z" fill="white" stroke="#263238" stroke-width="0.822238" stroke-miterlimit="10"/>
<path d="M167.747 80.1986L151.582 76.9297L145.16 78.6268L144.538 83.3051L141.218 80.9512L136.561 83.2018L137.747 90.8169L142.404 92.8683L144.364 87.8875L148.458 90.5439L156.717 95.1189L159.487 101.42L166.929 107.619L175.955 103.9L174.986 100.542L172.137 97.1259L169.706 88.1162L171.095 83.7405L167.747 80.1986Z" fill="white" stroke="#263238" stroke-width="0.822238" stroke-miterlimit="10"/>
<path d="M180.888 82.4784L177.344 82.3235L174.986 85.4891L177.988 91.7317L180.888 91.0749V82.4784Z" fill="white" stroke="#263238" stroke-width="0.822238" stroke-miterlimit="10"/>
<path d="M202.585 82.1027L194.109 79.7193L191.946 77.3433L190.312 78.4353L192.865 82.634L195.497 88.2494L199.142 88.8545L199.612 87.7919L196.857 84.8329L203.156 85.7922L202.585 82.1027Z" fill="white" stroke="#263238" stroke-width="0.822238" stroke-miterlimit="10"/>
<path d="M155.314 179.062L154.62 180.177L161.758 180.708L165.128 183.291L169.468 182.781L170.488 179.926L165.157 180.177L155.314 179.062Z" fill="white" stroke="#263238" stroke-width="0.822238" stroke-miterlimit="10"/>
<path d="M176.114 178.885L171.724 181.313L172.795 182.988L178.595 181.667L179.318 179.593L177.358 180.28L176.114 178.885Z" fill="white" stroke="#263238" stroke-width="0.822238" stroke-miterlimit="10"/>
<path d="M267.372 43.5697L225.765 32.2947L235.724 45.3997L267.372 43.5697Z" fill="white" stroke="#263238" stroke-width="0.822238" stroke-linecap="round" stroke-linejoin="round"/>
<path d="M235.724 45.3998L235.413 54.2177L267.372 43.5698L235.724 45.3998Z" fill="white" stroke="#263238" stroke-width="0.822238" stroke-linecap="round" stroke-linejoin="round"/>
<path d="M239.492 49.8051L235.413 54.2177L267.372 43.5698L239.492 49.8051Z" fill="white" stroke="#263238" stroke-width="0.822238" stroke-linecap="round" stroke-linejoin="round"/>
<path d="M267.372 43.5698L239.492 49.8051L246.76 62.7256L267.372 43.5698Z" fill="white" stroke="#263238" stroke-width="0.822238" stroke-linecap="round" stroke-linejoin="round"/>
<path d="M228.875 52.1956L227.804 52.3431" stroke="#263238" stroke-width="0.822238" stroke-linecap="round" stroke-linejoin="round"/>
<path d="M225.663 52.6531C201.927 56.1064 53.6053 79.0181 22.629 116.238C-4.91186 149.332 40.8546 158.6 51.5585 160.275" stroke="#263238" stroke-width="0.822238" stroke-linecap="round" stroke-linejoin="round" stroke-dasharray="2.46 2.46"/>
<path d="M52.571 160.43C53.2581 160.534 53.6414 160.571 53.6414 160.571" stroke="#263238" stroke-width="0.822238" stroke-linecap="round" stroke-linejoin="round"/>
<path d="M67.4263 42.5579C67.4262 41.2747 67.1316 40.0093 66.566 38.8631C66.0005 37.7168 65.1798 36.7216 64.1697 35.9571C63.1595 35.1925 61.9879 34.6799 60.7488 34.4602C59.5096 34.2405 58.2372 34.3199 57.0334 34.692C56.2227 32.3475 54.7202 30.3168 52.7324 28.8788C50.7447 27.4409 48.3693 26.6663 45.9326 26.6614C43.4959 26.6565 41.1176 27.4217 39.1243 28.8517C37.1311 30.2818 35.6209 32.3065 34.8011 34.6477C34.0955 34.4419 33.3653 34.3376 32.6314 34.3378C30.6612 34.3678 28.7702 35.1334 27.3158 36.4898C25.8615 37.8462 24.9448 39.6993 24.739 41.6986C24.5333 43.698 25.0527 45.7049 26.1992 47.3399C27.3457 48.9749 29.0397 50.1246 30.9607 50.5715L61.2499 50.5641C63.0119 50.1327 64.5798 49.1078 65.7005 47.6551C66.8212 46.2024 67.4292 44.4067 67.4263 42.5579Z" fill="white" stroke="#263238" stroke-width="0.822238" stroke-miterlimit="10"/>
<path d="M74.6371 46.6385C74.6381 46.0069 74.4939 45.3838 74.2159 44.8194C73.9379 44.255 73.534 43.7651 73.0366 43.389C72.5392 43.0128 71.9623 42.7611 71.3522 42.6539C70.7421 42.5468 70.1158 42.5872 69.5238 42.7719C69.1319 41.6094 68.394 40.6007 67.4132 39.8867C66.4323 39.1726 65.2574 38.7888 64.0525 38.7888C62.8476 38.7888 61.6727 39.1726 60.6918 39.8867C59.711 40.6007 58.9731 41.6094 58.5812 42.7719C58.0689 42.6243 57.5327 42.5835 57.0046 42.652C56.4765 42.7204 55.9673 42.8967 55.5075 43.1703C55.0476 43.4439 54.6465 43.8092 54.3281 44.2445C54.0096 44.6797 53.7804 45.1759 53.654 45.7035C53.5276 46.2311 53.5067 46.7793 53.5926 47.3153C53.6784 47.8514 53.8692 48.3643 54.1535 48.8234C54.4379 49.2826 54.81 49.6786 55.2476 49.9878C55.6853 50.297 56.1795 50.5131 56.7008 50.6232H71.5995C72.4737 50.409 73.2506 49.8979 73.8025 49.1738C74.3545 48.4498 74.6488 47.5557 74.6371 46.6385Z" fill="white" stroke="#263238" stroke-width="0.822238" stroke-miterlimit="10"/>
<path d="M287.695 89.4737C287.695 88.1905 287.401 86.9251 286.835 85.7788C286.27 84.6326 285.449 83.6374 284.439 82.8728C283.429 82.1083 282.257 81.5957 281.018 81.376C279.779 81.1563 278.506 81.2357 277.302 81.6077C276.488 79.2689 274.984 77.244 272.998 75.8103C271.012 74.3766 268.641 73.6041 266.208 73.5984C263.775 73.5928 261.4 74.3543 259.407 75.7788C257.415 77.2032 255.903 79.221 255.077 81.5561C254.372 81.3502 253.642 81.2458 252.908 81.2462C250.937 81.2762 249.046 82.0418 247.592 83.3982C246.138 84.7546 245.221 86.6077 245.015 88.607C244.809 90.6064 245.329 92.6133 246.475 94.2483C247.622 95.8833 249.316 97.033 251.237 97.4799L281.526 97.4209C283.277 96.9904 284.836 95.9737 285.954 94.5331C287.073 93.0926 287.686 91.3113 287.695 89.4737Z" fill="white" stroke="#263238" stroke-width="0.822238" stroke-miterlimit="10"/>
<path d="M294.906 93.5613C294.906 92.4888 294.488 91.4603 293.745 90.702C293.002 89.9436 291.994 89.5176 290.943 89.5176C290.554 89.5123 290.167 89.5645 289.793 89.6726C289.401 88.5101 288.663 87.5014 287.682 86.7873C286.701 86.0733 285.526 85.6895 284.321 85.6895C283.117 85.6895 281.942 86.0733 280.961 86.7873C279.98 87.5014 279.242 88.5101 278.85 89.6726C278.506 89.5746 278.151 89.5249 277.794 89.525C276.815 89.5251 275.87 89.8951 275.143 90.5637C274.415 91.2323 273.955 92.1521 273.853 93.1457C273.751 94.1394 274.012 95.1366 274.588 95.945C275.163 96.7534 276.012 97.3158 276.97 97.5238H291.876C292.745 97.309 293.517 96.8006 294.068 96.0812C294.618 95.3618 294.913 94.4737 294.906 93.5613Z" fill="white" stroke="#263238" stroke-width="0.822238" stroke-miterlimit="10"/>
<path d="M56.3319 161.936C56.3341 160.652 56.0413 159.386 55.4771 158.239C54.913 157.091 54.0931 156.095 53.0832 155.329C52.0734 154.564 50.9018 154.05 49.6624 153.83C48.4229 153.61 47.1502 153.69 45.9462 154.062C45.1337 151.719 43.6301 149.689 41.6419 148.252C39.6537 146.815 37.2783 146.041 34.8418 146.036C32.4052 146.031 30.0269 146.796 28.0332 148.225C26.0396 149.654 24.5283 151.678 23.7067 154.018C23.0004 153.816 22.2706 153.711 21.537 153.708C19.5668 153.738 17.6757 154.504 16.2214 155.86C14.7671 157.216 13.8504 159.07 13.6446 161.069C13.4388 163.068 13.9583 165.075 15.1048 166.71C16.2513 168.345 17.9452 169.495 19.8663 169.942L50.1555 169.883C51.9097 169.457 53.4726 168.442 54.5928 167.001C55.7131 165.559 56.3257 163.775 56.3319 161.936Z" fill="white" stroke="#263238" stroke-width="0.822238" stroke-miterlimit="10"/>
<path d="M63.5426 166.016C63.5426 164.943 63.1251 163.915 62.3818 163.156C61.6385 162.398 60.6304 161.972 59.5793 161.972C59.19 161.972 58.8027 162.029 58.4293 162.142C58.0359 160.982 57.2978 159.976 56.3178 159.264C55.3378 158.552 54.1647 158.169 52.9617 158.169C51.7586 158.169 50.5855 158.552 49.6055 159.264C48.6256 159.976 47.8875 160.982 47.494 162.142C46.983 161.998 46.4489 161.96 45.9234 162.03C45.3978 162.101 44.8914 162.278 44.4341 162.551C43.9769 162.825 43.578 163.189 43.2613 163.623C42.9445 164.057 42.7162 164.551 42.5899 165.076C42.4637 165.601 42.4419 166.147 42.526 166.681C42.6102 167.215 42.7984 167.726 43.0797 168.185C43.3609 168.643 43.7294 169.04 44.1634 169.35C44.5974 169.661 45.0881 169.879 45.6064 169.993H60.5123C61.3839 169.778 62.1582 169.267 62.7087 168.544C63.2591 167.822 63.5531 166.931 63.5426 166.016Z" fill="white" stroke="#263238" stroke-width="0.822238" stroke-miterlimit="10"/>
</svg>
