<svg width="16" height="16" viewBox="0 0 16 16" fill="none" xmlns="http://www.w3.org/2000/svg">
<path d="M14.7149 4.13117C14.2311 4.35108 13.7096 4.4956 13.1692 4.56471C13.7222 4.2317 14.1494 3.7039 14.3505 3.06929C13.829 3.38346 13.2509 3.60337 12.6415 3.72904C12.1451 3.18868 11.4476 2.87451 10.6559 2.87451C9.17936 2.87451 7.97297 4.0809 7.97297 5.57004C7.97297 5.78367 7.99811 5.99102 8.04209 6.1858C5.80524 6.0727 3.81344 4.99826 2.48767 3.37089C2.25519 3.76674 2.12324 4.2317 2.12324 4.7218C2.12324 5.658 2.59449 6.4874 3.32335 6.95864C2.87723 6.95864 2.46254 6.83298 2.09811 6.64448V6.66333C2.09811 7.97025 3.02803 9.06354 4.25956 9.30859C3.86417 9.41679 3.44907 9.43185 3.04688 9.35257C3.21754 9.88821 3.55177 10.3569 4.00258 10.6928C4.45339 11.0286 4.99812 11.2147 5.56019 11.225C4.60742 11.9793 3.42639 12.387 2.21121 12.3811C1.99758 12.3811 1.78394 12.3685 1.57031 12.3434C2.76414 13.11 4.18416 13.5561 5.70471 13.5561C10.6559 13.5561 13.3766 9.44682 13.3766 5.8842C13.3766 5.76482 13.3766 5.65172 13.3703 5.53234C13.8981 5.15534 14.3505 4.67781 14.7149 4.13117Z" fill="#121416"/>
</svg>
