<svg width="61" height="60" viewBox="0 0 61 60" fill="none" xmlns="http://www.w3.org/2000/svg">
<path d="M51.7132 8.78677C46.047 3.12057 38.5132 0 30.5 0C22.4868 0 14.953 3.12057 9.28677 8.78677C3.62057 14.453 0.5 21.9868 0.5 30C0.5 38.0132 3.62057 45.547 9.28677 51.2132C14.953 56.8794 22.4868 60 30.5 60C38.5132 60 46.047 56.8794 51.7132 51.2132C57.3794 45.547 60.5 38.0132 60.5 30C60.5 21.9868 57.3794 14.453 51.7132 8.78677ZM13.5202 50.3082C14.5108 41.7847 21.8391 35.2039 30.5 35.2039C35.0657 35.2039 39.3591 36.9827 42.5886 40.2118C45.3169 42.9405 47.0376 46.5033 47.4803 50.3078C42.8798 54.1608 36.9563 56.4844 30.5 56.4844C24.0437 56.4844 18.1207 54.1612 13.5202 50.3082ZM30.5 31.5829C25.476 31.5829 21.3882 27.4951 21.3882 22.4712C21.3882 17.4467 25.476 13.3594 30.5 13.3594C35.524 13.3594 39.6118 17.4467 39.6118 22.4712C39.6118 27.4951 35.524 31.5829 30.5 31.5829ZM50.5061 47.336C49.6103 43.7242 47.7421 40.394 45.0743 37.7261C42.9136 35.5655 40.3575 33.9445 37.5697 32.9288C40.921 30.656 43.1274 26.8163 43.1274 22.4712C43.1274 15.5086 37.4626 9.84375 30.5 9.84375C23.5374 9.84375 17.8726 15.5086 17.8726 22.4712C17.8726 26.8185 20.0808 30.6596 23.4349 32.932C20.87 33.8667 18.4965 35.3119 16.4544 37.2144C13.4973 39.9683 11.4438 43.4798 10.4916 47.3332C6.45917 42.6846 4.01562 36.6225 4.01562 30C4.01562 15.3964 15.8964 3.51562 30.5 3.51562C45.1036 3.51562 56.9844 15.3964 56.9844 30C56.9844 36.6238 54.5399 42.6874 50.5061 47.336Z" fill="#D24347"/>
</svg>
