<svg width="40" height="40" viewBox="0 0 40 40" fill="none" xmlns="http://www.w3.org/2000/svg">
<path d="M19.7652 5.74817H5.04102C4.71742 5.74817 4.45508 6.01051 4.45508 6.33411C4.45508 6.6577 4.71742 6.92004 5.04102 6.92004H19.7652C20.0888 6.92004 20.3512 6.6577 20.3512 6.33411C20.3512 6.01051 20.0888 5.74817 19.7652 5.74817Z" fill="black"/>
<path d="M20.3512 10.3597C20.3512 10.0361 20.0888 9.7738 19.7652 9.7738H5.04102C4.71742 9.7738 4.45508 10.0361 4.45508 10.3597C4.45508 10.6833 4.71742 10.9457 5.04102 10.9457H19.7652C20.0888 10.9457 20.3512 10.6833 20.3512 10.3597Z" fill="black"/>
<path d="M5.04102 13.7993C4.71742 13.7993 4.45508 14.0617 4.45508 14.3853C4.45508 14.7088 4.71742 14.9712 5.04102 14.9712H12.4031C12.7267 14.9712 12.9891 14.7088 12.9891 14.3853C12.9891 14.0617 12.7267 13.7993 12.4031 13.7993H5.04102Z" fill="black"/>
<path d="M11.0751 38.8281H2.535C1.83398 38.8281 1.26367 38.2578 1.26367 37.5568V2.4432C1.26367 1.74219 1.83398 1.17188 2.535 1.17188C24.3496 1.17813 23.0238 1.15836 23.2191 1.18648V6.08617C23.2191 7.225 24.1455 8.15148 25.2844 8.15148H30.1841C30.1927 8.2118 30.1987 8.27281 30.1987 8.33492V11.7318C30.1987 12.0554 30.461 12.3177 30.7846 12.3177C31.1082 12.3177 31.3705 12.0554 31.3705 11.7318V8.33492C31.3705 7.75547 31.1698 7.20703 30.8017 6.7682C30.801 6.76734 30.8002 6.76648 30.7995 6.76562C30.7543 6.71187 24.837 0.766016 24.6042 0.570391C24.6037 0.569922 24.6032 0.569453 24.6027 0.569062C24.1638 0.200859 23.6153 0 23.0357 0H2.535C1.18781 0 0.0917969 1.09602 0.0917969 2.4432V37.5567C0.0917969 38.904 1.18781 40 2.535 40H11.0751C11.3987 40 11.661 39.7377 11.661 39.4141C11.661 39.0905 11.3987 38.8281 11.0751 38.8281ZM24.3909 6.08617V2.00047L29.37 6.97953H25.2844C24.7918 6.97953 24.3909 6.57875 24.3909 6.08617Z" fill="black"/>
<path d="M39.5587 21.8677C39.5523 21.8555 39.5453 21.8435 39.538 21.8317C39.0865 21.0868 38.268 20.5881 37.3353 20.5881H35.2816C34.6634 16.0738 30.7824 12.5845 26.1011 12.5845C21.4198 12.5845 17.5388 16.0738 16.9205 20.5881H14.8669C13.4602 20.5881 12.293 21.7341 12.293 23.162V37.4262C12.293 38.8392 13.4432 40 14.8669 40H37.3352C38.7565 40 39.9091 38.8418 39.9091 37.4262V23.162C39.9091 22.6903 39.781 22.2482 39.5587 21.8677ZM38.7373 37.4262C38.7373 37.6361 38.6896 37.8346 38.6066 38.0136L29.3259 29.7316L38.7328 23.0749C38.7397 23.1858 38.7363 31.8412 38.7373 37.4262ZM37.3353 21.7599C37.648 21.7599 37.9362 21.8642 38.1697 22.0379L35.0537 24.2429C35.2607 23.4651 35.3682 22.6595 35.3682 21.8516C35.3682 21.821 35.3673 21.7906 35.367 21.76H37.3353V21.7599ZM26.1011 13.7563C30.5648 13.7563 34.1963 17.3878 34.1963 21.8515C34.1963 23.1152 33.9131 24.3228 33.3562 25.444L28.4287 28.9309L28.0091 28.5564C27.537 28.1352 26.9608 27.897 26.3709 27.8413C26.5586 27.7437 26.687 27.5478 26.687 27.3215V26.6897C29.168 26.185 29.8406 22.5717 27.167 21.6265C27.0092 21.5707 26.848 21.5124 26.687 21.4517V18.8445C27.0807 18.9457 27.3148 19.1438 27.3357 19.1621C27.5738 19.3775 27.9413 19.3613 28.1595 19.1248C28.3788 18.8869 28.3639 18.5162 28.126 18.2968C28.0941 18.2674 27.5607 17.7868 26.687 17.6492V17.1277C26.687 16.8041 26.4247 16.5417 26.1011 16.5417C25.7775 16.5417 25.5152 16.8041 25.5152 17.1277V17.6937C25.4373 17.7113 25.3586 17.731 25.2781 17.7553C23.5639 18.2717 23.1167 20.5987 24.3628 21.576C24.6557 21.8058 25.0192 22.0163 25.5152 22.238V25.5629C25.0809 25.5283 24.8009 25.4193 24.3263 25.1088C24.0555 24.9317 23.6923 25.0076 23.5152 25.2784C23.338 25.5492 23.4139 25.9124 23.6847 26.0895C24.3988 26.5566 24.8889 26.6995 25.5152 26.7373V27.3216C25.5152 27.5478 25.6436 27.7438 25.8313 27.8414C25.2414 27.8971 24.6652 28.1352 24.1931 28.5565L23.7735 28.931L18.8459 25.4441C18.289 24.323 18.0059 23.1153 18.0059 21.8516C18.006 17.3878 21.6374 13.7563 26.1011 13.7563ZM26.687 22.6994C26.717 22.7101 26.7458 22.7206 26.7764 22.7314C28.194 23.2325 27.8602 25.0187 26.687 25.4684V22.6994ZM25.5152 20.9319C25.3542 20.8428 25.2087 20.7502 25.086 20.6539C24.622 20.29 24.7812 19.2203 25.5152 18.9142V20.9319ZM13.5956 38.0135C13.5126 37.8346 13.4649 37.636 13.4649 37.4261C13.4659 31.8411 13.4625 23.1857 13.4693 23.0749C14.4395 23.7614 21.7765 28.9532 22.8763 29.7315L13.5956 38.0135ZM16.8352 21.7599C16.8349 21.7905 16.8341 21.8209 16.8341 21.8515C16.8341 22.6595 16.9415 23.4651 17.1485 24.2428L14.0325 22.0378C14.2659 21.8641 14.5541 21.7599 14.8669 21.7599H16.8352V21.7599ZM14.867 38.8281C14.7396 38.8281 14.6168 38.8096 14.4995 38.7776C15.168 38.181 24.4709 29.8792 24.9734 29.4307C25.6163 28.857 26.5859 28.857 27.2288 29.4307L37.7028 38.7776C37.5855 38.8096 37.4627 38.8281 37.3354 38.8281H14.867Z" fill="black"/>
</svg>
