<svg width="21" height="20" viewBox="0 0 21 20" fill="none" xmlns="http://www.w3.org/2000/svg">
<path d="M11.4104 0C12.5358 0.00186 13.1061 0.00782002 13.5989 0.02249L13.793 0.0288301C14.0172 0.0368 14.2384 0.0467999 14.5051 0.0592999C15.5692 0.10847 16.2951 0.2768 16.9326 0.5243C17.5917 0.77847 18.1484 1.1218 18.7042 1.67764C19.2592 2.23347 19.6026 2.7918 19.8576 3.4493C20.1042 4.08597 20.2726 4.81264 20.3226 5.8768C20.3345 6.14347 20.3441 6.36467 20.352 6.58891L20.3583 6.783C20.3729 7.27574 20.3796 7.84613 20.3817 8.97157L20.3825 9.71717C20.3826 9.80827 20.3826 9.90227 20.3826 9.99927L20.3825 10.2814L20.3819 11.0271C20.38 12.1525 20.3741 12.7229 20.3594 13.2156L20.353 13.4097C20.3451 13.634 20.3351 13.8552 20.3226 14.1218C20.2734 15.186 20.1042 15.9118 19.8576 16.5493C19.6034 17.2085 19.2592 17.7652 18.7042 18.321C18.1484 18.876 17.5892 19.2193 16.9326 19.4743C16.2951 19.721 15.5692 19.8893 14.5051 19.9393C14.2384 19.9512 14.0172 19.9609 13.793 19.9687L13.5989 19.975C13.1061 19.9897 12.5358 19.9963 11.4104 19.9985L10.6647 19.9993C10.5736 19.9993 10.4796 19.9993 10.3826 19.9993H10.1005L9.35482 19.9986C8.22942 19.9968 7.65904 19.9908 7.16629 19.9761L6.97221 19.9698C6.74796 19.9618 6.52676 19.9518 6.2601 19.9393C5.19593 19.8902 4.47093 19.721 3.8326 19.4743C3.17426 19.2202 2.61676 18.876 2.06093 18.321C1.5051 17.7652 1.1626 17.206 0.907601 16.5493C0.660101 15.9118 0.492601 15.186 0.442601 14.1218C0.430721 13.8552 0.421031 13.634 0.413181 13.4097L0.406891 13.2156C0.392261 12.7229 0.385591 12.1525 0.383431 11.0271L0.383301 8.97157C0.385161 7.84613 0.391111 7.27574 0.405781 6.783L0.412131 6.58891C0.420101 6.36467 0.430101 6.14347 0.442601 5.8768C0.491761 4.8118 0.660101 4.0868 0.907601 3.4493C1.16176 2.79097 1.5051 2.23347 2.06093 1.67764C2.61676 1.1218 3.1751 0.7793 3.8326 0.5243C4.4701 0.2768 5.1951 0.1093 6.2601 0.0592999C6.52676 0.0474299 6.74796 0.0377401 6.97221 0.0298901L7.16629 0.0235999C7.65904 0.00895986 8.22942 0.00228994 9.35482 0.000129938L11.4104 0ZM10.3826 4.9993C7.6197 4.9993 5.3826 7.23883 5.3826 9.99927C5.3826 12.7622 7.62213 14.9993 10.3826 14.9993C13.1455 14.9993 15.3826 12.7598 15.3826 9.99927C15.3826 7.2364 13.143 4.9993 10.3826 4.9993ZM10.3826 6.9993C12.0395 6.9993 13.3826 8.34197 13.3826 9.99927C13.3826 11.6562 12.0399 12.9993 10.3826 12.9993C8.72572 12.9993 7.3826 11.6567 7.3826 9.99927C7.3826 8.34237 8.72522 6.9993 10.3826 6.9993ZM15.6326 3.4993C14.9433 3.4993 14.3826 4.05921 14.3826 4.74845C14.3826 5.4377 14.9425 5.99847 15.6326 5.99847C16.3218 5.99847 16.8826 5.43857 16.8826 4.74845C16.8826 4.05921 16.3209 3.49844 15.6326 3.4993Z" fill="#2D2F82"/>
</svg>
