<svg width="19" height="18" viewBox="0 0 19 18" fill="none" xmlns="http://www.w3.org/2000/svg">
<path d="M15.718 15.3386H13.0525V11.1618C13.0525 10.1658 13.0323 8.88413 11.6635 8.88413C10.2738 8.88413 10.0615 9.96793 10.0615 11.0883V15.3386H7.39603V6.74963H9.95653V7.92033H9.99103C10.3488 7.24533 11.2188 6.53288 12.5185 6.53288C15.2193 6.53288 15.7188 8.31043 15.7188 10.6241L15.718 15.3386ZM4.38556 5.57438C3.52756 5.57438 2.83831 4.87988 2.83831 4.02563C2.83831 3.17213 3.52831 2.47838 4.38556 2.47838C5.24056 2.47838 5.93356 3.17213 5.93356 4.02563C5.93356 4.87988 5.23981 5.57438 4.38556 5.57438ZM5.72206 15.3386H3.04906V6.74963H5.72206V15.3386ZM17.0515 -0.000366211H1.71106C0.976812 -0.000366211 0.382812 0.580134 0.382812 1.29638V16.7029C0.382812 17.4198 0.976812 17.9996 1.71106 17.9996H17.0493C17.7828 17.9996 18.3828 17.4198 18.3828 16.7029V1.29638C18.3828 0.580134 17.7828 -0.000366211 17.0493 -0.000366211H17.0515Z" fill="#2D2F82"/>
</svg>
