<svg width="33" height="32" viewBox="0 0 33 32" fill="none" xmlns="http://www.w3.org/2000/svg">
<rect x="0.384399" width="31.9991" height="31.9993" rx="15.9995" fill="white"/>
<path d="M16.6283 8C17.1624 8.00294 18.4987 8.01586 19.9185 8.07273L20.4219 8.09468C21.8514 8.16236 23.2797 8.27798 23.9881 8.4755C24.933 8.74095 25.6757 9.5155 25.9267 10.4973C26.3264 12.0564 26.3764 15.0994 26.3826 15.8358L26.3835 15.9884V15.9991C26.3835 15.9991 26.3835 16.0028 26.3835 16.0099L26.3826 16.1625C26.3764 16.8989 26.3264 19.9419 25.9267 21.501C25.6722 22.4864 24.9295 23.261 23.9881 23.5228C23.2797 23.7203 21.8514 23.8359 20.4219 23.9036L19.9185 23.9255C18.4987 23.9824 17.1624 23.9953 16.6283 23.9983L16.3939 23.9991H16.3835C16.3835 23.9991 16.38 23.9991 16.3731 23.9991L16.1389 23.9983C15.0085 23.9921 10.2821 23.941 8.77891 23.5228C7.834 23.2573 7.09132 22.4828 6.84027 21.501C6.4406 19.9419 6.39064 16.8989 6.3844 16.1625V15.8358C6.39064 15.0994 6.4406 12.0564 6.84027 10.4973C7.0948 9.51186 7.83748 8.73732 8.77891 8.4755C10.2821 8.05723 15.0085 8.00622 16.1389 8H16.6283ZM14.3835 12.4991V19.4991L20.3835 15.9991L14.3835 12.4991Z" fill="#2D2F82"/>
</svg>
